<svg width="117" height="95" viewBox="0 0 117 95" fill="none" xmlns="http://www.w3.org/2000/svg">
<path opacity="0.2" d="M105.988 28.9059C112.045 28.9059 117 33.8612 117 39.9176V67.4471C117 73.5035 112.045 78.4588 105.988 78.4588H89.4706L72.9529 94.9765V78.4588H61.9412C55.8847 78.4588 50.9294 73.5035 50.9294 67.4471V59.1882C50.9294 57.6678 52.1685 56.4531 53.677 56.2632C64.5057 54.9002 72.9529 45.5947 72.9529 34.4118V31.6588C72.9529 30.1384 74.1855 28.9059 75.7059 28.9059H105.988ZM55.0588 0C61.1153 0 66.0706 4.95529 66.0706 11.0118V38.5412C66.0706 44.5976 61.1153 49.5529 55.0588 49.5529H44.0471V66.0706L27.5294 49.5529H11.0118C4.95529 49.5529 0 44.5976 0 38.5412V11.0118C0 4.95529 4.95529 0 11.0118 0H55.0588ZM47.374 24.0829C46.7067 21.421 43.0223 21.3411 42.1692 23.8342L42.098 24.0829L41.2471 27.481L37.8489 28.3319C35.1014 29.0193 35.1013 32.9233 37.8489 33.6106L41.2471 34.4602L42.098 37.8583C42.785 40.6036 46.6869 40.6036 47.374 37.8583L48.2235 34.4602L51.6217 33.6106C54.3699 32.9236 54.3699 29.0189 51.6217 28.3319L48.2235 27.481L47.374 24.0829ZM25.4956 12.2108C24.6618 8.88249 20.0548 8.78179 18.9883 11.8989L18.8996 12.2108L17.8363 16.4585L13.5886 17.5218C10.1529 18.3807 10.1529 23.2616 13.5886 24.1205L17.8363 25.1838L18.8996 29.4315C19.7585 32.8636 24.6367 32.8636 25.4956 29.4315L26.5575 25.1838L30.8066 24.1205C34.2417 23.2613 34.2417 18.3809 30.8066 17.5218L26.5575 16.4585L25.4956 12.2108Z" fill="black"/>
</svg>
