<svg width="599" height="244" viewBox="0 0 599 244" fill="none" xmlns="http://www.w3.org/2000/svg">
<g filter="url(#filter0_dd_895_14)">
<rect x="12" y="12" width="574.872" height="219.292" rx="24.6044" fill="#04C4D9"/>
<rect x="25.3213" y="25.7056" width="548.229" height="191.88" rx="23.6238" fill="white"/>
</g>
<path d="M41.3383 76.1591V50.6175H47.8602V53.3463H44.7493V73.4303H47.8602V76.1591H41.3383ZM56.9364 71.1381C55.4265 71.1381 54.0621 70.7561 52.8432 69.992C51.6426 69.228 50.6966 68.1182 50.0053 66.6629C49.314 65.1893 48.9683 63.4065 48.9683 61.3144C48.9683 59.2223 49.314 57.4486 50.0053 55.9933C50.6966 54.5197 51.6426 53.4009 52.8432 52.6368C54.0621 51.8728 55.4265 51.4907 56.9364 51.4907C58.4646 51.4907 59.829 51.8728 61.0296 52.6368C62.2303 53.4009 63.1763 54.5197 63.8676 55.9933C64.5771 57.4486 64.9318 59.2223 64.9318 61.3144C64.9318 63.4065 64.5771 65.1893 63.8676 66.6629C63.1763 68.1182 62.2303 69.228 61.0296 69.992C59.829 70.7561 58.4646 71.1381 56.9364 71.1381ZM56.9364 68.0546C57.8278 68.0546 58.601 67.8181 59.2559 67.3451C59.9108 66.8539 60.4202 66.108 60.784 65.1075C61.1661 64.1069 61.3571 62.8426 61.3571 61.3144C61.3571 59.7681 61.1661 58.5038 60.784 57.5214C60.4202 56.5208 59.9108 55.784 59.2559 55.3111C58.601 54.8199 57.8278 54.5743 56.9364 54.5743C56.0814 54.5743 55.3173 54.8199 54.6442 55.3111C53.9893 55.784 53.4709 56.5208 53.0888 57.5214C52.725 58.5038 52.5431 59.7681 52.5431 61.3144C52.5431 62.8426 52.725 64.1069 53.0888 65.1075C53.4709 66.108 53.9893 66.8539 54.6442 67.3451C55.3173 67.8181 56.0814 68.0546 56.9364 68.0546ZM73.1142 71.1381C71.768 71.1381 70.4491 70.9471 69.1574 70.5651C67.884 70.1648 66.8107 69.6191 65.9374 68.9278L67.4383 66.1717C68.1296 66.7356 68.9664 67.1904 69.9488 67.5361C70.9493 67.8817 71.9863 68.0546 73.0596 68.0546C74.3149 68.0546 75.2972 67.7908 76.0067 67.2632C76.7344 66.7356 77.0982 66.0262 77.0982 65.1347C77.0982 64.5344 76.9436 64.0068 76.6343 63.552C76.3433 63.0972 75.8157 62.7516 75.0516 62.5151C74.3058 62.2786 73.2779 62.1604 71.9681 62.1604H67.3564L68.3388 51.7636H79.5542V54.738H69.6486L71.5042 53.0461L70.7674 60.8232L68.9118 59.1587H72.7594C74.6514 59.1587 76.1704 59.4134 77.3165 59.9227C78.4808 60.4139 79.3268 61.1052 79.8543 61.9966C80.4001 62.8698 80.673 63.8704 80.673 64.9983C80.673 66.108 80.4001 67.1268 79.8543 68.0546C79.3086 68.9824 78.4717 69.7282 77.3438 70.2922C76.2341 70.8561 74.8242 71.1381 73.1142 71.1381ZM87.9312 76.1591H81.4366V73.4303H84.5202V53.3463H81.4366V50.6175H87.9312V76.1591Z" fill="black"/>
<path d="M47.1973 125.201V118.838L47.7433 120.31L40.5974 108.582H43.1377L49.144 118.482H47.7671L53.7972 108.582H56.1475L49.0253 120.31L49.5476 118.838V125.201H47.1973ZM62.4124 125.343C61.0671 125.343 59.8801 125.066 58.8513 124.512C57.8384 123.958 57.0471 123.199 56.4773 122.233C55.9233 121.268 55.6464 120.16 55.6464 118.909C55.6464 117.659 55.9154 116.551 56.4535 115.586C57.0075 114.62 57.7593 113.869 58.7089 113.33C59.6743 112.776 60.7585 112.499 61.9614 112.499C63.18 112.499 64.2563 112.769 65.1901 113.307C66.1239 113.845 66.8519 114.604 67.3742 115.586C67.9123 116.551 68.1814 117.683 68.1814 118.981C68.1814 119.076 68.1735 119.186 68.1576 119.313C68.1576 119.44 68.1497 119.558 68.1339 119.669H57.4269V118.031H66.9469L66.021 118.601C66.0368 117.794 65.8706 117.073 65.5224 116.44C65.1742 115.807 64.6915 115.317 64.0743 114.968C63.4728 114.604 62.7685 114.422 61.9614 114.422C61.17 114.422 60.4657 114.604 59.8484 114.968C59.2312 115.317 58.7485 115.815 58.4003 116.464C58.0521 117.097 57.878 117.825 57.878 118.648V119.028C57.878 119.867 58.0679 120.619 58.4477 121.283C58.8434 121.932 59.3895 122.439 60.0858 122.803C60.7822 123.167 61.5815 123.349 62.4836 123.349C63.2275 123.349 63.9002 123.222 64.5016 122.969C65.1189 122.716 65.657 122.336 66.116 121.83L67.3742 123.301C66.8044 123.966 66.0922 124.473 65.2376 124.821C64.3987 125.169 63.457 125.343 62.4124 125.343ZM74.9547 125.343C73.9101 125.343 72.913 125.201 71.9634 124.916C71.0296 124.631 70.2936 124.283 69.7555 123.871L70.7051 122.067C71.2432 122.431 71.908 122.74 72.6993 122.993C73.4907 123.246 74.2979 123.373 75.1209 123.373C76.1813 123.373 76.941 123.222 77.4 122.922C77.8748 122.621 78.1122 122.201 78.1122 121.663C78.1122 121.268 77.9697 120.959 77.6849 120.737C77.4 120.516 77.0201 120.35 76.5453 120.239C76.0863 120.128 75.5719 120.033 75.0022 119.954C74.4324 119.859 73.8626 119.748 73.2928 119.622C72.7231 119.479 72.2008 119.289 71.726 119.052C71.2512 118.799 70.8713 118.458 70.5864 118.031C70.3015 117.588 70.1591 117.002 70.1591 116.274C70.1591 115.515 70.3728 114.85 70.8001 114.28C71.2274 113.71 71.8288 113.275 72.6044 112.974C73.3957 112.658 74.3295 112.499 75.4058 112.499C76.2288 112.499 77.0597 112.602 77.8985 112.808C78.7532 112.998 79.4496 113.275 79.9877 113.639L79.0143 115.443C78.4446 115.063 77.851 114.802 77.2338 114.66C76.6165 114.517 75.9993 114.446 75.382 114.446C74.3849 114.446 73.641 114.612 73.1504 114.945C72.6598 115.261 72.4144 115.673 72.4144 116.179C72.4144 116.607 72.5569 116.939 72.8418 117.176C73.1425 117.398 73.5223 117.572 73.9813 117.699C74.4561 117.825 74.9784 117.936 75.5482 118.031C76.118 118.11 76.6878 118.221 77.2575 118.363C77.8273 118.49 78.3417 118.672 78.8007 118.909C79.2755 119.147 79.6553 119.479 79.9402 119.907C80.2409 120.334 80.3913 120.904 80.3913 121.616C80.3913 122.376 80.1697 123.032 79.7265 123.586C79.2834 124.14 78.6582 124.576 77.851 124.892C77.0439 125.193 76.0784 125.343 74.9547 125.343ZM82.3375 128.714L83.5245 123.919L83.8331 125.296C83.3741 125.296 82.9864 125.153 82.6698 124.868C82.3691 124.583 82.2187 124.196 82.2187 123.705C82.2187 123.23 82.3691 122.842 82.6698 122.542C82.9864 122.241 83.3662 122.091 83.8094 122.091C84.2684 122.091 84.6403 122.249 84.9252 122.565C85.2101 122.866 85.3525 123.246 85.3525 123.705C85.3525 123.863 85.3367 124.022 85.305 124.18C85.2892 124.322 85.2496 124.496 85.1863 124.702C85.1388 124.892 85.0597 125.129 84.9489 125.414L83.8331 128.714H82.3375ZM94.994 125.201V112.618H97.2731V125.201H94.994ZM96.1335 110.197C95.6904 110.197 95.3184 110.054 95.0177 109.769C94.7328 109.484 94.5904 109.136 94.5904 108.725C94.5904 108.297 94.7328 107.941 95.0177 107.656C95.3184 107.372 95.6904 107.229 96.1335 107.229C96.5767 107.229 96.9407 107.372 97.2256 107.656C97.5263 107.925 97.6767 108.266 97.6767 108.677C97.6767 109.105 97.5342 109.469 97.2493 109.769C96.9644 110.054 96.5925 110.197 96.1335 110.197ZM105.945 125.343C104.679 125.343 103.698 125.003 103.002 124.322C102.305 123.642 101.957 122.668 101.957 121.402V109.864H104.236V121.307C104.236 121.988 104.402 122.51 104.735 122.874C105.083 123.238 105.573 123.42 106.207 123.42C106.919 123.42 107.512 123.222 107.987 122.827L108.699 124.465C108.351 124.765 107.932 124.987 107.441 125.129C106.966 125.272 106.468 125.343 105.945 125.343ZM99.8204 114.494V112.618H107.845V114.494H99.8204ZM124.549 112.499C125.578 112.499 126.48 112.697 127.255 113.093C128.047 113.489 128.664 114.09 129.107 114.897C129.55 115.704 129.772 116.725 129.772 117.96V125.201H127.493V118.221C127.493 117.002 127.192 116.084 126.591 115.467C126.005 114.85 125.174 114.541 124.098 114.541C123.291 114.541 122.586 114.699 121.985 115.016C121.384 115.333 120.917 115.799 120.584 116.417C120.268 117.034 120.109 117.802 120.109 118.72V125.201H117.83V107.585H120.109V116.013L119.658 115.111C120.07 114.288 120.703 113.647 121.558 113.188C122.412 112.729 123.409 112.499 124.549 112.499ZM139.593 125.343C138.247 125.343 137.06 125.066 136.031 124.512C135.018 123.958 134.227 123.199 133.657 122.233C133.103 121.268 132.826 120.16 132.826 118.909C132.826 117.659 133.096 116.551 133.634 115.586C134.188 114.62 134.939 113.869 135.889 113.33C136.854 112.776 137.939 112.499 139.141 112.499C140.36 112.499 141.436 112.769 142.37 113.307C143.304 113.845 144.032 114.604 144.554 115.586C145.092 116.551 145.361 117.683 145.361 118.981C145.361 119.076 145.354 119.186 145.338 119.313C145.338 119.44 145.33 119.558 145.314 119.669H134.607V118.031H144.127L143.201 118.601C143.217 117.794 143.051 117.073 142.703 116.44C142.354 115.807 141.872 115.317 141.254 114.968C140.653 114.604 139.949 114.422 139.141 114.422C138.35 114.422 137.646 114.604 137.029 114.968C136.411 115.317 135.929 115.815 135.58 116.464C135.232 117.097 135.058 117.825 135.058 118.648V119.028C135.058 119.867 135.248 120.619 135.628 121.283C136.024 121.932 136.57 122.439 137.266 122.803C137.962 123.167 138.762 123.349 139.664 123.349C140.408 123.349 141.08 123.222 141.682 122.969C142.299 122.716 142.837 122.336 143.296 121.83L144.554 123.301C143.985 123.966 143.272 124.473 142.418 124.821C141.579 125.169 140.637 125.343 139.593 125.343ZM148.526 125.201V107.585H150.805V125.201H148.526ZM161.828 125.343C160.783 125.343 159.826 125.106 158.955 124.631C158.101 124.14 157.412 123.42 156.89 122.471C156.383 121.521 156.13 120.334 156.13 118.909C156.13 117.485 156.376 116.298 156.866 115.348C157.373 114.399 158.053 113.686 158.908 113.212C159.778 112.737 160.752 112.499 161.828 112.499C163.062 112.499 164.155 112.769 165.104 113.307C166.054 113.845 166.806 114.597 167.36 115.562C167.913 116.512 168.19 117.627 168.19 118.909C168.19 120.191 167.913 121.315 167.36 122.281C166.806 123.246 166.054 123.998 165.104 124.536C164.155 125.074 163.062 125.343 161.828 125.343ZM155.157 129.806V112.618H157.341V116.013L157.199 118.933L157.436 121.853V129.806H155.157ZM161.638 123.349C162.445 123.349 163.165 123.167 163.798 122.803C164.447 122.439 164.954 121.924 165.318 121.26C165.698 120.579 165.888 119.796 165.888 118.909C165.888 118.007 165.698 117.232 165.318 116.583C164.954 115.918 164.447 115.404 163.798 115.04C163.165 114.676 162.445 114.494 161.638 114.494C160.847 114.494 160.127 114.676 159.478 115.04C158.845 115.404 158.338 115.918 157.958 116.583C157.594 117.232 157.412 118.007 157.412 118.909C157.412 119.796 157.594 120.579 157.958 121.26C158.338 121.924 158.845 122.439 159.478 122.803C160.127 123.167 160.847 123.349 161.638 123.349ZM174.948 125.343C173.903 125.343 172.906 125.201 171.957 124.916C171.023 124.631 170.287 124.283 169.749 123.871L170.698 122.067C171.237 122.431 171.901 122.74 172.693 122.993C173.484 123.246 174.291 123.373 175.114 123.373C176.175 123.373 176.934 123.222 177.393 122.922C177.868 122.621 178.106 122.201 178.106 121.663C178.106 121.268 177.963 120.959 177.678 120.737C177.393 120.516 177.013 120.35 176.539 120.239C176.08 120.128 175.565 120.033 174.995 119.954C174.426 119.859 173.856 119.748 173.286 119.622C172.716 119.479 172.194 119.289 171.719 119.052C171.244 118.799 170.865 118.458 170.58 118.031C170.295 117.588 170.152 117.002 170.152 116.274C170.152 115.515 170.366 114.85 170.793 114.28C171.221 113.71 171.822 113.275 172.598 112.974C173.389 112.658 174.323 112.499 175.399 112.499C176.222 112.499 177.053 112.602 177.892 112.808C178.747 112.998 179.443 113.275 179.981 113.639L179.008 115.443C178.438 115.063 177.844 114.802 177.227 114.66C176.61 114.517 175.993 114.446 175.375 114.446C174.378 114.446 173.634 114.612 173.144 114.945C172.653 115.261 172.408 115.673 172.408 116.179C172.408 116.607 172.55 116.939 172.835 117.176C173.136 117.398 173.516 117.572 173.975 117.699C174.449 117.825 174.972 117.936 175.542 118.031C176.111 118.11 176.681 118.221 177.251 118.363C177.821 118.49 178.335 118.672 178.794 118.909C179.269 119.147 179.649 119.479 179.934 119.907C180.234 120.334 180.385 120.904 180.385 121.616C180.385 122.376 180.163 123.032 179.72 123.586C179.277 124.14 178.652 124.576 177.844 124.892C177.037 125.193 176.072 125.343 174.948 125.343ZM190.155 129.949C189.553 129.949 188.968 129.846 188.398 129.64C187.828 129.45 187.337 129.165 186.926 128.786L187.899 127.076C188.216 127.377 188.564 127.606 188.944 127.765C189.324 127.923 189.727 128.002 190.155 128.002C190.709 128.002 191.168 127.86 191.532 127.575C191.896 127.29 192.236 126.783 192.552 126.055L193.336 124.322L193.573 124.037L198.511 112.618H200.743L194.642 126.459C194.278 127.345 193.866 128.042 193.407 128.548C192.964 129.055 192.473 129.411 191.935 129.616C191.397 129.838 190.804 129.949 190.155 129.949ZM193.146 125.604L187.401 112.618H189.775L194.665 123.824L193.146 125.604ZM207.911 125.343C206.645 125.343 205.521 125.066 204.54 124.512C203.559 123.958 202.783 123.199 202.214 122.233C201.644 121.252 201.359 120.144 201.359 118.909C201.359 117.659 201.644 116.551 202.214 115.586C202.783 114.62 203.559 113.869 204.54 113.33C205.521 112.776 206.645 112.499 207.911 112.499C209.162 112.499 210.277 112.776 211.259 113.33C212.256 113.869 213.031 114.62 213.585 115.586C214.155 116.535 214.44 117.643 214.44 118.909C214.44 120.16 214.155 121.268 213.585 122.233C213.031 123.199 212.256 123.958 211.259 124.512C210.277 125.066 209.162 125.343 207.911 125.343ZM207.911 123.349C208.718 123.349 209.439 123.167 210.072 122.803C210.721 122.439 211.227 121.924 211.591 121.26C211.955 120.579 212.137 119.796 212.137 118.909C212.137 118.007 211.955 117.232 211.591 116.583C211.227 115.918 210.721 115.404 210.072 115.04C209.439 114.676 208.718 114.494 207.911 114.494C207.104 114.494 206.384 114.676 205.751 115.04C205.118 115.404 204.611 115.918 204.231 116.583C203.852 117.232 203.662 118.007 203.662 118.909C203.662 119.796 203.852 120.579 204.231 121.26C204.611 121.924 205.118 122.439 205.751 122.803C206.384 123.167 207.104 123.349 207.911 123.349ZM222.886 125.343C221.81 125.343 220.86 125.145 220.037 124.75C219.23 124.354 218.597 123.753 218.138 122.945C217.695 122.122 217.473 121.094 217.473 119.859V112.618H219.752V119.598C219.752 120.832 220.045 121.758 220.631 122.376C221.232 122.993 222.071 123.301 223.147 123.301C223.939 123.301 224.627 123.143 225.213 122.827C225.798 122.494 226.249 122.019 226.566 121.402C226.882 120.769 227.041 120.009 227.041 119.123V112.618H229.32V125.201H227.159V121.806L227.515 122.708C227.104 123.547 226.487 124.196 225.664 124.655C224.841 125.114 223.915 125.343 222.886 125.343ZM240.034 125.201V112.618H242.218V116.037L242.005 115.182C242.353 114.312 242.938 113.647 243.761 113.188C244.584 112.729 245.597 112.499 246.8 112.499V114.707C246.705 114.692 246.61 114.684 246.515 114.684C246.436 114.684 246.357 114.684 246.278 114.684C245.059 114.684 244.094 115.048 243.382 115.776C242.669 116.504 242.313 117.556 242.313 118.933V125.201H240.034ZM255.096 125.343C253.751 125.343 252.564 125.066 251.535 124.512C250.522 123.958 249.731 123.199 249.161 122.233C248.607 121.268 248.33 120.16 248.33 118.909C248.33 117.659 248.599 116.551 249.137 115.586C249.691 114.62 250.443 113.869 251.393 113.33C252.358 112.776 253.442 112.499 254.645 112.499C255.864 112.499 256.94 112.769 257.874 113.307C258.807 113.845 259.536 114.604 260.058 115.586C260.596 116.551 260.865 117.683 260.865 118.981C260.865 119.076 260.857 119.186 260.841 119.313C260.841 119.44 260.833 119.558 260.818 119.669H250.111V118.031H259.63L258.705 118.601C258.72 117.794 258.554 117.073 258.206 116.44C257.858 115.807 257.375 115.317 256.758 114.968C256.156 114.604 255.452 114.422 254.645 114.422C253.854 114.422 253.149 114.604 252.532 114.968C251.915 115.317 251.432 115.815 251.084 116.464C250.736 117.097 250.562 117.825 250.562 118.648V119.028C250.562 119.867 250.752 120.619 251.131 121.283C251.527 121.932 252.073 122.439 252.769 122.803C253.466 123.167 254.265 123.349 255.167 123.349C255.911 123.349 256.584 123.222 257.185 122.969C257.802 122.716 258.341 122.336 258.8 121.83L260.058 123.301C259.488 123.966 258.776 124.473 257.921 124.821C257.082 125.169 256.141 125.343 255.096 125.343ZM269.514 125.343C268.232 125.343 267.084 125.066 266.071 124.512C265.074 123.958 264.291 123.199 263.721 122.233C263.151 121.268 262.866 120.16 262.866 118.909C262.866 117.659 263.151 116.551 263.721 115.586C264.291 114.62 265.074 113.869 266.071 113.33C267.084 112.776 268.232 112.499 269.514 112.499C270.653 112.499 271.666 112.729 272.553 113.188C273.455 113.631 274.151 114.296 274.642 115.182L272.909 116.298C272.497 115.681 271.991 115.23 271.389 114.945C270.804 114.644 270.171 114.494 269.49 114.494C268.667 114.494 267.931 114.676 267.282 115.04C266.633 115.404 266.119 115.918 265.739 116.583C265.359 117.232 265.169 118.007 265.169 118.909C265.169 119.812 265.359 120.595 265.739 121.26C266.119 121.924 266.633 122.439 267.282 122.803C267.931 123.167 268.667 123.349 269.49 123.349C270.171 123.349 270.804 123.206 271.389 122.922C271.991 122.621 272.497 122.162 272.909 121.545L274.642 122.637C274.151 123.507 273.455 124.18 272.553 124.655C271.666 125.114 270.653 125.343 269.514 125.343ZM282.796 125.343C281.53 125.343 280.406 125.066 279.425 124.512C278.444 123.958 277.668 123.199 277.098 122.233C276.529 121.252 276.244 120.144 276.244 118.909C276.244 117.659 276.529 116.551 277.098 115.586C277.668 114.62 278.444 113.869 279.425 113.33C280.406 112.776 281.53 112.499 282.796 112.499C284.046 112.499 285.162 112.776 286.144 113.33C287.141 113.869 287.916 114.62 288.47 115.586C289.04 116.535 289.325 117.643 289.325 118.909C289.325 120.16 289.04 121.268 288.47 122.233C287.916 123.199 287.141 123.958 286.144 124.512C285.162 125.066 284.046 125.343 282.796 125.343ZM282.796 123.349C283.603 123.349 284.323 123.167 284.956 122.803C285.605 122.439 286.112 121.924 286.476 121.26C286.84 120.579 287.022 119.796 287.022 118.909C287.022 118.007 286.84 117.232 286.476 116.583C286.112 115.918 285.605 115.404 284.956 115.04C284.323 114.676 283.603 114.494 282.796 114.494C281.989 114.494 281.269 114.676 280.636 115.04C280.003 115.404 279.496 115.918 279.116 116.583C278.736 117.232 278.547 118.007 278.547 118.909C278.547 119.796 278.736 120.579 279.116 121.26C279.496 121.924 280.003 122.439 280.636 122.803C281.269 123.167 281.989 123.349 282.796 123.349ZM297.985 129.949C296.829 129.949 295.705 129.783 294.613 129.45C293.537 129.134 292.659 128.675 291.978 128.073L293.07 126.316C293.656 126.823 294.376 127.219 295.231 127.504C296.085 127.804 296.98 127.955 297.913 127.955C299.401 127.955 300.493 127.606 301.19 126.91C301.886 126.214 302.234 125.153 302.234 123.729V121.07L302.471 118.577L302.353 116.061V112.618H304.513V123.491C304.513 125.707 303.959 127.337 302.851 128.382C301.743 129.427 300.121 129.949 297.985 129.949ZM297.7 124.678C296.481 124.678 295.389 124.425 294.423 123.919C293.474 123.396 292.714 122.676 292.144 121.758C291.59 120.84 291.313 119.78 291.313 118.577C291.313 117.358 291.59 116.298 292.144 115.396C292.714 114.478 293.474 113.766 294.423 113.259C295.389 112.753 296.481 112.499 297.7 112.499C298.776 112.499 299.757 112.721 300.643 113.164C301.53 113.592 302.234 114.256 302.756 115.158C303.295 116.061 303.564 117.2 303.564 118.577C303.564 119.938 303.295 121.07 302.756 121.972C302.234 122.874 301.53 123.555 300.643 124.014C299.757 124.457 298.776 124.678 297.7 124.678ZM297.961 122.684C298.8 122.684 299.543 122.51 300.192 122.162C300.841 121.814 301.348 121.331 301.712 120.714C302.092 120.096 302.282 119.384 302.282 118.577C302.282 117.77 302.092 117.058 301.712 116.44C301.348 115.823 300.841 115.348 300.192 115.016C299.543 114.668 298.8 114.494 297.961 114.494C297.122 114.494 296.37 114.668 295.705 115.016C295.057 115.348 294.542 115.823 294.162 116.44C293.798 117.058 293.616 117.77 293.616 118.577C293.616 119.384 293.798 120.096 294.162 120.714C294.542 121.331 295.057 121.814 295.705 122.162C296.37 122.51 297.122 122.684 297.961 122.684ZM315.586 112.499C316.615 112.499 317.517 112.697 318.293 113.093C319.084 113.489 319.702 114.09 320.145 114.897C320.588 115.704 320.809 116.725 320.809 117.96V125.201H318.53V118.221C318.53 117.002 318.23 116.084 317.628 115.467C317.043 114.85 316.212 114.541 315.135 114.541C314.328 114.541 313.624 114.699 313.023 115.016C312.421 115.333 311.954 115.799 311.622 116.417C311.305 117.034 311.147 117.802 311.147 118.72V125.201H308.868V112.618H311.052V116.013L310.696 115.111C311.107 114.288 311.741 113.647 312.595 113.188C313.45 112.729 314.447 112.499 315.586 112.499ZM325.027 125.201V112.618H327.306V125.201H325.027ZM326.167 110.197C325.724 110.197 325.352 110.054 325.051 109.769C324.766 109.484 324.624 109.136 324.624 108.725C324.624 108.297 324.766 107.941 325.051 107.656C325.352 107.372 325.724 107.229 326.167 107.229C326.61 107.229 326.974 107.372 327.259 107.656C327.56 107.925 327.71 108.266 327.71 108.677C327.71 109.105 327.568 109.469 327.283 109.769C326.998 110.054 326.626 110.197 326.167 110.197ZM330.447 125.201V123.729L338.519 113.71L338.97 114.494H330.59V112.618H340.798V114.114L332.726 124.109L332.204 123.325H340.988V125.201H330.447ZM349.456 125.343C348.11 125.343 346.923 125.066 345.894 124.512C344.882 123.958 344.09 123.199 343.52 122.233C342.966 121.268 342.69 120.16 342.69 118.909C342.69 117.659 342.959 116.551 343.497 115.586C344.051 114.62 344.802 113.869 345.752 113.33C346.718 112.776 347.802 112.499 349.005 112.499C350.223 112.499 351.299 112.769 352.233 113.307C353.167 113.845 353.895 114.604 354.417 115.586C354.955 116.551 355.225 117.683 355.225 118.981C355.225 119.076 355.217 119.186 355.201 119.313C355.201 119.44 355.193 119.558 355.177 119.669H344.47V118.031H353.99L353.064 118.601C353.08 117.794 352.914 117.073 352.566 116.44C352.217 115.807 351.735 115.317 351.117 114.968C350.516 114.604 349.812 114.422 349.005 114.422C348.213 114.422 347.509 114.604 346.892 114.968C346.274 115.317 345.792 115.815 345.443 116.464C345.095 117.097 344.921 117.825 344.921 118.648V119.028C344.921 119.867 345.111 120.619 345.491 121.283C345.887 121.932 346.433 122.439 347.129 122.803C347.825 123.167 348.625 123.349 349.527 123.349C350.271 123.349 350.943 123.222 351.545 122.969C352.162 122.716 352.7 122.336 353.159 121.83L354.417 123.301C353.848 123.966 353.135 124.473 352.281 124.821C351.442 125.169 350.5 125.343 349.456 125.343ZM371.436 125.343C370.391 125.343 369.434 125.106 368.563 124.631C367.709 124.14 367.02 123.42 366.498 122.471C365.992 121.521 365.738 120.334 365.738 118.909C365.738 117.485 365.984 116.298 366.474 115.348C366.981 114.399 367.661 113.686 368.516 113.212C369.386 112.737 370.36 112.499 371.436 112.499C372.671 112.499 373.763 112.769 374.712 113.307C375.662 113.845 376.414 114.597 376.968 115.562C377.522 116.512 377.799 117.627 377.799 118.909C377.799 120.191 377.522 121.315 376.968 122.281C376.414 123.246 375.662 123.998 374.712 124.536C373.763 125.074 372.671 125.343 371.436 125.343ZM364.765 129.806V112.618H366.949V116.013L366.807 118.933L367.044 121.853V129.806H364.765ZM371.246 123.349C372.053 123.349 372.773 123.167 373.407 122.803C374.055 122.439 374.562 121.924 374.926 121.26C375.306 120.579 375.496 119.796 375.496 118.909C375.496 118.007 375.306 117.232 374.926 116.583C374.562 115.918 374.055 115.404 373.407 115.04C372.773 114.676 372.053 114.494 371.246 114.494C370.455 114.494 369.735 114.676 369.086 115.04C368.453 115.404 367.946 115.918 367.566 116.583C367.202 117.232 367.02 118.007 367.02 118.909C367.02 119.796 367.202 120.579 367.566 121.26C367.946 121.924 368.453 122.439 369.086 122.803C369.735 123.167 370.455 123.349 371.246 123.349ZM388.642 125.201V122.542L388.524 122.043V117.509C388.524 116.543 388.239 115.799 387.669 115.277C387.115 114.739 386.276 114.47 385.152 114.47C384.408 114.47 383.68 114.597 382.968 114.85C382.256 115.087 381.655 115.412 381.164 115.823L380.214 114.114C380.863 113.592 381.639 113.196 382.541 112.927C383.459 112.642 384.416 112.499 385.414 112.499C387.139 112.499 388.468 112.919 389.402 113.758C390.336 114.597 390.803 115.879 390.803 117.604V125.201H388.642ZM384.511 125.343C383.578 125.343 382.755 125.185 382.042 124.868C381.346 124.552 380.808 124.117 380.428 123.563C380.048 122.993 379.858 122.352 379.858 121.64C379.858 120.959 380.016 120.342 380.333 119.788C380.665 119.234 381.196 118.791 381.924 118.458C382.668 118.126 383.665 117.96 384.915 117.96H388.903V119.598H385.01C383.87 119.598 383.103 119.788 382.707 120.168C382.311 120.548 382.114 121.007 382.114 121.545C382.114 122.162 382.359 122.66 382.85 123.04C383.34 123.404 384.021 123.586 384.891 123.586C385.746 123.586 386.49 123.396 387.123 123.017C387.772 122.637 388.239 122.083 388.524 121.355L388.975 122.922C388.674 123.665 388.144 124.259 387.384 124.702C386.624 125.129 385.667 125.343 384.511 125.343ZM399.341 125.343C398.075 125.343 397.094 125.003 396.397 124.322C395.701 123.642 395.353 122.668 395.353 121.402V109.864H397.632V121.307C397.632 121.988 397.798 122.51 398.13 122.874C398.478 123.238 398.969 123.42 399.602 123.42C400.314 123.42 400.908 123.222 401.383 122.827L402.095 124.465C401.747 124.765 401.327 124.987 400.837 125.129C400.362 125.272 399.863 125.343 399.341 125.343ZM393.216 114.494V112.618H401.24V114.494H393.216ZM408.87 125.343C407.604 125.343 406.622 125.003 405.926 124.322C405.23 123.642 404.881 122.668 404.881 121.402V109.864H407.16V121.307C407.16 121.988 407.327 122.51 407.659 122.874C408.007 123.238 408.498 123.42 409.131 123.42C409.843 123.42 410.437 123.222 410.911 122.827L411.624 124.465C411.275 124.765 410.856 124.987 410.365 125.129C409.891 125.272 409.392 125.343 408.87 125.343ZM402.745 114.494V112.618H410.769V114.494H402.745ZM419.565 125.343C418.219 125.343 417.032 125.066 416.003 124.512C414.991 123.958 414.199 123.199 413.629 122.233C413.075 121.268 412.798 120.16 412.798 118.909C412.798 117.659 413.068 116.551 413.606 115.586C414.16 114.62 414.911 113.869 415.861 113.33C416.826 112.776 417.911 112.499 419.113 112.499C420.332 112.499 421.408 112.769 422.342 113.307C423.276 113.845 424.004 114.604 424.526 115.586C425.064 116.551 425.333 117.683 425.333 118.981C425.333 119.076 425.326 119.186 425.31 119.313C425.31 119.44 425.302 119.558 425.286 119.669H414.579V118.031H424.099L423.173 118.601C423.189 117.794 423.023 117.073 422.675 116.44C422.326 115.807 421.844 115.317 421.226 114.968C420.625 114.604 419.921 114.422 419.113 114.422C418.322 114.422 417.618 114.604 417.001 114.968C416.383 115.317 415.901 115.815 415.552 116.464C415.204 117.097 415.03 117.825 415.03 118.648V119.028C415.03 119.867 415.22 120.619 415.6 121.283C415.996 121.932 416.542 122.439 417.238 122.803C417.934 123.167 418.734 123.349 419.636 123.349C420.38 123.349 421.052 123.222 421.654 122.969C422.271 122.716 422.809 122.336 423.268 121.83L424.526 123.301C423.957 123.966 423.244 124.473 422.39 124.821C421.551 125.169 420.609 125.343 419.565 125.343ZM428.498 125.201V112.618H430.682V116.037L430.469 115.182C430.817 114.312 431.402 113.647 432.225 113.188C433.049 112.729 434.061 112.499 435.264 112.499V114.707C435.169 114.692 435.074 114.684 434.979 114.684C434.9 114.684 434.821 114.684 434.742 114.684C433.523 114.684 432.558 115.048 431.846 115.776C431.133 116.504 430.777 117.556 430.777 118.933V125.201H428.498ZM444.792 112.499C445.821 112.499 446.723 112.697 447.498 113.093C448.29 113.489 448.907 114.09 449.35 114.897C449.793 115.704 450.015 116.725 450.015 117.96V125.201H447.736V118.221C447.736 117.002 447.435 116.084 446.834 115.467C446.248 114.85 445.417 114.541 444.341 114.541C443.534 114.541 442.829 114.699 442.228 115.016C441.626 115.333 441.16 115.799 440.827 116.417C440.511 117.034 440.352 117.802 440.352 118.72V125.201H438.073V112.618H440.257V116.013L439.901 115.111C440.313 114.288 440.946 113.647 441.801 113.188C442.655 112.729 443.652 112.499 444.792 112.499ZM457.841 125.343C456.797 125.343 455.8 125.201 454.85 124.916C453.916 124.631 453.18 124.283 452.642 123.871L453.592 122.067C454.13 122.431 454.794 122.74 455.586 122.993C456.377 123.246 457.184 123.373 458.007 123.373C459.068 123.373 459.827 123.222 460.286 122.922C460.761 122.621 460.999 122.201 460.999 121.663C460.999 121.268 460.856 120.959 460.571 120.737C460.286 120.516 459.907 120.35 459.432 120.239C458.973 120.128 458.458 120.033 457.889 119.954C457.319 119.859 456.749 119.748 456.179 119.622C455.61 119.479 455.087 119.289 454.612 119.052C454.138 118.799 453.758 118.458 453.473 118.031C453.188 117.588 453.046 117.002 453.046 116.274C453.046 115.515 453.259 114.85 453.687 114.28C454.114 113.71 454.715 113.275 455.491 112.974C456.282 112.658 457.216 112.499 458.292 112.499C459.115 112.499 459.946 112.602 460.785 112.808C461.64 112.998 462.336 113.275 462.874 113.639L461.901 115.443C461.331 115.063 460.738 114.802 460.12 114.66C459.503 114.517 458.886 114.446 458.269 114.446C457.271 114.446 456.528 114.612 456.037 114.945C455.546 115.261 455.301 115.673 455.301 116.179C455.301 116.607 455.443 116.939 455.728 117.176C456.029 117.398 456.409 117.572 456.868 117.699C457.343 117.825 457.865 117.936 458.435 118.031C459.004 118.11 459.574 118.221 460.144 118.363C460.714 118.49 461.228 118.672 461.687 118.909C462.162 119.147 462.542 119.479 462.827 119.907C463.127 120.334 463.278 120.904 463.278 121.616C463.278 122.376 463.056 123.032 462.613 123.586C462.17 124.14 461.545 124.576 460.738 124.892C459.93 125.193 458.965 125.343 457.841 125.343ZM480.312 125.201V122.542L480.194 122.043V117.509C480.194 116.543 479.909 115.799 479.339 115.277C478.785 114.739 477.946 114.47 476.823 114.47C476.079 114.47 475.351 114.597 474.638 114.85C473.926 115.087 473.325 115.412 472.834 115.823L471.885 114.114C472.533 113.592 473.309 113.196 474.211 112.927C475.129 112.642 476.087 112.499 477.084 112.499C478.809 112.499 480.138 112.919 481.072 113.758C482.006 114.597 482.473 115.879 482.473 117.604V125.201H480.312ZM476.182 125.343C475.248 125.343 474.425 125.185 473.713 124.868C473.016 124.552 472.478 124.117 472.098 123.563C471.718 122.993 471.528 122.352 471.528 121.64C471.528 120.959 471.687 120.342 472.003 119.788C472.336 119.234 472.866 118.791 473.594 118.458C474.338 118.126 475.335 117.96 476.585 117.96H480.574V119.598H476.68C475.541 119.598 474.773 119.788 474.377 120.168C473.982 120.548 473.784 121.007 473.784 121.545C473.784 122.162 474.029 122.66 474.52 123.04C475.01 123.404 475.691 123.586 476.561 123.586C477.416 123.586 478.16 123.396 478.793 123.017C479.442 122.637 479.909 122.083 480.194 121.355L480.645 122.922C480.344 123.665 479.814 124.259 479.054 124.702C478.294 125.129 477.337 125.343 476.182 125.343ZM493.409 112.499C494.438 112.499 495.34 112.697 496.115 113.093C496.907 113.489 497.524 114.09 497.967 114.897C498.41 115.704 498.632 116.725 498.632 117.96V125.201H496.353V118.221C496.353 117.002 496.052 116.084 495.451 115.467C494.865 114.85 494.034 114.541 492.958 114.541C492.151 114.541 491.447 114.699 490.845 115.016C490.244 115.333 489.777 115.799 489.444 116.417C489.128 117.034 488.97 117.802 488.97 118.72V125.201H486.69V112.618H488.875V116.013L488.519 115.111C488.93 114.288 489.563 113.647 490.418 113.188C491.272 112.729 492.27 112.499 493.409 112.499ZM508.049 125.343C506.83 125.343 505.738 125.074 504.773 124.536C503.823 123.998 503.071 123.246 502.517 122.281C501.964 121.315 501.687 120.191 501.687 118.909C501.687 117.627 501.964 116.512 502.517 115.562C503.071 114.597 503.823 113.845 504.773 113.307C505.738 112.769 506.83 112.499 508.049 112.499C509.109 112.499 510.067 112.737 510.922 113.212C511.776 113.686 512.457 114.399 512.963 115.348C513.486 116.298 513.747 117.485 513.747 118.909C513.747 120.334 513.494 121.521 512.987 122.471C512.496 123.42 511.824 124.14 510.969 124.631C510.114 125.106 509.141 125.343 508.049 125.343ZM508.239 123.349C509.03 123.349 509.743 123.167 510.376 122.803C511.025 122.439 511.531 121.924 511.895 121.26C512.275 120.579 512.465 119.796 512.465 118.909C512.465 118.007 512.275 117.232 511.895 116.583C511.531 115.918 511.025 115.404 510.376 115.04C509.743 114.676 509.03 114.494 508.239 114.494C507.432 114.494 506.712 114.676 506.079 115.04C505.445 115.404 504.939 115.918 504.559 116.583C504.179 117.232 503.989 118.007 503.989 118.909C503.989 119.796 504.179 120.579 504.559 121.26C504.939 121.924 505.445 122.439 506.079 122.803C506.712 123.167 507.432 123.349 508.239 123.349ZM512.536 125.201V121.806L512.678 118.886L512.441 115.966V107.585H514.72V125.201H512.536ZM49.5239 151.343C48.4476 151.343 47.4743 151.106 46.6038 150.631C45.7491 150.14 45.0686 149.42 44.5621 148.471C44.0715 147.521 43.8261 146.334 43.8261 144.909C43.8261 143.485 44.0794 142.298 44.5858 141.348C45.1081 140.399 45.7966 139.686 46.6513 139.212C47.5218 138.737 48.4793 138.499 49.5239 138.499C50.7584 138.499 51.8505 138.769 52.8001 139.307C53.7497 139.845 54.5015 140.597 55.0554 141.562C55.6094 142.512 55.8864 143.627 55.8864 144.909C55.8864 146.191 55.6094 147.315 55.0554 148.281C54.5015 149.246 53.7497 149.998 52.8001 150.536C51.8505 151.074 50.7584 151.343 49.5239 151.343ZM42.8528 151.201V133.585H45.1319V141.966L44.8945 144.886L45.0369 147.806V151.201H42.8528ZM49.334 149.349C50.1411 149.349 50.8613 149.167 51.4944 148.803C52.1433 148.439 52.6497 147.924 53.0137 147.26C53.3936 146.579 53.5835 145.796 53.5835 144.909C53.5835 144.007 53.3936 143.232 53.0137 142.583C52.6497 141.918 52.1433 141.404 51.4944 141.04C50.8613 140.676 50.1411 140.494 49.334 140.494C48.5426 140.494 47.8225 140.676 47.1736 141.04C46.5405 141.404 46.034 141.918 45.6542 142.583C45.2901 143.232 45.1081 144.007 45.1081 144.909C45.1081 145.796 45.2901 146.579 45.6542 147.26C46.034 147.924 46.5405 148.439 47.1736 148.803C47.8225 149.167 48.5426 149.349 49.334 149.349ZM64.3295 151.343C63.2532 151.343 62.3036 151.145 61.4806 150.75C60.6734 150.354 60.0403 149.753 59.5814 148.945C59.1382 148.122 58.9166 147.094 58.9166 145.859V138.618H61.1957V145.598C61.1957 146.832 61.4885 147.758 62.0741 148.376C62.6755 148.993 63.5144 149.301 64.5906 149.301C65.382 149.301 66.0705 149.143 66.6561 148.827C67.2417 148.494 67.6927 148.019 68.0093 147.402C68.3258 146.769 68.4841 146.009 68.4841 145.123V138.618H70.7632V151.201H68.6028V147.806L68.9589 148.708C68.5474 149.547 67.9301 150.196 67.1071 150.655C66.2841 151.114 65.3582 151.343 64.3295 151.343ZM75.102 151.201V138.618H77.381V151.201H75.102ZM76.2415 136.197C75.7983 136.197 75.4264 136.054 75.1257 135.769C74.8408 135.484 74.6984 135.136 74.6984 134.725C74.6984 134.297 74.8408 133.941 75.1257 133.656C75.4264 133.372 75.7983 133.229 76.2415 133.229C76.6847 133.229 77.0487 133.372 77.3336 133.656C77.6343 133.925 77.7846 134.266 77.7846 134.677C77.7846 135.105 77.6422 135.469 77.3573 135.769C77.0724 136.054 76.7005 136.197 76.2415 136.197ZM81.7326 151.201V133.585H84.0117V151.201H81.7326ZM93.5625 151.343C92.3438 151.343 91.2517 151.074 90.2863 150.536C89.3367 149.998 88.5849 149.246 88.0309 148.281C87.477 147.315 87.2 146.191 87.2 144.909C87.2 143.627 87.477 142.512 88.0309 141.562C88.5849 140.597 89.3367 139.845 90.2863 139.307C91.2517 138.769 92.3438 138.499 93.5625 138.499C94.6229 138.499 95.5804 138.737 96.4351 139.212C97.2898 139.686 97.9703 140.399 98.4768 141.348C98.9991 142.298 99.2602 143.485 99.2602 144.909C99.2602 146.334 99.007 147.521 98.5005 148.471C98.0099 149.42 97.3372 150.14 96.4826 150.631C95.6279 151.106 94.6546 151.343 93.5625 151.343ZM93.7524 149.349C94.5438 149.349 95.256 149.167 95.8891 148.803C96.538 148.439 97.0444 147.924 97.4085 147.26C97.7883 146.579 97.9782 145.796 97.9782 144.909C97.9782 144.007 97.7883 143.232 97.4085 142.583C97.0444 141.918 96.538 141.404 95.8891 141.04C95.256 140.676 94.5438 140.494 93.7524 140.494C92.9452 140.494 92.2251 140.676 91.592 141.04C90.9589 141.404 90.4525 141.918 90.0726 142.583C89.6928 143.232 89.5028 144.007 89.5028 144.909C89.5028 145.796 89.6928 146.579 90.0726 147.26C90.4525 147.924 90.9589 148.439 91.592 148.803C92.2251 149.167 92.9452 149.349 93.7524 149.349ZM98.0495 151.201V147.806L98.1919 144.886L97.9545 141.966V133.585H100.234V151.201H98.0495ZM117.64 138.499C118.669 138.499 119.571 138.697 120.347 139.093C121.138 139.489 121.755 140.09 122.198 140.897C122.641 141.704 122.863 142.725 122.863 143.96V151.201H120.584V144.221C120.584 143.002 120.283 142.084 119.682 141.467C119.096 140.85 118.265 140.541 117.189 140.541C116.382 140.541 115.678 140.699 115.076 141.016C114.475 141.333 114.008 141.799 113.675 142.417C113.359 143.034 113.201 143.802 113.201 144.72V151.201H110.921V133.585H113.201V142.013L112.75 141.111C113.161 140.288 113.794 139.647 114.649 139.188C115.503 138.729 116.501 138.499 117.64 138.499ZM132.684 151.343C131.338 151.343 130.151 151.066 129.123 150.512C128.11 149.958 127.318 149.199 126.748 148.233C126.195 147.268 125.918 146.16 125.918 144.909C125.918 143.659 126.187 142.551 126.725 141.586C127.279 140.62 128.03 139.869 128.98 139.33C129.946 138.776 131.03 138.499 132.233 138.499C133.451 138.499 134.527 138.769 135.461 139.307C136.395 139.845 137.123 140.604 137.645 141.586C138.184 142.551 138.453 143.683 138.453 144.981C138.453 145.076 138.445 145.186 138.429 145.313C138.429 145.44 138.421 145.558 138.405 145.669H127.698V144.031H137.218L136.292 144.601C136.308 143.794 136.142 143.073 135.794 142.44C135.445 141.807 134.963 141.317 134.345 140.968C133.744 140.604 133.04 140.422 132.233 140.422C131.441 140.422 130.737 140.604 130.12 140.968C129.502 141.317 129.02 141.815 128.671 142.464C128.323 143.097 128.149 143.825 128.149 144.648V145.028C128.149 145.867 128.339 146.619 128.719 147.283C129.115 147.932 129.661 148.439 130.357 148.803C131.053 149.167 131.853 149.349 132.755 149.349C133.499 149.349 134.171 149.222 134.773 148.969C135.39 148.716 135.928 148.336 136.387 147.83L137.645 149.301C137.076 149.966 136.363 150.473 135.509 150.821C134.67 151.169 133.728 151.343 132.684 151.343ZM149.08 151.201V148.542L148.962 148.043V143.509C148.962 142.543 148.677 141.799 148.107 141.277C147.553 140.739 146.714 140.47 145.59 140.47C144.846 140.47 144.118 140.597 143.406 140.85C142.694 141.087 142.093 141.412 141.602 141.823L140.652 140.114C141.301 139.592 142.077 139.196 142.979 138.927C143.897 138.642 144.854 138.499 145.851 138.499C147.577 138.499 148.906 138.919 149.84 139.758C150.774 140.597 151.241 141.879 151.241 143.604V151.201H149.08ZM144.949 151.343C144.016 151.343 143.193 151.185 142.48 150.868C141.784 150.552 141.246 150.117 140.866 149.563C140.486 148.993 140.296 148.352 140.296 147.64C140.296 146.959 140.454 146.342 140.771 145.788C141.103 145.234 141.634 144.791 142.362 144.458C143.106 144.126 144.103 143.96 145.353 143.96H149.341V145.598H145.448C144.308 145.598 143.541 145.788 143.145 146.168C142.749 146.548 142.552 147.007 142.552 147.545C142.552 148.162 142.797 148.66 143.288 149.04C143.778 149.404 144.459 149.586 145.329 149.586C146.184 149.586 146.928 149.396 147.561 149.017C148.21 148.637 148.677 148.083 148.962 147.355L149.413 148.922C149.112 149.665 148.582 150.259 147.822 150.702C147.062 151.129 146.105 151.343 144.949 151.343ZM155.458 151.201V133.585H157.737V151.201H155.458ZM166.734 151.343C165.468 151.343 164.487 151.003 163.79 150.322C163.094 149.642 162.746 148.668 162.746 147.402V135.864H165.025V147.307C165.025 147.988 165.191 148.51 165.524 148.874C165.872 149.238 166.362 149.42 166.995 149.42C167.708 149.42 168.301 149.222 168.776 148.827L169.488 150.465C169.14 150.765 168.721 150.987 168.23 151.129C167.755 151.272 167.257 151.343 166.734 151.343ZM160.609 140.494V138.618H168.634V140.494H160.609ZM178.962 138.499C179.991 138.499 180.893 138.697 181.669 139.093C182.46 139.489 183.077 140.09 183.52 140.897C183.964 141.704 184.185 142.725 184.185 143.96V151.201H181.906V144.221C181.906 143.002 181.605 142.084 181.004 141.467C180.418 140.85 179.587 140.541 178.511 140.541C177.704 140.541 177 140.699 176.398 141.016C175.797 141.333 175.33 141.799 174.998 142.417C174.681 143.034 174.523 143.802 174.523 144.72V151.201H172.244V133.585H174.523V142.013L174.072 141.111C174.483 140.288 175.116 139.647 175.971 139.188C176.826 138.729 177.823 138.499 178.962 138.499ZM188.403 151.201V138.618H190.682V151.201H188.403ZM189.543 136.197C189.099 136.197 188.727 136.054 188.427 135.769C188.142 135.484 187.999 135.136 187.999 134.725C187.999 134.297 188.142 133.941 188.427 133.656C188.727 133.372 189.099 133.229 189.543 133.229C189.986 133.229 190.35 133.372 190.635 133.656C190.935 133.925 191.086 134.266 191.086 134.677C191.086 135.105 190.943 135.469 190.658 135.769C190.373 136.054 190.002 136.197 189.543 136.197ZM200.636 151.343C199.291 151.343 198.104 151.066 197.075 150.512C196.062 149.958 195.271 149.199 194.701 148.233C194.147 147.268 193.87 146.16 193.87 144.909C193.87 143.659 194.139 142.551 194.678 141.586C195.231 140.62 195.983 139.869 196.933 139.33C197.898 138.776 198.983 138.499 200.185 138.499C201.404 138.499 202.48 138.769 203.414 139.307C204.348 139.845 205.076 140.604 205.598 141.586C206.136 142.551 206.405 143.683 206.405 144.981C206.405 145.076 206.397 145.186 206.382 145.313C206.382 145.44 206.374 145.558 206.358 145.669H195.651V144.031H205.171L204.245 144.601C204.261 143.794 204.095 143.073 203.746 142.44C203.398 141.807 202.916 141.317 202.298 140.968C201.697 140.604 200.993 140.422 200.185 140.422C199.394 140.422 198.69 140.604 198.072 140.968C197.455 141.317 196.972 141.815 196.624 142.464C196.276 143.097 196.102 143.825 196.102 144.648V145.028C196.102 145.867 196.292 146.619 196.672 147.283C197.067 147.932 197.613 148.439 198.31 148.803C199.006 149.167 199.806 149.349 200.708 149.349C201.452 149.349 202.124 149.222 202.726 148.969C203.343 148.716 203.881 148.336 204.34 147.83L205.598 149.301C205.028 149.966 204.316 150.473 203.462 150.821C202.623 151.169 201.681 151.343 200.636 151.343ZM209.57 151.201V138.618H211.754V142.037L211.541 141.182C211.889 140.312 212.474 139.647 213.297 139.188C214.12 138.729 215.133 138.499 216.336 138.499V140.707C216.241 140.692 216.146 140.684 216.051 140.684C215.972 140.684 215.893 140.684 215.814 140.684C214.595 140.684 213.63 141.048 212.918 141.776C212.205 142.504 211.849 143.556 211.849 144.933V151.201H209.57ZM225.683 151.201V138.618H227.867V142.037L227.654 141.182C228.002 140.312 228.587 139.647 229.41 139.188C230.233 138.729 231.246 138.499 232.449 138.499V140.707C232.354 140.692 232.259 140.684 232.164 140.684C232.085 140.684 232.006 140.684 231.927 140.684C230.708 140.684 229.743 141.048 229.031 141.776C228.318 142.504 227.962 143.556 227.962 144.933V151.201H225.683ZM240.531 151.343C239.265 151.343 238.141 151.066 237.16 150.512C236.179 149.958 235.403 149.199 234.834 148.233C234.264 147.252 233.979 146.144 233.979 144.909C233.979 143.659 234.264 142.551 234.834 141.586C235.403 140.62 236.179 139.869 237.16 139.33C238.141 138.776 239.265 138.499 240.531 138.499C241.782 138.499 242.898 138.776 243.879 139.33C244.876 139.869 245.651 140.62 246.205 141.586C246.775 142.535 247.06 143.643 247.06 144.909C247.06 146.16 246.775 147.268 246.205 148.233C245.651 149.199 244.876 149.958 243.879 150.512C242.898 151.066 241.782 151.343 240.531 151.343ZM240.531 149.349C241.339 149.349 242.059 149.167 242.692 148.803C243.341 148.439 243.847 147.924 244.211 147.26C244.575 146.579 244.757 145.796 244.757 144.909C244.757 144.007 244.575 143.232 244.211 142.583C243.847 141.918 243.341 141.404 242.692 141.04C242.059 140.676 241.339 140.494 240.531 140.494C239.724 140.494 239.004 140.676 238.371 141.04C237.738 141.404 237.231 141.918 236.852 142.583C236.472 143.232 236.282 144.007 236.282 144.909C236.282 145.796 236.472 146.579 236.852 147.26C237.231 147.924 237.738 148.439 238.371 148.803C239.004 149.167 239.724 149.349 240.531 149.349ZM255.506 151.343C254.43 151.343 253.48 151.145 252.657 150.75C251.85 150.354 251.217 149.753 250.758 148.945C250.315 148.122 250.093 147.094 250.093 145.859V138.618H252.372V145.598C252.372 146.832 252.665 147.758 253.251 148.376C253.852 148.993 254.691 149.301 255.767 149.301C256.559 149.301 257.247 149.143 257.833 148.827C258.418 148.494 258.869 148.019 259.186 147.402C259.502 146.769 259.661 146.009 259.661 145.123V138.618H261.94V151.201H259.779V147.806L260.136 148.708C259.724 149.547 259.107 150.196 258.284 150.655C257.461 151.114 256.535 151.343 255.506 151.343ZM270.599 151.343C269.333 151.343 268.352 151.003 267.656 150.322C266.959 149.642 266.611 148.668 266.611 147.402V135.864H268.89V147.307C268.89 147.988 269.056 148.51 269.389 148.874C269.737 149.238 270.227 149.42 270.861 149.42C271.573 149.42 272.166 149.222 272.641 148.827L273.353 150.465C273.005 150.765 272.586 150.987 272.095 151.129C271.62 151.272 271.122 151.343 270.599 151.343ZM264.474 140.494V138.618H272.499V140.494H264.474ZM276.109 151.201V138.618H278.388V151.201H276.109ZM277.248 136.197C276.805 136.197 276.433 136.054 276.132 135.769C275.848 135.484 275.705 135.136 275.705 134.725C275.705 134.297 275.848 133.941 276.132 133.656C276.433 133.372 276.805 133.229 277.248 133.229C277.691 133.229 278.055 133.372 278.34 133.656C278.641 133.925 278.791 134.266 278.791 134.677C278.791 135.105 278.649 135.469 278.364 135.769C278.079 136.054 277.707 136.197 277.248 136.197ZM289.458 138.499C290.487 138.499 291.389 138.697 292.164 139.093C292.956 139.489 293.573 140.09 294.016 140.897C294.459 141.704 294.681 142.725 294.681 143.96V151.201H292.402V144.221C292.402 143.002 292.101 142.084 291.5 141.467C290.914 140.85 290.083 140.541 289.007 140.541C288.2 140.541 287.495 140.699 286.894 141.016C286.293 141.333 285.826 141.799 285.493 142.417C285.177 143.034 285.018 143.802 285.018 144.72V151.201H282.739V138.618H284.923V142.013L284.567 141.111C284.979 140.288 285.612 139.647 286.467 139.188C287.321 138.729 288.318 138.499 289.458 138.499ZM304.501 151.343C303.156 151.343 301.969 151.066 300.94 150.512C299.927 149.958 299.136 149.199 298.566 148.233C298.012 147.268 297.735 146.16 297.735 144.909C297.735 143.659 298.004 142.551 298.543 141.586C299.097 140.62 299.848 139.869 300.798 139.33C301.763 138.776 302.848 138.499 304.05 138.499C305.269 138.499 306.345 138.769 307.279 139.307C308.213 139.845 308.941 140.604 309.463 141.586C310.001 142.551 310.27 143.683 310.27 144.981C310.27 145.076 310.263 145.186 310.247 145.313C310.247 145.44 310.239 145.558 310.223 145.669H299.516V144.031H309.036L308.11 144.601C308.126 143.794 307.96 143.073 307.612 142.44C307.263 141.807 306.781 141.317 306.163 140.968C305.562 140.604 304.858 140.422 304.05 140.422C303.259 140.422 302.555 140.604 301.938 140.968C301.32 141.317 300.838 141.815 300.489 142.464C300.141 143.097 299.967 143.825 299.967 144.648V145.028C299.967 145.867 300.157 146.619 300.537 147.283C300.932 147.932 301.479 148.439 302.175 148.803C302.871 149.167 303.671 149.349 304.573 149.349C305.317 149.349 305.989 149.222 306.591 148.969C307.208 148.716 307.746 148.336 308.205 147.83L309.463 149.301C308.893 149.966 308.181 150.473 307.327 150.821C306.488 151.169 305.546 151.343 304.501 151.343ZM317.044 151.343C315.999 151.343 315.002 151.201 314.052 150.916C313.119 150.631 312.383 150.283 311.845 149.871L312.794 148.067C313.332 148.431 313.997 148.74 314.788 148.993C315.58 149.246 316.387 149.373 317.21 149.373C318.27 149.373 319.03 149.222 319.489 148.922C319.964 148.621 320.201 148.201 320.201 147.663C320.201 147.268 320.059 146.959 319.774 146.737C319.489 146.516 319.109 146.35 318.634 146.239C318.175 146.128 317.661 146.033 317.091 145.954C316.521 145.859 315.952 145.748 315.382 145.622C314.812 145.479 314.29 145.289 313.815 145.052C313.34 144.799 312.96 144.458 312.676 144.031C312.391 143.588 312.248 143.002 312.248 142.274C312.248 141.515 312.462 140.85 312.889 140.28C313.317 139.71 313.918 139.275 314.693 138.974C315.485 138.658 316.419 138.499 317.495 138.499C318.318 138.499 319.149 138.602 319.988 138.808C320.842 138.998 321.539 139.275 322.077 139.639L321.103 141.443C320.534 141.063 319.94 140.802 319.323 140.66C318.706 140.517 318.088 140.446 317.471 140.446C316.474 140.446 315.73 140.612 315.239 140.945C314.749 141.261 314.504 141.673 314.504 142.179C314.504 142.607 314.646 142.939 314.931 143.176C315.232 143.398 315.611 143.572 316.07 143.699C316.545 143.825 317.068 143.936 317.637 144.031C318.207 144.11 318.777 144.221 319.347 144.363C319.916 144.49 320.431 144.672 320.89 144.909C321.365 145.147 321.744 145.479 322.029 145.907C322.33 146.334 322.48 146.904 322.48 147.616C322.48 148.376 322.259 149.032 321.816 149.586C321.372 150.14 320.747 150.576 319.94 150.892C319.133 151.193 318.167 151.343 317.044 151.343ZM337.093 151.343C335.827 151.343 334.704 151.066 333.722 150.512C332.741 149.958 331.965 149.199 331.396 148.233C330.826 147.252 330.541 146.144 330.541 144.909C330.541 143.659 330.826 142.551 331.396 141.586C331.965 140.62 332.741 139.869 333.722 139.33C334.704 138.776 335.827 138.499 337.093 138.499C338.344 138.499 339.46 138.776 340.441 139.33C341.438 139.869 342.213 140.62 342.767 141.586C343.337 142.535 343.622 143.643 343.622 144.909C343.622 146.16 343.337 147.268 342.767 148.233C342.213 149.199 341.438 149.958 340.441 150.512C339.46 151.066 338.344 151.343 337.093 151.343ZM337.093 149.349C337.901 149.349 338.621 149.167 339.254 148.803C339.903 148.439 340.409 147.924 340.773 147.26C341.137 146.579 341.319 145.796 341.319 144.909C341.319 144.007 341.137 143.232 340.773 142.583C340.409 141.918 339.903 141.404 339.254 141.04C338.621 140.676 337.901 140.494 337.093 140.494C336.286 140.494 335.566 140.676 334.933 141.04C334.3 141.404 333.793 141.918 333.414 142.583C333.034 143.232 332.844 144.007 332.844 144.909C332.844 145.796 333.034 146.579 333.414 147.26C333.793 147.924 334.3 148.439 334.933 148.803C335.566 149.167 336.286 149.349 337.093 149.349ZM349.726 151.201L344.218 138.618H346.592L351.483 150.014H350.343L355.329 138.618H357.561L352.053 151.201H349.726ZM364.943 151.343C363.597 151.343 362.41 151.066 361.382 150.512C360.369 149.958 359.577 149.199 359.007 148.233C358.454 147.268 358.177 146.16 358.177 144.909C358.177 143.659 358.446 142.551 358.984 141.586C359.538 140.62 360.289 139.869 361.239 139.33C362.205 138.776 363.289 138.499 364.492 138.499C365.71 138.499 366.786 138.769 367.72 139.307C368.654 139.845 369.382 140.604 369.904 141.586C370.443 142.551 370.712 143.683 370.712 144.981C370.712 145.076 370.704 145.186 370.688 145.313C370.688 145.44 370.68 145.558 370.664 145.669H359.957V144.031H369.477L368.551 144.601C368.567 143.794 368.401 143.073 368.053 142.44C367.704 141.807 367.222 141.317 366.604 140.968C366.003 140.604 365.299 140.422 364.492 140.422C363.7 140.422 362.996 140.604 362.379 140.968C361.761 141.317 361.279 141.815 360.93 142.464C360.582 143.097 360.408 143.825 360.408 144.648V145.028C360.408 145.867 360.598 146.619 360.978 147.283C361.374 147.932 361.92 148.439 362.616 148.803C363.312 149.167 364.112 149.349 365.014 149.349C365.758 149.349 366.43 149.222 367.032 148.969C367.649 148.716 368.187 148.336 368.646 147.83L369.904 149.301C369.335 149.966 368.622 150.473 367.768 150.821C366.929 151.169 365.987 151.343 364.943 151.343ZM373.876 151.201V138.618H376.06V142.037L375.847 141.182C376.195 140.312 376.781 139.647 377.604 139.188C378.427 138.729 379.44 138.499 380.642 138.499V140.707C380.547 140.692 380.452 140.684 380.357 140.684C380.278 140.684 380.199 140.684 380.12 140.684C378.901 140.684 377.936 141.048 377.224 141.776C376.512 142.504 376.155 143.556 376.155 144.933V151.201H373.876ZM394.31 151.343C393.044 151.343 392.063 151.003 391.366 150.322C390.67 149.642 390.322 148.668 390.322 147.402V135.864H392.601V147.307C392.601 147.988 392.767 148.51 393.099 148.874C393.448 149.238 393.938 149.42 394.571 149.42C395.283 149.42 395.877 149.222 396.352 148.827L397.064 150.465C396.716 150.765 396.296 150.987 395.806 151.129C395.331 151.272 394.832 151.343 394.31 151.343ZM388.185 140.494V138.618H396.209V140.494H388.185ZM399.819 151.201V138.618H402.098V151.201H399.819ZM400.959 136.197C400.516 136.197 400.144 136.054 399.843 135.769C399.558 135.484 399.416 135.136 399.416 134.725C399.416 134.297 399.558 133.941 399.843 133.656C400.144 133.372 400.516 133.229 400.959 133.229C401.402 133.229 401.766 133.372 402.051 133.656C402.352 133.925 402.502 134.266 402.502 134.677C402.502 135.105 402.36 135.469 402.075 135.769C401.79 136.054 401.418 136.197 400.959 136.197ZM422.19 138.499C423.203 138.499 424.097 138.697 424.873 139.093C425.648 139.489 426.25 140.09 426.677 140.897C427.12 141.704 427.342 142.725 427.342 143.96V151.201H425.063V144.221C425.063 143.002 424.778 142.084 424.208 141.467C423.638 140.85 422.839 140.541 421.81 140.541C421.051 140.541 420.386 140.699 419.816 141.016C419.246 141.333 418.803 141.799 418.487 142.417C418.186 143.034 418.035 143.802 418.035 144.72V151.201H415.756V144.221C415.756 143.002 415.471 142.084 414.902 141.467C414.348 140.85 413.549 140.541 412.504 140.541C411.76 140.541 411.103 140.699 410.533 141.016C409.964 141.333 409.521 141.799 409.204 142.417C408.887 143.034 408.729 143.802 408.729 144.72V151.201H406.45V138.618H408.634V141.966L408.278 141.111C408.674 140.288 409.283 139.647 410.106 139.188C410.929 138.729 411.887 138.499 412.979 138.499C414.182 138.499 415.218 138.8 416.089 139.402C416.959 139.987 417.529 140.881 417.798 142.084L416.872 141.704C417.252 140.739 417.917 139.963 418.866 139.378C419.816 138.792 420.924 138.499 422.19 138.499ZM437.138 151.343C435.793 151.343 434.606 151.066 433.577 150.512C432.564 149.958 431.773 149.199 431.203 148.233C430.649 147.268 430.372 146.16 430.372 144.909C430.372 143.659 430.641 142.551 431.179 141.586C431.733 140.62 432.485 139.869 433.435 139.33C434.4 138.776 435.484 138.499 436.687 138.499C437.906 138.499 438.982 138.769 439.916 139.307C440.85 139.845 441.578 140.604 442.1 141.586C442.638 142.551 442.907 143.683 442.907 144.981C442.907 145.076 442.899 145.186 442.883 145.313C442.883 145.44 442.875 145.558 442.86 145.669H432.153V144.031H441.673L440.747 144.601C440.763 143.794 440.596 143.073 440.248 142.44C439.9 141.807 439.417 141.317 438.8 140.968C438.199 140.604 437.494 140.422 436.687 140.422C435.896 140.422 435.191 140.604 434.574 140.968C433.957 141.317 433.474 141.815 433.126 142.464C432.778 143.097 432.604 143.825 432.604 144.648V145.028C432.604 145.867 432.794 146.619 433.173 147.283C433.569 147.932 434.115 148.439 434.812 148.803C435.508 149.167 436.307 149.349 437.209 149.349C437.953 149.349 438.626 149.222 439.227 148.969C439.845 148.716 440.383 148.336 440.842 147.83L442.1 149.301C441.53 149.966 440.818 150.473 439.963 150.821C439.124 151.169 438.183 151.343 437.138 151.343ZM452.447 151.201V138.618H454.727V151.201H452.447ZM453.587 136.197C453.144 136.197 452.772 136.054 452.471 135.769C452.186 135.484 452.044 135.136 452.044 134.725C452.044 134.297 452.186 133.941 452.471 133.656C452.772 133.372 453.144 133.229 453.587 133.229C454.03 133.229 454.394 133.372 454.679 133.656C454.98 133.925 455.13 134.266 455.13 134.677C455.13 135.105 454.988 135.469 454.703 135.769C454.418 136.054 454.046 136.197 453.587 136.197ZM465.797 138.499C466.825 138.499 467.728 138.697 468.503 139.093C469.294 139.489 469.912 140.09 470.355 140.897C470.798 141.704 471.02 142.725 471.02 143.96V151.201H468.741V144.221C468.741 143.002 468.44 142.084 467.838 141.467C467.253 140.85 466.422 140.541 465.346 140.541C464.538 140.541 463.834 140.699 463.233 141.016C462.631 141.333 462.164 141.799 461.832 142.417C461.515 143.034 461.357 143.802 461.357 144.72V151.201H459.078V138.618H461.262V142.013L460.906 141.111C461.318 140.288 461.951 139.647 462.805 139.188C463.66 138.729 464.657 138.499 465.797 138.499ZM482.159 155.949C481.558 155.949 480.972 155.846 480.402 155.64C479.833 155.45 479.342 155.165 478.93 154.786L479.904 153.076C480.22 153.377 480.569 153.606 480.948 153.765C481.328 153.923 481.732 154.002 482.159 154.002C482.713 154.002 483.172 153.86 483.536 153.575C483.9 153.29 484.24 152.783 484.557 152.055L485.34 150.322L485.578 150.037L490.516 138.618H492.747L486.646 152.459C486.282 153.345 485.871 154.042 485.412 154.548C484.968 155.055 484.478 155.411 483.94 155.616C483.402 155.838 482.808 155.949 482.159 155.949ZM485.15 151.604L479.405 138.618H481.779L486.67 149.824L485.15 151.604ZM499.916 151.343C498.65 151.343 497.526 151.066 496.545 150.512C495.563 149.958 494.788 149.199 494.218 148.233C493.648 147.252 493.363 146.144 493.363 144.909C493.363 143.659 493.648 142.551 494.218 141.586C494.788 140.62 495.563 139.869 496.545 139.33C497.526 138.776 498.65 138.499 499.916 138.499C501.166 138.499 502.282 138.776 503.263 139.33C504.26 139.869 505.036 140.62 505.59 141.586C506.16 142.535 506.445 143.643 506.445 144.909C506.445 146.16 506.16 147.268 505.59 148.233C505.036 149.199 504.26 149.958 503.263 150.512C502.282 151.066 501.166 151.343 499.916 151.343ZM499.916 149.349C500.723 149.349 501.443 149.167 502.076 148.803C502.725 148.439 503.232 147.924 503.596 147.26C503.96 146.579 504.142 145.796 504.142 144.909C504.142 144.007 503.96 143.232 503.596 142.583C503.232 141.918 502.725 141.404 502.076 141.04C501.443 140.676 500.723 140.494 499.916 140.494C499.109 140.494 498.389 140.676 497.755 141.04C497.122 141.404 496.616 141.918 496.236 142.583C495.856 143.232 495.666 144.007 495.666 144.909C495.666 145.796 495.856 146.579 496.236 147.26C496.616 147.924 497.122 148.439 497.755 148.803C498.389 149.167 499.109 149.349 499.916 149.349ZM514.891 151.343C513.814 151.343 512.865 151.145 512.042 150.75C511.235 150.354 510.601 149.753 510.142 148.945C509.699 148.122 509.478 147.094 509.478 145.859V138.618H511.757V145.598C511.757 146.832 512.05 147.758 512.635 148.376C513.237 148.993 514.075 149.301 515.152 149.301C515.943 149.301 516.632 149.143 517.217 148.827C517.803 148.494 518.254 148.019 518.57 147.402C518.887 146.769 519.045 146.009 519.045 145.123V138.618H521.324V151.201H519.164V147.806L519.52 148.708C519.108 149.547 518.491 150.196 517.668 150.655C516.845 151.114 515.919 151.343 514.891 151.343ZM525.663 151.201V138.618H527.847V142.037L527.634 141.182C527.982 140.312 528.567 139.647 529.39 139.188C530.213 138.729 531.226 138.499 532.429 138.499V140.707C532.334 140.692 532.239 140.684 532.144 140.684C532.065 140.684 531.986 140.684 531.907 140.684C530.688 140.684 529.723 141.048 529.01 141.776C528.298 142.504 527.942 143.556 527.942 144.933V151.201H525.663ZM48.052 177.343C46.8333 177.343 45.7412 177.074 44.7758 176.536C43.8261 175.998 43.0744 175.246 42.5204 174.281C41.9665 173.315 41.6895 172.191 41.6895 170.909C41.6895 169.627 41.9665 168.512 42.5204 167.562C43.0744 166.597 43.8261 165.845 44.7758 165.307C45.7412 164.769 46.8333 164.499 48.052 164.499C49.1124 164.499 50.0699 164.737 50.9246 165.212C51.7792 165.686 52.4598 166.399 52.9663 167.348C53.4886 168.298 53.7497 169.485 53.7497 170.909C53.7497 172.334 53.4965 173.521 52.99 174.471C52.4994 175.42 51.8267 176.14 50.9721 176.631C50.1174 177.106 49.144 177.343 48.052 177.343ZM48.2419 175.349C49.0332 175.349 49.7455 175.167 50.3785 174.803C51.0275 174.439 51.5339 173.924 51.8979 173.26C52.2778 172.579 52.4677 171.796 52.4677 170.909C52.4677 170.007 52.2778 169.232 51.8979 168.583C51.5339 167.918 51.0275 167.404 50.3785 167.04C49.7455 166.676 49.0332 166.494 48.2419 166.494C47.4347 166.494 46.7146 166.676 46.0815 167.04C45.4484 167.404 44.9419 167.918 44.5621 168.583C44.1822 169.232 43.9923 170.007 43.9923 170.909C43.9923 171.796 44.1822 172.579 44.5621 173.26C44.9419 173.924 45.4484 174.439 46.0815 174.803C46.7146 175.167 47.4347 175.349 48.2419 175.349ZM52.5389 177.201V173.806L52.6814 170.886L52.444 167.966V159.585H54.7231V177.201H52.5389ZM66.846 177.201V174.542L66.7273 174.043V169.509C66.7273 168.543 66.4424 167.799 65.8726 167.277C65.3187 166.739 64.4798 166.47 63.3561 166.47C62.6122 166.47 61.8842 166.597 61.172 166.85C60.4598 167.087 59.8583 167.412 59.3677 167.823L58.4181 166.114C59.067 165.592 59.8425 165.196 60.7446 164.927C61.6626 164.642 62.6202 164.499 63.6173 164.499C65.3424 164.499 66.6719 164.919 67.6057 165.758C68.5395 166.597 69.0064 167.879 69.0064 169.604V177.201H66.846ZM62.7151 177.343C61.7813 177.343 60.9583 177.185 60.2461 176.868C59.5497 176.552 59.0116 176.117 58.6317 175.563C58.2519 174.993 58.062 174.352 58.062 173.64C58.062 172.959 58.2202 172.342 58.5368 171.788C58.8691 171.234 59.3993 170.791 60.1274 170.458C60.8713 170.126 61.8684 169.96 63.1187 169.96H67.1071V171.598H63.2137C62.0741 171.598 61.3065 171.788 60.9108 172.168C60.5152 172.548 60.3173 173.007 60.3173 173.545C60.3173 174.162 60.5626 174.66 61.0533 175.04C61.5439 175.404 62.2245 175.586 63.095 175.586C63.9496 175.586 64.6935 175.396 65.3266 175.017C65.9755 174.637 66.4424 174.083 66.7273 173.355L67.1783 174.922C66.8776 175.665 66.3474 176.259 65.5877 176.702C64.828 177.129 63.8705 177.343 62.7151 177.343ZM73.224 177.201V164.618H75.5031V177.201H73.224ZM74.3636 162.197C73.9204 162.197 73.5485 162.054 73.2478 161.769C72.9629 161.484 72.8204 161.136 72.8204 160.725C72.8204 160.297 72.9629 159.941 73.2478 159.656C73.5485 159.372 73.9204 159.229 74.3636 159.229C74.8067 159.229 75.1708 159.372 75.4556 159.656C75.7564 159.925 75.9067 160.266 75.9067 160.677C75.9067 161.105 75.7643 161.469 75.4794 161.769C75.1945 162.054 74.8226 162.197 74.3636 162.197ZM79.8547 177.201V159.585H82.1338V177.201H79.8547ZM87.0314 181.949C86.43 181.949 85.8444 181.846 85.2746 181.64C84.7048 181.45 84.2142 181.165 83.8027 180.786L84.7761 179.076C85.0926 179.377 85.4408 179.606 85.8206 179.765C86.2005 179.923 86.6041 180.002 87.0314 180.002C87.5854 180.002 88.0443 179.86 88.4084 179.575C88.7724 179.29 89.1127 178.783 89.4292 178.055L90.2127 176.322L90.4501 176.037L95.3881 164.618H97.6197L91.5184 178.459C91.1544 179.345 90.7429 180.042 90.2839 180.548C89.8407 181.055 89.3501 181.411 88.812 181.616C88.2738 181.838 87.6803 181.949 87.0314 181.949ZM90.0227 177.604L84.2775 164.618H86.6516L91.5421 175.824L90.0227 177.604ZM106.122 177.201V159.585H108.401V177.201H106.122ZM112.753 177.201V164.618H115.032V177.201H112.753ZM113.893 162.197C113.449 162.197 113.077 162.054 112.777 161.769C112.492 161.484 112.349 161.136 112.349 160.725C112.349 160.297 112.492 159.941 112.777 159.656C113.077 159.372 113.449 159.229 113.893 159.229C114.336 159.229 114.7 159.372 114.985 159.656C115.285 159.925 115.436 160.266 115.436 160.677C115.436 161.105 115.293 161.469 115.008 161.769C114.724 162.054 114.352 162.197 113.893 162.197ZM119.716 177.201V163.502C119.716 162.268 120.072 161.287 120.784 160.559C121.512 159.815 122.541 159.443 123.871 159.443C124.361 159.443 124.828 159.506 125.271 159.633C125.73 159.743 126.118 159.925 126.435 160.179L125.746 161.912C125.509 161.722 125.24 161.579 124.939 161.484C124.638 161.374 124.322 161.318 123.989 161.318C123.325 161.318 122.818 161.508 122.47 161.888C122.122 162.252 121.948 162.798 121.948 163.526V165.212L121.995 166.256V177.201H119.716ZM117.579 166.494V164.618H125.604V166.494H117.579ZM133.171 177.343C131.825 177.343 130.638 177.066 129.609 176.512C128.596 175.958 127.805 175.199 127.235 174.233C126.681 173.268 126.404 172.16 126.404 170.909C126.404 169.659 126.673 168.551 127.212 167.586C127.766 166.62 128.517 165.869 129.467 165.33C130.432 164.776 131.517 164.499 132.719 164.499C133.938 164.499 135.014 164.769 135.948 165.307C136.882 165.845 137.61 166.604 138.132 167.586C138.67 168.551 138.939 169.683 138.939 170.981C138.939 171.076 138.932 171.186 138.916 171.313C138.916 171.44 138.908 171.558 138.892 171.669H128.185V170.031H137.705L136.779 170.601C136.795 169.794 136.629 169.073 136.281 168.44C135.932 167.807 135.45 167.317 134.832 166.968C134.231 166.604 133.527 166.422 132.719 166.422C131.928 166.422 131.224 166.604 130.607 166.968C129.989 167.317 129.507 167.815 129.158 168.464C128.81 169.097 128.636 169.825 128.636 170.648V171.028C128.636 171.867 128.826 172.619 129.206 173.283C129.602 173.932 130.148 174.439 130.844 174.803C131.54 175.167 132.34 175.349 133.242 175.349C133.986 175.349 134.658 175.222 135.26 174.969C135.877 174.716 136.415 174.336 136.874 173.83L138.132 175.301C137.563 175.966 136.85 176.473 135.996 176.821C135.157 177.169 134.215 177.343 133.171 177.343ZM142.65 177.343C142.207 177.343 141.827 177.193 141.511 176.892C141.194 176.576 141.036 176.18 141.036 175.705C141.036 175.23 141.194 174.842 141.511 174.542C141.827 174.241 142.207 174.091 142.65 174.091C143.078 174.091 143.442 174.241 143.742 174.542C144.059 174.842 144.217 175.23 144.217 175.705C144.217 176.18 144.059 176.576 143.742 176.892C143.442 177.193 143.078 177.343 142.65 177.343Z" fill="black"/>
<path d="M480.046 47.9528C461.328 48.4293 452.605 33.0638 450.583 25.3214H575.366L579.699 67.6065C565.834 73.562 549.37 69.3931 542.437 61.0553C533.772 49.7395 533.194 45.372 525.106 42.5927C509.162 39.734 495.644 47.5558 480.046 47.9528Z" fill="#04C4D9"/>
<defs>
<filter id="filter0_dd_895_14" x="0" y="0" width="598.872" height="243.292" filterUnits="userSpaceOnUse" color-interpolation-filters="sRGB">
<feFlood flood-opacity="0" result="BackgroundImageFix"/>
<feColorMatrix in="SourceAlpha" type="matrix" values="0 0 0 0 0 0 0 0 0 0 0 0 0 0 0 0 0 0 127 0" result="hardAlpha"/>
<feOffset dx="2" dy="2"/>
<feGaussianBlur stdDeviation="5"/>
<feComposite in2="hardAlpha" operator="out"/>
<feColorMatrix type="matrix" values="0 0 0 0 0 0 0 0 0 0 0 0 0 0 0 0 0 0 0.25 0"/>
<feBlend mode="normal" in2="BackgroundImageFix" result="effect1_dropShadow_895_14"/>
<feColorMatrix in="SourceAlpha" type="matrix" values="0 0 0 0 0 0 0 0 0 0 0 0 0 0 0 0 0 0 127 0" result="hardAlpha"/>
<feOffset dx="-2" dy="-2"/>
<feGaussianBlur stdDeviation="5"/>
<feComposite in2="hardAlpha" operator="out"/>
<feColorMatrix type="matrix" values="0 0 0 0 0 0 0 0 0 0 0 0 0 0 0 0 0 0 0.25 0"/>
<feBlend mode="normal" in2="effect1_dropShadow_895_14" result="effect2_dropShadow_895_14"/>
<feBlend mode="normal" in="SourceGraphic" in2="effect2_dropShadow_895_14" result="shape"/>
</filter>
</defs>
</svg>
