<svg width="599" height="244" viewBox="0 0 599 244" fill="none" xmlns="http://www.w3.org/2000/svg">
<g filter="url(#filter0_dd_895_13)">
<rect x="12" y="12" width="574.872" height="219.292" rx="24.6044" fill="#00A384"/>
<rect x="25.3213" y="25.7056" width="548.229" height="191.88" rx="23.6238" fill="white"/>
</g>
<path d="M41.5454 77.184V51.6424H48.0672V54.3712H44.9564V74.4552H48.0672V77.184H41.5454ZM57.1435 72.163C55.6336 72.163 54.2692 71.781 53.0503 71.0169C51.8496 70.2529 50.9036 69.1431 50.2123 67.6878C49.521 66.2142 49.1754 64.4314 49.1754 62.3393C49.1754 60.2472 49.521 58.4735 50.2123 57.0182C50.9036 55.5446 51.8496 54.4258 53.0503 53.6617C54.2692 52.8977 55.6336 52.5156 57.1435 52.5156C58.6716 52.5156 60.036 52.8977 61.2367 53.6617C62.4374 54.4258 63.3834 55.5446 64.0747 57.0182C64.7841 58.4735 65.1389 60.2472 65.1389 62.3393C65.1389 64.4314 64.7841 66.2142 64.0747 67.6878C63.3834 69.1431 62.4374 70.2529 61.2367 71.0169C60.036 71.781 58.6716 72.163 57.1435 72.163ZM57.1435 69.0795C58.0349 69.0795 58.8081 68.843 59.463 68.37C60.1179 67.8788 60.6273 67.1329 60.9911 66.1324C61.3731 65.1318 61.5642 63.8675 61.5642 62.3393C61.5642 60.793 61.3731 59.5287 60.9911 58.5463C60.6273 57.5457 60.1179 56.8089 59.463 56.336C58.8081 55.8448 58.0349 55.5992 57.1435 55.5992C56.2885 55.5992 55.5244 55.8448 54.8513 56.336C54.1964 56.8089 53.6779 57.5457 53.2959 58.5463C52.932 59.5287 52.7501 60.793 52.7501 62.3393C52.7501 63.8675 52.932 65.1318 53.2959 66.1324C53.6779 67.1329 54.1964 67.8788 54.8513 68.37C55.5244 68.843 56.2885 69.0795 57.1435 69.0795ZM66.7175 67.5513V65.0954L76.1319 52.7885H79.925L70.647 65.0954L68.8733 64.5497H84.0182V67.5513H66.7175ZM77.1962 71.8901V67.5513L77.3053 64.5497V60.702H80.6344V71.8901H77.1962ZM90.7231 77.184H84.2286V74.4552H87.3121V54.3712H84.2286V51.6424H90.7231V77.184Z" fill="black"/>
<path d="M49.2466 126.225V119.863L49.7927 121.335L42.6467 109.607H45.187L51.1933 119.507H49.8164L55.8465 109.607H58.1968L51.0746 121.335L51.5969 119.863V126.225H49.2466ZM64.4617 126.368C63.1164 126.368 61.9294 126.091 60.9007 125.537C59.8877 124.983 59.0964 124.223 58.5266 123.258C57.9726 122.292 57.6957 121.184 57.6957 119.934C57.6957 118.684 57.9647 117.576 58.5029 116.61C59.0568 115.645 59.8086 114.893 60.7582 114.355C61.7237 113.801 62.8078 113.524 64.0107 113.524C65.2294 113.524 66.3056 113.793 67.2394 114.331C68.1732 114.869 68.9012 115.629 69.4235 116.61C69.9616 117.576 70.2307 118.707 70.2307 120.005C70.2307 120.1 70.2228 120.211 70.207 120.338C70.207 120.464 70.199 120.583 70.1832 120.694H59.4762V119.056H68.9962L68.0703 119.625C68.0861 118.818 67.92 118.098 67.5718 117.465C67.2236 116.832 66.7408 116.341 66.1236 115.993C65.5222 115.629 64.8178 115.447 64.0107 115.447C63.2193 115.447 62.515 115.629 61.8978 115.993C61.2805 116.341 60.7978 116.84 60.4496 117.489C60.1014 118.122 59.9273 118.85 59.9273 119.673V120.053C59.9273 120.892 60.1172 121.643 60.4971 122.308C60.8927 122.957 61.4388 123.464 62.1352 123.828C62.8316 124.192 63.6308 124.374 64.533 124.374C65.2768 124.374 65.9495 124.247 66.5509 123.994C67.1682 123.74 67.7063 123.361 68.1653 122.854L69.4235 124.326C68.8537 124.991 68.1415 125.497 67.2869 125.845C66.448 126.194 65.5063 126.368 64.4617 126.368ZM77.004 126.368C75.9594 126.368 74.9623 126.225 74.0127 125.94C73.0789 125.656 72.3429 125.307 71.8048 124.896L72.7544 123.092C73.2926 123.456 73.9573 123.764 74.7486 124.017C75.54 124.271 76.3472 124.397 77.1702 124.397C78.2306 124.397 78.9903 124.247 79.4493 123.946C79.9241 123.646 80.1615 123.226 80.1615 122.688C80.1615 122.292 80.0191 121.984 79.7342 121.762C79.4493 121.541 79.0694 121.374 78.5946 121.264C78.1356 121.153 77.6213 121.058 77.0515 120.979C76.4817 120.884 75.9119 120.773 75.3422 120.646C74.7724 120.504 74.2501 120.314 73.7753 120.077C73.3005 119.823 72.9206 119.483 72.6357 119.056C72.3509 118.613 72.2084 118.027 72.2084 117.299C72.2084 116.539 72.4221 115.874 72.8494 115.305C73.2767 114.735 73.8782 114.3 74.6537 113.999C75.445 113.682 76.3788 113.524 77.4551 113.524C78.2781 113.524 79.109 113.627 79.9478 113.833C80.8025 114.023 81.4989 114.3 82.037 114.664L81.0636 116.468C80.4939 116.088 79.9004 115.827 79.2831 115.685C78.6658 115.542 78.0486 115.471 77.4313 115.471C76.4342 115.471 75.6904 115.637 75.1997 115.969C74.7091 116.286 74.4638 116.697 74.4638 117.204C74.4638 117.631 74.6062 117.964 74.8911 118.201C75.1918 118.423 75.5717 118.597 76.0306 118.723C76.5055 118.85 77.0277 118.961 77.5975 119.056C78.1673 119.135 78.7371 119.246 79.3068 119.388C79.8766 119.515 80.391 119.697 80.85 119.934C81.3248 120.171 81.7046 120.504 81.9895 120.931C82.2902 121.359 82.4406 121.928 82.4406 122.641C82.4406 123.4 82.219 124.057 81.7759 124.611C81.3327 125.165 80.7075 125.6 79.9004 125.917C79.0932 126.217 78.1277 126.368 77.004 126.368ZM84.3868 129.739L85.5738 124.943L85.8824 126.32C85.4234 126.32 85.0357 126.178 84.7191 125.893C84.4184 125.608 84.2681 125.22 84.2681 124.73C84.2681 124.255 84.4184 123.867 84.7191 123.566C85.0357 123.266 85.4155 123.115 85.8587 123.115C86.3177 123.115 86.6896 123.274 86.9745 123.59C87.2594 123.891 87.4018 124.271 87.4018 124.73C87.4018 124.888 87.386 125.046 87.3543 125.204C87.3385 125.347 87.2989 125.521 87.2356 125.727C87.1882 125.917 87.109 126.154 86.9982 126.439L85.8824 129.739H84.3868ZM102.219 126.415C100.953 126.415 99.7418 126.225 98.5864 125.845C97.431 125.45 96.521 124.943 95.8563 124.326L96.7347 122.474C97.3677 123.028 98.1749 123.487 99.1562 123.851C100.137 124.215 101.158 124.397 102.219 124.397C103.184 124.397 103.968 124.287 104.569 124.065C105.17 123.843 105.614 123.543 105.899 123.163C106.183 122.767 106.326 122.324 106.326 121.833C106.326 121.264 106.136 120.805 105.756 120.456C105.392 120.108 104.909 119.831 104.308 119.625C103.722 119.404 103.073 119.214 102.361 119.056C101.649 118.897 100.929 118.715 100.201 118.51C99.4886 118.288 98.8317 118.011 98.2303 117.679C97.6447 117.346 97.1699 116.903 96.8059 116.349C96.4419 115.779 96.2598 115.051 96.2598 114.165C96.2598 113.31 96.4814 112.527 96.9246 111.815C97.3836 111.087 98.08 110.509 99.0138 110.082C99.9634 109.639 101.166 109.417 102.622 109.417C103.588 109.417 104.545 109.544 105.495 109.797C106.445 110.05 107.268 110.414 107.964 110.889L107.181 112.788C106.468 112.313 105.717 111.973 104.925 111.767C104.134 111.546 103.366 111.435 102.622 111.435C101.689 111.435 100.921 111.554 100.319 111.791C99.7181 112.028 99.2749 112.345 98.99 112.741C98.721 113.136 98.5864 113.58 98.5864 114.07C98.5864 114.656 98.7684 115.123 99.1325 115.471C99.5123 115.819 99.995 116.096 100.581 116.302C101.182 116.508 101.839 116.697 102.551 116.872C103.263 117.03 103.976 117.212 104.688 117.418C105.416 117.623 106.073 117.892 106.658 118.225C107.26 118.557 107.742 119 108.106 119.554C108.47 120.108 108.652 120.82 108.652 121.691C108.652 122.53 108.423 123.313 107.964 124.041C107.505 124.753 106.793 125.331 105.827 125.774C104.878 126.202 103.675 126.415 102.219 126.415ZM117.391 126.368C116.046 126.368 114.859 126.091 113.83 125.537C112.817 124.983 112.026 124.223 111.456 123.258C110.902 122.292 110.625 121.184 110.625 119.934C110.625 118.684 110.894 117.576 111.432 116.61C111.986 115.645 112.738 114.893 113.688 114.355C114.653 113.801 115.737 113.524 116.94 113.524C118.159 113.524 119.235 113.793 120.169 114.331C121.103 114.869 121.831 115.629 122.353 116.61C122.891 117.576 123.16 118.707 123.16 120.005C123.16 120.1 123.152 120.211 123.136 120.338C123.136 120.464 123.129 120.583 123.113 120.694H112.406V119.056H121.926L121 119.625C121.016 118.818 120.849 118.098 120.501 117.465C120.153 116.832 119.67 116.341 119.053 115.993C118.452 115.629 117.747 115.447 116.94 115.447C116.149 115.447 115.444 115.629 114.827 115.993C114.21 116.341 113.727 116.84 113.379 117.489C113.031 118.122 112.857 118.85 112.857 119.673V120.053C112.857 120.892 113.047 121.643 113.427 122.308C113.822 122.957 114.368 123.464 115.065 123.828C115.761 124.192 116.56 124.374 117.462 124.374C118.206 124.374 118.879 124.247 119.48 123.994C120.098 123.74 120.636 123.361 121.095 122.854L122.353 124.326C121.783 124.991 121.071 125.497 120.216 125.845C119.377 126.194 118.436 126.368 117.391 126.368ZM133.043 113.524C134.072 113.524 134.974 113.722 135.75 114.118C136.541 114.513 137.159 115.115 137.602 115.922C138.045 116.729 138.266 117.75 138.266 118.984V126.225H135.987V119.246C135.987 118.027 135.687 117.109 135.085 116.492C134.5 115.874 133.669 115.566 132.592 115.566C131.785 115.566 131.081 115.724 130.479 116.041C129.878 116.357 129.411 116.824 129.079 117.441C128.762 118.059 128.604 118.826 128.604 119.744V126.225H126.325V113.643H128.509V117.038L128.153 116.136C128.564 115.313 129.198 114.672 130.052 114.213C130.907 113.754 131.904 113.524 133.043 113.524ZM146.805 126.368C145.539 126.368 144.558 126.028 143.861 125.347C143.165 124.666 142.817 123.693 142.817 122.427V110.889H145.096V122.332C145.096 123.012 145.262 123.535 145.594 123.899C145.942 124.263 146.433 124.445 147.066 124.445C147.778 124.445 148.372 124.247 148.847 123.851L149.559 125.489C149.211 125.79 148.791 126.012 148.301 126.154C147.826 126.297 147.327 126.368 146.805 126.368ZM140.68 115.518V113.643H148.704V115.518H140.68ZM152.314 126.225V113.643H154.498V117.061L154.285 116.207C154.633 115.336 155.219 114.672 156.042 114.213C156.865 113.754 157.878 113.524 159.08 113.524V115.732C158.985 115.716 158.89 115.708 158.796 115.708C158.716 115.708 158.637 115.708 158.558 115.708C157.339 115.708 156.374 116.072 155.662 116.8C154.95 117.528 154.593 118.581 154.593 119.958V126.225H152.314ZM168.773 126.225V123.566L168.654 123.068V118.533C168.654 117.568 168.369 116.824 167.799 116.302C167.245 115.764 166.407 115.495 165.283 115.495C164.539 115.495 163.811 115.621 163.099 115.874C162.386 116.112 161.785 116.436 161.294 116.848L160.345 115.138C160.994 114.616 161.769 114.221 162.671 113.951C163.589 113.667 164.547 113.524 165.544 113.524C167.269 113.524 168.599 113.944 169.532 114.782C170.466 115.621 170.933 116.903 170.933 118.628V126.225H168.773ZM164.642 126.368C163.708 126.368 162.885 126.21 162.173 125.893C161.476 125.576 160.938 125.141 160.558 124.587C160.179 124.017 159.989 123.376 159.989 122.664C159.989 121.984 160.147 121.366 160.463 120.812C160.796 120.259 161.326 119.815 162.054 119.483C162.798 119.151 163.795 118.984 165.045 118.984H169.034V120.623H165.14C164.001 120.623 163.233 120.812 162.838 121.192C162.442 121.572 162.244 122.031 162.244 122.569C162.244 123.187 162.489 123.685 162.98 124.065C163.471 124.429 164.151 124.611 165.022 124.611C165.876 124.611 166.62 124.421 167.253 124.041C167.902 123.661 168.369 123.107 168.654 122.379L169.105 123.946C168.804 124.69 168.274 125.284 167.514 125.727C166.755 126.154 165.797 126.368 164.642 126.368ZM181.526 126.225V108.61H183.805V126.225H181.526ZM193.76 126.368C192.415 126.368 191.228 126.091 190.199 125.537C189.186 124.983 188.394 124.223 187.825 123.258C187.271 122.292 186.994 121.184 186.994 119.934C186.994 118.684 187.263 117.576 187.801 116.61C188.355 115.645 189.107 114.893 190.056 114.355C191.022 113.801 192.106 113.524 193.309 113.524C194.527 113.524 195.604 113.793 196.537 114.331C197.471 114.869 198.199 115.629 198.722 116.61C199.26 117.576 199.529 118.707 199.529 120.005C199.529 120.1 199.521 120.211 199.505 120.338C199.505 120.464 199.497 120.583 199.481 120.694H188.774V119.056H198.294L197.368 119.625C197.384 118.818 197.218 118.098 196.87 117.465C196.522 116.832 196.039 116.341 195.422 115.993C194.82 115.629 194.116 115.447 193.309 115.447C192.517 115.447 191.813 115.629 191.196 115.993C190.579 116.341 190.096 116.84 189.748 117.489C189.399 118.122 189.225 118.85 189.225 119.673V120.053C189.225 120.892 189.415 121.643 189.795 122.308C190.191 122.957 190.737 123.464 191.433 123.828C192.13 124.192 192.929 124.374 193.831 124.374C194.575 124.374 195.248 124.247 195.849 123.994C196.466 123.74 197.004 123.361 197.463 122.854L198.722 124.326C198.152 124.991 197.44 125.497 196.585 125.845C195.746 126.194 194.804 126.368 193.76 126.368ZM207.014 126.368C205.748 126.368 204.767 126.028 204.07 125.347C203.374 124.666 203.026 123.693 203.026 122.427V110.889H205.305V122.332C205.305 123.012 205.471 123.535 205.804 123.899C206.152 124.263 206.642 124.445 207.275 124.445C207.988 124.445 208.581 124.247 209.056 123.851L209.768 125.489C209.42 125.79 209.001 126.012 208.51 126.154C208.035 126.297 207.537 126.368 207.014 126.368ZM200.889 115.518V113.643H208.914V115.518H200.889ZM216.132 126.368C215.088 126.368 214.091 126.225 213.141 125.94C212.207 125.656 211.471 125.307 210.933 124.896L211.883 123.092C212.421 123.456 213.085 123.764 213.877 124.017C214.668 124.271 215.475 124.397 216.298 124.397C217.359 124.397 218.118 124.247 218.577 123.946C219.052 123.646 219.29 123.226 219.29 122.688C219.29 122.292 219.147 121.984 218.862 121.762C218.577 121.541 218.198 121.374 217.723 121.264C217.264 121.153 216.749 121.058 216.18 120.979C215.61 120.884 215.04 120.773 214.47 120.646C213.901 120.504 213.378 120.314 212.903 120.077C212.429 119.823 212.049 119.483 211.764 119.056C211.479 118.613 211.337 118.027 211.337 117.299C211.337 116.539 211.55 115.874 211.978 115.305C212.405 114.735 213.006 114.3 213.782 113.999C214.573 113.682 215.507 113.524 216.583 113.524C217.406 113.524 218.237 113.627 219.076 113.833C219.931 114.023 220.627 114.3 221.165 114.664L220.192 116.468C219.622 116.088 219.029 115.827 218.411 115.685C217.794 115.542 217.177 115.471 216.56 115.471C215.562 115.471 214.819 115.637 214.328 115.969C213.837 116.286 213.592 116.697 213.592 117.204C213.592 117.631 213.734 117.964 214.019 118.201C214.32 118.423 214.7 118.597 215.159 118.723C215.634 118.85 216.156 118.961 216.726 119.056C217.295 119.135 217.865 119.246 218.435 119.388C219.005 119.515 219.519 119.697 219.978 119.934C220.453 120.171 220.833 120.504 221.118 120.931C221.418 121.359 221.569 121.928 221.569 122.641C221.569 123.4 221.347 124.057 220.904 124.611C220.461 125.165 219.836 125.6 219.029 125.917C218.221 126.217 217.256 126.368 216.132 126.368ZM231.339 130.973C230.737 130.973 230.152 130.871 229.582 130.665C229.012 130.475 228.522 130.19 228.11 129.81L229.083 128.101C229.4 128.402 229.748 128.631 230.128 128.789C230.508 128.948 230.911 129.027 231.339 129.027C231.893 129.027 232.352 128.884 232.716 128.599C233.08 128.315 233.42 127.808 233.737 127.08L234.52 125.347L234.757 125.062L239.695 113.643H241.927L235.826 127.484C235.462 128.37 235.05 129.066 234.591 129.573C234.148 130.079 233.657 130.435 233.119 130.641C232.581 130.863 231.988 130.973 231.339 130.973ZM234.33 126.629L228.585 113.643H230.959L235.849 124.848L234.33 126.629ZM249.095 126.368C247.829 126.368 246.706 126.091 245.724 125.537C244.743 124.983 243.967 124.223 243.398 123.258C242.828 122.276 242.543 121.169 242.543 119.934C242.543 118.684 242.828 117.576 243.398 116.61C243.967 115.645 244.743 114.893 245.724 114.355C246.706 113.801 247.829 113.524 249.095 113.524C250.346 113.524 251.462 113.801 252.443 114.355C253.44 114.893 254.215 115.645 254.769 116.61C255.339 117.56 255.624 118.668 255.624 119.934C255.624 121.184 255.339 122.292 254.769 123.258C254.215 124.223 253.44 124.983 252.443 125.537C251.462 126.091 250.346 126.368 249.095 126.368ZM249.095 124.374C249.903 124.374 250.623 124.192 251.256 123.828C251.905 123.464 252.411 122.949 252.775 122.284C253.139 121.604 253.321 120.82 253.321 119.934C253.321 119.032 253.139 118.256 252.775 117.608C252.411 116.943 251.905 116.428 251.256 116.064C250.623 115.7 249.903 115.518 249.095 115.518C248.288 115.518 247.568 115.7 246.935 116.064C246.302 116.428 245.795 116.943 245.416 117.608C245.036 118.256 244.846 119.032 244.846 119.934C244.846 120.82 245.036 121.604 245.416 122.284C245.795 122.949 246.302 123.464 246.935 123.828C247.568 124.192 248.288 124.374 249.095 124.374ZM264.07 126.368C262.994 126.368 262.044 126.17 261.221 125.774C260.414 125.379 259.781 124.777 259.322 123.97C258.879 123.147 258.657 122.118 258.657 120.884V113.643H260.936V120.623C260.936 121.857 261.229 122.783 261.815 123.4C262.416 124.017 263.255 124.326 264.331 124.326C265.123 124.326 265.811 124.168 266.397 123.851C266.982 123.519 267.433 123.044 267.75 122.427C268.067 121.794 268.225 121.034 268.225 120.148V113.643H270.504V126.225H268.343V122.83L268.7 123.733C268.288 124.571 267.671 125.22 266.848 125.679C266.025 126.138 265.099 126.368 264.07 126.368ZM284.518 126.225L279.01 113.643H281.385L286.275 125.038H285.136L290.121 113.643H292.353L286.845 126.225H284.518ZM294.48 126.225V113.643H296.759V126.225H294.48ZM295.619 111.221C295.176 111.221 294.804 111.079 294.503 110.794C294.219 110.509 294.076 110.161 294.076 109.749C294.076 109.322 294.219 108.966 294.503 108.681C294.804 108.396 295.176 108.254 295.619 108.254C296.062 108.254 296.426 108.396 296.711 108.681C297.012 108.95 297.162 109.29 297.162 109.702C297.162 110.129 297.02 110.493 296.735 110.794C296.45 111.079 296.078 111.221 295.619 111.221ZM306.713 126.368C305.368 126.368 304.181 126.091 303.152 125.537C302.139 124.983 301.348 124.223 300.778 123.258C300.224 122.292 299.947 121.184 299.947 119.934C299.947 118.684 300.216 117.576 300.754 116.61C301.308 115.645 302.06 114.893 303.01 114.355C303.975 113.801 305.059 113.524 306.262 113.524C307.481 113.524 308.557 113.793 309.491 114.331C310.425 114.869 311.153 115.629 311.675 116.61C312.213 117.576 312.482 118.707 312.482 120.005C312.482 120.1 312.474 120.211 312.458 120.338C312.458 120.464 312.45 120.583 312.435 120.694H301.728V119.056H311.248L310.322 119.625C310.337 118.818 310.171 118.098 309.823 117.465C309.475 116.832 308.992 116.341 308.375 115.993C307.774 115.629 307.069 115.447 306.262 115.447C305.471 115.447 304.766 115.629 304.149 115.993C303.532 116.341 303.049 116.84 302.701 117.489C302.353 118.122 302.179 118.85 302.179 119.673V120.053C302.179 120.892 302.369 121.643 302.748 122.308C303.144 122.957 303.69 123.464 304.387 123.828C305.083 124.192 305.882 124.374 306.784 124.374C307.528 124.374 308.201 124.247 308.802 123.994C309.42 123.74 309.958 123.361 310.417 122.854L311.675 124.326C311.105 124.991 310.393 125.497 309.538 125.845C308.699 126.194 307.758 126.368 306.713 126.368ZM318.074 126.225L313.397 113.643H315.557L319.712 125.038H318.691L323.012 113.643H324.935L329.161 125.038H328.164L332.413 113.643H334.455L329.754 126.225H327.57L323.605 115.827H324.27L320.258 126.225H318.074ZM343.689 130.973C343.088 130.973 342.502 130.871 341.932 130.665C341.363 130.475 340.872 130.19 340.461 129.81L341.434 128.101C341.75 128.402 342.099 128.631 342.478 128.789C342.858 128.948 343.262 129.027 343.689 129.027C344.243 129.027 344.702 128.884 345.066 128.599C345.43 128.315 345.771 127.808 346.087 127.08L346.87 125.347L347.108 125.062L352.046 113.643H354.278L348.176 127.484C347.812 128.37 347.401 129.066 346.942 129.573C346.499 130.079 346.008 130.435 345.47 130.641C344.932 130.863 344.338 130.973 343.689 130.973ZM346.681 126.629L340.935 113.643H343.309L348.2 124.848L346.681 126.629ZM361.446 126.368C360.18 126.368 359.056 126.091 358.075 125.537C357.093 124.983 356.318 124.223 355.748 123.258C355.178 122.276 354.894 121.169 354.894 119.934C354.894 118.684 355.178 117.576 355.748 116.61C356.318 115.645 357.093 114.893 358.075 114.355C359.056 113.801 360.18 113.524 361.446 113.524C362.696 113.524 363.812 113.801 364.793 114.355C365.79 114.893 366.566 115.645 367.12 116.61C367.69 117.56 367.975 118.668 367.975 119.934C367.975 121.184 367.69 122.292 367.12 123.258C366.566 124.223 365.79 124.983 364.793 125.537C363.812 126.091 362.696 126.368 361.446 126.368ZM361.446 124.374C362.253 124.374 362.973 124.192 363.606 123.828C364.255 123.464 364.762 122.949 365.126 122.284C365.49 121.604 365.672 120.82 365.672 119.934C365.672 119.032 365.49 118.256 365.126 117.608C364.762 116.943 364.255 116.428 363.606 116.064C362.973 115.7 362.253 115.518 361.446 115.518C360.639 115.518 359.919 115.7 359.286 116.064C358.652 116.428 358.146 116.943 357.766 117.608C357.386 118.256 357.196 119.032 357.196 119.934C357.196 120.82 357.386 121.604 357.766 122.284C358.146 122.949 358.652 123.464 359.286 123.828C359.919 124.192 360.639 124.374 361.446 124.374ZM376.421 126.368C375.344 126.368 374.395 126.17 373.572 125.774C372.765 125.379 372.132 124.777 371.673 123.97C371.229 123.147 371.008 122.118 371.008 120.884V113.643H373.287V120.623C373.287 121.857 373.58 122.783 374.165 123.4C374.767 124.017 375.606 124.326 376.682 124.326C377.473 124.326 378.162 124.168 378.747 123.851C379.333 123.519 379.784 123.044 380.1 122.427C380.417 121.794 380.575 121.034 380.575 120.148V113.643H382.854V126.225H380.694V122.83L381.05 123.733C380.639 124.571 380.021 125.22 379.198 125.679C378.375 126.138 377.449 126.368 376.421 126.368ZM387.193 126.225V113.643H389.377V117.061L389.164 116.207C389.512 115.336 390.097 114.672 390.92 114.213C391.743 113.754 392.756 113.524 393.959 113.524V115.732C393.864 115.716 393.769 115.708 393.674 115.708C393.595 115.708 393.516 115.708 393.437 115.708C392.218 115.708 391.253 116.072 390.541 116.8C389.828 117.528 389.472 118.581 389.472 119.958V126.225H387.193ZM409.977 126.368C408.933 126.368 407.975 126.13 407.105 125.656C406.25 125.165 405.562 124.445 405.039 123.495C404.533 122.546 404.28 121.359 404.28 119.934C404.28 118.51 404.525 117.323 405.015 116.373C405.522 115.423 406.202 114.711 407.057 114.236C407.928 113.762 408.901 113.524 409.977 113.524C411.212 113.524 412.304 113.793 413.253 114.331C414.203 114.869 414.955 115.621 415.509 116.587C416.063 117.536 416.34 118.652 416.34 119.934C416.34 121.216 416.063 122.34 415.509 123.305C414.955 124.271 414.203 125.022 413.253 125.561C412.304 126.099 411.212 126.368 409.977 126.368ZM403.306 130.831V113.643H405.49V117.038L405.348 119.958L405.585 122.878V130.831H403.306ZM409.787 124.374C410.595 124.374 411.315 124.192 411.948 123.828C412.597 123.464 413.103 122.949 413.467 122.284C413.847 121.604 414.037 120.82 414.037 119.934C414.037 119.032 413.847 118.256 413.467 117.608C413.103 116.943 412.597 116.428 411.948 116.064C411.315 115.7 410.595 115.518 409.787 115.518C408.996 115.518 408.276 115.7 407.627 116.064C406.994 116.428 406.487 116.943 406.108 117.608C405.744 118.256 405.562 119.032 405.562 119.934C405.562 120.82 405.744 121.604 406.108 122.284C406.487 122.949 406.994 123.464 407.627 123.828C408.276 124.192 408.996 124.374 409.787 124.374ZM427.183 126.225V123.566L427.065 123.068V118.533C427.065 117.568 426.78 116.824 426.21 116.302C425.656 115.764 424.817 115.495 423.694 115.495C422.95 115.495 422.222 115.621 421.509 115.874C420.797 116.112 420.196 116.436 419.705 116.848L418.756 115.138C419.404 114.616 420.18 114.221 421.082 113.951C422 113.667 422.958 113.524 423.955 113.524C425.68 113.524 427.009 113.944 427.943 114.782C428.877 115.621 429.344 116.903 429.344 118.628V126.225H427.183ZM423.053 126.368C422.119 126.368 421.296 126.21 420.584 125.893C419.887 125.576 419.349 125.141 418.969 124.587C418.589 124.017 418.399 123.376 418.399 122.664C418.399 121.984 418.558 121.366 418.874 120.812C419.207 120.259 419.737 119.815 420.465 119.483C421.209 119.151 422.206 118.984 423.456 118.984H427.445V120.623H423.551C422.412 120.623 421.644 120.812 421.248 121.192C420.853 121.572 420.655 122.031 420.655 122.569C420.655 123.187 420.9 123.685 421.391 124.065C421.881 124.429 422.562 124.611 423.432 124.611C424.287 124.611 425.031 124.421 425.664 124.041C426.313 123.661 426.78 123.107 427.065 122.379L427.516 123.946C427.215 124.69 426.685 125.284 425.925 125.727C425.165 126.154 424.208 126.368 423.053 126.368ZM437.17 126.368C436.125 126.368 435.128 126.225 434.179 125.94C433.245 125.656 432.509 125.307 431.971 124.896L432.92 123.092C433.459 123.456 434.123 123.764 434.915 124.017C435.706 124.271 436.513 124.397 437.336 124.397C438.397 124.397 439.156 124.247 439.615 123.946C440.09 123.646 440.328 123.226 440.328 122.688C440.328 122.292 440.185 121.984 439.9 121.762C439.615 121.541 439.235 121.374 438.761 121.264C438.302 121.153 437.787 121.058 437.218 120.979C436.648 120.884 436.078 120.773 435.508 120.646C434.938 120.504 434.416 120.314 433.941 120.077C433.467 119.823 433.087 119.483 432.802 119.056C432.517 118.613 432.374 118.027 432.374 117.299C432.374 116.539 432.588 115.874 433.015 115.305C433.443 114.735 434.044 114.3 434.82 113.999C435.611 113.682 436.545 113.524 437.621 113.524C438.444 113.524 439.275 113.627 440.114 113.833C440.969 114.023 441.665 114.3 442.203 114.664L441.23 116.468C440.66 116.088 440.066 115.827 439.449 115.685C438.832 115.542 438.215 115.471 437.597 115.471C436.6 115.471 435.856 115.637 435.366 115.969C434.875 116.286 434.63 116.697 434.63 117.204C434.63 117.631 434.772 117.964 435.057 118.201C435.358 118.423 435.738 118.597 436.197 118.723C436.672 118.85 437.194 118.961 437.764 119.056C438.333 119.135 438.903 119.246 439.473 119.388C440.043 119.515 440.557 119.697 441.016 119.934C441.491 120.171 441.871 120.504 442.156 120.931C442.456 121.359 442.607 121.928 442.607 122.641C442.607 123.4 442.385 124.057 441.942 124.611C441.499 125.165 440.874 125.6 440.066 125.917C439.259 126.217 438.294 126.368 437.17 126.368ZM449.776 126.368C448.51 126.368 447.528 126.028 446.832 125.347C446.136 124.666 445.787 123.693 445.787 122.427V110.889H448.066V122.332C448.066 123.012 448.233 123.535 448.565 123.899C448.913 124.263 449.404 124.445 450.037 124.445C450.749 124.445 451.343 124.247 451.817 123.851L452.53 125.489C452.181 125.79 451.762 126.012 451.271 126.154C450.797 126.297 450.298 126.368 449.776 126.368ZM443.651 115.518V113.643H451.675V115.518H443.651ZM477.401 113.524C478.414 113.524 479.308 113.722 480.083 114.118C480.859 114.513 481.46 115.115 481.888 115.922C482.331 116.729 482.552 117.75 482.552 118.984V126.225H480.273V119.246C480.273 118.027 479.988 117.109 479.419 116.492C478.849 115.874 478.05 115.566 477.021 115.566C476.261 115.566 475.596 115.724 475.027 116.041C474.457 116.357 474.014 116.824 473.697 117.441C473.396 118.059 473.246 118.826 473.246 119.744V126.225H470.967V119.246C470.967 118.027 470.682 117.109 470.112 116.492C469.558 115.874 468.759 115.566 467.715 115.566C466.971 115.566 466.314 115.724 465.744 116.041C465.174 116.357 464.731 116.824 464.415 117.441C464.098 118.059 463.94 118.826 463.94 119.744V126.225H461.661V113.643H463.845V116.99L463.489 116.136C463.884 115.313 464.494 114.672 465.317 114.213C466.14 113.754 467.097 113.524 468.189 113.524C469.392 113.524 470.429 113.825 471.299 114.426C472.17 115.012 472.74 115.906 473.009 117.109L472.083 116.729C472.463 115.764 473.127 114.988 474.077 114.403C475.027 113.817 476.135 113.524 477.401 113.524ZM492.135 126.368C490.869 126.368 489.745 126.091 488.764 125.537C487.783 124.983 487.007 124.223 486.437 123.258C485.868 122.276 485.583 121.169 485.583 119.934C485.583 118.684 485.868 117.576 486.437 116.61C487.007 115.645 487.783 114.893 488.764 114.355C489.745 113.801 490.869 113.524 492.135 113.524C493.385 113.524 494.501 113.801 495.483 114.355C496.48 114.893 497.255 115.645 497.809 116.61C498.379 117.56 498.664 118.668 498.664 119.934C498.664 121.184 498.379 122.292 497.809 123.258C497.255 124.223 496.48 124.983 495.483 125.537C494.501 126.091 493.385 126.368 492.135 126.368ZM492.135 124.374C492.942 124.374 493.662 124.192 494.295 123.828C494.944 123.464 495.451 122.949 495.815 122.284C496.179 121.604 496.361 120.82 496.361 119.934C496.361 119.032 496.179 118.256 495.815 117.608C495.451 116.943 494.944 116.428 494.295 116.064C493.662 115.7 492.942 115.518 492.135 115.518C491.328 115.518 490.608 115.7 489.975 116.064C489.342 116.428 488.835 116.943 488.455 117.608C488.075 118.256 487.886 119.032 487.886 119.934C487.886 120.82 488.075 121.604 488.455 122.284C488.835 122.949 489.342 123.464 489.975 123.828C490.608 124.192 491.328 124.374 492.135 124.374ZM507.205 126.368C505.939 126.368 504.815 126.091 503.834 125.537C502.852 124.983 502.077 124.223 501.507 123.258C500.937 122.276 500.652 121.169 500.652 119.934C500.652 118.684 500.937 117.576 501.507 116.61C502.077 115.645 502.852 114.893 503.834 114.355C504.815 113.801 505.939 113.524 507.205 113.524C508.455 113.524 509.571 113.801 510.552 114.355C511.549 114.893 512.325 115.645 512.879 116.61C513.449 117.56 513.733 118.668 513.733 119.934C513.733 121.184 513.449 122.292 512.879 123.258C512.325 124.223 511.549 124.983 510.552 125.537C509.571 126.091 508.455 126.368 507.205 126.368ZM507.205 124.374C508.012 124.374 508.732 124.192 509.365 123.828C510.014 123.464 510.521 122.949 510.885 122.284C511.249 121.604 511.431 120.82 511.431 119.934C511.431 119.032 511.249 118.256 510.885 117.608C510.521 116.943 510.014 116.428 509.365 116.064C508.732 115.7 508.012 115.518 507.205 115.518C506.398 115.518 505.677 115.7 505.044 116.064C504.411 116.428 503.905 116.943 503.525 117.608C503.145 118.256 502.955 119.032 502.955 119.934C502.955 120.82 503.145 121.604 503.525 122.284C503.905 122.949 504.411 123.464 505.044 123.828C505.677 124.192 506.398 124.374 507.205 124.374ZM522.085 126.368C520.866 126.368 519.774 126.099 518.808 125.561C517.859 125.022 517.107 124.271 516.553 123.305C515.999 122.34 515.722 121.216 515.722 119.934C515.722 118.652 515.999 117.536 516.553 116.587C517.107 115.621 517.859 114.869 518.808 114.331C519.774 113.793 520.866 113.524 522.085 113.524C523.145 113.524 524.103 113.762 524.957 114.236C525.812 114.711 526.492 115.423 526.999 116.373C527.521 117.323 527.782 118.51 527.782 119.934C527.782 121.359 527.529 122.546 527.023 123.495C526.532 124.445 525.859 125.165 525.005 125.656C524.15 126.13 523.177 126.368 522.085 126.368ZM522.274 124.374C523.066 124.374 523.778 124.192 524.411 123.828C525.06 123.464 525.567 122.949 525.931 122.284C526.31 121.604 526.5 120.82 526.5 119.934C526.5 119.032 526.31 118.256 525.931 117.608C525.567 116.943 525.06 116.428 524.411 116.064C523.778 115.7 523.066 115.518 522.274 115.518C521.467 115.518 520.747 115.7 520.114 116.064C519.481 116.428 518.975 116.943 518.595 117.608C518.215 118.256 518.025 119.032 518.025 119.934C518.025 120.82 518.215 121.604 518.595 122.284C518.975 122.949 519.481 123.464 520.114 123.828C520.747 124.192 521.467 124.374 522.274 124.374ZM526.572 126.225V122.83L526.714 119.91L526.477 116.99V108.61H528.756V126.225H526.572ZM536.676 126.368C535.632 126.368 534.635 126.225 533.685 125.94C532.751 125.656 532.015 125.307 531.477 124.896L532.427 123.092C532.965 123.456 533.63 123.764 534.421 124.017C535.212 124.271 536.02 124.397 536.843 124.397C537.903 124.397 538.663 124.247 539.122 123.946C539.597 123.646 539.834 123.226 539.834 122.688C539.834 122.292 539.692 121.984 539.407 121.762C539.122 121.541 538.742 121.374 538.267 121.264C537.808 121.153 537.294 121.058 536.724 120.979C536.154 120.884 535.584 120.773 535.015 120.646C534.445 120.504 533.923 120.314 533.448 120.077C532.973 119.823 532.593 119.483 532.308 119.056C532.023 118.613 531.881 118.027 531.881 117.299C531.881 116.539 532.095 115.874 532.522 115.305C532.949 114.735 533.551 114.3 534.326 113.999C535.118 113.682 536.051 113.524 537.128 113.524C537.951 113.524 538.781 113.627 539.62 113.833C540.475 114.023 541.171 114.3 541.709 114.664L540.736 116.468C540.166 116.088 539.573 115.827 538.956 115.685C538.338 115.542 537.721 115.471 537.104 115.471C536.107 115.471 535.363 115.637 534.872 115.969C534.382 116.286 534.136 116.697 534.136 117.204C534.136 117.631 534.279 117.964 534.564 118.201C534.864 118.423 535.244 118.597 535.703 118.723C536.178 118.85 536.7 118.961 537.27 119.056C537.84 119.135 538.41 119.246 538.979 119.388C539.549 119.515 540.063 119.697 540.522 119.934C540.997 120.171 541.377 120.504 541.662 120.931C541.963 121.359 542.113 121.928 542.113 122.641C542.113 123.4 541.892 124.057 541.448 124.611C541.005 125.165 540.38 125.6 539.573 125.917C538.766 126.217 537.8 126.368 536.676 126.368ZM52.7127 152.225V149.566L52.594 149.068V144.533C52.594 143.568 52.3092 142.824 51.7394 142.302C51.1854 141.764 50.3466 141.495 49.2229 141.495C48.479 141.495 47.751 141.621 47.0387 141.874C46.3265 142.112 45.7251 142.436 45.2345 142.848L44.2848 141.138C44.9337 140.616 45.7093 140.221 46.6114 139.951C47.5294 139.667 48.4869 139.524 49.484 139.524C51.2092 139.524 52.5386 139.944 53.4724 140.782C54.4062 141.621 54.8731 142.903 54.8731 144.628V152.225H52.7127ZM48.5819 152.368C47.6481 152.368 46.8251 152.21 46.1129 151.893C45.4165 151.576 44.8784 151.141 44.4985 150.587C44.1187 150.017 43.9287 149.376 43.9287 148.664C43.9287 147.984 44.087 147.366 44.4035 146.812C44.7359 146.259 45.2661 145.815 45.9942 145.483C46.738 145.151 47.7351 144.984 48.9855 144.984H52.9739V146.623H49.0804C47.9409 146.623 47.1733 146.812 46.7776 147.192C46.3819 147.572 46.1841 148.031 46.1841 148.569C46.1841 149.187 46.4294 149.685 46.92 150.065C47.4107 150.429 48.0912 150.611 48.9617 150.611C49.8164 150.611 50.5603 150.421 51.1933 150.041C51.8423 149.661 52.3092 149.107 52.594 148.379L53.0451 149.946C52.7444 150.69 52.2142 151.284 51.4545 151.727C50.6948 152.154 49.7373 152.368 48.5819 152.368ZM65.8094 139.524C66.8381 139.524 67.7403 139.722 68.5158 140.118C69.3072 140.513 69.9244 141.115 70.3676 141.922C70.8107 142.729 71.0323 143.75 71.0323 144.984V152.225H68.7532V145.246C68.7532 144.027 68.4525 143.109 67.8511 142.492C67.2655 141.874 66.4346 141.566 65.3583 141.566C64.5511 141.566 63.8468 141.724 63.2454 142.041C62.644 142.357 62.1771 142.824 61.8447 143.441C61.5282 144.059 61.3699 144.826 61.3699 145.744V152.225H59.0908V139.643H61.2749V143.038L60.9188 142.136C61.3303 141.313 61.9634 140.672 62.8181 140.213C63.6727 139.754 64.6698 139.524 65.8094 139.524ZM80.4494 152.368C79.2307 152.368 78.1386 152.099 77.1732 151.561C76.2235 151.022 75.4717 150.271 74.9178 149.305C74.3639 148.34 74.0869 147.216 74.0869 145.934C74.0869 144.652 74.3639 143.536 74.9178 142.587C75.4717 141.621 76.2235 140.869 77.1732 140.331C78.1386 139.793 79.2307 139.524 80.4494 139.524C81.5098 139.524 82.4673 139.762 83.322 140.236C84.1766 140.711 84.8572 141.423 85.3637 142.373C85.886 143.323 86.1471 144.51 86.1471 145.934C86.1471 147.359 85.8939 148.546 85.3874 149.495C84.8968 150.445 84.2241 151.165 83.3695 151.656C82.5148 152.13 81.5414 152.368 80.4494 152.368ZM80.6393 150.374C81.4306 150.374 82.1429 150.192 82.7759 149.828C83.4248 149.464 83.9313 148.949 84.2953 148.284C84.6752 147.604 84.8651 146.82 84.8651 145.934C84.8651 145.032 84.6752 144.256 84.2953 143.608C83.9313 142.943 83.4248 142.428 82.7759 142.064C82.1429 141.7 81.4306 141.518 80.6393 141.518C79.8321 141.518 79.112 141.7 78.4789 142.064C77.8458 142.428 77.3393 142.943 76.9595 143.608C76.5796 144.256 76.3897 145.032 76.3897 145.934C76.3897 146.82 76.5796 147.604 76.9595 148.284C77.3393 148.949 77.8458 149.464 78.4789 149.828C79.112 150.192 79.8321 150.374 80.6393 150.374ZM84.9363 152.225V148.83L85.0788 145.91L84.8414 142.99V134.61H87.1205V152.225H84.9363ZM100.467 152.225L95.7904 139.643H97.9508L102.105 151.038H101.085L105.405 139.643H107.328L111.554 151.038H110.557L114.807 139.643H116.848L112.148 152.225H109.964L105.999 141.827H106.664L102.651 152.225H100.467ZM124.416 152.368C123.071 152.368 121.884 152.091 120.855 151.537C119.842 150.983 119.051 150.223 118.481 149.258C117.927 148.292 117.65 147.184 117.65 145.934C117.65 144.684 117.919 143.576 118.457 142.61C119.011 141.645 119.763 140.893 120.712 140.355C121.678 139.801 122.762 139.524 123.965 139.524C125.184 139.524 126.26 139.793 127.194 140.331C128.127 140.869 128.855 141.629 129.378 142.61C129.916 143.576 130.185 144.707 130.185 146.005C130.185 146.1 130.177 146.211 130.161 146.338C130.161 146.464 130.153 146.583 130.137 146.694H119.43V145.056H128.95L128.025 145.625C128.04 144.818 127.874 144.098 127.526 143.465C127.178 142.832 126.695 142.341 126.078 141.993C125.476 141.629 124.772 141.447 123.965 141.447C123.174 141.447 122.469 141.629 121.852 141.993C121.235 142.341 120.752 142.84 120.404 143.489C120.056 144.122 119.882 144.85 119.882 145.673V146.053C119.882 146.892 120.071 147.643 120.451 148.308C120.847 148.957 121.393 149.464 122.089 149.828C122.786 150.192 123.585 150.374 124.487 150.374C125.231 150.374 125.904 150.247 126.505 149.994C127.122 149.74 127.661 149.361 128.12 148.854L129.378 150.326C128.808 150.991 128.096 151.497 127.241 151.845C126.402 152.194 125.461 152.368 124.416 152.368ZM138.952 152.368C137.607 152.368 136.42 152.091 135.391 151.537C134.378 150.983 133.587 150.223 133.017 149.258C132.463 148.292 132.186 147.184 132.186 145.934C132.186 144.684 132.455 143.576 132.994 142.61C133.548 141.645 134.299 140.893 135.249 140.355C136.214 139.801 137.299 139.524 138.501 139.524C139.72 139.524 140.796 139.793 141.73 140.331C142.664 140.869 143.392 141.629 143.914 142.61C144.452 143.576 144.721 144.707 144.721 146.005C144.721 146.1 144.714 146.211 144.698 146.338C144.698 146.464 144.69 146.583 144.674 146.694H133.967V145.056H143.487L142.561 145.625C142.577 144.818 142.411 144.098 142.062 143.465C141.714 142.832 141.232 142.341 140.614 141.993C140.013 141.629 139.309 141.447 138.501 141.447C137.71 141.447 137.006 141.629 136.388 141.993C135.771 142.341 135.289 142.84 134.94 143.489C134.592 144.122 134.418 144.85 134.418 145.673V146.053C134.418 146.892 134.608 147.643 134.988 148.308C135.383 148.957 135.93 149.464 136.626 149.828C137.322 150.192 138.122 150.374 139.024 150.374C139.768 150.374 140.44 150.247 141.042 149.994C141.659 149.74 142.197 149.361 142.656 148.854L143.914 150.326C143.344 150.991 142.632 151.497 141.778 151.845C140.939 152.194 139.997 152.368 138.952 152.368ZM149.738 149.187L149.785 146.266L157.026 139.643H159.78L154.225 145.103L152.99 146.148L149.738 149.187ZM147.886 152.225V134.61H150.165V152.225H147.886ZM157.501 152.225L152.563 146.1L154.035 144.272L160.302 152.225H157.501ZM162.515 152.225V134.61H164.794V152.225H162.515ZM169.692 156.973C169.091 156.973 168.505 156.871 167.935 156.665C167.366 156.475 166.875 156.19 166.463 155.81L167.437 154.101C167.753 154.402 168.101 154.631 168.481 154.789C168.861 154.948 169.265 155.027 169.692 155.027C170.246 155.027 170.705 154.884 171.069 154.599C171.433 154.315 171.773 153.808 172.09 153.08L172.873 151.347L173.111 151.062L178.049 139.643H180.28L174.179 153.484C173.815 154.37 173.404 155.066 172.945 155.573C172.501 156.079 172.011 156.435 171.473 156.641C170.935 156.863 170.341 156.973 169.692 156.973ZM172.683 152.629L166.938 139.643H169.312L174.203 150.848L172.683 152.629ZM192.392 152.368C191.347 152.368 190.35 152.225 189.4 151.94C188.467 151.656 187.731 151.307 187.192 150.896L188.142 149.092C188.68 149.456 189.345 149.764 190.136 150.017C190.928 150.271 191.735 150.397 192.558 150.397C193.618 150.397 194.378 150.247 194.837 149.946C195.312 149.646 195.549 149.226 195.549 148.688C195.549 148.292 195.407 147.984 195.122 147.762C194.837 147.541 194.457 147.374 193.982 147.264C193.523 147.153 193.009 147.058 192.439 146.979C191.869 146.884 191.3 146.773 190.73 146.646C190.16 146.504 189.638 146.314 189.163 146.077C188.688 145.823 188.308 145.483 188.023 145.056C187.738 144.613 187.596 144.027 187.596 143.299C187.596 142.539 187.81 141.874 188.237 141.305C188.664 140.735 189.266 140.3 190.041 139.999C190.833 139.682 191.766 139.524 192.843 139.524C193.666 139.524 194.497 139.627 195.335 139.833C196.19 140.023 196.886 140.3 197.425 140.664L196.451 142.468C195.881 142.088 195.288 141.827 194.671 141.685C194.053 141.542 193.436 141.471 192.819 141.471C191.822 141.471 191.078 141.637 190.587 141.969C190.097 142.286 189.851 142.697 189.851 143.204C189.851 143.631 189.994 143.964 190.279 144.201C190.579 144.423 190.959 144.597 191.418 144.723C191.893 144.85 192.415 144.961 192.985 145.056C193.555 145.135 194.125 145.246 194.694 145.388C195.264 145.515 195.779 145.697 196.238 145.934C196.712 146.171 197.092 146.504 197.377 146.931C197.678 147.359 197.828 147.928 197.828 148.641C197.828 149.4 197.607 150.057 197.163 150.611C196.72 151.165 196.095 151.6 195.288 151.917C194.481 152.217 193.515 152.368 192.392 152.368ZM205.971 152.368C204.894 152.368 203.945 152.17 203.122 151.774C202.315 151.379 201.682 150.777 201.223 149.97C200.779 149.147 200.558 148.118 200.558 146.884V139.643H202.837V146.623C202.837 147.857 203.13 148.783 203.715 149.4C204.317 150.017 205.156 150.326 206.232 150.326C207.023 150.326 207.712 150.168 208.297 149.851C208.883 149.519 209.334 149.044 209.65 148.427C209.967 147.794 210.125 147.034 210.125 146.148V139.643H212.404V152.225H210.244V148.83L210.6 149.733C210.189 150.571 209.571 151.22 208.748 151.679C207.925 152.138 206.999 152.368 205.971 152.368ZM232.483 139.524C233.496 139.524 234.39 139.722 235.166 140.118C235.941 140.513 236.543 141.115 236.97 141.922C237.413 142.729 237.635 143.75 237.635 144.984V152.225H235.356V145.246C235.356 144.027 235.071 143.109 234.501 142.492C233.931 141.874 233.132 141.566 232.103 141.566C231.344 141.566 230.679 141.724 230.109 142.041C229.539 142.357 229.096 142.824 228.78 143.441C228.479 144.059 228.329 144.826 228.329 145.744V152.225H226.049V145.246C226.049 144.027 225.765 143.109 225.195 142.492C224.641 141.874 223.842 141.566 222.797 141.566C222.053 141.566 221.396 141.724 220.827 142.041C220.257 142.357 219.814 142.824 219.497 143.441C219.181 144.059 219.022 144.826 219.022 145.744V152.225H216.743V139.643H218.927V142.99L218.571 142.136C218.967 141.313 219.576 140.672 220.399 140.213C221.222 139.754 222.18 139.524 223.272 139.524C224.475 139.524 225.511 139.825 226.382 140.426C227.252 141.012 227.822 141.906 228.091 143.109L227.165 142.729C227.545 141.764 228.21 140.988 229.159 140.403C230.109 139.817 231.217 139.524 232.483 139.524ZM257.568 139.524C258.581 139.524 259.476 139.722 260.251 140.118C261.027 140.513 261.628 141.115 262.055 141.922C262.499 142.729 262.72 143.75 262.72 144.984V152.225H260.441V145.246C260.441 144.027 260.156 143.109 259.586 142.492C259.017 141.874 258.217 141.566 257.189 141.566C256.429 141.566 255.764 141.724 255.194 142.041C254.625 142.357 254.181 142.824 253.865 143.441C253.564 144.059 253.414 144.826 253.414 145.744V152.225H251.135V145.246C251.135 144.027 250.85 143.109 250.28 142.492C249.726 141.874 248.927 141.566 247.882 141.566C247.138 141.566 246.482 141.724 245.912 142.041C245.342 142.357 244.899 142.824 244.582 143.441C244.266 144.059 244.108 144.826 244.108 145.744V152.225H241.828V139.643H244.013V142.99L243.656 142.136C244.052 141.313 244.661 140.672 245.484 140.213C246.307 139.754 247.265 139.524 248.357 139.524C249.56 139.524 250.597 139.825 251.467 140.426C252.338 141.012 252.907 141.906 253.176 143.109L252.251 142.729C252.63 141.764 253.295 140.988 254.245 140.403C255.194 139.817 256.302 139.524 257.568 139.524ZM274.724 152.225V149.566L274.606 149.068V144.533C274.606 143.568 274.321 142.824 273.751 142.302C273.197 141.764 272.358 141.495 271.234 141.495C270.491 141.495 269.763 141.621 269.05 141.874C268.338 142.112 267.737 142.436 267.246 142.848L266.296 141.138C266.945 140.616 267.721 140.221 268.623 139.951C269.541 139.667 270.499 139.524 271.496 139.524C273.221 139.524 274.55 139.944 275.484 140.782C276.418 141.621 276.885 142.903 276.885 144.628V152.225H274.724ZM270.593 152.368C269.66 152.368 268.837 152.21 268.124 151.893C267.428 151.576 266.89 151.141 266.51 150.587C266.13 150.017 265.94 149.376 265.94 148.664C265.94 147.984 266.099 147.366 266.415 146.812C266.747 146.259 267.278 145.815 268.006 145.483C268.75 145.151 269.747 144.984 270.997 144.984H274.985V146.623H271.092C269.952 146.623 269.185 146.812 268.789 147.192C268.394 147.572 268.196 148.031 268.196 148.569C268.196 149.187 268.441 149.685 268.932 150.065C269.422 150.429 270.103 150.611 270.973 150.611C271.828 150.611 272.572 150.421 273.205 150.041C273.854 149.661 274.321 149.107 274.606 148.379L275.057 149.946C274.756 150.69 274.226 151.284 273.466 151.727C272.706 152.154 271.749 152.368 270.593 152.368ZM281.102 152.225V139.643H283.287V143.061L283.073 142.207C283.421 141.336 284.007 140.672 284.83 140.213C285.653 139.754 286.666 139.524 287.868 139.524V141.732C287.774 141.716 287.679 141.708 287.584 141.708C287.504 141.708 287.425 141.708 287.346 141.708C286.127 141.708 285.162 142.072 284.45 142.8C283.738 143.528 283.381 144.581 283.381 145.958V152.225H281.102ZM290.677 152.225V139.643H292.957V152.225H290.677ZM291.817 137.221C291.374 137.221 291.002 137.079 290.701 136.794C290.416 136.509 290.274 136.161 290.274 135.749C290.274 135.322 290.416 134.966 290.701 134.681C291.002 134.396 291.374 134.254 291.817 134.254C292.26 134.254 292.624 134.396 292.909 134.681C293.21 134.95 293.36 135.29 293.36 135.702C293.36 136.129 293.218 136.493 292.933 136.794C292.648 137.079 292.276 137.221 291.817 137.221ZM302.911 152.368C301.566 152.368 300.379 152.091 299.35 151.537C298.337 150.983 297.546 150.223 296.976 149.258C296.422 148.292 296.145 147.184 296.145 145.934C296.145 144.684 296.414 143.576 296.952 142.61C297.506 141.645 298.258 140.893 299.207 140.355C300.173 139.801 301.257 139.524 302.46 139.524C303.679 139.524 304.755 139.793 305.689 140.331C306.622 140.869 307.35 141.629 307.873 142.61C308.411 143.576 308.68 144.707 308.68 146.005C308.68 146.1 308.672 146.211 308.656 146.338C308.656 146.464 308.648 146.583 308.632 146.694H297.925V145.056H307.445L306.519 145.625C306.535 144.818 306.369 144.098 306.021 143.465C305.673 142.832 305.19 142.341 304.573 141.993C303.971 141.629 303.267 141.447 302.46 141.447C301.668 141.447 300.964 141.629 300.347 141.993C299.73 142.341 299.247 142.84 298.899 143.489C298.551 144.122 298.376 144.85 298.376 145.673V146.053C298.376 146.892 298.566 147.643 298.946 148.308C299.342 148.957 299.888 149.464 300.584 149.828C301.281 150.192 302.08 150.374 302.982 150.374C303.726 150.374 304.399 150.247 305 149.994C305.617 149.74 306.155 149.361 306.614 148.854L307.873 150.326C307.303 150.991 306.591 151.497 305.736 151.845C304.897 152.194 303.955 152.368 302.911 152.368ZM315.453 152.368C314.409 152.368 313.411 152.225 312.462 151.94C311.528 151.656 310.792 151.307 310.254 150.896L311.204 149.092C311.742 149.456 312.406 149.764 313.198 150.017C313.989 150.271 314.796 150.397 315.619 150.397C316.68 150.397 317.439 150.247 317.898 149.946C318.373 149.646 318.611 149.226 318.611 148.688C318.611 148.292 318.468 147.984 318.183 147.762C317.898 147.541 317.519 147.374 317.044 147.264C316.585 147.153 316.07 147.058 315.501 146.979C314.931 146.884 314.361 146.773 313.791 146.646C313.222 146.504 312.699 146.314 312.224 146.077C311.75 145.823 311.37 145.483 311.085 145.056C310.8 144.613 310.658 144.027 310.658 143.299C310.658 142.539 310.871 141.874 311.299 141.305C311.726 140.735 312.327 140.3 313.103 139.999C313.894 139.682 314.828 139.524 315.904 139.524C316.727 139.524 317.558 139.627 318.397 139.833C319.252 140.023 319.948 140.3 320.486 140.664L319.513 142.468C318.943 142.088 318.35 141.827 317.732 141.685C317.115 141.542 316.498 141.471 315.88 141.471C314.883 141.471 314.14 141.637 313.649 141.969C313.158 142.286 312.913 142.697 312.913 143.204C312.913 143.631 313.055 143.964 313.34 144.201C313.641 144.423 314.021 144.597 314.48 144.723C314.955 144.85 315.477 144.961 316.047 145.056C316.616 145.135 317.186 145.246 317.756 145.388C318.326 145.515 318.84 145.697 319.299 145.934C319.774 146.171 320.154 146.504 320.439 146.931C320.739 147.359 320.89 147.928 320.89 148.641C320.89 149.4 320.668 150.057 320.225 150.611C319.782 151.165 319.157 151.6 318.35 151.917C317.542 152.217 316.577 152.368 315.453 152.368ZM330.114 152.225V139.643H332.393V152.225H330.114ZM331.253 137.221C330.81 137.221 330.438 137.079 330.137 136.794C329.853 136.509 329.71 136.161 329.71 135.749C329.71 135.322 329.853 134.966 330.137 134.681C330.438 134.396 330.81 134.254 331.253 134.254C331.696 134.254 332.06 134.396 332.345 134.681C332.646 134.95 332.796 135.29 332.796 135.702C332.796 136.129 332.654 136.493 332.369 136.794C332.084 137.079 331.712 137.221 331.253 137.221ZM343.463 139.524C344.492 139.524 345.394 139.722 346.169 140.118C346.961 140.513 347.578 141.115 348.021 141.922C348.464 142.729 348.686 143.75 348.686 144.984V152.225H346.407V145.246C346.407 144.027 346.106 143.109 345.505 142.492C344.919 141.874 344.088 141.566 343.012 141.566C342.205 141.566 341.5 141.724 340.899 142.041C340.298 142.357 339.831 142.824 339.498 143.441C339.182 144.059 339.023 144.826 339.023 145.744V152.225H336.744V139.643H338.929V143.038L338.572 142.136C338.984 141.313 339.617 140.672 340.472 140.213C341.326 139.754 342.323 139.524 343.463 139.524ZM367.09 152.225V149.566L366.971 149.068V144.533C366.971 143.568 366.686 142.824 366.117 142.302C365.563 141.764 364.724 141.495 363.6 141.495C362.856 141.495 362.128 141.621 361.416 141.874C360.704 142.112 360.102 142.436 359.612 142.848L358.662 141.138C359.311 140.616 360.087 140.221 360.989 139.951C361.907 139.667 362.864 139.524 363.861 139.524C365.586 139.524 366.916 139.944 367.85 140.782C368.784 141.621 369.25 142.903 369.25 144.628V152.225H367.09ZM362.959 152.368C362.025 152.368 361.202 152.21 360.49 151.893C359.794 151.576 359.256 151.141 358.876 150.587C358.496 150.017 358.306 149.376 358.306 148.664C358.306 147.984 358.464 147.366 358.781 146.812C359.113 146.259 359.643 145.815 360.371 145.483C361.115 145.151 362.112 144.984 363.363 144.984H367.351V146.623H363.458C362.318 146.623 361.551 146.812 361.155 147.192C360.759 147.572 360.561 148.031 360.561 148.569C360.561 149.187 360.807 149.685 361.297 150.065C361.788 150.429 362.469 150.611 363.339 150.611C364.194 150.611 364.938 150.421 365.571 150.041C366.22 149.661 366.686 149.107 366.971 148.379L367.422 149.946C367.122 150.69 366.592 151.284 365.832 151.727C365.072 152.154 364.115 152.368 362.959 152.368ZM385.328 152.368C384.046 152.368 382.898 152.091 381.885 151.537C380.888 150.983 380.105 150.223 379.535 149.258C378.965 148.292 378.68 147.184 378.68 145.934C378.68 144.684 378.965 143.576 379.535 142.61C380.105 141.645 380.888 140.893 381.885 140.355C382.898 139.801 384.046 139.524 385.328 139.524C386.467 139.524 387.48 139.754 388.367 140.213C389.269 140.656 389.965 141.32 390.456 142.207L388.723 143.323C388.311 142.705 387.805 142.254 387.203 141.969C386.618 141.669 385.985 141.518 385.304 141.518C384.481 141.518 383.745 141.7 383.096 142.064C382.447 142.428 381.933 142.943 381.553 143.608C381.173 144.256 380.983 145.032 380.983 145.934C380.983 146.836 381.173 147.62 381.553 148.284C381.933 148.949 382.447 149.464 383.096 149.828C383.745 150.192 384.481 150.374 385.304 150.374C385.985 150.374 386.618 150.231 387.203 149.946C387.805 149.646 388.311 149.187 388.723 148.569L390.456 149.661C389.965 150.532 389.269 151.204 388.367 151.679C387.48 152.138 386.467 152.368 385.328 152.368ZM393.244 152.225V134.61H395.523V152.225H393.244ZM405.478 152.368C404.132 152.368 402.945 152.091 401.917 151.537C400.904 150.983 400.112 150.223 399.543 149.258C398.989 148.292 398.712 147.184 398.712 145.934C398.712 144.684 398.981 143.576 399.519 142.61C400.073 141.645 400.824 140.893 401.774 140.355C402.74 139.801 403.824 139.524 405.027 139.524C406.245 139.524 407.322 139.793 408.255 140.331C409.189 140.869 409.917 141.629 410.439 142.61C410.978 143.576 411.247 144.707 411.247 146.005C411.247 146.1 411.239 146.211 411.223 146.338C411.223 146.464 411.215 146.583 411.199 146.694H400.492V145.056H410.012L409.086 145.625C409.102 144.818 408.936 144.098 408.588 143.465C408.239 142.832 407.757 142.341 407.139 141.993C406.538 141.629 405.834 141.447 405.027 141.447C404.235 141.447 403.531 141.629 402.914 141.993C402.296 142.341 401.814 142.84 401.465 143.489C401.117 144.122 400.943 144.85 400.943 145.673V146.053C400.943 146.892 401.133 147.643 401.513 148.308C401.909 148.957 402.455 149.464 403.151 149.828C403.847 150.192 404.647 150.374 405.549 150.374C406.293 150.374 406.965 150.247 407.567 149.994C408.184 149.74 408.722 149.361 409.181 148.854L410.439 150.326C409.87 150.991 409.157 151.497 408.303 151.845C407.464 152.194 406.522 152.368 405.478 152.368ZM421.874 152.225V149.566L421.756 149.068V144.533C421.756 143.568 421.471 142.824 420.901 142.302C420.347 141.764 419.508 141.495 418.384 141.495C417.641 141.495 416.912 141.621 416.2 141.874C415.488 142.112 414.887 142.436 414.396 142.848L413.446 141.138C414.095 140.616 414.871 140.221 415.773 139.951C416.691 139.667 417.648 139.524 418.646 139.524C420.371 139.524 421.7 139.944 422.634 140.782C423.568 141.621 424.035 142.903 424.035 144.628V152.225H421.874ZM417.743 152.368C416.81 152.368 415.987 152.21 415.274 151.893C414.578 151.576 414.04 151.141 413.66 150.587C413.28 150.017 413.09 149.376 413.09 148.664C413.09 147.984 413.248 147.366 413.565 146.812C413.897 146.259 414.428 145.815 415.156 145.483C415.9 145.151 416.897 144.984 418.147 144.984H422.135V146.623H418.242C417.102 146.623 416.335 146.812 415.939 147.192C415.543 147.572 415.346 148.031 415.346 148.569C415.346 149.187 415.591 149.685 416.082 150.065C416.572 150.429 417.253 150.611 418.123 150.611C418.978 150.611 419.722 150.421 420.355 150.041C421.004 149.661 421.471 149.107 421.756 148.379L422.207 149.946C421.906 150.69 421.376 151.284 420.616 151.727C419.856 152.154 418.899 152.368 417.743 152.368ZM428.252 152.225V139.643H430.436V143.061L430.223 142.207C430.571 141.336 431.157 140.672 431.98 140.213C432.803 139.754 433.816 139.524 435.018 139.524V141.732C434.923 141.716 434.828 141.708 434.733 141.708C434.654 141.708 434.575 141.708 434.496 141.708C433.277 141.708 432.312 142.072 431.6 142.8C430.888 143.528 430.531 144.581 430.531 145.958V152.225H428.252ZM452.176 152.225V149.566L452.057 149.068V144.533C452.057 143.568 451.772 142.824 451.203 142.302C450.649 141.764 449.81 141.495 448.686 141.495C447.942 141.495 447.214 141.621 446.502 141.874C445.79 142.112 445.188 142.436 444.698 142.848L443.748 141.138C444.397 140.616 445.172 140.221 446.075 139.951C446.993 139.667 447.95 139.524 448.947 139.524C450.672 139.524 452.002 139.944 452.936 140.782C453.869 141.621 454.336 142.903 454.336 144.628V152.225H452.176ZM448.045 152.368C447.111 152.368 446.288 152.21 445.576 151.893C444.88 151.576 444.342 151.141 443.962 150.587C443.582 150.017 443.392 149.376 443.392 148.664C443.392 147.984 443.55 147.366 443.867 146.812C444.199 146.259 444.729 145.815 445.457 145.483C446.201 145.151 447.198 144.984 448.449 144.984H452.437V146.623H448.544C447.404 146.623 446.636 146.812 446.241 147.192C445.845 147.572 445.647 148.031 445.647 148.569C445.647 149.187 445.893 149.685 446.383 150.065C446.874 150.429 447.554 150.611 448.425 150.611C449.28 150.611 450.023 150.421 450.657 150.041C451.305 149.661 451.772 149.107 452.057 148.379L452.508 149.946C452.208 150.69 451.677 151.284 450.918 151.727C450.158 152.154 449.2 152.368 448.045 152.368ZM465.273 139.524C466.301 139.524 467.203 139.722 467.979 140.118C468.77 140.513 469.388 141.115 469.831 141.922C470.274 142.729 470.496 143.75 470.496 144.984V152.225H468.216V145.246C468.216 144.027 467.916 143.109 467.314 142.492C466.729 141.874 465.898 141.566 464.822 141.566C464.014 141.566 463.31 141.724 462.709 142.041C462.107 142.357 461.64 142.824 461.308 143.441C460.991 144.059 460.833 144.826 460.833 145.744V152.225H458.554V139.643H460.738V143.038L460.382 142.136C460.794 141.313 461.427 140.672 462.281 140.213C463.136 139.754 464.133 139.524 465.273 139.524ZM479.913 152.368C478.694 152.368 477.602 152.099 476.636 151.561C475.687 151.022 474.935 150.271 474.381 149.305C473.827 148.34 473.55 147.216 473.55 145.934C473.55 144.652 473.827 143.536 474.381 142.587C474.935 141.621 475.687 140.869 476.636 140.331C477.602 139.793 478.694 139.524 479.913 139.524C480.973 139.524 481.931 139.762 482.785 140.236C483.64 140.711 484.32 141.423 484.827 142.373C485.349 143.323 485.61 144.51 485.61 145.934C485.61 147.359 485.357 148.546 484.851 149.495C484.36 150.445 483.687 151.165 482.833 151.656C481.978 152.13 481.005 152.368 479.913 152.368ZM480.102 150.374C480.894 150.374 481.606 150.192 482.239 149.828C482.888 149.464 483.395 148.949 483.759 148.284C484.138 147.604 484.328 146.82 484.328 145.934C484.328 145.032 484.138 144.256 483.759 143.608C483.395 142.943 482.888 142.428 482.239 142.064C481.606 141.7 480.894 141.518 480.102 141.518C479.295 141.518 478.575 141.7 477.942 142.064C477.309 142.428 476.803 142.943 476.423 143.608C476.043 144.256 475.853 145.032 475.853 145.934C475.853 146.82 476.043 147.604 476.423 148.284C476.803 148.949 477.309 149.464 477.942 149.828C478.575 150.192 479.295 150.374 480.102 150.374ZM484.4 152.225V148.83L484.542 145.91L484.305 142.99V134.61H486.584V152.225H484.4ZM48.5107 178.368C47.4661 178.368 46.469 178.225 45.5193 177.94C44.5856 177.656 43.8496 177.307 43.3115 176.896L44.2611 175.092C44.7992 175.456 45.464 175.764 46.2553 176.017C47.0467 176.271 47.8538 176.397 48.6768 176.397C49.7373 176.397 50.497 176.247 50.9559 175.946C51.4308 175.646 51.6682 175.226 51.6682 174.688C51.6682 174.292 51.5257 173.984 51.2408 173.762C50.9559 173.541 50.5761 173.374 50.1013 173.264C49.6423 173.153 49.1279 173.058 48.5581 172.979C47.9884 172.884 47.4186 172.773 46.8488 172.646C46.279 172.504 45.7568 172.314 45.2819 172.077C44.8071 171.823 44.4273 171.483 44.1424 171.056C43.8575 170.613 43.7151 170.027 43.7151 169.299C43.7151 168.539 43.9287 167.874 44.3561 167.305C44.7834 166.735 45.3848 166.3 46.1603 165.999C46.9517 165.682 47.8855 165.524 48.9617 165.524C49.7847 165.524 50.6157 165.627 51.4545 165.833C52.3092 166.023 53.0055 166.3 53.5437 166.664L52.5703 168.468C52.0005 168.088 51.407 167.827 50.7898 167.685C50.1725 167.542 49.5552 167.471 48.938 167.471C47.9409 167.471 47.197 167.637 46.7064 167.969C46.2157 168.286 45.9704 168.697 45.9704 169.204C45.9704 169.631 46.1129 169.964 46.3977 170.201C46.6985 170.423 47.0783 170.597 47.5373 170.723C48.0121 170.85 48.5344 170.961 49.1042 171.056C49.674 171.135 50.2437 171.246 50.8135 171.388C51.3833 171.515 51.8977 171.697 52.3566 171.934C52.8314 172.171 53.2113 172.504 53.4962 172.931C53.7969 173.359 53.9473 173.928 53.9473 174.641C53.9473 175.4 53.7257 176.057 53.2825 176.611C52.8394 177.165 52.2142 177.6 51.407 177.917C50.5998 178.217 49.6344 178.368 48.5107 178.368ZM56.7956 178.225V165.643H59.0747V178.225H56.7956ZM57.9351 163.221C57.492 163.221 57.12 163.079 56.8193 162.794C56.5344 162.509 56.392 162.161 56.392 161.749C56.392 161.322 56.5344 160.966 56.8193 160.681C57.12 160.396 57.492 160.254 57.9351 160.254C58.3783 160.254 58.7423 160.396 59.0272 160.681C59.3279 160.95 59.4783 161.29 59.4783 161.702C59.4783 162.129 59.3358 162.493 59.0509 162.794C58.766 163.079 58.3941 163.221 57.9351 163.221ZM79.1663 165.524C80.1792 165.524 81.0734 165.722 81.8489 166.118C82.6245 166.513 83.2259 167.115 83.6532 167.922C84.0964 168.729 84.318 169.75 84.318 170.984V178.225H82.0389V171.246C82.0389 170.027 81.754 169.109 81.1842 168.492C80.6144 167.874 79.8152 167.566 78.7864 167.566C78.0267 167.566 77.362 167.724 76.7922 168.041C76.2224 168.357 75.7793 168.824 75.4627 169.441C75.162 170.059 75.0116 170.826 75.0116 171.744V178.225H72.7326V171.246C72.7326 170.027 72.4477 169.109 71.8779 168.492C71.3239 167.874 70.5247 167.566 69.4801 167.566C68.7362 167.566 68.0794 167.724 67.5096 168.041C66.9398 168.357 66.4967 168.824 66.1802 169.441C65.8636 170.059 65.7053 170.826 65.7053 171.744V178.225H63.4262V165.643H65.6104V168.99L65.2543 168.136C65.6499 167.313 66.2593 166.672 67.0823 166.213C67.9053 165.754 68.8628 165.524 69.9549 165.524C71.1578 165.524 72.1944 165.825 73.0649 166.426C73.9354 167.012 74.5052 167.906 74.7742 169.109L73.8484 168.729C74.2282 167.764 74.8929 166.988 75.8426 166.403C76.7922 165.817 77.9001 165.524 79.1663 165.524ZM95.1826 178.368C94.138 178.368 93.1805 178.13 92.31 177.656C91.4553 177.165 90.7669 176.445 90.2446 175.495C89.7381 174.546 89.4849 173.359 89.4849 171.934C89.4849 170.51 89.7302 169.323 90.2208 168.373C90.7273 167.423 91.4079 166.711 92.2625 166.236C93.133 165.762 94.1064 165.524 95.1826 165.524C96.4171 165.524 97.5092 165.793 98.4588 166.331C99.4084 166.869 100.16 167.621 100.714 168.587C101.268 169.536 101.545 170.652 101.545 171.934C101.545 173.216 101.268 174.34 100.714 175.305C100.16 176.271 99.4084 177.022 98.4588 177.561C97.5092 178.099 96.4171 178.368 95.1826 178.368ZM88.5115 182.831V165.643H90.6956V169.038L90.5532 171.958L90.7906 174.878V182.831H88.5115ZM94.9927 176.374C95.7999 176.374 96.52 176.192 97.1531 175.828C97.802 175.464 98.3085 174.949 98.6725 174.284C99.0523 173.604 99.2423 172.82 99.2423 171.934C99.2423 171.032 99.0523 170.256 98.6725 169.608C98.3085 168.943 97.802 168.428 97.1531 168.064C96.52 167.7 95.7999 167.518 94.9927 167.518C94.2013 167.518 93.4812 167.7 92.8323 168.064C92.1992 168.428 91.6927 168.943 91.3129 169.608C90.9489 170.256 90.7669 171.032 90.7669 171.934C90.7669 172.82 90.9489 173.604 91.3129 174.284C91.6927 174.949 92.1992 175.464 92.8323 175.828C93.4812 176.192 94.2013 176.374 94.9927 176.374ZM104.694 178.225V160.61H106.973V178.225H104.694ZM116.928 178.368C115.582 178.368 114.395 178.091 113.366 177.537C112.353 176.983 111.562 176.223 110.992 175.258C110.438 174.292 110.161 173.184 110.161 171.934C110.161 170.684 110.431 169.576 110.969 168.61C111.523 167.645 112.274 166.893 113.224 166.355C114.189 165.801 115.274 165.524 116.476 165.524C117.695 165.524 118.771 165.793 119.705 166.331C120.639 166.869 121.367 167.629 121.889 168.61C122.427 169.576 122.696 170.707 122.696 172.005C122.696 172.1 122.689 172.211 122.673 172.338C122.673 172.464 122.665 172.583 122.649 172.694H111.942V171.056H121.462L120.536 171.625C120.552 170.818 120.386 170.098 120.038 169.465C119.689 168.832 119.207 168.341 118.589 167.993C117.988 167.629 117.284 167.447 116.476 167.447C115.685 167.447 114.981 167.629 114.364 167.993C113.746 168.341 113.264 168.84 112.915 169.489C112.567 170.122 112.393 170.85 112.393 171.673V172.053C112.393 172.892 112.583 173.643 112.963 174.308C113.359 174.957 113.905 175.464 114.601 175.828C115.297 176.192 116.097 176.374 116.999 176.374C117.743 176.374 118.415 176.247 119.017 175.994C119.634 175.74 120.172 175.361 120.631 174.854L121.889 176.326C121.32 176.991 120.607 177.497 119.753 177.845C118.914 178.194 117.972 178.368 116.928 178.368ZM134.896 178.225L130.219 165.643H132.379L136.534 177.038H135.513L139.834 165.643H141.757L145.983 177.038H144.986L149.235 165.643H151.277L146.576 178.225H144.392L140.427 167.827H141.092L137.08 178.225H134.896ZM161.006 178.225V175.566L160.887 175.068V170.533C160.887 169.568 160.602 168.824 160.033 168.302C159.479 167.764 158.64 167.495 157.516 167.495C156.772 167.495 156.044 167.621 155.332 167.874C154.62 168.112 154.018 168.436 153.528 168.848L152.578 167.138C153.227 166.616 154.003 166.221 154.905 165.951C155.823 165.667 156.78 165.524 157.777 165.524C159.502 165.524 160.832 165.944 161.766 166.782C162.699 167.621 163.166 168.903 163.166 170.628V178.225H161.006ZM156.875 178.368C155.941 178.368 155.118 178.21 154.406 177.893C153.71 177.576 153.172 177.141 152.792 176.587C152.412 176.017 152.222 175.376 152.222 174.664C152.222 173.984 152.38 173.366 152.697 172.812C153.029 172.259 153.559 171.815 154.287 171.483C155.031 171.151 156.028 170.984 157.279 170.984H161.267V172.623H157.374C156.234 172.623 155.467 172.812 155.071 173.192C154.675 173.572 154.477 174.031 154.477 174.569C154.477 175.187 154.723 175.685 155.213 176.065C155.704 176.429 156.384 176.611 157.255 176.611C158.11 176.611 158.854 176.421 159.487 176.041C160.136 175.661 160.602 175.107 160.887 174.379L161.338 175.946C161.038 176.69 160.507 177.284 159.748 177.727C158.988 178.154 158.031 178.368 156.875 178.368ZM167.698 182.973C167.097 182.973 166.511 182.871 165.941 182.665C165.372 182.475 164.881 182.19 164.47 181.81L165.443 180.101C165.759 180.402 166.108 180.631 166.487 180.789C166.867 180.948 167.271 181.027 167.698 181.027C168.252 181.027 168.711 180.884 169.075 180.599C169.439 180.315 169.779 179.808 170.096 179.08L170.879 177.347L171.117 177.062L176.055 165.643H178.287L172.185 179.484C171.821 180.37 171.41 181.066 170.951 181.573C170.508 182.079 170.017 182.435 169.479 182.641C168.941 182.863 168.347 182.973 167.698 182.973ZM170.69 178.629L164.944 165.643H167.318L172.209 176.848L170.69 178.629ZM180.171 178.368C179.728 178.368 179.348 178.217 179.032 177.917C178.715 177.6 178.557 177.204 178.557 176.73C178.557 176.255 178.715 175.867 179.032 175.566C179.348 175.266 179.728 175.115 180.171 175.115C180.599 175.115 180.963 175.266 181.263 175.566C181.58 175.867 181.738 176.255 181.738 176.73C181.738 177.204 181.58 177.6 181.263 177.917C180.963 178.217 180.599 178.368 180.171 178.368Z" fill="black"/>
<path d="M483.12 47.9528C464.403 48.4293 455.679 33.0638 453.657 25.3214H578.44L582.773 67.6065C568.908 73.562 552.444 69.3931 545.511 61.0553C536.846 49.7395 536.268 45.372 528.18 42.5927C512.236 39.734 498.718 47.5558 483.12 47.9528Z" fill="#00A384"/>
<defs>
<filter id="filter0_dd_895_13" x="0" y="0" width="598.872" height="243.292" filterUnits="userSpaceOnUse" color-interpolation-filters="sRGB">
<feFlood flood-opacity="0" result="BackgroundImageFix"/>
<feColorMatrix in="SourceAlpha" type="matrix" values="0 0 0 0 0 0 0 0 0 0 0 0 0 0 0 0 0 0 127 0" result="hardAlpha"/>
<feOffset dx="2" dy="2"/>
<feGaussianBlur stdDeviation="5"/>
<feComposite in2="hardAlpha" operator="out"/>
<feColorMatrix type="matrix" values="0 0 0 0 0 0 0 0 0 0 0 0 0 0 0 0 0 0 0.25 0"/>
<feBlend mode="normal" in2="BackgroundImageFix" result="effect1_dropShadow_895_13"/>
<feColorMatrix in="SourceAlpha" type="matrix" values="0 0 0 0 0 0 0 0 0 0 0 0 0 0 0 0 0 0 127 0" result="hardAlpha"/>
<feOffset dx="-2" dy="-2"/>
<feGaussianBlur stdDeviation="5"/>
<feComposite in2="hardAlpha" operator="out"/>
<feColorMatrix type="matrix" values="0 0 0 0 0 0 0 0 0 0 0 0 0 0 0 0 0 0 0.25 0"/>
<feBlend mode="normal" in2="effect1_dropShadow_895_13" result="effect2_dropShadow_895_13"/>
<feBlend mode="normal" in="SourceGraphic" in2="effect2_dropShadow_895_13" result="shape"/>
</filter>
</defs>
</svg>
