<svg width="599" height="244" viewBox="0 0 599 244" fill="none" xmlns="http://www.w3.org/2000/svg">
<g opacity="0.9" filter="url(#filter0_dd_895_10)">
<rect x="12" y="12" width="574.872" height="219.292" rx="24.6044" fill="#EC680A"/>
<rect x="25.3213" y="25.7058" width="548.229" height="191.88" rx="23.6238" fill="white"/>
</g>
<path d="M43.6719 71.0356V45.494H50.1938V48.2228H47.0829V68.3068H50.1938V71.0356H43.6719ZM59.27 66.0146C57.7601 66.0146 56.3957 65.6325 55.1768 64.8685C53.9762 64.1044 53.0302 62.9947 52.3389 61.5393C51.6476 60.0658 51.3019 58.283 51.3019 56.1909C51.3019 54.0988 51.6476 52.3251 52.3389 50.8697C53.0302 49.3962 53.9762 48.2774 55.1768 47.5133C56.3957 46.7492 57.7601 46.3672 59.27 46.3672C60.7982 46.3672 62.1626 46.7492 63.3632 47.5133C64.5639 48.2774 65.5099 49.3962 66.2012 50.8697C66.9107 52.3251 67.2654 54.0988 67.2654 56.1909C67.2654 58.283 66.9107 60.0658 66.2012 61.5393C65.5099 62.9947 64.5639 64.1044 63.3632 64.8685C62.1626 65.6325 60.7982 66.0146 59.27 66.0146ZM59.27 62.931C60.1614 62.931 60.9346 62.6945 61.5895 62.2215C62.2444 61.7304 62.7538 60.9845 63.1176 59.9839C63.4997 58.9834 63.6907 57.719 63.6907 56.1909C63.6907 54.6446 63.4997 53.3802 63.1176 52.3979C62.7538 51.3973 62.2444 50.6605 61.5895 50.1875C60.9346 49.6963 60.1614 49.4507 59.27 49.4507C58.415 49.4507 57.6509 49.6963 56.9778 50.1875C56.3229 50.6605 55.8044 51.3973 55.4224 52.3979C55.0586 53.3802 54.8767 54.6446 54.8767 56.1909C54.8767 57.719 55.0586 58.9834 55.4224 59.9839C55.8044 60.9845 56.3229 61.7304 56.9778 62.2215C57.6509 62.6945 58.415 62.931 59.27 62.931ZM72.1466 65.7417V48.0045L73.702 49.6145H68.1079V46.6401H75.694V65.7417H72.1466ZM84.6952 71.0356H78.2007V68.3068H81.2842V48.2228H78.2007V45.494H84.6952V71.0356Z" fill="black"/>
<path d="M48.0277 120.267C46.7616 120.267 45.5508 120.077 44.3954 119.697C43.2401 119.302 42.33 118.795 41.6653 118.178L42.5437 116.326C43.1767 116.88 43.9839 117.339 44.9652 117.703C45.9465 118.067 46.9673 118.249 48.0277 118.249C48.9932 118.249 49.7766 118.138 50.3781 117.917C50.9795 117.695 51.4226 117.394 51.7075 117.015C51.9924 116.619 52.1349 116.176 52.1349 115.685C52.1349 115.115 51.9449 114.656 51.5651 114.308C51.2011 113.96 50.7183 113.683 50.1169 113.477C49.5313 113.256 48.8824 113.066 48.1702 112.907C47.458 112.749 46.7378 112.567 46.0098 112.361C45.2976 112.14 44.6407 111.863 44.0393 111.531C43.4537 111.198 42.9789 110.755 42.6149 110.201C42.2509 109.631 42.0688 108.903 42.0688 108.017C42.0688 107.162 42.2904 106.379 42.7336 105.667C43.1926 104.939 43.889 104.361 44.8228 103.934C45.7724 103.49 46.9752 103.269 48.4313 103.269C49.3968 103.269 50.3543 103.395 51.3039 103.649C52.2536 103.902 53.0766 104.266 53.773 104.741L52.9895 106.64C52.2773 106.165 51.5255 105.825 50.7342 105.619C49.9428 105.398 49.1752 105.287 48.4313 105.287C47.4975 105.287 46.7299 105.405 46.1285 105.643C45.5271 105.88 45.0839 106.197 44.799 106.592C44.53 106.988 44.3954 107.431 44.3954 107.922C44.3954 108.508 44.5774 108.974 44.9415 109.323C45.3213 109.671 45.804 109.948 46.3896 110.154C46.9911 110.359 47.6479 110.549 48.3601 110.723C49.0723 110.882 49.7845 111.064 50.4968 111.269C51.2248 111.475 51.8816 111.744 52.4672 112.077C53.0687 112.409 53.5514 112.852 53.9154 113.406C54.2794 113.96 54.4614 114.672 54.4614 115.543C54.4614 116.382 54.2319 117.165 53.773 117.893C53.314 118.605 52.6018 119.183 51.6363 119.626C50.6867 120.053 49.4838 120.267 48.0277 120.267ZM63.2002 120.22C61.8549 120.22 60.6679 119.943 59.6391 119.389C58.6262 118.835 57.8348 118.075 57.2651 117.11C56.7111 116.144 56.4341 115.036 56.4341 113.786C56.4341 112.536 56.7032 111.428 57.2413 110.462C57.7953 109.497 58.547 108.745 59.4967 108.207C60.4621 107.653 61.5463 107.376 62.7491 107.376C63.9678 107.376 65.044 107.645 65.9778 108.183C66.9116 108.721 67.6397 109.481 68.162 110.462C68.7001 111.428 68.9692 112.559 68.9692 113.857C68.9692 113.952 68.9612 114.063 68.9454 114.189C68.9454 114.316 68.9375 114.435 68.9217 114.546H58.2147V112.907H67.7346L66.8088 113.477C66.8246 112.67 66.6584 111.95 66.3102 111.317C65.962 110.684 65.4793 110.193 64.862 109.845C64.2606 109.481 63.5563 109.299 62.7491 109.299C61.9578 109.299 61.2535 109.481 60.6362 109.845C60.019 110.193 59.5362 110.692 59.188 111.341C58.8398 111.974 58.6657 112.702 58.6657 113.525V113.905C58.6657 114.743 58.8557 115.495 59.2355 116.16C59.6312 116.809 60.1772 117.315 60.8736 117.679C61.57 118.043 62.3693 118.225 63.2714 118.225C64.0153 118.225 64.6879 118.099 65.2894 117.846C65.9066 117.592 66.4447 117.212 66.9037 116.706L68.162 118.178C67.5922 118.843 66.88 119.349 66.0253 119.697C65.1865 120.045 64.2448 120.22 63.2002 120.22ZM78.8525 107.376C79.8812 107.376 80.7834 107.574 81.5589 107.969C82.3503 108.365 82.9675 108.967 83.4107 109.774C83.8538 110.581 84.0754 111.602 84.0754 112.836V120.077H81.7963V113.097C81.7963 111.879 81.4956 110.961 80.8942 110.344C80.3086 109.726 79.4776 109.418 78.4014 109.418C77.5942 109.418 76.8899 109.576 76.2885 109.892C75.6871 110.209 75.2202 110.676 74.8878 111.293C74.5713 111.91 74.413 112.678 74.413 113.596V120.077H72.1339V107.495H74.318V110.89L73.9619 109.987C74.3734 109.164 75.0065 108.523 75.8612 108.064C76.7158 107.605 77.7129 107.376 78.8525 107.376ZM92.614 120.22C91.3479 120.22 90.3666 119.879 89.6702 119.199C88.9738 118.518 88.6256 117.545 88.6256 116.279V104.741H90.9047V116.184C90.9047 116.864 91.0709 117.387 91.4033 117.751C91.7515 118.115 92.2421 118.297 92.8752 118.297C93.5874 118.297 94.1809 118.099 94.6557 117.703L95.368 119.341C95.0198 119.642 94.6003 119.863 94.1097 120.006C93.6349 120.148 93.1363 120.22 92.614 120.22ZM86.489 109.37V107.495H94.5133V109.37H86.489ZM98.1233 120.077V107.495H100.307V110.913L100.094 110.059C100.442 109.188 101.028 108.523 101.851 108.064C102.674 107.605 103.687 107.376 104.889 107.376V109.584C104.794 109.568 104.699 109.56 104.605 109.56C104.525 109.56 104.446 109.56 104.367 109.56C103.148 109.56 102.183 109.924 101.471 110.652C100.759 111.38 100.402 112.433 100.402 113.81V120.077H98.1233ZM114.582 120.077V117.418L114.463 116.92V112.385C114.463 111.42 114.178 110.676 113.608 110.154C113.054 109.615 112.216 109.346 111.092 109.346C110.348 109.346 109.62 109.473 108.908 109.726C108.195 109.964 107.594 110.288 107.103 110.7L106.154 108.99C106.803 108.468 107.578 108.072 108.48 107.803C109.398 107.518 110.356 107.376 111.353 107.376C113.078 107.376 114.408 107.795 115.341 108.634C116.275 109.473 116.742 110.755 116.742 112.48V120.077H114.582ZM110.451 120.22C109.517 120.22 108.694 120.061 107.982 119.745C107.285 119.428 106.747 118.993 106.367 118.439C105.988 117.869 105.798 117.228 105.798 116.516C105.798 115.835 105.956 115.218 106.272 114.664C106.605 114.11 107.135 113.667 107.863 113.335C108.607 113.002 109.604 112.836 110.854 112.836H114.843V114.474H110.949C109.81 114.474 109.042 114.664 108.647 115.044C108.251 115.424 108.053 115.883 108.053 116.421C108.053 117.038 108.298 117.537 108.789 117.917C109.28 118.281 109.96 118.463 110.831 118.463C111.685 118.463 112.429 118.273 113.062 117.893C113.711 117.513 114.178 116.959 114.463 116.231L114.914 117.798C114.613 118.542 114.083 119.135 113.323 119.579C112.564 120.006 111.606 120.22 110.451 120.22ZM127.335 120.077V107.495H129.614V120.077H127.335ZM128.475 105.073C128.032 105.073 127.66 104.931 127.359 104.646C127.074 104.361 126.932 104.013 126.932 103.601C126.932 103.174 127.074 102.818 127.359 102.533C127.66 102.248 128.032 102.106 128.475 102.106C128.918 102.106 129.282 102.248 129.567 102.533C129.868 102.802 130.018 103.142 130.018 103.554C130.018 103.981 129.876 104.345 129.591 104.646C129.306 104.931 128.934 105.073 128.475 105.073ZM137.575 120.22C136.53 120.22 135.533 120.077 134.583 119.792C133.65 119.507 132.914 119.159 132.375 118.748L133.325 116.943C133.863 117.307 134.528 117.616 135.319 117.869C136.111 118.123 136.918 118.249 137.741 118.249C138.801 118.249 139.561 118.099 140.02 117.798C140.495 117.497 140.732 117.078 140.732 116.54C140.732 116.144 140.59 115.835 140.305 115.614C140.02 115.392 139.64 115.226 139.165 115.115C138.706 115.005 138.192 114.91 137.622 114.83C137.052 114.736 136.483 114.625 135.913 114.498C135.343 114.356 134.821 114.166 134.346 113.928C133.871 113.675 133.491 113.335 133.206 112.907C132.921 112.464 132.779 111.879 132.779 111.151C132.779 110.391 132.993 109.726 133.42 109.156C133.847 108.587 134.449 108.151 135.224 107.851C136.016 107.534 136.949 107.376 138.026 107.376C138.849 107.376 139.68 107.479 140.518 107.685C141.373 107.874 142.07 108.151 142.608 108.515L141.634 110.32C141.065 109.94 140.471 109.679 139.854 109.536C139.236 109.394 138.619 109.323 138.002 109.323C137.005 109.323 136.261 109.489 135.77 109.821C135.28 110.138 135.034 110.549 135.034 111.056C135.034 111.483 135.177 111.815 135.462 112.053C135.762 112.274 136.142 112.449 136.601 112.575C137.076 112.702 137.598 112.813 138.168 112.907C138.738 112.987 139.308 113.097 139.877 113.24C140.447 113.366 140.962 113.548 141.421 113.786C141.895 114.023 142.275 114.356 142.56 114.783C142.861 115.21 143.011 115.78 143.011 116.492C143.011 117.252 142.79 117.909 142.346 118.463C141.903 119.017 141.278 119.452 140.471 119.769C139.664 120.069 138.698 120.22 137.575 120.22ZM160.046 120.077V117.418L159.927 116.92V112.385C159.927 111.42 159.642 110.676 159.072 110.154C158.519 109.615 157.68 109.346 156.556 109.346C155.812 109.346 155.084 109.473 154.372 109.726C153.66 109.964 153.058 110.288 152.568 110.7L151.618 108.99C152.267 108.468 153.042 108.072 153.945 107.803C154.862 107.518 155.82 107.376 156.817 107.376C158.542 107.376 159.872 107.795 160.806 108.634C161.739 109.473 162.206 110.755 162.206 112.48V120.077H160.046ZM155.915 120.22C154.981 120.22 154.158 120.061 153.446 119.745C152.75 119.428 152.211 118.993 151.832 118.439C151.452 117.869 151.262 117.228 151.262 116.516C151.262 115.835 151.42 115.218 151.737 114.664C152.069 114.11 152.599 113.667 153.327 113.335C154.071 113.002 155.068 112.836 156.319 112.836H160.307V114.474H156.414C155.274 114.474 154.506 114.664 154.111 115.044C153.715 115.424 153.517 115.883 153.517 116.421C153.517 117.038 153.763 117.537 154.253 117.917C154.744 118.281 155.424 118.463 156.295 118.463C157.149 118.463 157.893 118.273 158.526 117.893C159.175 117.513 159.642 116.959 159.927 116.231L160.378 117.798C160.077 118.542 159.547 119.135 158.788 119.579C158.028 120.006 157.07 120.22 155.915 120.22ZM176.408 120.22C175.364 120.22 174.366 120.077 173.417 119.792C172.483 119.507 171.747 119.159 171.209 118.748L172.159 116.943C172.697 117.307 173.361 117.616 174.153 117.869C174.944 118.123 175.751 118.249 176.574 118.249C177.635 118.249 178.394 118.099 178.853 117.798C179.328 117.497 179.566 117.078 179.566 116.54C179.566 116.144 179.423 115.835 179.138 115.614C178.853 115.392 178.474 115.226 177.999 115.115C177.54 115.005 177.025 114.91 176.456 114.83C175.886 114.736 175.316 114.625 174.746 114.498C174.177 114.356 173.654 114.166 173.179 113.928C172.705 113.675 172.325 113.335 172.04 112.907C171.755 112.464 171.613 111.879 171.613 111.151C171.613 110.391 171.826 109.726 172.254 109.156C172.681 108.587 173.282 108.151 174.058 107.851C174.849 107.534 175.783 107.376 176.859 107.376C177.682 107.376 178.513 107.479 179.352 107.685C180.207 107.874 180.903 108.151 181.441 108.515L180.468 110.32C179.898 109.94 179.304 109.679 178.687 109.536C178.07 109.394 177.453 109.323 176.835 109.323C175.838 109.323 175.094 109.489 174.604 109.821C174.113 110.138 173.868 110.549 173.868 111.056C173.868 111.483 174.01 111.815 174.295 112.053C174.596 112.274 174.976 112.449 175.435 112.575C175.91 112.702 176.432 112.813 177.002 112.907C177.571 112.987 178.141 113.097 178.711 113.24C179.281 113.366 179.795 113.548 180.254 113.786C180.729 114.023 181.109 114.356 181.394 114.783C181.694 115.21 181.845 115.78 181.845 116.492C181.845 117.252 181.623 117.909 181.18 118.463C180.737 119.017 180.112 119.452 179.304 119.769C178.497 120.069 177.532 120.22 176.408 120.22ZM184.693 120.077V107.495H186.972V120.077H184.693ZM185.833 105.073C185.389 105.073 185.017 104.931 184.717 104.646C184.432 104.361 184.289 104.013 184.289 103.601C184.289 103.174 184.432 102.818 184.717 102.533C185.017 102.248 185.389 102.106 185.833 102.106C186.276 102.106 186.64 102.248 186.925 102.533C187.225 102.802 187.376 103.142 187.376 103.554C187.376 103.981 187.233 104.345 186.948 104.646C186.663 104.931 186.292 105.073 185.833 105.073ZM207.064 107.376C208.077 107.376 208.971 107.574 209.746 107.969C210.522 108.365 211.123 108.967 211.551 109.774C211.994 110.581 212.215 111.602 212.215 112.836V120.077H209.936V113.097C209.936 111.879 209.651 110.961 209.082 110.344C208.512 109.726 207.713 109.418 206.684 109.418C205.924 109.418 205.259 109.576 204.69 109.892C204.12 110.209 203.677 110.676 203.36 111.293C203.059 111.91 202.909 112.678 202.909 113.596V120.077H200.63V113.097C200.63 111.879 200.345 110.961 199.775 110.344C199.221 109.726 198.422 109.418 197.378 109.418C196.634 109.418 195.977 109.576 195.407 109.892C194.837 110.209 194.394 110.676 194.078 111.293C193.761 111.91 193.603 112.678 193.603 113.596V120.077H191.324V107.495H193.508V110.842L193.152 109.987C193.547 109.164 194.157 108.523 194.98 108.064C195.803 107.605 196.76 107.376 197.852 107.376C199.055 107.376 200.092 107.677 200.962 108.278C201.833 108.864 202.403 109.758 202.672 110.961L201.746 110.581C202.126 109.615 202.79 108.84 203.74 108.254C204.69 107.669 205.798 107.376 207.064 107.376ZM223.08 120.22C222.035 120.22 221.078 119.982 220.207 119.507C219.353 119.017 218.664 118.297 218.142 117.347C217.636 116.397 217.382 115.21 217.382 113.786C217.382 112.361 217.628 111.174 218.118 110.225C218.625 109.275 219.305 108.563 220.16 108.088C221.03 107.613 222.004 107.376 223.08 107.376C224.315 107.376 225.407 107.645 226.356 108.183C227.306 108.721 228.058 109.473 228.612 110.438C229.166 111.388 229.443 112.504 229.443 113.786C229.443 115.068 229.166 116.192 228.612 117.157C228.058 118.123 227.306 118.874 226.356 119.412C225.407 119.951 224.315 120.22 223.08 120.22ZM216.409 124.683V107.495H218.593V110.89L218.451 113.81L218.688 116.73V124.683H216.409ZM222.89 118.225C223.697 118.225 224.417 118.043 225.051 117.679C225.699 117.315 226.206 116.801 226.57 116.136C226.95 115.456 227.14 114.672 227.14 113.786C227.14 112.884 226.95 112.108 226.57 111.459C226.206 110.795 225.699 110.28 225.051 109.916C224.417 109.552 223.697 109.37 222.89 109.37C222.099 109.37 221.379 109.552 220.73 109.916C220.097 110.28 219.59 110.795 219.21 111.459C218.846 112.108 218.664 112.884 218.664 113.786C218.664 114.672 218.846 115.456 219.21 116.136C219.59 116.801 220.097 117.315 220.73 117.679C221.379 118.043 222.099 118.225 222.89 118.225ZM232.592 120.077V102.462H234.871V120.077H232.592ZM244.825 120.22C243.48 120.22 242.293 119.943 241.264 119.389C240.251 118.835 239.46 118.075 238.89 117.11C238.336 116.144 238.059 115.036 238.059 113.786C238.059 112.536 238.328 111.428 238.866 110.462C239.42 109.497 240.172 108.745 241.121 108.207C242.087 107.653 243.171 107.376 244.374 107.376C245.593 107.376 246.669 107.645 247.603 108.183C248.536 108.721 249.264 109.481 249.787 110.462C250.325 111.428 250.594 112.559 250.594 113.857C250.594 113.952 250.586 114.063 250.57 114.189C250.57 114.316 250.562 114.435 250.546 114.546H239.839V112.907H249.359L248.434 113.477C248.449 112.67 248.283 111.95 247.935 111.317C247.587 110.684 247.104 110.193 246.487 109.845C245.885 109.481 245.181 109.299 244.374 109.299C243.583 109.299 242.878 109.481 242.261 109.845C241.644 110.193 241.161 110.692 240.813 111.341C240.465 111.974 240.291 112.702 240.291 113.525V113.905C240.291 114.743 240.48 115.495 240.86 116.16C241.256 116.809 241.802 117.315 242.498 117.679C243.195 118.043 243.994 118.225 244.896 118.225C245.64 118.225 246.313 118.099 246.914 117.846C247.531 117.592 248.07 117.212 248.529 116.706L249.787 118.178C249.217 118.843 248.505 119.349 247.65 119.697C246.811 120.045 245.87 120.22 244.825 120.22ZM275.874 107.376C276.887 107.376 277.781 107.574 278.557 107.969C279.333 108.365 279.934 108.967 280.361 109.774C280.804 110.581 281.026 111.602 281.026 112.836V120.077H278.747V113.097C278.747 111.879 278.462 110.961 277.892 110.344C277.322 109.726 276.523 109.418 275.494 109.418C274.735 109.418 274.07 109.576 273.5 109.892C272.93 110.209 272.487 110.676 272.171 111.293C271.87 111.91 271.72 112.678 271.72 113.596V120.077H269.441V113.097C269.441 111.879 269.156 110.961 268.586 110.344C268.032 109.726 267.233 109.418 266.188 109.418C265.444 109.418 264.787 109.576 264.218 109.892C263.648 110.209 263.205 110.676 262.888 111.293C262.572 111.91 262.413 112.678 262.413 113.596V120.077H260.134V107.495H262.318V110.842L261.962 109.987C262.358 109.164 262.967 108.523 263.79 108.064C264.613 107.605 265.571 107.376 266.663 107.376C267.866 107.376 268.902 107.677 269.773 108.278C270.643 108.864 271.213 109.758 271.482 110.961L270.556 110.581C270.936 109.615 271.601 108.84 272.551 108.254C273.5 107.669 274.608 107.376 275.874 107.376ZM290.609 120.22C289.343 120.22 288.219 119.943 287.238 119.389C286.256 118.835 285.481 118.075 284.911 117.11C284.341 116.128 284.056 115.02 284.056 113.786C284.056 112.536 284.341 111.428 284.911 110.462C285.481 109.497 286.256 108.745 287.238 108.207C288.219 107.653 289.343 107.376 290.609 107.376C291.859 107.376 292.975 107.653 293.956 108.207C294.953 108.745 295.729 109.497 296.283 110.462C296.852 111.412 297.137 112.52 297.137 113.786C297.137 115.036 296.852 116.144 296.283 117.11C295.729 118.075 294.953 118.835 293.956 119.389C292.975 119.943 291.859 120.22 290.609 120.22ZM290.609 118.225C291.416 118.225 292.136 118.043 292.769 117.679C293.418 117.315 293.924 116.801 294.288 116.136C294.652 115.456 294.835 114.672 294.835 113.786C294.835 112.884 294.652 112.108 294.288 111.459C293.924 110.795 293.418 110.28 292.769 109.916C292.136 109.552 291.416 109.37 290.609 109.37C289.802 109.37 289.081 109.552 288.448 109.916C287.815 110.28 287.309 110.795 286.929 111.459C286.549 112.108 286.359 112.884 286.359 113.786C286.359 114.672 286.549 115.456 286.929 116.136C287.309 116.801 287.815 117.315 288.448 117.679C289.081 118.043 289.802 118.225 290.609 118.225ZM305.678 120.22C304.412 120.22 303.288 119.943 302.307 119.389C301.326 118.835 300.55 118.075 299.981 117.11C299.411 116.128 299.126 115.02 299.126 113.786C299.126 112.536 299.411 111.428 299.981 110.462C300.55 109.497 301.326 108.745 302.307 108.207C303.288 107.653 304.412 107.376 305.678 107.376C306.929 107.376 308.045 107.653 309.026 108.207C310.023 108.745 310.798 109.497 311.352 110.462C311.922 111.412 312.207 112.52 312.207 113.786C312.207 115.036 311.922 116.144 311.352 117.11C310.798 118.075 310.023 118.835 309.026 119.389C308.045 119.943 306.929 120.22 305.678 120.22ZM305.678 118.225C306.486 118.225 307.206 118.043 307.839 117.679C308.488 117.315 308.994 116.801 309.358 116.136C309.722 115.456 309.904 114.672 309.904 113.786C309.904 112.884 309.722 112.108 309.358 111.459C308.994 110.795 308.488 110.28 307.839 109.916C307.206 109.552 306.486 109.37 305.678 109.37C304.871 109.37 304.151 109.552 303.518 109.916C302.885 110.28 302.378 110.795 301.999 111.459C301.619 112.108 301.429 112.884 301.429 113.786C301.429 114.672 301.619 115.456 301.999 116.136C302.378 116.801 302.885 117.315 303.518 117.679C304.151 118.043 304.871 118.225 305.678 118.225ZM320.558 120.22C319.34 120.22 318.247 119.951 317.282 119.412C316.332 118.874 315.581 118.123 315.027 117.157C314.473 116.192 314.196 115.068 314.196 113.786C314.196 112.504 314.473 111.388 315.027 110.438C315.581 109.473 316.332 108.721 317.282 108.183C318.247 107.645 319.34 107.376 320.558 107.376C321.619 107.376 322.576 107.613 323.431 108.088C324.285 108.563 324.966 109.275 325.472 110.225C325.995 111.174 326.256 112.361 326.256 113.786C326.256 115.21 326.003 116.397 325.496 117.347C325.006 118.297 324.333 119.017 323.478 119.507C322.624 119.982 321.65 120.22 320.558 120.22ZM320.748 118.225C321.539 118.225 322.252 118.043 322.885 117.679C323.534 117.315 324.04 116.801 324.404 116.136C324.784 115.456 324.974 114.672 324.974 113.786C324.974 112.884 324.784 112.108 324.404 111.459C324.04 110.795 323.534 110.28 322.885 109.916C322.252 109.552 321.539 109.37 320.748 109.37C319.941 109.37 319.221 109.552 318.588 109.916C317.955 110.28 317.448 110.795 317.068 111.459C316.688 112.108 316.499 112.884 316.499 113.786C316.499 114.672 316.688 115.456 317.068 116.136C317.448 116.801 317.955 117.315 318.588 117.679C319.221 118.043 319.941 118.225 320.748 118.225ZM325.045 120.077V116.682L325.188 113.762L324.95 110.842V102.462H327.229V120.077H325.045ZM342.238 120.22C340.972 120.22 339.991 119.879 339.294 119.199C338.598 118.518 338.25 117.545 338.25 116.279V104.741H340.529V116.184C340.529 116.864 340.695 117.387 341.027 117.751C341.375 118.115 341.866 118.297 342.499 118.297C343.211 118.297 343.805 118.099 344.28 117.703L344.992 119.341C344.644 119.642 344.224 119.863 343.734 120.006C343.259 120.148 342.76 120.22 342.238 120.22ZM336.113 109.37V107.495H344.137V109.37H336.113ZM347.747 120.077V107.495H349.931V110.913L349.718 110.059C350.066 109.188 350.652 108.523 351.475 108.064C352.298 107.605 353.31 107.376 354.513 107.376V109.584C354.418 109.568 354.323 109.56 354.228 109.56C354.149 109.56 354.07 109.56 353.991 109.56C352.772 109.56 351.807 109.924 351.095 110.652C350.382 111.38 350.026 112.433 350.026 113.81V120.077H347.747ZM364.206 120.077V117.418L364.087 116.92V112.385C364.087 111.42 363.802 110.676 363.232 110.154C362.678 109.615 361.839 109.346 360.716 109.346C359.972 109.346 359.244 109.473 358.532 109.726C357.819 109.964 357.218 110.288 356.727 110.7L355.778 108.99C356.427 108.468 357.202 108.072 358.104 107.803C359.022 107.518 359.98 107.376 360.977 107.376C362.702 107.376 364.032 107.795 364.965 108.634C365.899 109.473 366.366 110.755 366.366 112.48V120.077H364.206ZM360.075 120.22C359.141 120.22 358.318 120.061 357.606 119.745C356.909 119.428 356.371 118.993 355.991 118.439C355.612 117.869 355.422 117.228 355.422 116.516C355.422 115.835 355.58 115.218 355.896 114.664C356.229 114.11 356.759 113.667 357.487 113.335C358.231 113.002 359.228 112.836 360.478 112.836H364.467V114.474H360.573C359.434 114.474 358.666 114.664 358.27 115.044C357.875 115.424 357.677 115.883 357.677 116.421C357.677 117.038 357.922 117.537 358.413 117.917C358.904 118.281 359.584 118.463 360.455 118.463C361.309 118.463 362.053 118.273 362.686 117.893C363.335 117.513 363.802 116.959 364.087 116.231L364.538 117.798C364.237 118.542 363.707 119.135 362.947 119.579C362.188 120.006 361.23 120.22 360.075 120.22ZM376.068 120.22C374.786 120.22 373.638 119.943 372.625 119.389C371.628 118.835 370.845 118.075 370.275 117.11C369.705 116.144 369.42 115.036 369.42 113.786C369.42 112.536 369.705 111.428 370.275 110.462C370.845 109.497 371.628 108.745 372.625 108.207C373.638 107.653 374.786 107.376 376.068 107.376C377.207 107.376 378.22 107.605 379.107 108.064C380.009 108.508 380.705 109.172 381.196 110.059L379.463 111.174C379.051 110.557 378.545 110.106 377.943 109.821C377.358 109.521 376.725 109.37 376.044 109.37C375.221 109.37 374.485 109.552 373.836 109.916C373.187 110.28 372.673 110.795 372.293 111.459C371.913 112.108 371.723 112.884 371.723 113.786C371.723 114.688 371.913 115.471 372.293 116.136C372.673 116.801 373.187 117.315 373.836 117.679C374.485 118.043 375.221 118.225 376.044 118.225C376.725 118.225 377.358 118.083 377.943 117.798C378.545 117.497 379.051 117.038 379.463 116.421L381.196 117.513C380.705 118.384 380.009 119.056 379.107 119.531C378.22 119.99 377.207 120.22 376.068 120.22ZM385.836 117.038L385.883 114.118L393.124 107.495H395.878L390.323 112.955L389.088 114L385.836 117.038ZM383.984 120.077V102.462H386.263V120.077H383.984ZM393.599 120.077L388.661 113.952L390.133 112.124L396.4 120.077H393.599ZM403.706 120.22C402.361 120.22 401.174 119.943 400.145 119.389C399.132 118.835 398.341 118.075 397.771 117.11C397.217 116.144 396.94 115.036 396.94 113.786C396.94 112.536 397.209 111.428 397.747 110.462C398.301 109.497 399.053 108.745 400.003 108.207C400.968 107.653 402.052 107.376 403.255 107.376C404.474 107.376 405.55 107.645 406.484 108.183C407.418 108.721 408.146 109.481 408.668 110.462C409.206 111.428 409.475 112.559 409.475 113.857C409.475 113.952 409.467 114.063 409.451 114.189C409.451 114.316 409.443 114.435 409.428 114.546H398.721V112.907H408.241L407.315 113.477C407.33 112.67 407.164 111.95 406.816 111.317C406.468 110.684 405.985 110.193 405.368 109.845C404.766 109.481 404.062 109.299 403.255 109.299C402.464 109.299 401.759 109.481 401.142 109.845C400.525 110.193 400.042 110.692 399.694 111.341C399.346 111.974 399.172 112.702 399.172 113.525V113.905C399.172 114.743 399.362 115.495 399.741 116.16C400.137 116.809 400.683 117.315 401.379 117.679C402.076 118.043 402.875 118.225 403.777 118.225C404.521 118.225 405.194 118.099 405.795 117.846C406.413 117.592 406.951 117.212 407.41 116.706L408.668 118.178C408.098 118.843 407.386 119.349 406.531 119.697C405.692 120.045 404.751 120.22 403.706 120.22ZM412.64 120.077V107.495H414.824V110.913L414.61 110.059C414.958 109.188 415.544 108.523 416.367 108.064C417.19 107.605 418.203 107.376 419.406 107.376V109.584C419.311 109.568 419.216 109.56 419.121 109.56C419.042 109.56 418.963 109.56 418.884 109.56C417.665 109.56 416.699 109.924 415.987 110.652C415.275 111.38 414.919 112.433 414.919 113.81V120.077H412.64ZM433.074 120.22C431.807 120.22 430.826 119.879 430.13 119.199C429.433 118.518 429.085 117.545 429.085 116.279V104.741H431.364V116.184C431.364 116.864 431.53 117.387 431.863 117.751C432.211 118.115 432.702 118.297 433.335 118.297C434.047 118.297 434.64 118.099 435.115 117.703L435.827 119.341C435.479 119.642 435.06 119.863 434.569 120.006C434.094 120.148 433.596 120.22 433.074 120.22ZM426.948 109.37V107.495H434.973V109.37H426.948ZM445.301 107.376C446.33 107.376 447.232 107.574 448.008 107.969C448.799 108.365 449.416 108.967 449.86 109.774C450.303 110.581 450.524 111.602 450.524 112.836V120.077H448.245V113.097C448.245 111.879 447.945 110.961 447.343 110.344C446.758 109.726 445.927 109.418 444.85 109.418C444.043 109.418 443.339 109.576 442.737 109.892C442.136 110.209 441.669 110.676 441.337 111.293C441.02 111.91 440.862 112.678 440.862 113.596V120.077H438.583V102.462H440.862V110.89L440.411 109.987C440.822 109.164 441.455 108.523 442.31 108.064C443.165 107.605 444.162 107.376 445.301 107.376ZM462.553 120.077V117.418L462.434 116.92V112.385C462.434 111.42 462.149 110.676 461.58 110.154C461.026 109.615 460.187 109.346 459.063 109.346C458.319 109.346 457.591 109.473 456.879 109.726C456.167 109.964 455.565 110.288 455.075 110.7L454.125 108.99C454.774 108.468 455.549 108.072 456.452 107.803C457.37 107.518 458.327 107.376 459.324 107.376C461.049 107.376 462.379 107.795 463.313 108.634C464.246 109.473 464.713 110.755 464.713 112.48V120.077H462.553ZM458.422 120.22C457.488 120.22 456.665 120.061 455.953 119.745C455.257 119.428 454.718 118.993 454.339 118.439C453.959 117.869 453.769 117.228 453.769 116.516C453.769 115.835 453.927 115.218 454.244 114.664C454.576 114.11 455.106 113.667 455.834 113.335C456.578 113.002 457.575 112.836 458.826 112.836H462.814V114.474H458.921C457.781 114.474 457.013 114.664 456.618 115.044C456.222 115.424 456.024 115.883 456.024 116.421C456.024 117.038 456.27 117.537 456.76 117.917C457.251 118.281 457.931 118.463 458.802 118.463C459.657 118.463 460.4 118.273 461.033 117.893C461.682 117.513 462.149 116.959 462.434 116.231L462.885 117.798C462.585 118.542 462.054 119.135 461.295 119.579C460.535 120.006 459.577 120.22 458.422 120.22ZM473.252 120.22C471.986 120.22 471.004 119.879 470.308 119.199C469.611 118.518 469.263 117.545 469.263 116.279V104.741H471.542V116.184C471.542 116.864 471.709 117.387 472.041 117.751C472.389 118.115 472.88 118.297 473.513 118.297C474.225 118.297 474.819 118.099 475.293 117.703L476.006 119.341C475.657 119.642 475.238 119.863 474.747 120.006C474.273 120.148 473.774 120.22 473.252 120.22ZM467.127 109.37V107.495H475.151V109.37H467.127ZM491.855 107.376C492.884 107.376 493.786 107.574 494.562 107.969C495.353 108.365 495.97 108.967 496.413 109.774C496.857 110.581 497.078 111.602 497.078 112.836V120.077H494.799V113.097C494.799 111.879 494.498 110.961 493.897 110.344C493.311 109.726 492.48 109.418 491.404 109.418C490.597 109.418 489.893 109.576 489.291 109.892C488.69 110.209 488.223 110.676 487.891 111.293C487.574 111.91 487.416 112.678 487.416 113.596V120.077H485.137V102.462H487.416V110.89L486.965 109.987C487.376 109.164 488.009 108.523 488.864 108.064C489.719 107.605 490.716 107.376 491.855 107.376ZM506.899 120.22C505.553 120.22 504.366 119.943 503.338 119.389C502.325 118.835 501.533 118.075 500.964 117.11C500.41 116.144 500.133 115.036 500.133 113.786C500.133 112.536 500.402 111.428 500.94 110.462C501.494 109.497 502.246 108.745 503.195 108.207C504.161 107.653 505.245 107.376 506.448 107.376C507.666 107.376 508.743 107.645 509.676 108.183C510.61 108.721 511.338 109.481 511.861 110.462C512.399 111.428 512.668 112.559 512.668 113.857C512.668 113.952 512.66 114.063 512.644 114.189C512.644 114.316 512.636 114.435 512.62 114.546H501.913V112.907H511.433L510.507 113.477C510.523 112.67 510.357 111.95 510.009 111.317C509.661 110.684 509.178 110.193 508.561 109.845C507.959 109.481 507.255 109.299 506.448 109.299C505.656 109.299 504.952 109.481 504.335 109.845C503.718 110.193 503.235 110.692 502.887 111.341C502.538 111.974 502.364 112.702 502.364 113.525V113.905C502.364 114.743 502.554 115.495 502.934 116.16C503.33 116.809 503.876 117.315 504.572 117.679C505.269 118.043 506.068 118.225 506.97 118.225C507.714 118.225 508.387 118.099 508.988 117.846C509.605 117.592 510.143 117.212 510.602 116.706L511.861 118.178C511.291 118.843 510.579 119.349 509.724 119.697C508.885 120.045 507.943 120.22 506.899 120.22ZM515.832 120.077V102.462H518.112V120.077H515.832ZM529.134 120.22C528.09 120.22 527.132 119.982 526.262 119.507C525.407 119.017 524.719 118.297 524.196 117.347C523.69 116.397 523.437 115.21 523.437 113.786C523.437 112.361 523.682 111.174 524.172 110.225C524.679 109.275 525.36 108.563 526.214 108.088C527.085 107.613 528.058 107.376 529.134 107.376C530.369 107.376 531.461 107.645 532.41 108.183C533.36 108.721 534.112 109.473 534.666 110.438C535.22 111.388 535.497 112.504 535.497 113.786C535.497 115.068 535.22 116.192 534.666 117.157C534.112 118.123 533.36 118.874 532.41 119.412C531.461 119.951 530.369 120.22 529.134 120.22ZM522.463 124.683V107.495H524.647V110.89L524.505 113.81L524.742 116.73V124.683H522.463ZM528.944 118.225C529.752 118.225 530.472 118.043 531.105 117.679C531.754 117.315 532.26 116.801 532.624 116.136C533.004 115.456 533.194 114.672 533.194 113.786C533.194 112.884 533.004 112.108 532.624 111.459C532.26 110.795 531.754 110.28 531.105 109.916C530.472 109.552 529.752 109.37 528.944 109.37C528.153 109.37 527.433 109.552 526.784 109.916C526.151 110.28 525.644 110.795 525.265 111.459C524.901 112.108 524.719 112.884 524.719 113.786C524.719 114.672 524.901 115.456 525.265 116.136C525.644 116.801 526.151 117.315 526.784 117.679C527.433 118.043 528.153 118.225 528.944 118.225ZM542.254 120.22C541.21 120.22 540.213 120.077 539.263 119.792C538.329 119.507 537.593 119.159 537.055 118.748L538.005 116.943C538.543 117.307 539.208 117.616 539.999 117.869C540.79 118.123 541.597 118.249 542.42 118.249C543.481 118.249 544.241 118.099 544.7 117.798C545.174 117.497 545.412 117.078 545.412 116.54C545.412 116.144 545.269 115.835 544.984 115.614C544.7 115.392 544.32 115.226 543.845 115.115C543.386 115.005 542.872 114.91 542.302 114.83C541.732 114.736 541.162 114.625 540.592 114.498C540.023 114.356 539.5 114.166 539.026 113.928C538.551 113.675 538.171 113.335 537.886 112.907C537.601 112.464 537.459 111.879 537.459 111.151C537.459 110.391 537.672 109.726 538.1 109.156C538.527 108.587 539.128 108.151 539.904 107.851C540.695 107.534 541.629 107.376 542.705 107.376C543.528 107.376 544.359 107.479 545.198 107.685C546.053 107.874 546.749 108.151 547.287 108.515L546.314 110.32C545.744 109.94 545.151 109.679 544.533 109.536C543.916 109.394 543.299 109.323 542.682 109.323C541.685 109.323 540.941 109.489 540.45 109.821C539.959 110.138 539.714 110.549 539.714 111.056C539.714 111.483 539.856 111.815 540.141 112.053C540.442 112.274 540.822 112.449 541.281 112.575C541.756 112.702 542.278 112.813 542.848 112.907C543.418 112.987 543.987 113.097 544.557 113.24C545.127 113.366 545.641 113.548 546.1 113.786C546.575 114.023 546.955 114.356 547.24 114.783C547.541 115.21 547.691 115.78 547.691 116.492C547.691 117.252 547.469 117.909 547.026 118.463C546.583 119.017 545.958 119.452 545.151 119.769C544.343 120.069 543.378 120.22 542.254 120.22ZM43.3983 150.825C42.7969 150.825 42.2113 150.722 41.6415 150.517C41.0717 150.327 40.5811 150.042 40.1696 149.662L41.143 147.953C41.4595 148.253 41.8077 148.483 42.1876 148.641C42.5674 148.799 42.971 148.879 43.3983 148.879C43.9523 148.879 44.4113 148.736 44.7753 148.451C45.1393 148.166 45.4796 147.66 45.7961 146.932L46.5796 145.199L46.817 144.914L51.755 133.495H53.9866L47.8853 147.335C47.5213 148.222 47.1098 148.918 46.6508 149.425C46.2076 149.931 45.717 150.287 45.1789 150.493C44.6407 150.714 44.0472 150.825 43.3983 150.825ZM46.3896 146.481L40.6444 133.495H43.0185L47.909 144.7L46.3896 146.481ZM61.155 146.22C59.8888 146.22 58.7651 145.943 57.7838 145.389C56.8025 144.835 56.027 144.075 55.4572 143.11C54.8875 142.128 54.6026 141.02 54.6026 139.786C54.6026 138.536 54.8875 137.428 55.4572 136.462C56.027 135.497 56.8025 134.745 57.7838 134.207C58.7651 133.653 59.8888 133.376 61.155 133.376C62.4053 133.376 63.5211 133.653 64.5024 134.207C65.4995 134.745 66.275 135.497 66.829 136.462C67.3988 137.412 67.6836 138.52 67.6836 139.786C67.6836 141.036 67.3988 142.144 66.829 143.11C66.275 144.075 65.4995 144.835 64.5024 145.389C63.5211 145.943 62.4053 146.22 61.155 146.22ZM61.155 144.225C61.9622 144.225 62.6823 144.043 63.3154 143.679C63.9643 143.315 64.4708 142.801 64.8348 142.136C65.1988 141.456 65.3808 140.672 65.3808 139.786C65.3808 138.884 65.1988 138.108 64.8348 137.459C64.4708 136.795 63.9643 136.28 63.3154 135.916C62.6823 135.552 61.9622 135.37 61.155 135.37C60.3478 135.37 59.6277 135.552 58.9946 135.916C58.3615 136.28 57.855 136.795 57.4752 137.459C57.0953 138.108 56.9054 138.884 56.9054 139.786C56.9054 140.672 57.0953 141.456 57.4752 142.136C57.855 142.801 58.3615 143.315 58.9946 143.679C59.6277 144.043 60.3478 144.225 61.155 144.225ZM76.1297 146.22C75.0535 146.22 74.1039 146.022 73.2809 145.626C72.4737 145.23 71.8406 144.629 71.3816 143.822C70.9385 142.999 70.7169 141.97 70.7169 140.736V133.495H72.996V140.474C72.996 141.709 73.2888 142.635 73.8744 143.252C74.4758 143.869 75.3146 144.178 76.3909 144.178C77.1822 144.178 77.8707 144.02 78.4563 143.703C79.0419 143.371 79.493 142.896 79.8095 142.279C80.1261 141.646 80.2843 140.886 80.2843 140V133.495H82.5634V146.077H80.403V142.682L80.7591 143.584C80.3476 144.423 79.7304 145.072 78.9074 145.531C78.0844 145.99 77.1585 146.22 76.1297 146.22ZM93.2779 146.077V128.462H95.5569V146.077H93.2779ZM105.298 146.22C104.031 146.22 102.908 145.943 101.926 145.389C100.945 144.835 100.17 144.075 99.5999 143.11C99.0301 142.128 98.7452 141.02 98.7452 139.786C98.7452 138.536 99.0301 137.428 99.5999 136.462C100.17 135.497 100.945 134.745 101.926 134.207C102.908 133.653 104.031 133.376 105.298 133.376C106.548 133.376 107.664 133.653 108.645 134.207C109.642 134.745 110.418 135.497 110.972 136.462C111.541 137.412 111.826 138.52 111.826 139.786C111.826 141.036 111.541 142.144 110.972 143.11C110.418 144.075 109.642 144.835 108.645 145.389C107.664 145.943 106.548 146.22 105.298 146.22ZM105.298 144.225C106.105 144.225 106.825 144.043 107.458 143.679C108.107 143.315 108.613 142.801 108.977 142.136C109.341 141.456 109.523 140.672 109.523 139.786C109.523 138.884 109.341 138.108 108.977 137.459C108.613 136.795 108.107 136.28 107.458 135.916C106.825 135.552 106.105 135.37 105.298 135.37C104.49 135.37 103.77 135.552 103.137 135.916C102.504 136.28 101.998 136.795 101.618 137.459C101.238 138.108 101.048 138.884 101.048 139.786C101.048 140.672 101.238 141.456 101.618 142.136C101.998 142.801 102.504 143.315 103.137 143.679C103.77 144.043 104.49 144.225 105.298 144.225ZM120.486 150.825C119.331 150.825 118.207 150.659 117.115 150.327C116.039 150.01 115.16 149.551 114.48 148.95L115.572 147.193C116.157 147.699 116.877 148.095 117.732 148.38C118.587 148.681 119.481 148.831 120.415 148.831C121.903 148.831 122.995 148.483 123.691 147.786C124.387 147.09 124.736 146.03 124.736 144.605V141.946L124.973 139.454L124.854 136.937V133.495H127.015V144.368C127.015 146.584 126.461 148.214 125.353 149.258C124.245 150.303 122.623 150.825 120.486 150.825ZM120.201 145.555C118.982 145.555 117.89 145.302 116.925 144.795C115.975 144.273 115.216 143.553 114.646 142.635C114.092 141.717 113.815 140.656 113.815 139.454C113.815 138.235 114.092 137.174 114.646 136.272C115.216 135.354 115.975 134.642 116.925 134.136C117.89 133.629 118.982 133.376 120.201 133.376C121.277 133.376 122.259 133.598 123.145 134.041C124.031 134.468 124.736 135.133 125.258 136.035C125.796 136.937 126.065 138.077 126.065 139.454C126.065 140.815 125.796 141.946 125.258 142.848C124.736 143.751 124.031 144.431 123.145 144.89C122.259 145.333 121.277 145.555 120.201 145.555ZM120.462 143.561C121.301 143.561 122.045 143.387 122.694 143.038C123.343 142.69 123.849 142.207 124.213 141.59C124.593 140.973 124.783 140.261 124.783 139.454C124.783 138.646 124.593 137.934 124.213 137.317C123.849 136.7 123.343 136.225 122.694 135.892C122.045 135.544 121.301 135.37 120.462 135.37C119.623 135.37 118.872 135.544 118.207 135.892C117.558 136.225 117.044 136.7 116.664 137.317C116.3 137.934 116.118 138.646 116.118 139.454C116.118 140.261 116.3 140.973 116.664 141.59C117.044 142.207 117.558 142.69 118.207 143.038C118.872 143.387 119.623 143.561 120.462 143.561ZM130.467 149.591L131.654 144.795L131.963 146.172C131.504 146.172 131.116 146.03 130.8 145.745C130.499 145.46 130.349 145.072 130.349 144.581C130.349 144.107 130.499 143.719 130.8 143.418C131.116 143.117 131.496 142.967 131.939 142.967C132.398 142.967 132.77 143.125 133.055 143.442C133.34 143.743 133.482 144.123 133.482 144.581C133.482 144.74 133.467 144.898 133.435 145.056C133.419 145.199 133.379 145.373 133.316 145.579C133.269 145.769 133.19 146.006 133.079 146.291L131.963 149.591H130.467ZM143.124 146.077V133.495H145.308V136.913L145.094 136.059C145.442 135.188 146.028 134.523 146.851 134.064C147.674 133.605 148.687 133.376 149.89 133.376V135.584C149.795 135.568 149.7 135.56 149.605 135.56C149.526 135.56 149.447 135.56 149.368 135.56C148.149 135.56 147.183 135.924 146.471 136.652C145.759 137.38 145.403 138.433 145.403 139.81V146.077H143.124ZM158.186 146.22C156.84 146.22 155.653 145.943 154.625 145.389C153.612 144.835 152.82 144.075 152.251 143.11C151.697 142.144 151.42 141.036 151.42 139.786C151.42 138.536 151.689 137.428 152.227 136.462C152.781 135.497 153.533 134.745 154.482 134.207C155.448 133.653 156.532 133.376 157.735 133.376C158.953 133.376 160.03 133.645 160.963 134.183C161.897 134.721 162.625 135.481 163.148 136.462C163.686 137.428 163.955 138.559 163.955 139.857C163.955 139.952 163.947 140.063 163.931 140.189C163.931 140.316 163.923 140.435 163.907 140.546H153.2V138.907H162.72L161.794 139.477C161.81 138.67 161.644 137.95 161.296 137.317C160.948 136.684 160.465 136.193 159.848 135.845C159.246 135.481 158.542 135.299 157.735 135.299C156.943 135.299 156.239 135.481 155.622 135.845C155.004 136.193 154.522 136.692 154.174 137.341C153.825 137.974 153.651 138.702 153.651 139.525V139.905C153.651 140.743 153.841 141.495 154.221 142.16C154.617 142.809 155.163 143.315 155.859 143.679C156.556 144.043 157.355 144.225 158.257 144.225C159.001 144.225 159.673 144.099 160.275 143.846C160.892 143.592 161.43 143.212 161.889 142.706L163.148 144.178C162.578 144.843 161.866 145.349 161.011 145.697C160.172 146.045 159.23 146.22 158.186 146.22ZM167.452 146.077V132.379C167.452 131.144 167.808 130.163 168.52 129.435C169.248 128.691 170.277 128.319 171.606 128.319C172.097 128.319 172.564 128.382 173.007 128.509C173.466 128.62 173.854 128.802 174.17 129.055L173.482 130.788C173.244 130.598 172.975 130.456 172.675 130.361C172.374 130.25 172.057 130.195 171.725 130.195C171.06 130.195 170.554 130.385 170.206 130.764C169.858 131.128 169.683 131.675 169.683 132.403V134.088L169.731 135.133V146.077H167.452ZM165.315 135.37V133.495H173.339V135.37H165.315ZM175.5 146.077V128.462H177.779V146.077H175.5ZM187.722 146.22C186.377 146.22 185.19 145.943 184.161 145.389C183.148 144.835 182.357 144.075 181.787 143.11C181.233 142.144 180.956 141.036 180.956 139.786C180.956 138.536 181.225 137.428 181.763 136.462C182.317 135.497 183.069 134.745 184.019 134.207C184.984 133.653 186.068 133.376 187.271 133.376C188.49 133.376 189.566 133.645 190.5 134.183C191.434 134.721 192.162 135.481 192.684 136.462C193.222 137.428 193.491 138.559 193.491 139.857C193.491 139.952 193.483 140.063 193.468 140.189C193.468 140.316 193.46 140.435 193.444 140.546H182.737V138.907H192.257L191.331 139.477C191.347 138.67 191.181 137.95 190.832 137.317C190.484 136.684 190.001 136.193 189.384 135.845C188.783 135.481 188.078 135.299 187.271 135.299C186.48 135.299 185.776 135.481 185.158 135.845C184.541 136.193 184.058 136.692 183.71 137.341C183.362 137.974 183.188 138.702 183.188 139.525V139.905C183.188 140.743 183.378 141.495 183.758 142.16C184.153 142.809 184.699 143.315 185.396 143.679C186.092 144.043 186.891 144.225 187.794 144.225C188.537 144.225 189.21 144.099 189.812 143.846C190.429 143.592 190.967 143.212 191.426 142.706L192.684 144.178C192.114 144.843 191.402 145.349 190.547 145.697C189.709 146.045 188.767 146.22 187.722 146.22ZM202.14 146.22C200.858 146.22 199.711 145.943 198.698 145.389C197.701 144.835 196.917 144.075 196.347 143.11C195.778 142.144 195.493 141.036 195.493 139.786C195.493 138.536 195.778 137.428 196.347 136.462C196.917 135.497 197.701 134.745 198.698 134.207C199.711 133.653 200.858 133.376 202.14 133.376C203.28 133.376 204.293 133.605 205.179 134.064C206.081 134.508 206.777 135.172 207.268 136.059L205.535 137.174C205.124 136.557 204.617 136.106 204.016 135.821C203.43 135.521 202.797 135.37 202.116 135.37C201.293 135.37 200.557 135.552 199.909 135.916C199.26 136.28 198.745 136.795 198.365 137.459C197.986 138.108 197.796 138.884 197.796 139.786C197.796 140.688 197.986 141.471 198.365 142.136C198.745 142.801 199.26 143.315 199.909 143.679C200.557 144.043 201.293 144.225 202.116 144.225C202.797 144.225 203.43 144.083 204.016 143.798C204.617 143.497 205.124 143.038 205.535 142.421L207.268 143.513C206.777 144.384 206.081 145.056 205.179 145.531C204.293 145.99 203.28 146.22 202.14 146.22ZM214.702 146.22C213.436 146.22 212.454 145.879 211.758 145.199C211.062 144.518 210.713 143.545 210.713 142.279V130.741H212.993V142.184C212.993 142.864 213.159 143.387 213.491 143.751C213.839 144.115 214.33 144.297 214.963 144.297C215.675 144.297 216.269 144.099 216.744 143.703L217.456 145.341C217.108 145.642 216.688 145.863 216.198 146.006C215.723 146.148 215.224 146.22 214.702 146.22ZM208.577 135.37V133.495H216.601V135.37H208.577ZM219.541 149.591L220.728 144.795L221.037 146.172C220.578 146.172 220.19 146.03 219.873 145.745C219.573 145.46 219.422 145.072 219.422 144.581C219.422 144.107 219.573 143.719 219.873 143.418C220.19 143.117 220.57 142.967 221.013 142.967C221.472 142.967 221.844 143.125 222.129 143.442C222.413 143.743 222.556 144.123 222.556 144.581C222.556 144.74 222.54 144.898 222.508 145.056C222.493 145.199 222.453 145.373 222.39 145.579C222.342 145.769 222.263 146.006 222.152 146.291L221.037 149.591H219.541ZM240.008 146.077V143.418L239.889 142.92V138.385C239.889 137.42 239.604 136.676 239.035 136.154C238.481 135.615 237.642 135.346 236.518 135.346C235.774 135.346 235.046 135.473 234.334 135.726C233.622 135.964 233.02 136.288 232.53 136.7L231.58 134.99C232.229 134.468 233.005 134.072 233.907 133.803C234.825 133.518 235.782 133.376 236.779 133.376C238.504 133.376 239.834 133.795 240.768 134.634C241.702 135.473 242.168 136.755 242.168 138.48V146.077H240.008ZM235.877 146.22C234.943 146.22 234.12 146.061 233.408 145.745C232.712 145.428 232.174 144.993 231.794 144.439C231.414 143.869 231.224 143.228 231.224 142.516C231.224 141.835 231.382 141.218 231.699 140.664C232.031 140.11 232.561 139.667 233.289 139.335C234.033 139.002 235.03 138.836 236.281 138.836H240.269V140.474H236.376C235.236 140.474 234.469 140.664 234.073 141.044C233.677 141.424 233.479 141.883 233.479 142.421C233.479 143.038 233.725 143.537 234.215 143.917C234.706 144.281 235.387 144.463 236.257 144.463C237.112 144.463 237.856 144.273 238.489 143.893C239.138 143.513 239.604 142.959 239.889 142.231L240.34 143.798C240.04 144.542 239.509 145.135 238.75 145.579C237.99 146.006 237.033 146.22 235.877 146.22ZM253.105 133.376C254.133 133.376 255.036 133.574 255.811 133.969C256.602 134.365 257.22 134.967 257.663 135.774C258.106 136.581 258.328 137.602 258.328 138.836V146.077H256.049V139.097C256.049 137.879 255.748 136.961 255.146 136.344C254.561 135.726 253.73 135.418 252.654 135.418C251.846 135.418 251.142 135.576 250.541 135.892C249.939 136.209 249.472 136.676 249.14 137.293C248.823 137.91 248.665 138.678 248.665 139.596V146.077H246.386V133.495H248.57V136.89L248.214 135.987C248.626 135.164 249.259 134.523 250.113 134.064C250.968 133.605 251.965 133.376 253.105 133.376ZM267.745 146.22C266.526 146.22 265.434 145.951 264.468 145.412C263.519 144.874 262.767 144.123 262.213 143.157C261.659 142.192 261.382 141.068 261.382 139.786C261.382 138.504 261.659 137.388 262.213 136.438C262.767 135.473 263.519 134.721 264.468 134.183C265.434 133.645 266.526 133.376 267.745 133.376C268.805 133.376 269.763 133.613 270.617 134.088C271.472 134.563 272.152 135.275 272.659 136.225C273.181 137.174 273.442 138.361 273.442 139.786C273.442 141.21 273.189 142.397 272.683 143.347C272.192 144.297 271.519 145.017 270.665 145.507C269.81 145.982 268.837 146.22 267.745 146.22ZM267.935 144.225C268.726 144.225 269.438 144.043 270.071 143.679C270.72 143.315 271.227 142.801 271.591 142.136C271.97 141.456 272.16 140.672 272.16 139.786C272.16 138.884 271.97 138.108 271.591 137.459C271.227 136.795 270.72 136.28 270.071 135.916C269.438 135.552 268.726 135.37 267.935 135.37C267.127 135.37 266.407 135.552 265.774 135.916C265.141 136.28 264.635 136.795 264.255 137.459C263.875 138.108 263.685 138.884 263.685 139.786C263.685 140.672 263.875 141.456 264.255 142.136C264.635 142.801 265.141 143.315 265.774 143.679C266.407 144.043 267.127 144.225 267.935 144.225ZM272.232 146.077V142.682L272.374 139.762L272.137 136.842V128.462H274.416V146.077H272.232ZM290.398 146.22C289.322 146.22 288.372 146.022 287.549 145.626C286.742 145.23 286.109 144.629 285.65 143.822C285.207 142.999 284.985 141.97 284.985 140.736V133.495H287.264V140.474C287.264 141.709 287.557 142.635 288.142 143.252C288.744 143.869 289.583 144.178 290.659 144.178C291.45 144.178 292.139 144.02 292.724 143.703C293.31 143.371 293.761 142.896 294.078 142.279C294.394 141.646 294.552 140.886 294.552 140V133.495H296.831V146.077H294.671V142.682L295.027 143.584C294.616 144.423 293.998 145.072 293.175 145.531C292.352 145.99 291.427 146.22 290.398 146.22ZM307.889 133.376C308.918 133.376 309.82 133.574 310.595 133.969C311.387 134.365 312.004 134.967 312.447 135.774C312.89 136.581 313.112 137.602 313.112 138.836V146.077H310.833V139.097C310.833 137.879 310.532 136.961 309.931 136.344C309.345 135.726 308.514 135.418 307.438 135.418C306.631 135.418 305.926 135.576 305.325 135.892C304.723 136.209 304.257 136.676 303.924 137.293C303.608 137.91 303.449 138.678 303.449 139.596V146.077H301.17V133.495H303.354V136.89L302.998 135.987C303.41 135.164 304.043 134.523 304.898 134.064C305.752 133.605 306.749 133.376 307.889 133.376ZM322.529 146.22C321.31 146.22 320.218 145.951 319.253 145.412C318.303 144.874 317.551 144.123 316.997 143.157C316.443 142.192 316.166 141.068 316.166 139.786C316.166 138.504 316.443 137.388 316.997 136.438C317.551 135.473 318.303 134.721 319.253 134.183C320.218 133.645 321.31 133.376 322.529 133.376C323.589 133.376 324.547 133.613 325.401 134.088C326.256 134.563 326.937 135.275 327.443 136.225C327.965 137.174 328.227 138.361 328.227 139.786C328.227 141.21 327.973 142.397 327.467 143.347C326.976 144.297 326.304 145.017 325.449 145.507C324.594 145.982 323.621 146.22 322.529 146.22ZM322.719 144.225C323.51 144.225 324.222 144.043 324.855 143.679C325.504 143.315 326.011 142.801 326.375 142.136C326.755 141.456 326.945 140.672 326.945 139.786C326.945 138.884 326.755 138.108 326.375 137.459C326.011 136.795 325.504 136.28 324.855 135.916C324.222 135.552 323.51 135.37 322.719 135.37C321.912 135.37 321.191 135.552 320.558 135.916C319.925 136.28 319.419 136.795 319.039 137.459C318.659 138.108 318.469 138.884 318.469 139.786C318.469 140.672 318.659 141.456 319.039 142.136C319.419 142.801 319.925 143.315 320.558 143.679C321.191 144.043 321.912 144.225 322.719 144.225ZM327.016 146.077V142.682L327.158 139.762L326.921 136.842V128.462H329.2V146.077H327.016ZM339.115 146.22C337.77 146.22 336.583 145.943 335.554 145.389C334.541 144.835 333.75 144.075 333.18 143.11C332.626 142.144 332.349 141.036 332.349 139.786C332.349 138.536 332.618 137.428 333.156 136.462C333.71 135.497 334.462 134.745 335.411 134.207C336.377 133.653 337.461 133.376 338.664 133.376C339.883 133.376 340.959 133.645 341.893 134.183C342.826 134.721 343.554 135.481 344.077 136.462C344.615 137.428 344.884 138.559 344.884 139.857C344.884 139.952 344.876 140.063 344.86 140.189C344.86 140.316 344.852 140.435 344.836 140.546H334.129V138.907H343.649L342.724 139.477C342.739 138.67 342.573 137.95 342.225 137.317C341.877 136.684 341.394 136.193 340.777 135.845C340.175 135.481 339.471 135.299 338.664 135.299C337.873 135.299 337.168 135.481 336.551 135.845C335.934 136.193 335.451 136.692 335.103 137.341C334.755 137.974 334.581 138.702 334.581 139.525V139.905C334.581 140.743 334.77 141.495 335.15 142.16C335.546 142.809 336.092 143.315 336.788 143.679C337.485 144.043 338.284 144.225 339.186 144.225C339.93 144.225 340.603 144.099 341.204 143.846C341.821 143.592 342.36 143.212 342.819 142.706L344.077 144.178C343.507 144.843 342.795 145.349 341.94 145.697C341.101 146.045 340.16 146.22 339.115 146.22ZM348.049 146.077V133.495H350.233V136.913L350.019 136.059C350.367 135.188 350.953 134.523 351.776 134.064C352.599 133.605 353.612 133.376 354.815 133.376V135.584C354.72 135.568 354.625 135.56 354.53 135.56C354.451 135.56 354.372 135.56 354.292 135.56C353.074 135.56 352.108 135.924 351.396 136.652C350.684 137.38 350.328 138.433 350.328 139.81V146.077H348.049ZM361.371 146.22C360.327 146.22 359.33 146.077 358.38 145.792C357.446 145.507 356.71 145.159 356.172 144.748L357.122 142.943C357.66 143.307 358.325 143.616 359.116 143.869C359.907 144.123 360.715 144.249 361.538 144.249C362.598 144.249 363.358 144.099 363.817 143.798C364.292 143.497 364.529 143.078 364.529 142.54C364.529 142.144 364.386 141.835 364.102 141.614C363.817 141.392 363.437 141.226 362.962 141.115C362.503 141.005 361.989 140.91 361.419 140.83C360.849 140.736 360.279 140.625 359.71 140.498C359.14 140.356 358.618 140.166 358.143 139.928C357.668 139.675 357.288 139.335 357.003 138.907C356.718 138.464 356.576 137.879 356.576 137.151C356.576 136.391 356.789 135.726 357.217 135.156C357.644 134.587 358.246 134.151 359.021 133.851C359.812 133.534 360.746 133.376 361.822 133.376C362.645 133.376 363.476 133.479 364.315 133.685C365.17 133.874 365.866 134.151 366.404 134.515L365.431 136.32C364.861 135.94 364.268 135.679 363.651 135.536C363.033 135.394 362.416 135.323 361.799 135.323C360.802 135.323 360.058 135.489 359.567 135.821C359.076 136.138 358.831 136.549 358.831 137.056C358.831 137.483 358.974 137.815 359.258 138.053C359.559 138.274 359.939 138.449 360.398 138.575C360.873 138.702 361.395 138.813 361.965 138.907C362.535 138.987 363.104 139.097 363.674 139.24C364.244 139.366 364.758 139.548 365.217 139.786C365.692 140.023 366.072 140.356 366.357 140.783C366.658 141.21 366.808 141.78 366.808 142.492C366.808 143.252 366.586 143.909 366.143 144.463C365.7 145.017 365.075 145.452 364.268 145.769C363.461 146.069 362.495 146.22 361.371 146.22ZM373.977 146.22C372.711 146.22 371.73 145.879 371.033 145.199C370.337 144.518 369.989 143.545 369.989 142.279V130.741H372.268V142.184C372.268 142.864 372.434 143.387 372.766 143.751C373.115 144.115 373.605 144.297 374.238 144.297C374.95 144.297 375.544 144.099 376.019 143.703L376.731 145.341C376.383 145.642 375.963 145.863 375.473 146.006C374.998 146.148 374.499 146.22 373.977 146.22ZM367.852 135.37V133.495H375.876V135.37H367.852ZM387.297 146.077V143.418L387.178 142.92V138.385C387.178 137.42 386.893 136.676 386.324 136.154C385.77 135.615 384.931 135.346 383.807 135.346C383.063 135.346 382.335 135.473 381.623 135.726C380.911 135.964 380.309 136.288 379.819 136.7L378.869 134.99C379.518 134.468 380.294 134.072 381.196 133.803C382.114 133.518 383.071 133.376 384.068 133.376C385.793 133.376 387.123 133.795 388.057 134.634C388.991 135.473 389.457 136.755 389.457 138.48V146.077H387.297ZM383.166 146.22C382.232 146.22 381.409 146.061 380.697 145.745C380.001 145.428 379.463 144.993 379.083 144.439C378.703 143.869 378.513 143.228 378.513 142.516C378.513 141.835 378.671 141.218 378.988 140.664C379.32 140.11 379.85 139.667 380.578 139.335C381.322 139.002 382.319 138.836 383.57 138.836H387.558V140.474H383.665C382.525 140.474 381.758 140.664 381.362 141.044C380.966 141.424 380.768 141.883 380.768 142.421C380.768 143.038 381.014 143.537 381.504 143.917C381.995 144.281 382.676 144.463 383.546 144.463C384.401 144.463 385.145 144.273 385.778 143.893C386.427 143.513 386.893 142.959 387.178 142.231L387.629 143.798C387.329 144.542 386.798 145.135 386.039 145.579C385.279 146.006 384.322 146.22 383.166 146.22ZM400.394 133.376C401.422 133.376 402.325 133.574 403.1 133.969C403.891 134.365 404.509 134.967 404.952 135.774C405.395 136.581 405.617 137.602 405.617 138.836V146.077H403.338V139.097C403.338 137.879 403.037 136.961 402.435 136.344C401.85 135.726 401.019 135.418 399.943 135.418C399.135 135.418 398.431 135.576 397.83 135.892C397.228 136.209 396.761 136.676 396.429 137.293C396.112 137.91 395.954 138.678 395.954 139.596V146.077H393.675V133.495H395.859V136.89L395.503 135.987C395.915 135.164 396.548 134.523 397.402 134.064C398.257 133.605 399.254 133.376 400.394 133.376ZM415.034 146.22C413.815 146.22 412.723 145.951 411.757 145.412C410.808 144.874 410.056 144.123 409.502 143.157C408.948 142.192 408.671 141.068 408.671 139.786C408.671 138.504 408.948 137.388 409.502 136.438C410.056 135.473 410.808 134.721 411.757 134.183C412.723 133.645 413.815 133.376 415.034 133.376C416.094 133.376 417.052 133.613 417.906 134.088C418.761 134.563 419.441 135.275 419.948 136.225C420.47 137.174 420.731 138.361 420.731 139.786C420.731 141.21 420.478 142.397 419.972 143.347C419.481 144.297 418.808 145.017 417.954 145.507C417.099 145.982 416.126 146.22 415.034 146.22ZM415.224 144.225C416.015 144.225 416.727 144.043 417.36 143.679C418.009 143.315 418.516 142.801 418.88 142.136C419.259 141.456 419.449 140.672 419.449 139.786C419.449 138.884 419.259 138.108 418.88 137.459C418.516 136.795 418.009 136.28 417.36 135.916C416.727 135.552 416.015 135.37 415.224 135.37C414.416 135.37 413.696 135.552 413.063 135.916C412.43 136.28 411.924 136.795 411.544 137.459C411.164 138.108 410.974 138.884 410.974 139.786C410.974 140.672 411.164 141.456 411.544 142.136C411.924 142.801 412.43 143.315 413.063 143.679C413.696 144.043 414.416 144.225 415.224 144.225ZM419.521 146.077V142.682L419.663 139.762L419.426 136.842V128.462H421.705V146.077H419.521ZM432.939 150.825C432.337 150.825 431.752 150.722 431.182 150.517C430.612 150.327 430.121 150.042 429.71 149.662L430.683 147.953C431 148.253 431.348 148.483 431.728 148.641C432.108 148.799 432.511 148.879 432.939 148.879C433.493 148.879 433.952 148.736 434.316 148.451C434.68 148.166 435.02 147.66 435.336 146.932L436.12 145.199L436.357 144.914L441.295 133.495H443.527L437.426 147.335C437.062 148.222 436.65 148.918 436.191 149.425C435.748 149.931 435.257 150.287 434.719 150.493C434.181 150.714 433.588 150.825 432.939 150.825ZM435.93 146.481L430.185 133.495H432.559L437.449 144.7L435.93 146.481ZM450.695 146.22C449.429 146.22 448.305 145.943 447.324 145.389C446.343 144.835 445.567 144.075 444.998 143.11C444.428 142.128 444.143 141.02 444.143 139.786C444.143 138.536 444.428 137.428 444.998 136.462C445.567 135.497 446.343 134.745 447.324 134.207C448.305 133.653 449.429 133.376 450.695 133.376C451.946 133.376 453.061 133.653 454.043 134.207C455.04 134.745 455.815 135.497 456.369 136.462C456.939 137.412 457.224 138.52 457.224 139.786C457.224 141.036 456.939 142.144 456.369 143.11C455.815 144.075 455.04 144.835 454.043 145.389C453.061 145.943 451.946 146.22 450.695 146.22ZM450.695 144.225C451.503 144.225 452.223 144.043 452.856 143.679C453.505 143.315 454.011 142.801 454.375 142.136C454.739 141.456 454.921 140.672 454.921 139.786C454.921 138.884 454.739 138.108 454.375 137.459C454.011 136.795 453.505 136.28 452.856 135.916C452.223 135.552 451.503 135.37 450.695 135.37C449.888 135.37 449.168 135.552 448.535 135.916C447.902 136.28 447.395 136.795 447.016 137.459C446.636 138.108 446.446 138.884 446.446 139.786C446.446 140.672 446.636 141.456 447.016 142.136C447.395 142.801 447.902 143.315 448.535 143.679C449.168 144.043 449.888 144.225 450.695 144.225ZM465.67 146.22C464.594 146.22 463.644 146.022 462.821 145.626C462.014 145.23 461.381 144.629 460.922 143.822C460.479 142.999 460.257 141.97 460.257 140.736V133.495H462.536V140.474C462.536 141.709 462.829 142.635 463.415 143.252C464.016 143.869 464.855 144.178 465.931 144.178C466.723 144.178 467.411 144.02 467.997 143.703C468.582 143.371 469.033 142.896 469.35 142.279C469.666 141.646 469.825 140.886 469.825 140V133.495H472.104V146.077H469.943V142.682L470.3 143.584C469.888 144.423 469.271 145.072 468.448 145.531C467.625 145.99 466.699 146.22 465.67 146.22ZM476.443 146.077V133.495H478.627V136.913L478.413 136.059C478.761 135.188 479.347 134.523 480.17 134.064C480.993 133.605 482.006 133.376 483.209 133.376V135.584C483.114 135.568 483.019 135.56 482.924 135.56C482.845 135.56 482.765 135.56 482.686 135.56C481.468 135.56 480.502 135.924 479.79 136.652C479.078 137.38 478.722 138.433 478.722 139.81V146.077H476.443ZM48.4551 172.22C47.1098 172.22 45.9227 171.943 44.894 171.389C43.881 170.835 43.0897 170.075 42.5199 169.11C41.966 168.144 41.689 167.036 41.689 165.786C41.689 164.536 41.9581 163.428 42.4962 162.462C43.0501 161.497 43.8019 160.745 44.7515 160.207C45.717 159.653 46.8011 159.376 48.004 159.376C49.2227 159.376 50.2989 159.645 51.2327 160.183C52.1665 160.721 52.8946 161.481 53.4168 162.462C53.955 163.428 54.224 164.559 54.224 165.857C54.224 165.952 54.2161 166.063 54.2003 166.189C54.2003 166.316 54.1924 166.435 54.1765 166.546H43.4695V164.907H52.9895L52.0636 165.477C52.0795 164.67 51.9133 163.95 51.5651 163.317C51.2169 162.684 50.7342 162.193 50.1169 161.845C49.5155 161.481 48.8112 161.299 48.004 161.299C47.2126 161.299 46.5083 161.481 45.8911 161.845C45.2738 162.193 44.7911 162.692 44.4429 163.341C44.0947 163.974 43.9206 164.702 43.9206 165.525V165.905C43.9206 166.743 44.1105 167.495 44.4904 168.16C44.8861 168.809 45.4321 169.315 46.1285 169.679C46.8249 170.043 47.6241 170.225 48.5263 170.225C49.2702 170.225 49.9428 170.099 50.5442 169.846C51.1615 169.592 51.6996 169.212 52.1586 168.706L53.4168 170.178C52.8471 170.843 52.1349 171.349 51.2802 171.697C50.4414 172.045 49.4997 172.22 48.4551 172.22ZM73.1288 159.376C74.1417 159.376 75.0359 159.574 75.8115 159.969C76.587 160.365 77.1884 160.967 77.6157 161.774C78.0589 162.581 78.2805 163.602 78.2805 164.836V172.077H76.0014V165.097C76.0014 163.879 75.7165 162.961 75.1467 162.344C74.5769 161.726 73.7777 161.418 72.7489 161.418C71.9892 161.418 71.3245 161.576 70.7547 161.892C70.1849 162.209 69.7418 162.676 69.4252 163.293C69.1245 163.91 68.9742 164.678 68.9742 165.596V172.077H66.6951V165.097C66.6951 163.879 66.4102 162.961 65.8404 162.344C65.2865 161.726 64.4872 161.418 63.4426 161.418C62.6987 161.418 62.0419 161.576 61.4721 161.892C60.9024 162.209 60.4592 162.676 60.1427 163.293C59.8261 163.91 59.6679 164.678 59.6679 165.596V172.077H57.3888V159.495H59.5729V162.842L59.2168 161.987C59.6125 161.164 60.2218 160.523 61.0448 160.064C61.8678 159.605 62.8254 159.376 63.9174 159.376C65.1203 159.376 66.157 159.677 67.0274 160.278C67.8979 160.864 68.4677 161.758 68.7368 162.961L67.8109 162.581C68.1907 161.615 68.8555 160.84 69.8051 160.254C70.7547 159.669 71.8626 159.376 73.1288 159.376ZM87.8631 172.22C86.597 172.22 85.4733 171.943 84.492 171.389C83.5107 170.835 82.7352 170.075 82.1654 169.11C81.5956 168.128 81.3107 167.02 81.3107 165.786C81.3107 164.536 81.5956 163.428 82.1654 162.462C82.7352 161.497 83.5107 160.745 84.492 160.207C85.4733 159.653 86.597 159.376 87.8631 159.376C89.1135 159.376 90.2293 159.653 91.2106 160.207C92.2077 160.745 92.9832 161.497 93.5371 162.462C94.1069 163.412 94.3918 164.52 94.3918 165.786C94.3918 167.036 94.1069 168.144 93.5371 169.11C92.9832 170.075 92.2077 170.835 91.2106 171.389C90.2293 171.943 89.1135 172.22 87.8631 172.22ZM87.8631 170.225C88.6703 170.225 89.3905 170.043 90.0235 169.679C90.6724 169.315 91.1789 168.801 91.5429 168.136C91.907 167.456 92.089 166.672 92.089 165.786C92.089 164.884 91.907 164.108 91.5429 163.459C91.1789 162.795 90.6724 162.28 90.0235 161.916C89.3905 161.552 88.6703 161.37 87.8631 161.37C87.056 161.37 86.3358 161.552 85.7028 161.916C85.0697 162.28 84.5632 162.795 84.1834 163.459C83.8035 164.108 83.6136 164.884 83.6136 165.786C83.6136 166.672 83.8035 167.456 84.1834 168.136C84.5632 168.801 85.0697 169.315 85.7028 169.679C86.3358 170.043 87.056 170.225 87.8631 170.225ZM101.865 172.22C100.598 172.22 99.6171 171.879 98.9207 171.199C98.2243 170.518 97.8761 169.545 97.8761 168.279V156.741H100.155V168.184C100.155 168.864 100.321 169.387 100.654 169.751C101.002 170.115 101.493 170.297 102.126 170.297C102.838 170.297 103.431 170.099 103.906 169.703L104.618 171.341C104.27 171.642 103.851 171.863 103.36 172.006C102.885 172.148 102.387 172.22 101.865 172.22ZM95.7395 161.37V159.495H103.764V161.37H95.7395ZM107.374 172.077V159.495H109.653V172.077H107.374ZM108.513 157.073C108.07 157.073 107.698 156.931 107.398 156.646C107.113 156.361 106.97 156.013 106.97 155.601C106.97 155.174 107.113 154.818 107.398 154.533C107.698 154.248 108.07 154.106 108.513 154.106C108.957 154.106 109.321 154.248 109.605 154.533C109.906 154.802 110.057 155.142 110.057 155.554C110.057 155.981 109.914 156.345 109.629 156.646C109.344 156.931 108.972 157.073 108.513 157.073ZM119.394 172.22C118.127 172.22 117.004 171.943 116.022 171.389C115.041 170.835 114.266 170.075 113.696 169.11C113.126 168.128 112.841 167.02 112.841 165.786C112.841 164.536 113.126 163.428 113.696 162.462C114.266 161.497 115.041 160.745 116.022 160.207C117.004 159.653 118.127 159.376 119.394 159.376C120.644 159.376 121.76 159.653 122.741 160.207C123.738 160.745 124.514 161.497 125.068 162.462C125.637 163.412 125.922 164.52 125.922 165.786C125.922 167.036 125.637 168.144 125.068 169.11C124.514 170.075 123.738 170.835 122.741 171.389C121.76 171.943 120.644 172.22 119.394 172.22ZM119.394 170.225C120.201 170.225 120.921 170.043 121.554 169.679C122.203 169.315 122.709 168.801 123.073 168.136C123.437 167.456 123.619 166.672 123.619 165.786C123.619 164.884 123.437 164.108 123.073 163.459C122.709 162.795 122.203 162.28 121.554 161.916C120.921 161.552 120.201 161.37 119.394 161.37C118.586 161.37 117.866 161.552 117.233 161.916C116.6 162.28 116.094 162.795 115.714 163.459C115.334 164.108 115.144 164.884 115.144 165.786C115.144 166.672 115.334 167.456 115.714 168.136C116.094 168.801 116.6 169.315 117.233 169.679C117.866 170.043 118.586 170.225 119.394 170.225ZM135.793 159.376C136.822 159.376 137.724 159.574 138.499 159.969C139.291 160.365 139.908 160.967 140.351 161.774C140.794 162.581 141.016 163.602 141.016 164.836V172.077H138.737V165.097C138.737 163.879 138.436 162.961 137.834 162.344C137.249 161.726 136.418 161.418 135.342 161.418C134.535 161.418 133.83 161.576 133.229 161.892C132.627 162.209 132.16 162.676 131.828 163.293C131.512 163.91 131.353 164.678 131.353 165.596V172.077H129.074V159.495H131.258V162.89L130.902 161.987C131.314 161.164 131.947 160.523 132.801 160.064C133.656 159.605 134.653 159.376 135.793 159.376ZM148.842 172.22C147.798 172.22 146.8 172.077 145.851 171.792C144.917 171.507 144.181 171.159 143.643 170.748L144.593 168.943C145.131 169.307 145.795 169.616 146.587 169.869C147.378 170.123 148.185 170.249 149.008 170.249C150.069 170.249 150.828 170.099 151.287 169.798C151.762 169.497 152 169.078 152 168.54C152 168.144 151.857 167.835 151.572 167.614C151.287 167.392 150.908 167.226 150.433 167.115C149.974 167.005 149.459 166.91 148.89 166.83C148.32 166.736 147.75 166.625 147.18 166.498C146.611 166.356 146.088 166.166 145.613 165.928C145.139 165.675 144.759 165.335 144.474 164.907C144.189 164.464 144.047 163.879 144.047 163.151C144.047 162.391 144.26 161.726 144.688 161.156C145.115 160.587 145.716 160.151 146.492 159.851C147.283 159.534 148.217 159.376 149.293 159.376C150.116 159.376 150.947 159.479 151.786 159.685C152.641 159.874 153.337 160.151 153.875 160.515L152.902 162.32C152.332 161.94 151.738 161.679 151.121 161.536C150.504 161.394 149.887 161.323 149.269 161.323C148.272 161.323 147.528 161.489 147.038 161.821C146.547 162.138 146.302 162.549 146.302 163.056C146.302 163.483 146.444 163.815 146.729 164.053C147.03 164.274 147.41 164.449 147.869 164.575C148.344 164.702 148.866 164.813 149.436 164.907C150.005 164.987 150.575 165.097 151.145 165.24C151.715 165.366 152.229 165.548 152.688 165.786C153.163 166.023 153.543 166.356 153.828 166.783C154.128 167.21 154.279 167.78 154.279 168.492C154.279 169.252 154.057 169.909 153.614 170.463C153.171 171.017 152.546 171.452 151.738 171.769C150.931 172.069 149.966 172.22 148.842 172.22ZM168.892 172.22C167.626 172.22 166.502 171.943 165.521 171.389C164.539 170.835 163.764 170.075 163.194 169.11C162.624 168.128 162.339 167.02 162.339 165.786C162.339 164.536 162.624 163.428 163.194 162.462C163.764 161.497 164.539 160.745 165.521 160.207C166.502 159.653 167.626 159.376 168.892 159.376C170.142 159.376 171.258 159.653 172.239 160.207C173.236 160.745 174.012 161.497 174.566 162.462C175.136 163.412 175.42 164.52 175.42 165.786C175.42 167.036 175.136 168.144 174.566 169.11C174.012 170.075 173.236 170.835 172.239 171.389C171.258 171.943 170.142 172.22 168.892 172.22ZM168.892 170.225C169.699 170.225 170.419 170.043 171.052 169.679C171.701 169.315 172.208 168.801 172.572 168.136C172.936 167.456 173.118 166.672 173.118 165.786C173.118 164.884 172.936 164.108 172.572 163.459C172.208 162.795 171.701 162.28 171.052 161.916C170.419 161.552 169.699 161.37 168.892 161.37C168.085 161.37 167.364 161.552 166.731 161.916C166.098 162.28 165.592 162.795 165.212 163.459C164.832 164.108 164.642 164.884 164.642 165.786C164.642 166.672 164.832 167.456 165.212 168.136C165.592 168.801 166.098 169.315 166.731 169.679C167.364 170.043 168.085 170.225 168.892 170.225ZM181.525 172.077L176.017 159.495H178.391L183.281 170.89H182.142L187.127 159.495H189.359L183.851 172.077H181.525ZM196.741 172.22C195.396 172.22 194.209 171.943 193.18 171.389C192.167 170.835 191.376 170.075 190.806 169.11C190.252 168.144 189.975 167.036 189.975 165.786C189.975 164.536 190.244 163.428 190.782 162.462C191.336 161.497 192.088 160.745 193.037 160.207C194.003 159.653 195.087 159.376 196.29 159.376C197.509 159.376 198.585 159.645 199.519 160.183C200.452 160.721 201.18 161.481 201.703 162.462C202.241 163.428 202.51 164.559 202.51 165.857C202.51 165.952 202.502 166.063 202.486 166.189C202.486 166.316 202.478 166.435 202.462 166.546H191.755V164.907H201.275L200.35 165.477C200.365 164.67 200.199 163.95 199.851 163.317C199.503 162.684 199.02 162.193 198.403 161.845C197.801 161.481 197.097 161.299 196.29 161.299C195.499 161.299 194.794 161.481 194.177 161.845C193.56 162.193 193.077 162.692 192.729 163.341C192.381 163.974 192.207 164.702 192.207 165.525V165.905C192.207 166.743 192.396 167.495 192.776 168.16C193.172 168.809 193.718 169.315 194.414 169.679C195.111 170.043 195.91 170.225 196.812 170.225C197.556 170.225 198.229 170.099 198.83 169.846C199.447 169.592 199.986 169.212 200.445 168.706L201.703 170.178C201.133 170.843 200.421 171.349 199.566 171.697C198.727 172.045 197.786 172.22 196.741 172.22ZM205.675 172.077V159.495H207.859V162.913L207.645 162.059C207.993 161.188 208.579 160.523 209.402 160.064C210.225 159.605 211.238 159.376 212.441 159.376V161.584C212.346 161.568 212.251 161.56 212.156 161.56C212.077 161.56 211.998 161.56 211.918 161.56C210.7 161.56 209.734 161.924 209.022 162.652C208.31 163.38 207.954 164.433 207.954 165.81V172.077H205.675ZM226.108 172.22C224.842 172.22 223.861 171.879 223.165 171.199C222.468 170.518 222.12 169.545 222.12 168.279V156.741H224.399V168.184C224.399 168.864 224.565 169.387 224.898 169.751C225.246 170.115 225.737 170.297 226.37 170.297C227.082 170.297 227.675 170.099 228.15 169.703L228.862 171.341C228.514 171.642 228.095 171.863 227.604 172.006C227.129 172.148 226.631 172.22 226.108 172.22ZM219.983 161.37V159.495H228.008V161.37H219.983ZM231.618 172.077V159.495H233.897V172.077H231.618ZM232.757 157.073C232.314 157.073 231.942 156.931 231.642 156.646C231.357 156.361 231.214 156.013 231.214 155.601C231.214 155.174 231.357 154.818 231.642 154.533C231.942 154.248 232.314 154.106 232.757 154.106C233.2 154.106 233.565 154.248 233.849 154.533C234.15 154.802 234.3 155.142 234.3 155.554C234.3 155.981 234.158 156.345 233.873 156.646C233.588 156.931 233.216 157.073 232.757 157.073ZM253.988 159.376C255.001 159.376 255.896 159.574 256.671 159.969C257.447 160.365 258.048 160.967 258.475 161.774C258.919 162.581 259.14 163.602 259.14 164.836V172.077H256.861V165.097C256.861 163.879 256.576 162.961 256.006 162.344C255.437 161.726 254.637 161.418 253.609 161.418C252.849 161.418 252.184 161.576 251.614 161.892C251.045 162.209 250.601 162.676 250.285 163.293C249.984 163.91 249.834 164.678 249.834 165.596V172.077H247.555V165.097C247.555 163.879 247.27 162.961 246.7 162.344C246.146 161.726 245.347 161.418 244.302 161.418C243.558 161.418 242.902 161.576 242.332 161.892C241.762 162.209 241.319 162.676 241.002 163.293C240.686 163.91 240.528 164.678 240.528 165.596V172.077H238.248V159.495H240.433V162.842L240.076 161.987C240.472 161.164 241.081 160.523 241.905 160.064C242.728 159.605 243.685 159.376 244.777 159.376C245.98 159.376 247.017 159.677 247.887 160.278C248.758 160.864 249.327 161.758 249.596 162.961L248.671 162.581C249.05 161.615 249.715 160.84 250.665 160.254C251.614 159.669 252.722 159.376 253.988 159.376ZM268.936 172.22C267.591 172.22 266.404 171.943 265.375 171.389C264.362 170.835 263.571 170.075 263.001 169.11C262.447 168.144 262.17 167.036 262.17 165.786C262.17 164.536 262.439 163.428 262.978 162.462C263.532 161.497 264.283 160.745 265.233 160.207C266.198 159.653 267.283 159.376 268.485 159.376C269.704 159.376 270.78 159.645 271.714 160.183C272.648 160.721 273.376 161.481 273.898 162.462C274.436 163.428 274.705 164.559 274.705 165.857C274.705 165.952 274.698 166.063 274.682 166.189C274.682 166.316 274.674 166.435 274.658 166.546H263.951V164.907H273.471L272.545 165.477C272.561 164.67 272.395 163.95 272.047 163.317C271.698 162.684 271.216 162.193 270.598 161.845C269.997 161.481 269.293 161.299 268.485 161.299C267.694 161.299 266.99 161.481 266.373 161.845C265.755 162.193 265.273 162.692 264.924 163.341C264.576 163.974 264.402 164.702 264.402 165.525V165.905C264.402 166.743 264.592 167.495 264.972 168.16C265.367 168.809 265.914 169.315 266.61 169.679C267.306 170.043 268.106 170.225 269.008 170.225C269.752 170.225 270.424 170.099 271.026 169.846C271.643 169.592 272.181 169.212 272.64 168.706L273.898 170.178C273.329 170.843 272.616 171.349 271.762 171.697C270.923 172.045 269.981 172.22 268.936 172.22ZM278.416 172.22C277.973 172.22 277.593 172.069 277.277 171.769C276.96 171.452 276.802 171.056 276.802 170.581C276.802 170.107 276.96 169.719 277.277 169.418C277.593 169.117 277.973 168.967 278.416 168.967C278.844 168.967 279.208 169.117 279.508 169.418C279.825 169.719 279.983 170.107 279.983 170.581C279.983 171.056 279.825 171.452 279.508 171.769C279.208 172.069 278.844 172.22 278.416 172.22Z" fill="black"/>
<path d="M481.07 47.9528C462.353 48.4293 453.63 33.0638 451.608 25.3214H576.39L580.723 67.6065C566.858 73.562 550.394 69.3931 543.462 61.0553C534.796 49.7395 534.218 45.372 526.131 42.5927C510.186 39.734 496.668 47.5558 481.07 47.9528Z" fill="#EE7722"/>
<defs>
<filter id="filter0_dd_895_10" x="0" y="0" width="598.872" height="243.292" filterUnits="userSpaceOnUse" color-interpolation-filters="sRGB">
<feFlood flood-opacity="0" result="BackgroundImageFix"/>
<feColorMatrix in="SourceAlpha" type="matrix" values="0 0 0 0 0 0 0 0 0 0 0 0 0 0 0 0 0 0 127 0" result="hardAlpha"/>
<feOffset dx="-2" dy="-2"/>
<feGaussianBlur stdDeviation="5"/>
<feComposite in2="hardAlpha" operator="out"/>
<feColorMatrix type="matrix" values="0 0 0 0 0 0 0 0 0 0 0 0 0 0 0 0 0 0 0.25 0"/>
<feBlend mode="normal" in2="BackgroundImageFix" result="effect1_dropShadow_895_10"/>
<feColorMatrix in="SourceAlpha" type="matrix" values="0 0 0 0 0 0 0 0 0 0 0 0 0 0 0 0 0 0 127 0" result="hardAlpha"/>
<feOffset dx="2" dy="2"/>
<feGaussianBlur stdDeviation="5"/>
<feComposite in2="hardAlpha" operator="out"/>
<feColorMatrix type="matrix" values="0 0 0 0 0 0 0 0 0 0 0 0 0 0 0 0 0 0 0.25 0"/>
<feBlend mode="normal" in2="effect1_dropShadow_895_10" result="effect2_dropShadow_895_10"/>
<feBlend mode="normal" in="SourceGraphic" in2="effect2_dropShadow_895_10" result="shape"/>
</filter>
</defs>
</svg>
