<svg width="599" height="244" viewBox="0 0 599 244" fill="none" xmlns="http://www.w3.org/2000/svg">
<g filter="url(#filter0_dd_895_15)">
<rect x="12" y="12" width="574.872" height="219.292" rx="24.6044" fill="#FCC21B"/>
<rect x="25.3213" y="25.7056" width="548.229" height="191.88" rx="23.6238" fill="white"/>
</g>
<path d="M43.3004 76.1591V50.6175H49.8223V53.3463H46.7114V73.4303H49.8223V76.1591H43.3004ZM58.8985 71.1381C57.3886 71.1381 56.0242 70.7561 54.8053 69.992C53.6046 69.228 52.6586 68.1182 51.9673 66.6629C51.2761 65.1893 50.9304 63.4065 50.9304 61.3144C50.9304 59.2223 51.2761 57.4486 51.9673 55.9933C52.6586 54.5197 53.6046 53.4009 54.8053 52.6368C56.0242 51.8728 57.3886 51.4907 58.8985 51.4907C60.4266 51.4907 61.791 51.8728 62.9917 52.6368C64.1924 53.4009 65.1384 54.5197 65.8297 55.9933C66.5392 57.4486 66.8939 59.2223 66.8939 61.3144C66.8939 63.4065 66.5392 65.1893 65.8297 66.6629C65.1384 68.1182 64.1924 69.228 62.9917 69.992C61.791 70.7561 60.4266 71.1381 58.8985 71.1381ZM58.8985 68.0546C59.7899 68.0546 60.5631 67.8181 61.218 67.3451C61.8729 66.8539 62.3823 66.108 62.7461 65.1075C63.1282 64.1069 63.3192 62.8426 63.3192 61.3144C63.3192 59.7681 63.1282 58.5038 62.7461 57.5214C62.3823 56.5208 61.8729 55.784 61.218 55.3111C60.5631 54.8199 59.7899 54.5743 58.8985 54.5743C58.0435 54.5743 57.2794 54.8199 56.6063 55.3111C55.9514 55.784 55.4329 56.5208 55.0509 57.5214C54.6871 58.5038 54.5051 59.7681 54.5051 61.3144C54.5051 62.8426 54.6871 64.1069 55.0509 65.1075C55.4329 66.108 55.9514 66.8539 56.6063 67.3451C57.2794 67.8181 58.0435 68.0546 58.8985 68.0546ZM77.0137 71.1381C75.2855 71.1381 73.8028 70.7743 72.5658 70.0466C71.3287 69.3007 70.3827 68.2274 69.7278 66.8266C69.0729 65.4258 68.7454 63.6976 68.7454 61.6419C68.7454 59.4588 69.1366 57.6123 69.9188 56.1024C70.7193 54.5925 71.8199 53.4464 73.2207 52.6641C74.6397 51.8819 76.2678 51.4907 78.1052 51.4907C79.0694 51.4907 79.9881 51.5908 80.8613 51.7909C81.7527 51.991 82.5077 52.3003 83.1262 52.7187L81.8164 55.3929C81.2888 55.0473 80.7158 54.8108 80.0973 54.6834C79.4969 54.5379 78.8602 54.4651 78.1871 54.4651C76.3861 54.4651 74.958 55.02 73.9029 56.1297C72.8477 57.2394 72.3202 58.8767 72.3202 61.0415C72.3202 61.3872 72.3293 61.7965 72.3475 62.2695C72.3657 62.7243 72.4293 63.1882 72.5385 63.6612L71.447 62.4605C71.7744 61.7146 72.2201 61.0961 72.7841 60.6049C73.3662 60.0956 74.0484 59.7135 74.8307 59.4588C75.6311 59.2041 76.4952 59.0768 77.423 59.0768C78.6783 59.0768 79.7971 59.3224 80.7795 59.8136C81.7618 60.2866 82.5441 60.9688 83.1262 61.8602C83.7084 62.7334 83.9995 63.7612 83.9995 64.9437C83.9995 66.199 83.6902 67.2905 83.0717 68.2183C82.4531 69.1461 81.6163 69.8647 80.5612 70.374C79.506 70.8834 78.3235 71.1381 77.0137 71.1381ZM76.8227 68.3547C77.5504 68.3547 78.1962 68.2274 78.7601 67.9727C79.3241 67.6998 79.7607 67.3178 80.07 66.8266C80.3974 66.3354 80.5612 65.7624 80.5612 65.1075C80.5612 64.1069 80.2155 63.3155 79.5242 62.7334C78.8329 62.1513 77.9051 61.8602 76.7408 61.8602C75.9768 61.8602 75.3037 62.0057 74.7215 62.2968C74.1576 62.5697 73.7028 62.9517 73.3571 63.4429C73.0297 63.9341 72.8659 64.498 72.8659 65.1347C72.8659 65.7169 73.0206 66.2536 73.3298 66.7447C73.6391 67.2359 74.0848 67.6271 74.6669 67.9181C75.2673 68.2092 75.9859 68.3547 76.8227 68.3547ZM91.0658 76.1591H84.5712V73.4303H87.6548V53.3463H84.5712V50.6175H91.0658V76.1591Z" fill="black"/>
<path d="M49.0522 125.391C47.786 125.391 46.5752 125.201 45.4198 124.821C44.2645 124.425 43.3544 123.919 42.6897 123.301L43.5681 121.45C44.2012 122.004 45.0083 122.463 45.9896 122.827C46.9709 123.191 47.9917 123.373 49.0522 123.373C50.0176 123.373 50.801 123.262 51.4025 123.04C52.0039 122.819 52.4471 122.518 52.7319 122.138C53.0168 121.742 53.1593 121.299 53.1593 120.809C53.1593 120.239 52.9693 119.78 52.5895 119.432C52.2255 119.084 51.7428 118.807 51.1413 118.601C50.5557 118.379 49.9068 118.189 49.1946 118.031C48.4824 117.873 47.7622 117.691 47.0342 117.485C46.322 117.263 45.6652 116.986 45.0637 116.654C44.4781 116.322 44.0033 115.879 43.6393 115.325C43.2753 114.755 43.0933 114.027 43.0933 113.14C43.0933 112.286 43.3148 111.502 43.758 110.79C44.217 110.062 44.9134 109.484 45.8472 109.057C46.7968 108.614 47.9997 108.392 49.4557 108.392C50.4212 108.392 51.3787 108.519 52.3284 108.772C53.278 109.025 54.101 109.389 54.7974 109.864L54.0139 111.764C53.3017 111.289 52.5499 110.948 51.7586 110.743C50.9672 110.521 50.1996 110.41 49.4557 110.41C48.5219 110.41 47.7543 110.529 47.1529 110.766C46.5515 111.004 46.1083 111.32 45.8234 111.716C45.5544 112.112 45.4198 112.555 45.4198 113.046C45.4198 113.631 45.6019 114.098 45.9659 114.446C46.3457 114.794 46.8284 115.071 47.414 115.277C48.0155 115.483 48.6723 115.673 49.3845 115.847C50.0967 116.005 50.809 116.187 51.5212 116.393C52.2492 116.599 52.906 116.868 53.4916 117.2C54.0931 117.532 54.5758 117.976 54.9398 118.53C55.3038 119.084 55.4859 119.796 55.4859 120.666C55.4859 121.505 55.2564 122.289 54.7974 123.017C54.3384 123.729 53.6262 124.306 52.6607 124.75C51.7111 125.177 50.5082 125.391 49.0522 125.391ZM64.2246 125.343C62.8793 125.343 61.6923 125.066 60.6635 124.512C59.6506 123.958 58.8592 123.199 58.2895 122.233C57.7355 121.268 57.4585 120.16 57.4585 118.909C57.4585 117.659 57.7276 116.551 58.2657 115.586C58.8197 114.62 59.5715 113.869 60.5211 113.33C61.4865 112.776 62.5707 112.499 63.7735 112.499C64.9922 112.499 66.0685 112.769 67.0023 113.307C67.9361 113.845 68.6641 114.604 69.1864 115.586C69.7245 116.551 69.9936 117.683 69.9936 118.981C69.9936 119.076 69.9857 119.186 69.9698 119.313C69.9698 119.44 69.9619 119.558 69.9461 119.669H59.2391V118.031H68.7591L67.8332 118.601C67.849 117.794 67.6828 117.073 67.3346 116.44C66.9864 115.807 66.5037 115.317 65.8865 114.968C65.285 114.604 64.5807 114.422 63.7735 114.422C62.9822 114.422 62.2779 114.604 61.6606 114.968C61.0434 115.317 60.5606 115.815 60.2125 116.464C59.8643 117.097 59.6902 117.825 59.6902 118.648V119.028C59.6902 119.867 59.8801 120.619 60.2599 121.283C60.6556 121.932 61.2016 122.439 61.898 122.803C62.5944 123.167 63.3937 123.349 64.2958 123.349C65.0397 123.349 65.7124 123.222 66.3138 122.969C66.931 122.716 67.4692 122.336 67.9281 121.83L69.1864 123.301C68.6166 123.966 67.9044 124.473 67.0497 124.821C66.2109 125.169 65.2692 125.343 64.2246 125.343ZM79.8769 112.499C80.9057 112.499 81.8078 112.697 82.5833 113.093C83.3747 113.489 83.9919 114.09 84.4351 114.897C84.8782 115.704 85.0998 116.725 85.0998 117.96V125.201H82.8207V118.221C82.8207 117.002 82.52 116.084 81.9186 115.467C81.333 114.85 80.5021 114.541 79.4258 114.541C78.6186 114.541 77.9143 114.699 77.3129 115.016C76.7115 115.333 76.2446 115.799 75.9122 116.417C75.5957 117.034 75.4374 117.802 75.4374 118.72V125.201H73.1583V112.618H75.3424V116.013L74.9863 115.111C75.3978 114.288 76.0309 113.647 76.8856 113.188C77.7402 112.729 78.7373 112.499 79.8769 112.499ZM93.6385 125.343C92.3723 125.343 91.391 125.003 90.6946 124.322C89.9982 123.642 89.65 122.668 89.65 121.402V109.864H91.9291V121.307C91.9291 121.988 92.0953 122.51 92.4277 122.874C92.7759 123.238 93.2665 123.42 93.8996 123.42C94.6118 123.42 95.2053 123.222 95.6801 122.827L96.3924 124.465C96.0442 124.765 95.6248 124.987 95.1341 125.129C94.6593 125.272 94.1607 125.343 93.6385 125.343ZM87.5134 114.494V112.618H95.5377V114.494H87.5134ZM99.1478 125.201V112.618H101.332V116.037L101.118 115.182C101.466 114.312 102.052 113.647 102.875 113.188C103.698 112.729 104.711 112.499 105.914 112.499V114.707C105.819 114.692 105.724 114.684 105.629 114.684C105.55 114.684 105.471 114.684 105.392 114.684C104.173 114.684 103.207 115.048 102.495 115.776C101.783 116.504 101.427 117.556 101.427 118.933V125.201H99.1478ZM115.606 125.201V122.542L115.487 122.043V117.509C115.487 116.543 115.203 115.799 114.633 115.277C114.079 114.739 113.24 114.47 112.116 114.47C111.372 114.47 110.644 114.597 109.932 114.85C109.22 115.087 108.618 115.412 108.128 115.823L107.178 114.114C107.827 113.592 108.603 113.196 109.505 112.927C110.423 112.642 111.38 112.499 112.377 112.499C114.103 112.499 115.432 112.919 116.366 113.758C117.3 114.597 117.767 115.879 117.767 117.604V125.201H115.606ZM111.475 125.343C110.541 125.343 109.718 125.185 109.006 124.868C108.31 124.552 107.772 124.117 107.392 123.563C107.012 122.993 106.822 122.352 106.822 121.64C106.822 120.959 106.98 120.342 107.297 119.788C107.629 119.234 108.159 118.791 108.888 118.458C109.631 118.126 110.628 117.96 111.879 117.96H115.867V119.598H111.974C110.834 119.598 110.067 119.788 109.671 120.168C109.275 120.548 109.077 121.007 109.077 121.545C109.077 122.162 109.323 122.66 109.813 123.04C110.304 123.404 110.985 123.586 111.855 123.586C112.71 123.586 113.454 123.396 114.087 123.017C114.736 122.637 115.203 122.083 115.487 121.355L115.938 122.922C115.638 123.665 115.108 124.259 114.348 124.702C113.588 125.129 112.631 125.343 111.475 125.343ZM132.681 125.343C131.414 125.343 130.433 125.003 129.737 124.322C129.04 123.642 128.692 122.668 128.692 121.402V109.864H130.971V121.307C130.971 121.988 131.137 122.51 131.47 122.874C131.818 123.238 132.309 123.42 132.942 123.42C133.654 123.42 134.247 123.222 134.722 122.827L135.435 124.465C135.086 124.765 134.667 124.987 134.176 125.129C133.701 125.272 133.203 125.343 132.681 125.343ZM126.556 114.494V112.618H134.58V114.494H126.556ZM143.484 125.343C142.408 125.343 141.458 125.145 140.635 124.75C139.828 124.354 139.195 123.753 138.736 122.945C138.293 122.122 138.071 121.094 138.071 119.859V112.618H140.35V119.598C140.35 120.832 140.643 121.758 141.229 122.376C141.83 122.993 142.669 123.301 143.745 123.301C144.537 123.301 145.225 123.143 145.811 122.827C146.396 122.494 146.847 122.019 147.164 121.402C147.48 120.769 147.639 120.009 147.639 119.123V112.618H149.918V125.201H147.757V121.806L148.113 122.708C147.702 123.547 147.085 124.196 146.262 124.655C145.439 125.114 144.513 125.343 143.484 125.343ZM154.257 125.201V112.618H156.441V116.037L156.227 115.182C156.575 114.312 157.161 113.647 157.984 113.188C158.807 112.729 159.82 112.499 161.023 112.499V114.707C160.928 114.692 160.833 114.684 160.738 114.684C160.659 114.684 160.579 114.684 160.5 114.684C159.282 114.684 158.316 115.048 157.604 115.776C156.892 116.504 156.536 117.556 156.536 118.933V125.201H154.257ZM170.55 112.499C171.579 112.499 172.481 112.697 173.257 113.093C174.048 113.489 174.665 114.09 175.108 114.897C175.552 115.704 175.773 116.725 175.773 117.96V125.201H173.494V118.221C173.494 117.002 173.193 116.084 172.592 115.467C172.006 114.85 171.175 114.541 170.099 114.541C169.292 114.541 168.588 114.699 167.986 115.016C167.385 115.333 166.918 115.799 166.585 116.417C166.269 117.034 166.111 117.802 166.111 118.72V125.201H163.832V112.618H166.016V116.013L165.66 115.111C166.071 114.288 166.704 113.647 167.559 113.188C168.414 112.729 169.411 112.499 170.55 112.499ZM183.6 125.343C182.555 125.343 181.558 125.201 180.608 124.916C179.674 124.631 178.938 124.283 178.4 123.871L179.35 122.067C179.888 122.431 180.553 122.74 181.344 122.993C182.136 123.246 182.943 123.373 183.766 123.373C184.826 123.373 185.586 123.222 186.045 122.922C186.52 122.621 186.757 122.201 186.757 121.663C186.757 121.268 186.615 120.959 186.33 120.737C186.045 120.516 185.665 120.35 185.19 120.239C184.731 120.128 184.217 120.033 183.647 119.954C183.077 119.859 182.507 119.748 181.938 119.622C181.368 119.479 180.846 119.289 180.371 119.052C179.896 118.799 179.516 118.458 179.231 118.031C178.946 117.588 178.804 117.002 178.804 116.274C178.804 115.515 179.018 114.85 179.445 114.28C179.872 113.71 180.474 113.275 181.249 112.974C182.041 112.658 182.974 112.499 184.051 112.499C184.874 112.499 185.705 112.602 186.543 112.808C187.398 112.998 188.094 113.275 188.633 113.639L187.659 115.443C187.089 115.063 186.496 114.802 185.879 114.66C185.261 114.517 184.644 114.446 184.027 114.446C183.03 114.446 182.286 114.612 181.795 114.945C181.305 115.261 181.059 115.673 181.059 116.179C181.059 116.607 181.202 116.939 181.487 117.176C181.787 117.398 182.167 117.572 182.626 117.699C183.101 117.825 183.623 117.936 184.193 118.031C184.763 118.11 185.333 118.221 185.902 118.363C186.472 118.49 186.987 118.672 187.445 118.909C187.92 119.147 188.3 119.479 188.585 119.907C188.886 120.334 189.036 120.904 189.036 121.616C189.036 122.376 188.815 123.032 188.371 123.586C187.928 124.14 187.303 124.576 186.496 124.892C185.689 125.193 184.723 125.343 183.6 125.343ZM198.806 129.949C198.205 129.949 197.619 129.846 197.049 129.64C196.48 129.45 195.989 129.165 195.577 128.786L196.551 127.076C196.867 127.377 197.215 127.606 197.595 127.765C197.975 127.923 198.379 128.002 198.806 128.002C199.36 128.002 199.819 127.86 200.183 127.575C200.547 127.29 200.887 126.783 201.204 126.055L201.987 124.322L202.225 124.037L207.163 112.618H209.394L203.293 126.459C202.929 127.345 202.518 128.042 202.059 128.548C201.615 129.055 201.125 129.411 200.587 129.616C200.049 129.838 199.455 129.949 198.806 129.949ZM201.797 125.604L196.052 112.618H198.426L203.317 123.824L201.797 125.604ZM216.563 125.343C215.297 125.343 214.173 125.066 213.192 124.512C212.21 123.958 211.435 123.199 210.865 122.233C210.295 121.252 210.01 120.144 210.01 118.909C210.01 117.659 210.295 116.551 210.865 115.586C211.435 114.62 212.21 113.869 213.192 113.33C214.173 112.776 215.297 112.499 216.563 112.499C217.813 112.499 218.929 112.776 219.91 113.33C220.907 113.869 221.683 114.62 222.237 115.586C222.807 116.535 223.091 117.643 223.091 118.909C223.091 120.16 222.807 121.268 222.237 122.233C221.683 123.199 220.907 123.958 219.91 124.512C218.929 125.066 217.813 125.343 216.563 125.343ZM216.563 123.349C217.37 123.349 218.09 123.167 218.723 122.803C219.372 122.439 219.879 121.924 220.243 121.26C220.607 120.579 220.789 119.796 220.789 118.909C220.789 118.007 220.607 117.232 220.243 116.583C219.879 115.918 219.372 115.404 218.723 115.04C218.09 114.676 217.37 114.494 216.563 114.494C215.756 114.494 215.035 114.676 214.402 115.04C213.769 115.404 213.263 115.918 212.883 116.583C212.503 117.232 212.313 118.007 212.313 118.909C212.313 119.796 212.503 120.579 212.883 121.26C213.263 121.924 213.769 122.439 214.402 122.803C215.035 123.167 215.756 123.349 216.563 123.349ZM231.538 125.343C230.461 125.343 229.512 125.145 228.689 124.75C227.881 124.354 227.248 123.753 226.789 122.945C226.346 122.122 226.125 121.094 226.125 119.859V112.618H228.404V119.598C228.404 120.832 228.697 121.758 229.282 122.376C229.884 122.993 230.722 123.301 231.799 123.301C232.59 123.301 233.278 123.143 233.864 122.827C234.45 122.494 234.901 122.019 235.217 121.402C235.534 120.769 235.692 120.009 235.692 119.123V112.618H237.971V125.201H235.811V121.806L236.167 122.708C235.755 123.547 235.138 124.196 234.315 124.655C233.492 125.114 232.566 125.343 231.538 125.343ZM242.31 125.201V112.618H244.494V116.037L244.28 115.182C244.629 114.312 245.214 113.647 246.037 113.188C246.86 112.729 247.873 112.499 249.076 112.499V114.707C248.981 114.692 248.886 114.684 248.791 114.684C248.712 114.684 248.633 114.684 248.554 114.684C247.335 114.684 246.37 115.048 245.657 115.776C244.945 116.504 244.589 117.556 244.589 118.933V125.201H242.31ZM263.622 125.343C262.403 125.343 261.311 125.074 260.346 124.536C259.396 123.998 258.645 123.246 258.091 122.281C257.537 121.315 257.26 120.191 257.26 118.909C257.26 117.627 257.537 116.512 258.091 115.562C258.645 114.597 259.396 113.845 260.346 113.307C261.311 112.769 262.403 112.499 263.622 112.499C264.683 112.499 265.64 112.737 266.495 113.212C267.349 113.686 268.03 114.399 268.536 115.348C269.059 116.298 269.32 117.485 269.32 118.909C269.32 120.334 269.067 121.521 268.56 122.471C268.07 123.42 267.397 124.14 266.542 124.631C265.688 125.106 264.714 125.343 263.622 125.343ZM263.812 123.349C264.603 123.349 265.316 123.167 265.949 122.803C266.598 122.439 267.104 121.924 267.468 121.26C267.848 120.579 268.038 119.796 268.038 118.909C268.038 118.007 267.848 117.232 267.468 116.583C267.104 115.918 266.598 115.404 265.949 115.04C265.316 114.676 264.603 114.494 263.812 114.494C263.005 114.494 262.285 114.676 261.652 115.04C261.019 115.404 260.512 115.918 260.132 116.583C259.752 117.232 259.563 118.007 259.563 118.909C259.563 119.796 259.752 120.579 260.132 121.26C260.512 121.924 261.019 122.439 261.652 122.803C262.285 123.167 263.005 123.349 263.812 123.349ZM268.109 125.201V121.806L268.252 118.886L268.014 115.966V107.585H270.293V125.201H268.109ZM282.416 125.201V122.542L282.297 122.043V117.509C282.297 116.543 282.013 115.799 281.443 115.277C280.889 114.739 280.05 114.47 278.926 114.47C278.182 114.47 277.454 114.597 276.742 114.85C276.03 115.087 275.429 115.412 274.938 115.823L273.988 114.114C274.637 113.592 275.413 113.196 276.315 112.927C277.233 112.642 278.19 112.499 279.187 112.499C280.913 112.499 282.242 112.919 283.176 113.758C284.11 114.597 284.577 115.879 284.577 117.604V125.201H282.416ZM278.285 125.343C277.352 125.343 276.529 125.185 275.816 124.868C275.12 124.552 274.582 124.117 274.202 123.563C273.822 122.993 273.632 122.352 273.632 121.64C273.632 120.959 273.79 120.342 274.107 119.788C274.439 119.234 274.97 118.791 275.698 118.458C276.441 118.126 277.439 117.96 278.689 117.96H282.677V119.598H278.784C277.644 119.598 276.877 119.788 276.481 120.168C276.085 120.548 275.888 121.007 275.888 121.545C275.888 122.162 276.133 122.66 276.623 123.04C277.114 123.404 277.795 123.586 278.665 123.586C279.52 123.586 280.264 123.396 280.897 123.017C281.546 122.637 282.013 122.083 282.297 121.355L282.749 122.922C282.448 123.665 281.918 124.259 281.158 124.702C280.398 125.129 279.441 125.343 278.285 125.343ZM288.794 125.201V112.618H291.073V125.201H288.794ZM289.934 110.197C289.491 110.197 289.119 110.054 288.818 109.769C288.533 109.484 288.391 109.136 288.391 108.725C288.391 108.297 288.533 107.941 288.818 107.656C289.119 107.372 289.491 107.229 289.934 107.229C290.377 107.229 290.741 107.372 291.026 107.656C291.327 107.925 291.477 108.266 291.477 108.677C291.477 109.105 291.334 109.469 291.05 109.769C290.765 110.054 290.393 110.197 289.934 110.197ZM295.425 125.201V107.585H297.704V125.201H295.425ZM302.602 129.949C302 129.949 301.415 129.846 300.845 129.64C300.275 129.45 299.784 129.165 299.373 128.786L300.346 127.076C300.663 127.377 301.011 127.606 301.391 127.765C301.771 127.923 302.174 128.002 302.602 128.002C303.156 128.002 303.615 127.86 303.979 127.575C304.343 127.29 304.683 126.783 304.999 126.055L305.783 124.322L306.02 124.037L310.958 112.618H313.19L307.089 126.459C306.725 127.345 306.313 128.042 305.854 128.548C305.411 129.055 304.92 129.411 304.382 129.616C303.844 129.838 303.251 129.949 302.602 129.949ZM305.593 125.604L299.848 112.618H302.222L307.112 123.824L305.593 125.604ZM337.433 112.499C338.446 112.499 339.34 112.697 340.115 113.093C340.891 113.489 341.492 114.09 341.92 114.897C342.363 115.704 342.584 116.725 342.584 117.96V125.201H340.305V118.221C340.305 117.002 340.02 116.084 339.451 115.467C338.881 114.85 338.082 114.541 337.053 114.541C336.293 114.541 335.628 114.699 335.059 115.016C334.489 115.333 334.046 115.799 333.729 116.417C333.428 117.034 333.278 117.802 333.278 118.72V125.201H330.999V118.221C330.999 117.002 330.714 116.084 330.144 115.467C329.59 114.85 328.791 114.541 327.746 114.541C327.003 114.541 326.346 114.699 325.776 115.016C325.206 115.333 324.763 115.799 324.446 116.417C324.13 117.034 323.972 117.802 323.972 118.72V125.201H321.693V112.618H323.877V115.966L323.521 115.111C323.916 114.288 324.526 113.647 325.349 113.188C326.172 112.729 327.129 112.499 328.221 112.499C329.424 112.499 330.461 112.8 331.331 113.402C332.202 113.987 332.772 114.881 333.041 116.084L332.115 115.704C332.495 114.739 333.159 113.963 334.109 113.378C335.059 112.792 336.166 112.499 337.433 112.499ZM352.167 125.343C350.901 125.343 349.777 125.066 348.796 124.512C347.815 123.958 347.039 123.199 346.469 122.233C345.899 121.252 345.615 120.144 345.615 118.909C345.615 117.659 345.899 116.551 346.469 115.586C347.039 114.62 347.815 113.869 348.796 113.33C349.777 112.776 350.901 112.499 352.167 112.499C353.417 112.499 354.533 112.776 355.514 113.33C356.511 113.869 357.287 114.62 357.841 115.586C358.411 116.535 358.696 117.643 358.696 118.909C358.696 120.16 358.411 121.268 357.841 122.233C357.287 123.199 356.511 123.958 355.514 124.512C354.533 125.066 353.417 125.343 352.167 125.343ZM352.167 123.349C352.974 123.349 353.694 123.167 354.327 122.803C354.976 122.439 355.483 121.924 355.847 121.26C356.211 120.579 356.393 119.796 356.393 118.909C356.393 118.007 356.211 117.232 355.847 116.583C355.483 115.918 354.976 115.404 354.327 115.04C353.694 114.676 352.974 114.494 352.167 114.494C351.36 114.494 350.64 114.676 350.007 115.04C349.373 115.404 348.867 115.918 348.487 116.583C348.107 117.232 347.917 118.007 347.917 118.909C347.917 119.796 348.107 120.579 348.487 121.26C348.867 121.924 349.373 122.439 350.007 122.803C350.64 123.167 351.36 123.349 352.167 123.349ZM367.237 125.343C365.971 125.343 364.847 125.066 363.866 124.512C362.884 123.958 362.109 123.199 361.539 122.233C360.969 121.252 360.684 120.144 360.684 118.909C360.684 117.659 360.969 116.551 361.539 115.586C362.109 114.62 362.884 113.869 363.866 113.33C364.847 112.776 365.971 112.499 367.237 112.499C368.487 112.499 369.603 112.776 370.584 113.33C371.581 113.869 372.357 114.62 372.911 115.586C373.48 116.535 373.765 117.643 373.765 118.909C373.765 120.16 373.48 121.268 372.911 122.233C372.357 123.199 371.581 123.958 370.584 124.512C369.603 125.066 368.487 125.343 367.237 125.343ZM367.237 123.349C368.044 123.349 368.764 123.167 369.397 122.803C370.046 122.439 370.552 121.924 370.916 121.26C371.28 120.579 371.462 119.796 371.462 118.909C371.462 118.007 371.28 117.232 370.916 116.583C370.552 115.918 370.046 115.404 369.397 115.04C368.764 114.676 368.044 114.494 367.237 114.494C366.429 114.494 365.709 114.676 365.076 115.04C364.443 115.404 363.937 115.918 363.557 116.583C363.177 117.232 362.987 118.007 362.987 118.909C362.987 119.796 363.177 120.579 363.557 121.26C363.937 121.924 364.443 122.439 365.076 122.803C365.709 123.167 366.429 123.349 367.237 123.349ZM382.116 125.343C380.898 125.343 379.806 125.074 378.84 124.536C377.891 123.998 377.139 123.246 376.585 122.281C376.031 121.315 375.754 120.191 375.754 118.909C375.754 117.627 376.031 116.512 376.585 115.562C377.139 114.597 377.891 113.845 378.84 113.307C379.806 112.769 380.898 112.499 382.116 112.499C383.177 112.499 384.134 112.737 384.989 113.212C385.844 113.686 386.524 114.399 387.031 115.348C387.553 116.298 387.814 117.485 387.814 118.909C387.814 120.334 387.561 121.521 387.054 122.471C386.564 123.42 385.891 124.14 385.037 124.631C384.182 125.106 383.209 125.343 382.116 125.343ZM382.306 123.349C383.098 123.349 383.81 123.167 384.443 122.803C385.092 122.439 385.598 121.924 385.962 121.26C386.342 120.579 386.532 119.796 386.532 118.909C386.532 118.007 386.342 117.232 385.962 116.583C385.598 115.918 385.092 115.404 384.443 115.04C383.81 114.676 383.098 114.494 382.306 114.494C381.499 114.494 380.779 114.676 380.146 115.04C379.513 115.404 379.006 115.918 378.627 116.583C378.247 117.232 378.057 118.007 378.057 118.909C378.057 119.796 378.247 120.579 378.627 121.26C379.006 121.924 379.513 122.439 380.146 122.803C380.779 123.167 381.499 123.349 382.306 123.349ZM386.603 125.201V121.806L386.746 118.886L386.508 115.966V107.585H388.788V125.201H386.603ZM399.475 125.201V107.585H401.755V125.201H399.475ZM411.495 125.343C410.229 125.343 409.105 125.066 408.124 124.512C407.143 123.958 406.367 123.199 405.798 122.233C405.228 121.252 404.943 120.144 404.943 118.909C404.943 117.659 405.228 116.551 405.798 115.586C406.367 114.62 407.143 113.869 408.124 113.33C409.105 112.776 410.229 112.499 411.495 112.499C412.746 112.499 413.861 112.776 414.843 113.33C415.84 113.869 416.615 114.62 417.169 115.586C417.739 116.535 418.024 117.643 418.024 118.909C418.024 120.16 417.739 121.268 417.169 122.233C416.615 123.199 415.84 123.958 414.843 124.512C413.861 125.066 412.746 125.343 411.495 125.343ZM411.495 123.349C412.302 123.349 413.023 123.167 413.656 122.803C414.305 122.439 414.811 121.924 415.175 121.26C415.539 120.579 415.721 119.796 415.721 118.909C415.721 118.007 415.539 117.232 415.175 116.583C414.811 115.918 414.305 115.404 413.656 115.04C413.023 114.676 412.302 114.494 411.495 114.494C410.688 114.494 409.968 114.676 409.335 115.04C408.702 115.404 408.195 115.918 407.815 116.583C407.436 117.232 407.246 118.007 407.246 118.909C407.246 119.796 407.436 120.579 407.815 121.26C408.195 121.924 408.702 122.439 409.335 122.803C409.968 123.167 410.688 123.349 411.495 123.349ZM426.684 129.949C425.528 129.949 424.405 129.783 423.312 129.45C422.236 129.134 421.358 128.675 420.677 128.073L421.769 126.316C422.355 126.823 423.075 127.219 423.93 127.504C424.784 127.804 425.679 127.955 426.612 127.955C428.1 127.955 429.192 127.606 429.889 126.91C430.585 126.214 430.933 125.153 430.933 123.729V121.07L431.171 118.577L431.052 116.061V112.618H433.212V123.491C433.212 125.707 432.658 127.337 431.55 128.382C430.443 129.427 428.82 129.949 426.684 129.949ZM426.399 124.678C425.18 124.678 424.088 124.425 423.123 123.919C422.173 123.396 421.413 122.676 420.843 121.758C420.29 120.84 420.013 119.78 420.013 118.577C420.013 117.358 420.29 116.298 420.843 115.396C421.413 114.478 422.173 113.766 423.123 113.259C424.088 112.753 425.18 112.499 426.399 112.499C427.475 112.499 428.456 112.721 429.343 113.164C430.229 113.592 430.933 114.256 431.456 115.158C431.994 116.061 432.263 117.2 432.263 118.577C432.263 119.938 431.994 121.07 431.456 121.972C430.933 122.874 430.229 123.555 429.343 124.014C428.456 124.457 427.475 124.678 426.399 124.678ZM426.66 122.684C427.499 122.684 428.243 122.51 428.892 122.162C429.54 121.814 430.047 121.331 430.411 120.714C430.791 120.096 430.981 119.384 430.981 118.577C430.981 117.77 430.791 117.058 430.411 116.44C430.047 115.823 429.54 115.348 428.892 115.016C428.243 114.668 427.499 114.494 426.66 114.494C425.821 114.494 425.069 114.668 424.405 115.016C423.756 115.348 423.241 115.823 422.861 116.44C422.497 117.058 422.315 117.77 422.315 118.577C422.315 119.384 422.497 120.096 422.861 120.714C423.241 121.331 423.756 121.814 424.405 122.162C425.069 122.51 425.821 122.684 426.66 122.684ZM441.176 125.343C440.131 125.343 439.134 125.201 438.184 124.916C437.25 124.631 436.515 124.283 435.976 123.871L436.926 122.067C437.464 122.431 438.129 122.74 438.92 122.993C439.712 123.246 440.519 123.373 441.342 123.373C442.402 123.373 443.162 123.222 443.621 122.922C444.096 122.621 444.333 122.201 444.333 121.663C444.333 121.268 444.191 120.959 443.906 120.737C443.621 120.516 443.241 120.35 442.766 120.239C442.307 120.128 441.793 120.033 441.223 119.954C440.653 119.859 440.084 119.748 439.514 119.622C438.944 119.479 438.422 119.289 437.947 119.052C437.472 118.799 437.092 118.458 436.807 118.031C436.522 117.588 436.38 117.002 436.38 116.274C436.38 115.515 436.594 114.85 437.021 114.28C437.448 113.71 438.05 113.275 438.825 112.974C439.617 112.658 440.55 112.499 441.627 112.499C442.45 112.499 443.281 112.602 444.119 112.808C444.974 112.998 445.67 113.275 446.209 113.639L445.235 115.443C444.665 115.063 444.072 114.802 443.455 114.66C442.837 114.517 442.22 114.446 441.603 114.446C440.606 114.446 439.862 114.612 439.371 114.945C438.881 115.261 438.635 115.673 438.635 116.179C438.635 116.607 438.778 116.939 439.063 117.176C439.363 117.398 439.743 117.572 440.202 117.699C440.677 117.825 441.199 117.936 441.769 118.031C442.339 118.11 442.909 118.221 443.478 118.363C444.048 118.49 444.563 118.672 445.022 118.909C445.496 119.147 445.876 119.479 446.161 119.907C446.462 120.334 446.612 120.904 446.612 121.616C446.612 122.376 446.391 123.032 445.947 123.586C445.504 124.14 444.879 124.576 444.072 124.892C443.265 125.193 442.299 125.343 441.176 125.343ZM455.836 125.201V112.618H458.115V125.201H455.836ZM456.976 110.197C456.533 110.197 456.161 110.054 455.86 109.769C455.575 109.484 455.433 109.136 455.433 108.725C455.433 108.297 455.575 107.941 455.86 107.656C456.161 107.372 456.533 107.229 456.976 107.229C457.419 107.229 457.783 107.372 458.068 107.656C458.369 107.925 458.519 108.266 458.519 108.677C458.519 109.105 458.376 109.469 458.092 109.769C457.807 110.054 457.435 110.197 456.976 110.197ZM469.185 112.499C470.214 112.499 471.116 112.697 471.892 113.093C472.683 113.489 473.3 114.09 473.744 114.897C474.187 115.704 474.408 116.725 474.408 117.96V125.201H472.129V118.221C472.129 117.002 471.829 116.084 471.227 115.467C470.642 114.85 469.811 114.541 468.734 114.541C467.927 114.541 467.223 114.699 466.621 115.016C466.02 115.333 465.553 115.799 465.221 116.417C464.904 117.034 464.746 117.802 464.746 118.72V125.201H462.467V112.618H464.651V116.013L464.295 115.111C464.706 114.288 465.339 113.647 466.194 113.188C467.049 112.729 468.046 112.499 469.185 112.499ZM482.947 125.343C481.681 125.343 480.7 125.003 480.003 124.322C479.307 123.642 478.959 122.668 478.959 121.402V109.864H481.238V121.307C481.238 121.988 481.404 122.51 481.736 122.874C482.084 123.238 482.575 123.42 483.208 123.42C483.92 123.42 484.514 123.222 484.989 122.827L485.701 124.465C485.353 124.765 484.933 124.987 484.443 125.129C483.968 125.272 483.469 125.343 482.947 125.343ZM476.822 114.494V112.618H484.846V114.494H476.822ZM493.428 125.343C492.162 125.343 491.038 125.066 490.057 124.512C489.076 123.958 488.3 123.199 487.73 122.233C487.161 121.252 486.876 120.144 486.876 118.909C486.876 117.659 487.161 116.551 487.73 115.586C488.3 114.62 489.076 113.869 490.057 113.33C491.038 112.776 492.162 112.499 493.428 112.499C494.678 112.499 495.794 112.776 496.776 113.33C497.773 113.869 498.548 114.62 499.102 115.586C499.672 116.535 499.957 117.643 499.957 118.909C499.957 120.16 499.672 121.268 499.102 122.233C498.548 123.199 497.773 123.958 496.776 124.512C495.794 125.066 494.678 125.343 493.428 125.343ZM493.428 123.349C494.235 123.349 494.955 123.167 495.588 122.803C496.237 122.439 496.744 121.924 497.108 121.26C497.472 120.579 497.654 119.796 497.654 118.909C497.654 118.007 497.472 117.232 497.108 116.583C496.744 115.918 496.237 115.404 495.588 115.04C494.955 114.676 494.235 114.494 493.428 114.494C492.621 114.494 491.901 114.676 491.268 115.04C490.635 115.404 490.128 115.918 489.748 116.583C489.368 117.232 489.179 118.007 489.179 118.909C489.179 119.796 489.368 120.579 489.748 121.26C490.128 121.924 490.635 122.439 491.268 122.803C491.901 123.167 492.621 123.349 493.428 123.349ZM47.4853 151.343C46.4407 151.343 45.4436 151.201 44.494 150.916C43.5602 150.631 42.8242 150.283 42.2861 149.871L43.2357 148.067C43.7738 148.431 44.4386 148.74 45.2299 148.993C46.0213 149.246 46.8284 149.373 47.6515 149.373C48.7119 149.373 49.4716 149.222 49.9306 148.922C50.4054 148.621 50.6428 148.201 50.6428 147.663C50.6428 147.268 50.5003 146.959 50.2154 146.737C49.9306 146.516 49.5507 146.35 49.0759 146.239C48.6169 146.128 48.1025 146.033 47.5328 145.954C46.963 145.859 46.3932 145.748 45.8234 145.622C45.2537 145.479 44.7314 145.289 44.2566 145.052C43.7817 144.799 43.4019 144.458 43.117 144.031C42.8321 143.588 42.6897 143.002 42.6897 142.274C42.6897 141.515 42.9033 140.85 43.3307 140.28C43.758 139.71 44.3594 139.275 45.135 138.974C45.9263 138.658 46.8601 138.499 47.9363 138.499C48.7593 138.499 49.5903 138.602 50.4291 138.808C51.2838 138.998 51.9802 139.275 52.5183 139.639L51.5449 141.443C50.9751 141.063 50.3816 140.802 49.7644 140.66C49.1471 140.517 48.5299 140.446 47.9126 140.446C46.9155 140.446 46.1716 140.612 45.681 140.945C45.1903 141.261 44.945 141.673 44.945 142.179C44.945 142.607 45.0875 142.939 45.3724 143.176C45.6731 143.398 46.0529 143.572 46.5119 143.699C46.9867 143.825 47.509 143.936 48.0788 144.031C48.6486 144.11 49.2183 144.221 49.7881 144.363C50.3579 144.49 50.8723 144.672 51.3312 144.909C51.8061 145.147 52.1859 145.479 52.4708 145.907C52.7715 146.334 52.9219 146.904 52.9219 147.616C52.9219 148.376 52.7003 149.032 52.2571 149.586C51.814 150.14 51.1888 150.576 50.3816 150.892C49.5744 151.193 48.609 151.343 47.4853 151.343ZM55.7702 151.201V138.618H58.0493V151.201H55.7702ZM56.9097 136.197C56.4666 136.197 56.0946 136.054 55.7939 135.769C55.509 135.484 55.3666 135.136 55.3666 134.725C55.3666 134.297 55.509 133.941 55.7939 133.656C56.0946 133.372 56.4666 133.229 56.9097 133.229C57.3529 133.229 57.7169 133.372 58.0018 133.656C58.3025 133.925 58.4529 134.266 58.4529 134.677C58.4529 135.105 58.3104 135.469 58.0255 135.769C57.7406 136.054 57.3687 136.197 56.9097 136.197ZM78.1409 138.499C79.1538 138.499 80.048 138.697 80.8235 139.093C81.5991 139.489 82.2005 140.09 82.6278 140.897C83.071 141.704 83.2926 142.725 83.2926 143.96V151.201H81.0135V144.221C81.0135 143.002 80.7286 142.084 80.1588 141.467C79.589 140.85 78.7898 140.541 77.761 140.541C77.0013 140.541 76.3366 140.699 75.7668 141.016C75.197 141.333 74.7539 141.799 74.4373 142.417C74.1366 143.034 73.9863 143.802 73.9863 144.72V151.201H71.7072V144.221C71.7072 143.002 71.4223 142.084 70.8525 141.467C70.2986 140.85 69.4993 140.541 68.4547 140.541C67.7108 140.541 67.054 140.699 66.4842 141.016C65.9145 141.333 65.4713 141.799 65.1548 142.417C64.8382 143.034 64.6799 143.802 64.6799 144.72V151.201H62.4009V138.618H64.585V141.966L64.2289 141.111C64.6246 140.288 65.2339 139.647 66.0569 139.188C66.8799 138.729 67.8374 138.499 68.9295 138.499C70.1324 138.499 71.169 138.8 72.0395 139.402C72.91 139.987 73.4798 140.881 73.7489 142.084L72.823 141.704C73.2028 140.739 73.8676 139.963 74.8172 139.378C75.7668 138.792 76.8747 138.499 78.1409 138.499ZM94.1572 151.343C93.1126 151.343 92.1551 151.106 91.2846 150.631C90.43 150.14 89.7415 149.42 89.2192 148.471C88.7127 147.521 88.4595 146.334 88.4595 144.909C88.4595 143.485 88.7048 142.298 89.1954 141.348C89.7019 140.399 90.3825 139.686 91.2371 139.212C92.1076 138.737 93.081 138.499 94.1572 138.499C95.3917 138.499 96.4838 138.769 97.4334 139.307C98.383 139.845 99.1348 140.597 99.6888 141.562C100.243 142.512 100.52 143.627 100.52 144.909C100.52 146.191 100.243 147.315 99.6888 148.281C99.1348 149.246 98.383 149.998 97.4334 150.536C96.4838 151.074 95.3917 151.343 94.1572 151.343ZM87.4861 155.806V138.618H89.6703V142.013L89.5278 144.933L89.7652 147.853V155.806H87.4861ZM93.9673 149.349C94.7745 149.349 95.4946 149.167 96.1277 148.803C96.7766 148.439 97.2831 147.924 97.6471 147.26C98.0269 146.579 98.2169 145.796 98.2169 144.909C98.2169 144.007 98.0269 143.232 97.6471 142.583C97.2831 141.918 96.7766 141.404 96.1277 141.04C95.4946 140.676 94.7745 140.494 93.9673 140.494C93.1759 140.494 92.4558 140.676 91.8069 141.04C91.1738 141.404 90.6674 141.918 90.2875 142.583C89.9235 143.232 89.7415 144.007 89.7415 144.909C89.7415 145.796 89.9235 146.579 90.2875 147.26C90.6674 147.924 91.1738 148.439 91.8069 148.803C92.4558 149.167 93.1759 149.349 93.9673 149.349ZM103.669 151.201V133.585H105.948V151.201H103.669ZM115.902 151.343C114.557 151.343 113.37 151.066 112.341 150.512C111.328 149.958 110.537 149.199 109.967 148.233C109.413 147.268 109.136 146.16 109.136 144.909C109.136 143.659 109.405 142.551 109.943 141.586C110.497 140.62 111.249 139.869 112.199 139.33C113.164 138.776 114.248 138.499 115.451 138.499C116.67 138.499 117.746 138.769 118.68 139.307C119.614 139.845 120.342 140.604 120.864 141.586C121.402 142.551 121.671 143.683 121.671 144.981C121.671 145.076 121.663 145.186 121.647 145.313C121.647 145.44 121.639 145.558 121.624 145.669H110.917V144.031H120.437L119.511 144.601C119.527 143.794 119.36 143.073 119.012 142.44C118.664 141.807 118.181 141.317 117.564 140.968C116.963 140.604 116.258 140.422 115.451 140.422C114.66 140.422 113.955 140.604 113.338 140.968C112.721 141.317 112.238 141.815 111.89 142.464C111.542 143.097 111.368 143.825 111.368 144.648V145.028C111.368 145.867 111.558 146.619 111.937 147.283C112.333 147.932 112.879 148.439 113.576 148.803C114.272 149.167 115.071 149.349 115.973 149.349C116.717 149.349 117.39 149.222 117.991 148.969C118.609 148.716 119.147 148.336 119.606 147.83L120.864 149.301C120.294 149.966 119.582 150.473 118.727 150.821C117.888 151.169 116.947 151.343 115.902 151.343ZM131.211 151.201V138.618H133.491V151.201H131.211ZM132.351 136.197C131.908 136.197 131.536 136.054 131.235 135.769C130.95 135.484 130.808 135.136 130.808 134.725C130.808 134.297 130.95 133.941 131.235 133.656C131.536 133.372 131.908 133.229 132.351 133.229C132.794 133.229 133.158 133.372 133.443 133.656C133.744 133.925 133.894 134.266 133.894 134.677C133.894 135.105 133.752 135.469 133.467 135.769C133.182 136.054 132.81 136.197 132.351 136.197ZM144.561 138.499C145.589 138.499 146.492 138.697 147.267 139.093C148.059 139.489 148.676 140.09 149.119 140.897C149.562 141.704 149.784 142.725 149.784 143.96V151.201H147.505V144.221C147.505 143.002 147.204 142.084 146.602 141.467C146.017 140.85 145.186 140.541 144.11 140.541C143.302 140.541 142.598 140.699 141.997 141.016C141.395 141.333 140.928 141.799 140.596 142.417C140.28 143.034 140.121 143.802 140.121 144.72V151.201H137.842V138.618H140.026V142.013L139.67 141.111C140.082 140.288 140.715 139.647 141.569 139.188C142.424 138.729 143.421 138.499 144.561 138.499ZM157.61 151.343C156.565 151.343 155.568 151.201 154.619 150.916C153.685 150.631 152.949 150.283 152.411 149.871L153.361 148.067C153.899 148.431 154.563 148.74 155.355 148.993C156.146 149.246 156.953 149.373 157.776 149.373C158.837 149.373 159.596 149.222 160.055 148.922C160.53 148.621 160.768 148.201 160.768 147.663C160.768 147.268 160.625 146.959 160.34 146.737C160.055 146.516 159.675 146.35 159.201 146.239C158.742 146.128 158.227 146.033 157.658 145.954C157.088 145.859 156.518 145.748 155.948 145.622C155.378 145.479 154.856 145.289 154.381 145.052C153.907 144.799 153.527 144.458 153.242 144.031C152.957 143.588 152.814 143.002 152.814 142.274C152.814 141.515 153.028 140.85 153.455 140.28C153.883 139.71 154.484 139.275 155.26 138.974C156.051 138.658 156.985 138.499 158.061 138.499C158.884 138.499 159.715 138.602 160.554 138.808C161.409 138.998 162.105 139.275 162.643 139.639L161.67 141.443C161.1 141.063 160.506 140.802 159.889 140.66C159.272 140.517 158.655 140.446 158.037 140.446C157.04 140.446 156.296 140.612 155.806 140.945C155.315 141.261 155.07 141.673 155.07 142.179C155.07 142.607 155.212 142.939 155.497 143.176C155.798 143.398 156.178 143.572 156.637 143.699C157.112 143.825 157.634 143.936 158.204 144.031C158.773 144.11 159.343 144.221 159.913 144.363C160.483 144.49 160.997 144.672 161.456 144.909C161.931 145.147 162.311 145.479 162.596 145.907C162.896 146.334 163.047 146.904 163.047 147.616C163.047 148.376 162.825 149.032 162.382 149.586C161.939 150.14 161.314 150.576 160.506 150.892C159.699 151.193 158.734 151.343 157.61 151.343ZM165.895 151.201V138.618H168.174V151.201H165.895ZM167.035 136.197C166.591 136.197 166.219 136.054 165.919 135.769C165.634 135.484 165.491 135.136 165.491 134.725C165.491 134.297 165.634 133.941 165.919 133.656C166.219 133.372 166.591 133.229 167.035 133.229C167.478 133.229 167.842 133.372 168.127 133.656C168.427 133.925 168.578 134.266 168.578 134.677C168.578 135.105 168.435 135.469 168.15 135.769C167.865 136.054 167.494 136.197 167.035 136.197ZM178.033 155.949C176.878 155.949 175.754 155.783 174.662 155.45C173.586 155.134 172.708 154.675 172.027 154.073L173.119 152.316C173.705 152.823 174.425 153.219 175.28 153.504C176.134 153.804 177.028 153.955 177.962 153.955C179.45 153.955 180.542 153.606 181.238 152.91C181.935 152.214 182.283 151.153 182.283 149.729V147.07L182.52 144.577L182.402 142.061V138.618H184.562V149.491C184.562 151.707 184.008 153.337 182.9 154.382C181.792 155.427 180.17 155.949 178.033 155.949ZM177.749 150.678C176.53 150.678 175.438 150.425 174.472 149.919C173.523 149.396 172.763 148.676 172.193 147.758C171.639 146.84 171.362 145.78 171.362 144.577C171.362 143.358 171.639 142.298 172.193 141.396C172.763 140.478 173.523 139.766 174.472 139.259C175.438 138.753 176.53 138.499 177.749 138.499C178.825 138.499 179.806 138.721 180.692 139.164C181.579 139.592 182.283 140.256 182.805 141.158C183.343 142.061 183.612 143.2 183.612 144.577C183.612 145.938 183.343 147.07 182.805 147.972C182.283 148.874 181.579 149.555 180.692 150.014C179.806 150.457 178.825 150.678 177.749 150.678ZM178.01 148.684C178.849 148.684 179.592 148.51 180.241 148.162C180.89 147.814 181.397 147.331 181.761 146.714C182.141 146.096 182.331 145.384 182.331 144.577C182.331 143.77 182.141 143.058 181.761 142.44C181.397 141.823 180.89 141.348 180.241 141.016C179.592 140.668 178.849 140.494 178.01 140.494C177.171 140.494 176.419 140.668 175.754 141.016C175.105 141.348 174.591 141.823 174.211 142.44C173.847 143.058 173.665 143.77 173.665 144.577C173.665 145.384 173.847 146.096 174.211 146.714C174.591 147.331 175.105 147.814 175.754 148.162C176.419 148.51 177.171 148.684 178.01 148.684ZM195.635 138.499C196.664 138.499 197.566 138.697 198.342 139.093C199.133 139.489 199.75 140.09 200.194 140.897C200.637 141.704 200.858 142.725 200.858 143.96V151.201H198.579V144.221C198.579 143.002 198.279 142.084 197.677 141.467C197.092 140.85 196.261 140.541 195.184 140.541C194.377 140.541 193.673 140.699 193.071 141.016C192.47 141.333 192.003 141.799 191.671 142.417C191.354 143.034 191.196 143.802 191.196 144.72V151.201H188.917V133.585H191.196V142.013L190.745 141.111C191.156 140.288 191.789 139.647 192.644 139.188C193.499 138.729 194.496 138.499 195.635 138.499ZM209.397 151.343C208.131 151.343 207.15 151.003 206.453 150.322C205.757 149.642 205.409 148.668 205.409 147.402V135.864H207.688V147.307C207.688 147.988 207.854 148.51 208.186 148.874C208.534 149.238 209.025 149.42 209.658 149.42C210.37 149.42 210.964 149.222 211.439 148.827L212.151 150.465C211.803 150.765 211.383 150.987 210.893 151.129C210.418 151.272 209.919 151.343 209.397 151.343ZM203.272 140.494V138.618H211.296V140.494H203.272ZM218.515 151.343C217.47 151.343 216.473 151.201 215.524 150.916C214.59 150.631 213.854 150.283 213.316 149.871L214.265 148.067C214.803 148.431 215.468 148.74 216.26 148.993C217.051 149.246 217.858 149.373 218.681 149.373C219.741 149.373 220.501 149.222 220.96 148.922C221.435 148.621 221.672 148.201 221.672 147.663C221.672 147.268 221.53 146.959 221.245 146.737C220.96 146.516 220.58 146.35 220.105 146.239C219.647 146.128 219.132 146.033 218.562 145.954C217.993 145.859 217.423 145.748 216.853 145.622C216.283 145.479 215.761 145.289 215.286 145.052C214.811 144.799 214.431 144.458 214.147 144.031C213.862 143.588 213.719 143.002 213.719 142.274C213.719 141.515 213.933 140.85 214.36 140.28C214.788 139.71 215.389 139.275 216.165 138.974C216.956 138.658 217.89 138.499 218.966 138.499C219.789 138.499 220.62 138.602 221.459 138.808C222.313 138.998 223.01 139.275 223.548 139.639L222.575 141.443C222.005 141.063 221.411 140.802 220.794 140.66C220.177 140.517 219.559 140.446 218.942 140.446C217.945 140.446 217.201 140.612 216.711 140.945C216.22 141.261 215.975 141.673 215.975 142.179C215.975 142.607 216.117 142.939 216.402 143.176C216.703 143.398 217.083 143.572 217.542 143.699C218.016 143.825 218.539 143.936 219.108 144.031C219.678 144.11 220.248 144.221 220.818 144.363C221.387 144.49 221.902 144.672 222.361 144.909C222.836 145.147 223.216 145.479 223.5 145.907C223.801 146.334 223.951 146.904 223.951 147.616C223.951 148.376 223.73 149.032 223.287 149.586C222.844 150.14 222.218 150.576 221.411 150.892C220.604 151.193 219.639 151.343 218.515 151.343ZM240.986 151.201V148.542L240.867 148.043V143.509C240.867 142.543 240.582 141.799 240.013 141.277C239.459 140.739 238.62 140.47 237.496 140.47C236.752 140.47 236.024 140.597 235.312 140.85C234.6 141.087 233.998 141.412 233.508 141.823L232.558 140.114C233.207 139.592 233.983 139.196 234.885 138.927C235.803 138.642 236.76 138.499 237.757 138.499C239.483 138.499 240.812 138.919 241.746 139.758C242.68 140.597 243.146 141.879 243.146 143.604V151.201H240.986ZM236.855 151.343C235.921 151.343 235.098 151.185 234.386 150.868C233.69 150.552 233.152 150.117 232.772 149.563C232.392 148.993 232.202 148.352 232.202 147.64C232.202 146.959 232.36 146.342 232.677 145.788C233.009 145.234 233.539 144.791 234.267 144.458C235.011 144.126 236.008 143.96 237.259 143.96H241.247V145.598H237.354C236.214 145.598 235.447 145.788 235.051 146.168C234.655 146.548 234.457 147.007 234.457 147.545C234.457 148.162 234.703 148.66 235.193 149.04C235.684 149.404 236.365 149.586 237.235 149.586C238.09 149.586 238.834 149.396 239.467 149.017C240.116 148.637 240.582 148.083 240.867 147.355L241.318 148.922C241.018 149.665 240.488 150.259 239.728 150.702C238.968 151.129 238.011 151.343 236.855 151.343ZM254.083 138.499C255.111 138.499 256.014 138.697 256.789 139.093C257.581 139.489 258.198 140.09 258.641 140.897C259.084 141.704 259.306 142.725 259.306 143.96V151.201H257.027V144.221C257.027 143.002 256.726 142.084 256.124 141.467C255.539 140.85 254.708 140.541 253.632 140.541C252.824 140.541 252.12 140.699 251.519 141.016C250.917 141.333 250.45 141.799 250.118 142.417C249.802 143.034 249.643 143.802 249.643 144.72V151.201H247.364V138.618H249.548V142.013L249.192 141.111C249.604 140.288 250.237 139.647 251.091 139.188C251.946 138.729 252.943 138.499 254.083 138.499ZM268.723 151.343C267.504 151.343 266.412 151.074 265.446 150.536C264.497 149.998 263.745 149.246 263.191 148.281C262.637 147.315 262.36 146.191 262.36 144.909C262.36 143.627 262.637 142.512 263.191 141.562C263.745 140.597 264.497 139.845 265.446 139.307C266.412 138.769 267.504 138.499 268.723 138.499C269.783 138.499 270.741 138.737 271.595 139.212C272.45 139.686 273.131 140.399 273.637 141.348C274.159 142.298 274.42 143.485 274.42 144.909C274.42 146.334 274.167 147.521 273.661 148.471C273.17 149.42 272.497 150.14 271.643 150.631C270.788 151.106 269.815 151.343 268.723 151.343ZM268.913 149.349C269.704 149.349 270.416 149.167 271.049 148.803C271.698 148.439 272.205 147.924 272.569 147.26C272.949 146.579 273.138 145.796 273.138 144.909C273.138 144.007 272.949 143.232 272.569 142.583C272.205 141.918 271.698 141.404 271.049 141.04C270.416 140.676 269.704 140.494 268.913 140.494C268.105 140.494 267.385 140.676 266.752 141.04C266.119 141.404 265.613 141.918 265.233 142.583C264.853 143.232 264.663 144.007 264.663 144.909C264.663 145.796 264.853 146.579 265.233 147.26C265.613 147.924 266.119 148.439 266.752 148.803C267.385 149.167 268.105 149.349 268.913 149.349ZM273.21 151.201V147.806L273.352 144.886L273.115 141.966V133.585H275.394V151.201H273.21ZM289.382 151.201L283.874 138.618H286.248L291.138 150.014H289.999L294.984 138.618H297.216L291.708 151.201H289.382ZM299.343 151.201V138.618H301.622V151.201H299.343ZM300.483 136.197C300.039 136.197 299.667 136.054 299.367 135.769C299.082 135.484 298.939 135.136 298.939 134.725C298.939 134.297 299.082 133.941 299.367 133.656C299.667 133.372 300.039 133.229 300.483 133.229C300.926 133.229 301.29 133.372 301.575 133.656C301.875 133.925 302.026 134.266 302.026 134.677C302.026 135.105 301.883 135.469 301.598 135.769C301.314 136.054 300.942 136.197 300.483 136.197ZM309.582 151.343C308.538 151.343 307.541 151.201 306.591 150.916C305.657 150.631 304.921 150.283 304.383 149.871L305.333 148.067C305.871 148.431 306.536 148.74 307.327 148.993C308.118 149.246 308.925 149.373 309.748 149.373C310.809 149.373 311.569 149.222 312.028 148.922C312.502 148.621 312.74 148.201 312.74 147.663C312.74 147.268 312.597 146.959 312.312 146.737C312.028 146.516 311.648 146.35 311.173 146.239C310.714 146.128 310.2 146.033 309.63 145.954C309.06 145.859 308.49 145.748 307.92 145.622C307.351 145.479 306.828 145.289 306.354 145.052C305.879 144.799 305.499 144.458 305.214 144.031C304.929 143.588 304.787 143.002 304.787 142.274C304.787 141.515 305 140.85 305.428 140.28C305.855 139.71 306.456 139.275 307.232 138.974C308.023 138.658 308.957 138.499 310.033 138.499C310.856 138.499 311.687 138.602 312.526 138.808C313.381 138.998 314.077 139.275 314.615 139.639L313.642 141.443C313.072 141.063 312.479 140.802 311.861 140.66C311.244 140.517 310.627 140.446 310.01 140.446C309.013 140.446 308.269 140.612 307.778 140.945C307.287 141.261 307.042 141.673 307.042 142.179C307.042 142.607 307.184 142.939 307.469 143.176C307.77 143.398 308.15 143.572 308.609 143.699C309.084 143.825 309.606 143.936 310.176 144.031C310.746 144.11 311.315 144.221 311.885 144.363C312.455 144.49 312.969 144.672 313.428 144.909C313.903 145.147 314.283 145.479 314.568 145.907C314.869 146.334 315.019 146.904 315.019 147.616C315.019 148.376 314.797 149.032 314.354 149.586C313.911 150.14 313.286 150.576 312.479 150.892C311.671 151.193 310.706 151.343 309.582 151.343ZM323.161 151.343C322.085 151.343 321.135 151.145 320.312 150.75C319.505 150.354 318.872 149.753 318.413 148.945C317.97 148.122 317.748 147.094 317.748 145.859V138.618H320.028V145.598C320.028 146.832 320.32 147.758 320.906 148.376C321.507 148.993 322.346 149.301 323.422 149.301C324.214 149.301 324.902 149.143 325.488 148.827C326.074 148.494 326.525 148.019 326.841 147.402C327.158 146.769 327.316 146.009 327.316 145.123V138.618H329.595V151.201H327.435V147.806L327.791 148.708C327.379 149.547 326.762 150.196 325.939 150.655C325.116 151.114 324.19 151.343 323.161 151.343ZM341.744 151.201V148.542L341.626 148.043V143.509C341.626 142.543 341.341 141.799 340.771 141.277C340.217 140.739 339.378 140.47 338.255 140.47C337.511 140.47 336.783 140.597 336.07 140.85C335.358 141.087 334.757 141.412 334.266 141.823L333.317 140.114C333.965 139.592 334.741 139.196 335.643 138.927C336.561 138.642 337.519 138.499 338.516 138.499C340.241 138.499 341.57 138.919 342.504 139.758C343.438 140.597 343.905 141.879 343.905 143.604V151.201H341.744ZM337.614 151.343C336.68 151.343 335.857 151.185 335.145 150.868C334.448 150.552 333.91 150.117 333.53 149.563C333.15 148.993 332.96 148.352 332.96 147.64C332.96 146.959 333.119 146.342 333.435 145.788C333.768 145.234 334.298 144.791 335.026 144.458C335.77 144.126 336.767 143.96 338.017 143.96H342.006V145.598H338.112C336.973 145.598 336.205 145.788 335.809 146.168C335.414 146.548 335.216 147.007 335.216 147.545C335.216 148.162 335.461 148.66 335.952 149.04C336.442 149.404 337.123 149.586 337.993 149.586C338.848 149.586 339.592 149.396 340.225 149.017C340.874 148.637 341.341 148.083 341.626 147.355L342.077 148.922C341.776 149.665 341.246 150.259 340.486 150.702C339.727 151.129 338.769 151.343 337.614 151.343ZM348.123 151.201V133.585H350.402V151.201H348.123ZM365.45 151.343C364.183 151.343 363.202 151.003 362.506 150.322C361.809 149.642 361.461 148.668 361.461 147.402V135.864H363.74V147.307C363.74 147.988 363.906 148.51 364.239 148.874C364.587 149.238 365.078 149.42 365.711 149.42C366.423 149.42 367.017 149.222 367.491 148.827L368.204 150.465C367.855 150.765 367.436 150.987 366.945 151.129C366.47 151.272 365.972 151.343 365.45 151.343ZM359.325 140.494V138.618H367.349V140.494H359.325ZM370.959 151.201V138.618H373.143V142.037L372.929 141.182C373.278 140.312 373.863 139.647 374.686 139.188C375.509 138.729 376.522 138.499 377.725 138.499V140.707C377.63 140.692 377.535 140.684 377.44 140.684C377.361 140.684 377.282 140.684 377.203 140.684C375.984 140.684 375.019 141.048 374.306 141.776C373.594 142.504 373.238 143.556 373.238 144.933V151.201H370.959ZM386.021 151.343C384.676 151.343 383.489 151.066 382.46 150.512C381.447 149.958 380.655 149.199 380.086 148.233C379.532 147.268 379.255 146.16 379.255 144.909C379.255 143.659 379.524 142.551 380.062 141.586C380.616 140.62 381.368 139.869 382.317 139.33C383.283 138.776 384.367 138.499 385.57 138.499C386.788 138.499 387.865 138.769 388.799 139.307C389.732 139.845 390.46 140.604 390.983 141.586C391.521 142.551 391.79 143.683 391.79 144.981C391.79 145.076 391.782 145.186 391.766 145.313C391.766 145.44 391.758 145.558 391.742 145.669H381.035V144.031H390.555L389.629 144.601C389.645 143.794 389.479 143.073 389.131 142.44C388.783 141.807 388.3 141.317 387.683 140.968C387.081 140.604 386.377 140.422 385.57 140.422C384.778 140.422 384.074 140.604 383.457 140.968C382.84 141.317 382.357 141.815 382.009 142.464C381.661 143.097 381.486 143.825 381.486 144.648V145.028C381.486 145.867 381.676 146.619 382.056 147.283C382.452 147.932 382.998 148.439 383.694 148.803C384.391 149.167 385.19 149.349 386.092 149.349C386.836 149.349 387.509 149.222 388.11 148.969C388.727 148.716 389.265 148.336 389.724 147.83L390.983 149.301C390.413 149.966 389.701 150.473 388.846 150.821C388.007 151.169 387.065 151.343 386.021 151.343ZM401.673 138.499C402.702 138.499 403.604 138.697 404.38 139.093C405.171 139.489 405.788 140.09 406.231 140.897C406.674 141.704 406.896 142.725 406.896 143.96V151.201H404.617V144.221C404.617 143.002 404.316 142.084 403.715 141.467C403.129 140.85 402.298 140.541 401.222 140.541C400.415 140.541 399.711 140.699 399.109 141.016C398.508 141.333 398.041 141.799 397.708 142.417C397.392 143.034 397.234 143.802 397.234 144.72V151.201H394.955V138.618H397.139V142.013L396.783 141.111C397.194 140.288 397.827 139.647 398.682 139.188C399.536 138.729 400.534 138.499 401.673 138.499ZM416.313 151.343C415.094 151.343 414.002 151.074 413.037 150.536C412.087 149.998 411.335 149.246 410.782 148.281C410.228 147.315 409.951 146.191 409.951 144.909C409.951 143.627 410.228 142.512 410.782 141.562C411.335 140.597 412.087 139.845 413.037 139.307C414.002 138.769 415.094 138.499 416.313 138.499C417.374 138.499 418.331 138.737 419.186 139.212C420.04 139.686 420.721 140.399 421.227 141.348C421.75 142.298 422.011 143.485 422.011 144.909C422.011 146.334 421.758 147.521 421.251 148.471C420.761 149.42 420.088 150.14 419.233 150.631C418.379 151.106 417.405 151.343 416.313 151.343ZM416.503 149.349C417.294 149.349 418.007 149.167 418.64 148.803C419.289 148.439 419.795 147.924 420.159 147.26C420.539 146.579 420.729 145.796 420.729 144.909C420.729 144.007 420.539 143.232 420.159 142.583C419.795 141.918 419.289 141.404 418.64 141.04C418.007 140.676 417.294 140.494 416.503 140.494C415.696 140.494 414.976 140.676 414.343 141.04C413.71 141.404 413.203 141.918 412.823 142.583C412.443 143.232 412.253 144.007 412.253 144.909C412.253 145.796 412.443 146.579 412.823 147.26C413.203 147.924 413.71 148.439 414.343 148.803C414.976 149.167 415.696 149.349 416.503 149.349ZM420.8 151.201V147.806L420.943 144.886L420.705 141.966V133.585H422.984V151.201H420.8ZM430.905 151.343C429.86 151.343 428.863 151.201 427.914 150.916C426.98 150.631 426.244 150.283 425.706 149.871L426.655 148.067C427.194 148.431 427.858 148.74 428.65 148.993C429.441 149.246 430.248 149.373 431.071 149.373C432.132 149.373 432.891 149.222 433.35 148.922C433.825 148.621 434.063 148.201 434.063 147.663C434.063 147.268 433.92 146.959 433.635 146.737C433.35 146.516 432.97 146.35 432.496 146.239C432.037 146.128 431.522 146.033 430.953 145.954C430.383 145.859 429.813 145.748 429.243 145.622C428.673 145.479 428.151 145.289 427.676 145.052C427.202 144.799 426.822 144.458 426.537 144.031C426.252 143.588 426.109 143.002 426.109 142.274C426.109 141.515 426.323 140.85 426.75 140.28C427.178 139.71 427.779 139.275 428.555 138.974C429.346 138.658 430.28 138.499 431.356 138.499C432.179 138.499 433.01 138.602 433.849 138.808C434.704 138.998 435.4 139.275 435.938 139.639L434.965 141.443C434.395 141.063 433.801 140.802 433.184 140.66C432.567 140.517 431.95 140.446 431.332 140.446C430.335 140.446 429.591 140.612 429.101 140.945C428.61 141.261 428.365 141.673 428.365 142.179C428.365 142.607 428.507 142.939 428.792 143.176C429.093 143.398 429.473 143.572 429.932 143.699C430.406 143.825 430.929 143.936 431.499 144.031C432.068 144.11 432.638 144.221 433.208 144.363C433.778 144.49 434.292 144.672 434.751 144.909C435.226 145.147 435.606 145.479 435.891 145.907C436.191 146.334 436.342 146.904 436.342 147.616C436.342 148.376 436.12 149.032 435.677 149.586C435.234 150.14 434.609 150.576 433.801 150.892C432.994 151.193 432.029 151.343 430.905 151.343ZM449.886 151.343C448.62 151.343 447.639 151.003 446.943 150.322C446.246 149.642 445.898 148.668 445.898 147.402V135.864H448.177V147.307C448.177 147.988 448.343 148.51 448.676 148.874C449.024 149.238 449.514 149.42 450.148 149.42C450.86 149.42 451.453 149.222 451.928 148.827L452.64 150.465C452.292 150.765 451.873 150.987 451.382 151.129C450.907 151.272 450.409 151.343 449.886 151.343ZM443.761 140.494V138.618H451.786V140.494H443.761ZM460.367 151.343C459.101 151.343 457.978 151.066 456.996 150.512C456.015 149.958 455.24 149.199 454.67 148.233C454.1 147.252 453.815 146.144 453.815 144.909C453.815 143.659 454.1 142.551 454.67 141.586C455.24 140.62 456.015 139.869 456.996 139.33C457.978 138.776 459.101 138.499 460.367 138.499C461.618 138.499 462.734 138.776 463.715 139.33C464.712 139.869 465.488 140.62 466.041 141.586C466.611 142.535 466.896 143.643 466.896 144.909C466.896 146.16 466.611 147.268 466.041 148.233C465.488 149.199 464.712 149.958 463.715 150.512C462.734 151.066 461.618 151.343 460.367 151.343ZM460.367 149.349C461.175 149.349 461.895 149.167 462.528 148.803C463.177 148.439 463.683 147.924 464.047 147.26C464.411 146.579 464.593 145.796 464.593 144.909C464.593 144.007 464.411 143.232 464.047 142.583C463.683 141.918 463.177 141.404 462.528 141.04C461.895 140.676 461.175 140.494 460.367 140.494C459.56 140.494 458.84 140.676 458.207 141.04C457.574 141.404 457.068 141.918 456.688 142.583C456.308 143.232 456.118 144.007 456.118 144.909C456.118 145.796 456.308 146.579 456.688 147.26C457.068 147.924 457.574 148.439 458.207 148.803C458.84 149.167 459.56 149.349 460.367 149.349ZM483.142 138.499C484.171 138.499 485.073 138.697 485.849 139.093C486.64 139.489 487.257 140.09 487.7 140.897C488.144 141.704 488.365 142.725 488.365 143.96V151.201H486.086V144.221C486.086 143.002 485.785 142.084 485.184 141.467C484.598 140.85 483.767 140.541 482.691 140.541C481.884 140.541 481.18 140.699 480.578 141.016C479.977 141.333 479.51 141.799 479.178 142.417C478.861 143.034 478.703 143.802 478.703 144.72V151.201H476.424V133.585H478.703V142.013L478.252 141.111C478.663 140.288 479.296 139.647 480.151 139.188C481.006 138.729 482.003 138.499 483.142 138.499ZM498.186 151.343C496.841 151.343 495.654 151.066 494.625 150.512C493.612 149.958 492.82 149.199 492.251 148.233C491.697 147.268 491.42 146.16 491.42 144.909C491.42 143.659 491.689 142.551 492.227 141.586C492.781 140.62 493.533 139.869 494.482 139.33C495.448 138.776 496.532 138.499 497.735 138.499C498.953 138.499 500.03 138.769 500.963 139.307C501.897 139.845 502.625 140.604 503.148 141.586C503.686 142.551 503.955 143.683 503.955 144.981C503.955 145.076 503.947 145.186 503.931 145.313C503.931 145.44 503.923 145.558 503.907 145.669H493.2V144.031H502.72L501.794 144.601C501.81 143.794 501.644 143.073 501.296 142.44C500.948 141.807 500.465 141.317 499.848 140.968C499.246 140.604 498.542 140.422 497.735 140.422C496.943 140.422 496.239 140.604 495.622 140.968C495.005 141.317 494.522 141.815 494.174 142.464C493.825 143.097 493.651 143.825 493.651 144.648V145.028C493.651 145.867 493.841 146.619 494.221 147.283C494.617 147.932 495.163 148.439 495.859 148.803C496.556 149.167 497.355 149.349 498.257 149.349C499.001 149.349 499.674 149.222 500.275 148.969C500.892 148.716 501.43 148.336 501.889 147.83L503.148 149.301C502.578 149.966 501.866 150.473 501.011 150.821C500.172 151.169 499.23 151.343 498.186 151.343ZM507.12 151.201V133.585H509.399V151.201H507.12ZM520.421 151.343C519.377 151.343 518.419 151.106 517.549 150.631C516.694 150.14 516.006 149.42 515.483 148.471C514.977 147.521 514.724 146.334 514.724 144.909C514.724 143.485 514.969 142.298 515.46 141.348C515.966 140.399 516.647 139.686 517.501 139.212C518.372 138.737 519.345 138.499 520.421 138.499C521.656 138.499 522.748 138.769 523.698 139.307C524.647 139.845 525.399 140.597 525.953 141.562C526.507 142.512 526.784 143.627 526.784 144.909C526.784 146.191 526.507 147.315 525.953 148.281C525.399 149.246 524.647 149.998 523.698 150.536C522.748 151.074 521.656 151.343 520.421 151.343ZM513.75 155.806V138.618H515.934V142.013L515.792 144.933L516.029 147.853V155.806H513.75ZM520.231 149.349C521.039 149.349 521.759 149.167 522.392 148.803C523.041 148.439 523.547 147.924 523.911 147.26C524.291 146.579 524.481 145.796 524.481 144.909C524.481 144.007 524.291 143.232 523.911 142.583C523.547 141.918 523.041 141.404 522.392 141.04C521.759 140.676 521.039 140.494 520.231 140.494C519.44 140.494 518.72 140.676 518.071 141.04C517.438 141.404 516.931 141.918 516.552 142.583C516.188 143.232 516.006 144.007 516.006 144.909C516.006 145.796 516.188 146.579 516.552 147.26C516.931 147.924 517.438 148.439 518.071 148.803C518.72 149.167 519.44 149.349 520.231 149.349ZM44.4227 181.949C43.8213 181.949 43.2357 181.846 42.6659 181.64C42.0962 181.45 41.6055 181.165 41.194 180.786L42.1674 179.076C42.4839 179.377 42.8321 179.606 43.212 179.765C43.5918 179.923 43.9954 180.002 44.4227 180.002C44.9767 180.002 45.4357 179.86 45.7997 179.575C46.1637 179.29 46.504 178.783 46.8205 178.055L47.604 176.322L47.8414 176.037L52.7794 164.618H55.011L48.9097 178.459C48.5457 179.345 48.1342 180.042 47.6752 180.548C47.232 181.055 46.7414 181.411 46.2033 181.616C45.6652 181.838 45.0716 181.949 44.4227 181.949ZM47.414 177.604L41.6688 164.618H44.0429L48.9334 175.824L47.414 177.604ZM62.1794 177.343C60.9132 177.343 59.7895 177.066 58.8082 176.512C57.827 175.958 57.0514 175.199 56.4817 174.233C55.9119 173.252 55.627 172.144 55.627 170.909C55.627 169.659 55.9119 168.551 56.4817 167.586C57.0514 166.62 57.827 165.869 58.8082 165.33C59.7895 164.776 60.9132 164.499 62.1794 164.499C63.4297 164.499 64.5455 164.776 65.5268 165.33C66.5239 165.869 67.2995 166.62 67.8534 167.586C68.4232 168.535 68.7081 169.643 68.7081 170.909C68.7081 172.16 68.4232 173.268 67.8534 174.233C67.2995 175.199 66.5239 175.958 65.5268 176.512C64.5455 177.066 63.4297 177.343 62.1794 177.343ZM62.1794 175.349C62.9866 175.349 63.7067 175.167 64.3398 174.803C64.9887 174.439 65.4952 173.924 65.8592 173.26C66.2232 172.579 66.4052 171.796 66.4052 170.909C66.4052 170.007 66.2232 169.232 65.8592 168.583C65.4952 167.918 64.9887 167.404 64.3398 167.04C63.7067 166.676 62.9866 166.494 62.1794 166.494C61.3722 166.494 60.6521 166.676 60.019 167.04C59.3859 167.404 58.8795 167.918 58.4996 168.583C58.1198 169.232 57.9298 170.007 57.9298 170.909C57.9298 171.796 58.1198 172.579 58.4996 173.26C58.8795 173.924 59.3859 174.439 60.019 174.803C60.6521 175.167 61.3722 175.349 62.1794 175.349ZM77.1541 177.343C76.0779 177.343 75.1283 177.145 74.3053 176.75C73.4981 176.354 72.865 175.753 72.406 174.945C71.9629 174.122 71.7413 173.094 71.7413 171.859V164.618H74.0204V171.598C74.0204 172.832 74.3132 173.758 74.8988 174.376C75.5002 174.993 76.339 175.301 77.4153 175.301C78.2066 175.301 78.8951 175.143 79.4807 174.827C80.0663 174.494 80.5174 174.019 80.8339 173.402C81.1505 172.769 81.3087 172.009 81.3087 171.123V164.618H83.5878V177.201H81.4274V173.806L81.7836 174.708C81.3721 175.547 80.7548 176.196 79.9318 176.655C79.1088 177.114 78.1829 177.343 77.1541 177.343ZM99.5964 177.343C98.5202 177.343 97.5706 177.145 96.7475 176.75C95.9404 176.354 95.3073 175.753 94.8483 174.945C94.4051 174.122 94.1836 173.094 94.1836 171.859V164.618H96.4627V171.598C96.4627 172.832 96.7555 173.758 97.3411 174.376C97.9425 174.993 98.7813 175.301 99.8576 175.301C100.649 175.301 101.337 175.143 101.923 174.827C102.509 174.494 102.96 174.019 103.276 173.402C103.593 172.769 103.751 172.009 103.751 171.123V164.618H106.03V177.201H103.87V173.806L104.226 174.708C103.814 175.547 103.197 176.196 102.374 176.655C101.551 177.114 100.625 177.343 99.5964 177.343ZM117.087 164.499C118.116 164.499 119.018 164.697 119.794 165.093C120.585 165.489 121.203 166.09 121.646 166.897C122.089 167.704 122.31 168.725 122.31 169.96V177.201H120.031V170.221C120.031 169.002 119.731 168.084 119.129 167.467C118.544 166.85 117.713 166.541 116.636 166.541C115.829 166.541 115.125 166.699 114.523 167.016C113.922 167.333 113.455 167.799 113.123 168.417C112.806 169.034 112.648 169.802 112.648 170.72V177.201H110.369V164.618H112.553V168.013L112.197 167.111C112.608 166.288 113.242 165.647 114.096 165.188C114.951 164.729 115.948 164.499 117.087 164.499ZM131.727 177.343C130.509 177.343 129.417 177.074 128.451 176.536C127.502 175.998 126.75 175.246 126.196 174.281C125.642 173.315 125.365 172.191 125.365 170.909C125.365 169.627 125.642 168.512 126.196 167.562C126.75 166.597 127.502 165.845 128.451 165.307C129.417 164.769 130.509 164.499 131.727 164.499C132.788 164.499 133.745 164.737 134.6 165.212C135.455 165.686 136.135 166.399 136.642 167.348C137.164 168.298 137.425 169.485 137.425 170.909C137.425 172.334 137.172 173.521 136.665 174.471C136.175 175.42 135.502 176.14 134.648 176.631C133.793 177.106 132.82 177.343 131.727 177.343ZM131.917 175.349C132.709 175.349 133.421 175.167 134.054 174.803C134.703 174.439 135.209 173.924 135.573 173.26C135.953 172.579 136.143 171.796 136.143 170.909C136.143 170.007 135.953 169.232 135.573 168.583C135.209 167.918 134.703 167.404 134.054 167.04C133.421 166.676 132.709 166.494 131.917 166.494C131.11 166.494 130.39 166.676 129.757 167.04C129.124 167.404 128.617 167.918 128.238 168.583C127.858 169.232 127.668 170.007 127.668 170.909C127.668 171.796 127.858 172.579 128.238 173.26C128.617 173.924 129.124 174.439 129.757 174.803C130.39 175.167 131.11 175.349 131.917 175.349ZM136.214 177.201V173.806L136.357 170.886L136.119 167.966V159.585H138.399V177.201H136.214ZM148.314 177.343C146.968 177.343 145.781 177.066 144.752 176.512C143.74 175.958 142.948 175.199 142.378 174.233C141.824 173.268 141.548 172.16 141.548 170.909C141.548 169.659 141.817 168.551 142.355 167.586C142.909 166.62 143.66 165.869 144.61 165.33C145.576 164.776 146.66 164.499 147.863 164.499C149.081 164.499 150.157 164.769 151.091 165.307C152.025 165.845 152.753 166.604 153.275 167.586C153.813 168.551 154.083 169.683 154.083 170.981C154.083 171.076 154.075 171.186 154.059 171.313C154.059 171.44 154.051 171.558 154.035 171.669H143.328V170.031H152.848L151.922 170.601C151.938 169.794 151.772 169.073 151.424 168.44C151.075 167.807 150.593 167.317 149.975 166.968C149.374 166.604 148.67 166.422 147.863 166.422C147.071 166.422 146.367 166.604 145.75 166.968C145.132 167.317 144.65 167.815 144.301 168.464C143.953 169.097 143.779 169.825 143.779 170.648V171.028C143.779 171.867 143.969 172.619 144.349 173.283C144.745 173.932 145.291 174.439 145.987 174.803C146.683 175.167 147.483 175.349 148.385 175.349C149.129 175.349 149.801 175.222 150.403 174.969C151.02 174.716 151.558 174.336 152.017 173.83L153.275 175.301C152.706 175.966 151.993 176.473 151.139 176.821C150.3 177.169 149.358 177.343 148.314 177.343ZM157.247 177.201V164.618H159.431V168.037L159.218 167.182C159.566 166.312 160.152 165.647 160.975 165.188C161.798 164.729 162.81 164.499 164.013 164.499V166.707C163.918 166.692 163.823 166.684 163.728 166.684C163.649 166.684 163.57 166.684 163.491 166.684C162.272 166.684 161.307 167.048 160.595 167.776C159.882 168.504 159.526 169.556 159.526 170.933V177.201H157.247ZM170.57 177.343C169.525 177.343 168.528 177.201 167.579 176.916C166.645 176.631 165.909 176.283 165.371 175.871L166.32 174.067C166.859 174.431 167.523 174.74 168.315 174.993C169.106 175.246 169.913 175.373 170.736 175.373C171.797 175.373 172.556 175.222 173.015 174.922C173.49 174.621 173.728 174.201 173.728 173.663C173.728 173.268 173.585 172.959 173.3 172.737C173.015 172.516 172.635 172.35 172.161 172.239C171.702 172.128 171.187 172.033 170.617 171.954C170.048 171.859 169.478 171.748 168.908 171.622C168.338 171.479 167.816 171.289 167.341 171.052C166.866 170.799 166.487 170.458 166.202 170.031C165.917 169.588 165.774 169.002 165.774 168.274C165.774 167.515 165.988 166.85 166.415 166.28C166.843 165.71 167.444 165.275 168.22 164.974C169.011 164.658 169.945 164.499 171.021 164.499C171.844 164.499 172.675 164.602 173.514 164.808C174.369 164.998 175.065 165.275 175.603 165.639L174.63 167.443C174.06 167.063 173.466 166.802 172.849 166.66C172.232 166.517 171.615 166.446 170.997 166.446C170 166.446 169.256 166.612 168.766 166.945C168.275 167.261 168.03 167.673 168.03 168.179C168.03 168.607 168.172 168.939 168.457 169.176C168.758 169.398 169.138 169.572 169.597 169.699C170.071 169.825 170.594 169.936 171.164 170.031C171.733 170.11 172.303 170.221 172.873 170.363C173.443 170.49 173.957 170.672 174.416 170.909C174.891 171.147 175.271 171.479 175.556 171.907C175.856 172.334 176.007 172.904 176.007 173.616C176.007 174.376 175.785 175.032 175.342 175.586C174.899 176.14 174.274 176.576 173.466 176.892C172.659 177.193 171.694 177.343 170.57 177.343ZM183.176 177.343C181.91 177.343 180.928 177.003 180.232 176.322C179.535 175.642 179.187 174.668 179.187 173.402V161.864H181.466V173.307C181.466 173.988 181.633 174.51 181.965 174.874C182.313 175.238 182.804 175.42 183.437 175.42C184.149 175.42 184.743 175.222 185.217 174.827L185.93 176.465C185.581 176.765 185.162 176.987 184.671 177.129C184.197 177.272 183.698 177.343 183.176 177.343ZM177.051 166.494V164.618H185.075V166.494H177.051ZM196.496 177.201V174.542L196.377 174.043V169.509C196.377 168.543 196.092 167.799 195.522 167.277C194.968 166.739 194.13 166.47 193.006 166.47C192.262 166.47 191.534 166.597 190.822 166.85C190.109 167.087 189.508 167.412 189.017 167.823L188.068 166.114C188.717 165.592 189.492 165.196 190.394 164.927C191.312 164.642 192.27 164.499 193.267 164.499C194.992 164.499 196.322 164.919 197.255 165.758C198.189 166.597 198.656 167.879 198.656 169.604V177.201H196.496ZM192.365 177.343C191.431 177.343 190.608 177.185 189.896 176.868C189.199 176.552 188.661 176.117 188.281 175.563C187.902 174.993 187.712 174.352 187.712 173.64C187.712 172.959 187.87 172.342 188.186 171.788C188.519 171.234 189.049 170.791 189.777 170.458C190.521 170.126 191.518 169.96 192.768 169.96H196.757V171.598H192.863C191.724 171.598 190.956 171.788 190.561 172.168C190.165 172.548 189.967 173.007 189.967 173.545C189.967 174.162 190.212 174.66 190.703 175.04C191.194 175.404 191.874 175.586 192.745 175.586C193.599 175.586 194.343 175.396 194.976 175.017C195.625 174.637 196.092 174.083 196.377 173.355L196.828 174.922C196.527 175.665 195.997 176.259 195.237 176.702C194.478 177.129 193.52 177.343 192.365 177.343ZM209.592 164.499C210.621 164.499 211.523 164.697 212.299 165.093C213.09 165.489 213.707 166.09 214.151 166.897C214.594 167.704 214.815 168.725 214.815 169.96V177.201H212.536V170.221C212.536 169.002 212.235 168.084 211.634 167.467C211.048 166.85 210.217 166.541 209.141 166.541C208.334 166.541 207.63 166.699 207.028 167.016C206.427 167.333 205.96 167.799 205.628 168.417C205.311 169.034 205.153 169.802 205.153 170.72V177.201H202.874V164.618H205.058V168.013L204.702 167.111C205.113 166.288 205.746 165.647 206.601 165.188C207.456 164.729 208.453 164.499 209.592 164.499ZM224.232 177.343C223.014 177.343 221.922 177.074 220.956 176.536C220.006 175.998 219.255 175.246 218.701 174.281C218.147 173.315 217.87 172.191 217.87 170.909C217.87 169.627 218.147 168.512 218.701 167.562C219.255 166.597 220.006 165.845 220.956 165.307C221.922 164.769 223.014 164.499 224.232 164.499C225.293 164.499 226.25 164.737 227.105 165.212C227.96 165.686 228.64 166.399 229.147 167.348C229.669 168.298 229.93 169.485 229.93 170.909C229.93 172.334 229.677 173.521 229.17 174.471C228.68 175.42 228.007 176.14 227.152 176.631C226.298 177.106 225.324 177.343 224.232 177.343ZM224.422 175.349C225.214 175.349 225.926 175.167 226.559 174.803C227.208 174.439 227.714 173.924 228.078 173.26C228.458 172.579 228.648 171.796 228.648 170.909C228.648 170.007 228.458 169.232 228.078 168.583C227.714 167.918 227.208 167.404 226.559 167.04C225.926 166.676 225.214 166.494 224.422 166.494C223.615 166.494 222.895 166.676 222.262 167.04C221.629 167.404 221.122 167.918 220.742 168.583C220.363 169.232 220.173 170.007 220.173 170.909C220.173 171.796 220.363 172.579 220.742 173.26C221.122 173.924 221.629 174.439 222.262 174.803C222.895 175.167 223.615 175.349 224.422 175.349ZM228.719 177.201V173.806L228.862 170.886L228.624 167.966V159.585H230.903V177.201H228.719ZM242.137 181.949C241.536 181.949 240.95 181.846 240.381 181.64C239.811 181.45 239.32 181.165 238.909 180.786L239.882 179.076C240.198 179.377 240.547 179.606 240.927 179.765C241.306 179.923 241.71 180.002 242.137 180.002C242.691 180.002 243.15 179.86 243.514 179.575C243.878 179.29 244.219 178.783 244.535 178.055L245.319 176.322L245.556 176.037L250.494 164.618H252.726L246.624 178.459C246.26 179.345 245.849 180.042 245.39 180.548C244.947 181.055 244.456 181.411 243.918 181.616C243.38 181.838 242.786 181.949 242.137 181.949ZM245.129 177.604L239.383 164.618H241.757L246.648 175.824L245.129 177.604ZM259.894 177.343C258.628 177.343 257.504 177.066 256.523 176.512C255.542 175.958 254.766 175.199 254.196 174.233C253.626 173.252 253.342 172.144 253.342 170.909C253.342 169.659 253.626 168.551 254.196 167.586C254.766 166.62 255.542 165.869 256.523 165.33C257.504 164.776 258.628 164.499 259.894 164.499C261.144 164.499 262.26 164.776 263.241 165.33C264.239 165.869 265.014 166.62 265.568 167.586C266.138 168.535 266.423 169.643 266.423 170.909C266.423 172.16 266.138 173.268 265.568 174.233C265.014 175.199 264.239 175.958 263.241 176.512C262.26 177.066 261.144 177.343 259.894 177.343ZM259.894 175.349C260.701 175.349 261.421 175.167 262.054 174.803C262.703 174.439 263.21 173.924 263.574 173.26C263.938 172.579 264.12 171.796 264.12 170.909C264.12 170.007 263.938 169.232 263.574 168.583C263.21 167.918 262.703 167.404 262.054 167.04C261.421 166.676 260.701 166.494 259.894 166.494C259.087 166.494 258.367 166.676 257.734 167.04C257.1 167.404 256.594 167.918 256.214 168.583C255.834 169.232 255.644 170.007 255.644 170.909C255.644 171.796 255.834 172.579 256.214 173.26C256.594 173.924 257.1 174.439 257.734 174.803C258.367 175.167 259.087 175.349 259.894 175.349ZM274.869 177.343C273.792 177.343 272.843 177.145 272.02 176.75C271.213 176.354 270.58 175.753 270.121 174.945C269.677 174.122 269.456 173.094 269.456 171.859V164.618H271.735V171.598C271.735 172.832 272.028 173.758 272.613 174.376C273.215 174.993 274.054 175.301 275.13 175.301C275.921 175.301 276.61 175.143 277.195 174.827C277.781 174.494 278.232 174.019 278.549 173.402C278.865 172.769 279.023 172.009 279.023 171.123V164.618H281.302V177.201H279.142V173.806L279.498 174.708C279.087 175.547 278.469 176.196 277.646 176.655C276.823 177.114 275.897 177.343 274.869 177.343ZM285.641 177.201V164.618H287.825V168.037L287.612 167.182C287.96 166.312 288.545 165.647 289.368 165.188C290.191 164.729 291.204 164.499 292.407 164.499V166.707C292.312 166.692 292.217 166.684 292.122 166.684C292.043 166.684 291.964 166.684 291.885 166.684C290.666 166.684 289.701 167.048 288.989 167.776C288.276 168.504 287.92 169.556 287.92 170.933V177.201H285.641ZM298.964 177.343C297.919 177.343 296.922 177.201 295.973 176.916C295.039 176.631 294.303 176.283 293.765 175.871L294.714 174.067C295.252 174.431 295.917 174.74 296.709 174.993C297.5 175.246 298.307 175.373 299.13 175.373C300.191 175.373 300.95 175.222 301.409 174.922C301.884 174.621 302.121 174.201 302.121 173.663C302.121 173.268 301.979 172.959 301.694 172.737C301.409 172.516 301.029 172.35 300.555 172.239C300.096 172.128 299.581 172.033 299.011 171.954C298.442 171.859 297.872 171.748 297.302 171.622C296.732 171.479 296.21 171.289 295.735 171.052C295.26 170.799 294.881 170.458 294.596 170.031C294.311 169.588 294.168 169.002 294.168 168.274C294.168 167.515 294.382 166.85 294.809 166.28C295.237 165.71 295.838 165.275 296.614 164.974C297.405 164.658 298.339 164.499 299.415 164.499C300.238 164.499 301.069 164.602 301.908 164.808C302.762 164.998 303.459 165.275 303.997 165.639L303.024 167.443C302.454 167.063 301.86 166.802 301.243 166.66C300.626 166.517 300.009 166.446 299.391 166.446C298.394 166.446 297.65 166.612 297.16 166.945C296.669 167.261 296.424 167.673 296.424 168.179C296.424 168.607 296.566 168.939 296.851 169.176C297.152 169.398 297.532 169.572 297.991 169.699C298.465 169.825 298.988 169.936 299.557 170.031C300.127 170.11 300.697 170.221 301.267 170.363C301.837 170.49 302.351 170.672 302.81 170.909C303.285 171.147 303.665 171.479 303.949 171.907C304.25 172.334 304.401 172.904 304.401 173.616C304.401 174.376 304.179 175.032 303.736 175.586C303.293 176.14 302.667 176.576 301.86 176.892C301.053 177.193 300.088 177.343 298.964 177.343ZM312.852 177.343C311.506 177.343 310.319 177.066 309.291 176.512C308.278 175.958 307.486 175.199 306.916 174.233C306.363 173.268 306.086 172.16 306.086 170.909C306.086 169.659 306.355 168.551 306.893 167.586C307.447 166.62 308.198 165.869 309.148 165.33C310.114 164.776 311.198 164.499 312.401 164.499C313.619 164.499 314.695 164.769 315.629 165.307C316.563 165.845 317.291 166.604 317.813 167.586C318.352 168.551 318.621 169.683 318.621 170.981C318.621 171.076 318.613 171.186 318.597 171.313C318.597 171.44 318.589 171.558 318.573 171.669H307.866V170.031H317.386L316.46 170.601C316.476 169.794 316.31 169.073 315.962 168.44C315.613 167.807 315.131 167.317 314.513 166.968C313.912 166.604 313.208 166.422 312.401 166.422C311.609 166.422 310.905 166.604 310.288 166.968C309.67 167.317 309.188 167.815 308.839 168.464C308.491 169.097 308.317 169.825 308.317 170.648V171.028C308.317 171.867 308.507 172.619 308.887 173.283C309.283 173.932 309.829 174.439 310.525 174.803C311.221 175.167 312.021 175.349 312.923 175.349C313.667 175.349 314.339 175.222 314.941 174.969C315.558 174.716 316.096 174.336 316.555 173.83L317.813 175.301C317.244 175.966 316.531 176.473 315.677 176.821C314.838 177.169 313.896 177.343 312.852 177.343ZM321.785 177.201V159.585H324.064V177.201H321.785ZM328.748 177.201V163.502C328.748 162.268 329.104 161.287 329.817 160.559C330.545 159.815 331.573 159.443 332.903 159.443C333.394 159.443 333.86 159.506 334.304 159.633C334.763 159.743 335.15 159.925 335.467 160.179L334.778 161.912C334.541 161.722 334.272 161.579 333.971 161.484C333.671 161.374 333.354 161.318 333.022 161.318C332.357 161.318 331.85 161.508 331.502 161.888C331.154 162.252 330.98 162.798 330.98 163.526V165.212L331.027 166.256V177.201H328.748ZM326.612 166.494V164.618H334.636V166.494H326.612ZM349.832 177.343C348.756 177.343 347.783 177.106 346.912 176.631C346.057 176.14 345.377 175.42 344.87 174.471C344.38 173.521 344.134 172.334 344.134 170.909C344.134 169.485 344.388 168.298 344.894 167.348C345.416 166.399 346.105 165.686 346.96 165.212C347.83 164.737 348.788 164.499 349.832 164.499C351.067 164.499 352.159 164.769 353.108 165.307C354.058 165.845 354.81 166.597 355.364 167.562C355.918 168.512 356.195 169.627 356.195 170.909C356.195 172.191 355.918 173.315 355.364 174.281C354.81 175.246 354.058 175.998 353.108 176.536C352.159 177.074 351.067 177.343 349.832 177.343ZM343.161 177.201V159.585H345.44V167.966L345.203 170.886L345.345 173.806V177.201H343.161ZM349.642 175.349C350.449 175.349 351.17 175.167 351.803 174.803C352.452 174.439 352.958 173.924 353.322 173.26C353.702 172.579 353.892 171.796 353.892 170.909C353.892 170.007 353.702 169.232 353.322 168.583C352.958 167.918 352.452 167.404 351.803 167.04C351.17 166.676 350.449 166.494 349.642 166.494C348.851 166.494 348.131 166.676 347.482 167.04C346.849 167.404 346.342 167.918 345.963 168.583C345.598 169.232 345.416 170.007 345.416 170.909C345.416 171.796 345.598 172.579 345.963 173.26C346.342 173.924 346.849 174.439 347.482 174.803C348.131 175.167 348.851 175.349 349.642 175.349ZM364.946 177.343C363.601 177.343 362.414 177.066 361.385 176.512C360.372 175.958 359.581 175.199 359.011 174.233C358.457 173.268 358.18 172.16 358.18 170.909C358.18 169.659 358.449 168.551 358.988 167.586C359.541 166.62 360.293 165.869 361.243 165.33C362.208 164.776 363.293 164.499 364.495 164.499C365.714 164.499 366.79 164.769 367.724 165.307C368.658 165.845 369.386 166.604 369.908 167.586C370.446 168.551 370.715 169.683 370.715 170.981C370.715 171.076 370.707 171.186 370.692 171.313C370.692 171.44 370.684 171.558 370.668 171.669H359.961V170.031H369.481L368.555 170.601C368.571 169.794 368.405 169.073 368.056 168.44C367.708 167.807 367.226 167.317 366.608 166.968C366.007 166.604 365.303 166.422 364.495 166.422C363.704 166.422 363 166.604 362.382 166.968C361.765 167.317 361.282 167.815 360.934 168.464C360.586 169.097 360.412 169.825 360.412 170.648V171.028C360.412 171.867 360.602 172.619 360.982 173.283C361.377 173.932 361.923 174.439 362.62 174.803C363.316 175.167 364.116 175.349 365.018 175.349C365.762 175.349 366.434 175.222 367.036 174.969C367.653 174.716 368.191 174.336 368.65 173.83L369.908 175.301C369.338 175.966 368.626 176.473 367.772 176.821C366.933 177.169 365.991 177.343 364.946 177.343ZM378.201 177.343C376.935 177.343 375.953 177.003 375.257 176.322C374.561 175.642 374.213 174.668 374.213 173.402V161.864H376.492V173.307C376.492 173.988 376.658 174.51 376.99 174.874C377.338 175.238 377.829 175.42 378.462 175.42C379.174 175.42 379.768 175.222 380.243 174.827L380.955 176.465C380.607 176.765 380.187 176.987 379.697 177.129C379.222 177.272 378.723 177.343 378.201 177.343ZM372.076 166.494V164.618H380.1V166.494H372.076ZM387.73 177.343C386.463 177.343 385.482 177.003 384.786 176.322C384.089 175.642 383.741 174.668 383.741 173.402V161.864H386.02V173.307C386.02 173.988 386.186 174.51 386.519 174.874C386.867 175.238 387.358 175.42 387.991 175.42C388.703 175.42 389.297 175.222 389.771 174.827L390.484 176.465C390.135 176.765 389.716 176.987 389.225 177.129C388.75 177.272 388.252 177.343 387.73 177.343ZM381.605 166.494V164.618H389.629V166.494H381.605ZM398.424 177.343C397.079 177.343 395.892 177.066 394.863 176.512C393.85 175.958 393.059 175.199 392.489 174.233C391.935 173.268 391.658 172.16 391.658 170.909C391.658 169.659 391.927 168.551 392.465 167.586C393.019 166.62 393.771 165.869 394.721 165.33C395.686 164.776 396.77 164.499 397.973 164.499C399.192 164.499 400.268 164.769 401.202 165.307C402.136 165.845 402.864 166.604 403.386 167.586C403.924 168.551 404.193 169.683 404.193 170.981C404.193 171.076 404.185 171.186 404.17 171.313C404.17 171.44 404.162 171.558 404.146 171.669H393.439V170.031H402.959L402.033 170.601C402.049 169.794 401.883 169.073 401.534 168.44C401.186 167.807 400.703 167.317 400.086 166.968C399.485 166.604 398.78 166.422 397.973 166.422C397.182 166.422 396.478 166.604 395.86 166.968C395.243 167.317 394.76 167.815 394.412 168.464C394.064 169.097 393.89 169.825 393.89 170.648V171.028C393.89 171.867 394.08 172.619 394.46 173.283C394.855 173.932 395.401 174.439 396.098 174.803C396.794 175.167 397.593 175.349 398.496 175.349C399.239 175.349 399.912 175.222 400.514 174.969C401.131 174.716 401.669 174.336 402.128 173.83L403.386 175.301C402.816 175.966 402.104 176.473 401.249 176.821C400.411 177.169 399.469 177.343 398.424 177.343ZM407.358 177.201V164.618H409.542V168.037L409.329 167.182C409.677 166.312 410.262 165.647 411.085 165.188C411.908 164.729 412.921 164.499 414.124 164.499V166.707C414.029 166.692 413.934 166.684 413.839 166.684C413.76 166.684 413.681 166.684 413.602 166.684C412.383 166.684 411.418 167.048 410.706 167.776C409.993 168.504 409.637 169.556 409.637 170.933V177.201H407.358ZM417.41 177.343C416.966 177.343 416.587 177.193 416.27 176.892C415.954 176.576 415.795 176.18 415.795 175.705C415.795 175.23 415.954 174.842 416.27 174.542C416.587 174.241 416.966 174.091 417.41 174.091C417.837 174.091 418.201 174.241 418.502 174.542C418.818 174.842 418.976 175.23 418.976 175.705C418.976 176.18 418.818 176.576 418.502 176.892C418.201 177.193 417.837 177.343 417.41 177.343Z" fill="black"/>
<path d="M476.971 47.9528C458.254 48.4293 449.53 33.0638 447.508 25.3214H572.291L576.624 67.6065C562.759 73.562 546.295 69.3931 539.362 61.0553C530.697 49.7395 530.119 45.372 522.032 42.5927C506.087 39.734 492.569 47.5558 476.971 47.9528Z" fill="#FCC21B"/>
<defs>
<filter id="filter0_dd_895_15" x="0" y="0" width="598.872" height="243.292" filterUnits="userSpaceOnUse" color-interpolation-filters="sRGB">
<feFlood flood-opacity="0" result="BackgroundImageFix"/>
<feColorMatrix in="SourceAlpha" type="matrix" values="0 0 0 0 0 0 0 0 0 0 0 0 0 0 0 0 0 0 127 0" result="hardAlpha"/>
<feOffset dx="2" dy="2"/>
<feGaussianBlur stdDeviation="5"/>
<feComposite in2="hardAlpha" operator="out"/>
<feColorMatrix type="matrix" values="0 0 0 0 0 0 0 0 0 0 0 0 0 0 0 0 0 0 0.25 0"/>
<feBlend mode="normal" in2="BackgroundImageFix" result="effect1_dropShadow_895_15"/>
<feColorMatrix in="SourceAlpha" type="matrix" values="0 0 0 0 0 0 0 0 0 0 0 0 0 0 0 0 0 0 127 0" result="hardAlpha"/>
<feOffset dx="-2" dy="-2"/>
<feGaussianBlur stdDeviation="5"/>
<feComposite in2="hardAlpha" operator="out"/>
<feColorMatrix type="matrix" values="0 0 0 0 0 0 0 0 0 0 0 0 0 0 0 0 0 0 0.25 0"/>
<feBlend mode="normal" in2="effect1_dropShadow_895_15" result="effect2_dropShadow_895_15"/>
<feBlend mode="normal" in="SourceGraphic" in2="effect2_dropShadow_895_15" result="shape"/>
</filter>
</defs>
</svg>
