<svg width="599" height="244" viewBox="0 0 599 244" fill="none" xmlns="http://www.w3.org/2000/svg">
<g filter="url(#filter0_dd_895_12)">
<rect x="12" y="12" width="574.872" height="219.292" rx="24.6044" fill="#00A384"/>
<rect x="25.3213" y="25.7058" width="548.229" height="191.88" rx="23.6238" fill="white"/>
</g>
<path d="M42.5222 71.0356V45.494H49.044V48.2228H45.9332V68.3068H49.044V71.0356H42.5222ZM58.1203 66.0146C56.6103 66.0146 55.2459 65.6325 54.027 64.8685C52.8264 64.1044 51.8804 62.9947 51.1891 61.5393C50.4978 60.0658 50.1521 58.283 50.1521 56.1909C50.1521 54.0988 50.4978 52.3251 51.1891 50.8697C51.8804 49.3962 52.8264 48.2774 54.027 47.5133C55.2459 46.7492 56.6103 46.3672 58.1203 46.3672C59.6484 46.3672 61.0128 46.7492 62.2135 47.5133C63.4141 48.2774 64.3601 49.3962 65.0514 50.8697C65.7609 52.3251 66.1156 54.0988 66.1156 56.1909C66.1156 58.283 65.7609 60.0658 65.0514 61.5393C64.3601 62.9947 63.4141 64.1044 62.2135 64.8685C61.0128 65.6325 59.6484 66.0146 58.1203 66.0146ZM58.1203 62.931C59.0117 62.931 59.7848 62.6945 60.4397 62.2215C61.0946 61.7304 61.604 60.9845 61.9679 59.9839C62.3499 58.9834 62.5409 57.719 62.5409 56.1909C62.5409 54.6446 62.3499 53.3802 61.9679 52.3979C61.604 51.3973 61.0946 50.6605 60.4397 50.1875C59.7848 49.6963 59.0117 49.4507 58.1203 49.4507C57.2652 49.4507 56.5012 49.6963 55.8281 50.1875C55.1731 50.6605 54.6547 51.3973 54.2726 52.3979C53.9088 53.3802 53.7269 54.6446 53.7269 56.1909C53.7269 57.719 53.9088 58.9834 54.2726 59.9839C54.6547 60.9845 55.1731 61.7304 55.8281 62.2215C56.5012 62.6945 57.2652 62.931 58.1203 62.931ZM73.7041 66.0146C72.3579 66.0146 71.0389 65.8236 69.7473 65.4415C68.4739 65.0413 67.4005 64.4955 66.5273 63.8042L68.0554 61.0482C68.7467 61.6121 69.5836 62.0669 70.5659 62.4126C71.5483 62.7582 72.5762 62.931 73.6495 62.931C74.9229 62.931 75.9144 62.6763 76.6239 62.167C77.3334 61.6394 77.6881 60.9299 77.6881 60.0385C77.6881 59.1653 77.3607 58.474 76.7057 57.9646C76.0508 57.4552 74.9957 57.2005 73.5403 57.2005H71.7939V54.7719L77.2515 48.2774L77.7154 49.6145H67.4551V46.6401H80.4715V49.0141L75.0139 55.5087L73.1583 54.4172H74.2225C76.5693 54.4172 78.3248 54.9447 79.4891 55.9999C80.6716 57.0368 81.2629 58.3739 81.2629 60.0112C81.2629 61.0845 80.99 62.076 80.4442 62.9856C79.8984 63.8952 79.0616 64.632 77.9337 65.1959C76.824 65.7417 75.4141 66.0146 73.7041 66.0146ZM88.7952 71.0356H82.3007V68.3068H85.3842V48.2228H82.3007V45.494H88.7952V71.0356Z" fill="black"/>
<path d="M50.2705 120.077V113.715L50.8166 115.187L43.6707 103.459H46.2109L52.2173 113.359H50.8403L56.8704 103.459H59.2207L52.0986 115.187L52.6209 113.715V120.077H50.2705ZM65.272 120.22C64.0058 120.22 62.8821 119.943 61.9008 119.389C60.9196 118.835 60.144 118.075 59.5743 117.11C59.0045 116.128 58.7196 115.02 58.7196 113.786C58.7196 112.536 59.0045 111.428 59.5743 110.462C60.144 109.497 60.9196 108.745 61.9008 108.207C62.8821 107.653 64.0058 107.376 65.272 107.376C66.5223 107.376 67.6381 107.653 68.6194 108.207C69.6165 108.745 70.3921 109.497 70.946 110.462C71.5158 111.412 71.8007 112.52 71.8007 113.786C71.8007 115.036 71.5158 116.144 70.946 117.11C70.3921 118.075 69.6165 118.835 68.6194 119.389C67.6381 119.943 66.5223 120.22 65.272 120.22ZM65.272 118.225C66.0792 118.225 66.7993 118.043 67.4324 117.679C68.0813 117.315 68.5878 116.801 68.9518 116.136C69.3158 115.456 69.4978 114.672 69.4978 113.786C69.4978 112.884 69.3158 112.108 68.9518 111.459C68.5878 110.795 68.0813 110.28 67.4324 109.916C66.7993 109.552 66.0792 109.37 65.272 109.37C64.4648 109.37 63.7447 109.552 63.1116 109.916C62.4785 110.28 61.9721 110.795 61.5922 111.459C61.2124 112.108 61.0224 112.884 61.0224 113.786C61.0224 114.672 61.2124 115.456 61.5922 116.136C61.9721 116.801 62.4785 117.315 63.1116 117.679C63.7447 118.043 64.4648 118.225 65.272 118.225ZM80.2467 120.22C79.1705 120.22 78.2209 120.022 77.3979 119.626C76.5907 119.23 75.9576 118.629 75.4986 117.822C75.0555 116.999 74.8339 115.97 74.8339 114.736V107.495H77.113V114.474C77.113 115.709 77.4058 116.635 77.9914 117.252C78.5928 117.869 79.4317 118.178 80.5079 118.178C81.2992 118.178 81.9877 118.02 82.5733 117.703C83.1589 117.371 83.61 116.896 83.9265 116.279C84.2431 115.646 84.4013 114.886 84.4013 114V107.495H86.6804V120.077H84.5201V116.682L84.8762 117.584C84.4647 118.423 83.8474 119.072 83.0244 119.531C82.2014 119.99 81.2755 120.22 80.2467 120.22ZM102.879 120.22C101.597 120.22 100.449 119.943 99.4366 119.389C98.4395 118.835 97.656 118.075 97.0862 117.11C96.5165 116.144 96.2316 115.036 96.2316 113.786C96.2316 112.536 96.5165 111.428 97.0862 110.462C97.656 109.497 98.4395 108.745 99.4366 108.207C100.449 107.653 101.597 107.376 102.879 107.376C104.018 107.376 105.031 107.605 105.918 108.064C106.82 108.508 107.516 109.172 108.007 110.059L106.274 111.174C105.862 110.557 105.356 110.106 104.754 109.821C104.169 109.521 103.536 109.37 102.855 109.37C102.032 109.37 101.296 109.552 100.647 109.916C99.9984 110.28 99.484 110.795 99.1042 111.459C98.7243 112.108 98.5344 112.884 98.5344 113.786C98.5344 114.688 98.7243 115.471 99.1042 116.136C99.484 116.801 99.9984 117.315 100.647 117.679C101.296 118.043 102.032 118.225 102.855 118.225C103.536 118.225 104.169 118.083 104.754 117.798C105.356 117.497 105.862 117.038 106.274 116.421L108.007 117.513C107.516 118.384 106.82 119.056 105.918 119.531C105.031 119.99 104.018 120.22 102.879 120.22ZM118.768 120.077V117.418L118.65 116.92V112.385C118.65 111.42 118.365 110.676 117.795 110.154C117.241 109.615 116.402 109.346 115.278 109.346C114.535 109.346 113.806 109.473 113.094 109.726C112.382 109.964 111.781 110.288 111.29 110.7L110.34 108.99C110.989 108.468 111.765 108.072 112.667 107.803C113.585 107.518 114.542 107.376 115.54 107.376C117.265 107.376 118.594 107.795 119.528 108.634C120.462 109.473 120.929 110.755 120.929 112.48V120.077H118.768ZM114.637 120.22C113.704 120.22 112.881 120.061 112.168 119.745C111.472 119.428 110.934 118.993 110.554 118.439C110.174 117.869 109.984 117.228 109.984 116.516C109.984 115.835 110.143 115.218 110.459 114.664C110.791 114.11 111.322 113.667 112.05 113.335C112.794 113.002 113.791 112.836 115.041 112.836H119.029V114.474H115.136C113.996 114.474 113.229 114.664 112.833 115.044C112.437 115.424 112.24 115.883 112.24 116.421C112.24 117.038 112.485 117.537 112.976 117.917C113.466 118.281 114.147 118.463 115.017 118.463C115.872 118.463 116.616 118.273 117.249 117.893C117.898 117.513 118.365 116.959 118.65 116.231L119.101 117.798C118.8 118.542 118.27 119.135 117.51 119.579C116.75 120.006 115.793 120.22 114.637 120.22ZM131.865 107.376C132.894 107.376 133.796 107.574 134.571 107.969C135.363 108.365 135.98 108.967 136.423 109.774C136.866 110.581 137.088 111.602 137.088 112.836V120.077H134.809V113.097C134.809 111.879 134.508 110.961 133.907 110.344C133.321 109.726 132.49 109.418 131.414 109.418C130.607 109.418 129.902 109.576 129.301 109.892C128.699 110.209 128.233 110.676 127.9 111.293C127.584 111.91 127.425 112.678 127.425 113.596V120.077H125.146V107.495H127.33V110.89L126.974 109.987C127.386 109.164 128.019 108.523 128.874 108.064C129.728 107.605 130.725 107.376 131.865 107.376ZM152.002 120.22C150.736 120.22 149.755 119.879 149.058 119.199C148.362 118.518 148.014 117.545 148.014 116.279V104.741H150.293V116.184C150.293 116.864 150.459 117.387 150.791 117.751C151.14 118.115 151.63 118.297 152.263 118.297C152.975 118.297 153.569 118.099 154.044 117.703L154.756 119.341C154.408 119.642 153.988 119.863 153.498 120.006C153.023 120.148 152.524 120.22 152.002 120.22ZM145.877 109.37V107.495H153.901V109.37H145.877ZM157.511 120.077V107.495H159.696V110.913L159.482 110.059C159.83 109.188 160.416 108.523 161.239 108.064C162.062 107.605 163.075 107.376 164.277 107.376V109.584C164.183 109.568 164.088 109.56 163.993 109.56C163.913 109.56 163.834 109.56 163.755 109.56C162.537 109.56 161.571 109.924 160.859 110.652C160.147 111.38 159.791 112.433 159.791 113.81V120.077H157.511ZM173.97 120.077V117.418L173.851 116.92V112.385C173.851 111.42 173.566 110.676 172.996 110.154C172.442 109.615 171.604 109.346 170.48 109.346C169.736 109.346 169.008 109.473 168.296 109.726C167.584 109.964 166.982 110.288 166.491 110.7L165.542 108.99C166.191 108.468 166.966 108.072 167.868 107.803C168.786 107.518 169.744 107.376 170.741 107.376C172.466 107.376 173.796 107.795 174.729 108.634C175.663 109.473 176.13 110.755 176.13 112.48V120.077H173.97ZM169.839 120.22C168.905 120.22 168.082 120.061 167.37 119.745C166.673 119.428 166.135 118.993 165.756 118.439C165.376 117.869 165.186 117.228 165.186 116.516C165.186 115.835 165.344 115.218 165.661 114.664C165.993 114.11 166.523 113.667 167.251 113.335C167.995 113.002 168.992 112.836 170.242 112.836H174.231V114.474H170.337C169.198 114.474 168.43 114.664 168.035 115.044C167.639 115.424 167.441 115.883 167.441 116.421C167.441 117.038 167.686 117.537 168.177 117.917C168.668 118.281 169.348 118.463 170.219 118.463C171.073 118.463 171.817 118.273 172.45 117.893C173.099 117.513 173.566 116.959 173.851 116.231L174.302 117.798C174.001 118.542 173.471 119.135 172.712 119.579C171.952 120.006 170.994 120.22 169.839 120.22ZM185.832 120.22C184.55 120.22 183.402 119.943 182.39 119.389C181.392 118.835 180.609 118.075 180.039 117.11C179.469 116.144 179.185 115.036 179.185 113.786C179.185 112.536 179.469 111.428 180.039 110.462C180.609 109.497 181.392 108.745 182.39 108.207C183.402 107.653 184.55 107.376 185.832 107.376C186.971 107.376 187.984 107.605 188.871 108.064C189.773 108.508 190.469 109.172 190.96 110.059L189.227 111.174C188.815 110.557 188.309 110.106 187.707 109.821C187.122 109.521 186.489 109.37 185.808 109.37C184.985 109.37 184.249 109.552 183.6 109.916C182.951 110.28 182.437 110.795 182.057 111.459C181.677 112.108 181.487 112.884 181.487 113.786C181.487 114.688 181.677 115.471 182.057 116.136C182.437 116.801 182.951 117.315 183.6 117.679C184.249 118.043 184.985 118.225 185.808 118.225C186.489 118.225 187.122 118.083 187.707 117.798C188.309 117.497 188.815 117.038 189.227 116.421L190.96 117.513C190.469 118.384 189.773 119.056 188.871 119.531C187.984 119.99 186.971 120.22 185.832 120.22ZM195.6 117.038L195.648 114.118L202.888 107.495H205.642L200.087 112.955L198.852 114L195.6 117.038ZM193.748 120.077V102.462H196.027V120.077H193.748ZM203.363 120.077L198.425 113.952L199.897 112.124L206.165 120.077H203.363ZM215.299 124.825C214.698 124.825 214.112 124.722 213.542 124.517C212.973 124.327 212.482 124.042 212.07 123.662L213.044 121.953C213.36 122.253 213.709 122.483 214.088 122.641C214.468 122.799 214.872 122.879 215.299 122.879C215.853 122.879 216.312 122.736 216.676 122.451C217.04 122.166 217.38 121.66 217.697 120.932L218.48 119.199L218.718 118.914L223.656 107.495H225.887L219.786 121.335C219.422 122.222 219.011 122.918 218.552 123.425C218.108 123.931 217.618 124.287 217.08 124.493C216.542 124.714 215.948 124.825 215.299 124.825ZM218.29 120.481L212.545 107.495H214.919L219.81 118.7L218.29 120.481ZM233.056 120.22C231.79 120.22 230.666 119.943 229.685 119.389C228.703 118.835 227.928 118.075 227.358 117.11C226.788 116.128 226.503 115.02 226.503 113.786C226.503 112.536 226.788 111.428 227.358 110.462C227.928 109.497 228.703 108.745 229.685 108.207C230.666 107.653 231.79 107.376 233.056 107.376C234.306 107.376 235.422 107.653 236.403 108.207C237.4 108.745 238.176 109.497 238.73 110.462C239.3 111.412 239.584 112.52 239.584 113.786C239.584 115.036 239.3 116.144 238.73 117.11C238.176 118.075 237.4 118.835 236.403 119.389C235.422 119.943 234.306 120.22 233.056 120.22ZM233.056 118.225C233.863 118.225 234.583 118.043 235.216 117.679C235.865 117.315 236.372 116.801 236.736 116.136C237.1 115.456 237.282 114.672 237.282 113.786C237.282 112.884 237.1 112.108 236.736 111.459C236.372 110.795 235.865 110.28 235.216 109.916C234.583 109.552 233.863 109.37 233.056 109.37C232.249 109.37 231.529 109.552 230.895 109.916C230.262 110.28 229.756 110.795 229.376 111.459C228.996 112.108 228.806 112.884 228.806 113.786C228.806 114.672 228.996 115.456 229.376 116.136C229.756 116.801 230.262 117.315 230.895 117.679C231.529 118.043 232.249 118.225 233.056 118.225ZM248.031 120.22C246.954 120.22 246.005 120.022 245.182 119.626C244.375 119.23 243.741 118.629 243.282 117.822C242.839 116.999 242.618 115.97 242.618 114.736V107.495H244.897V114.474C244.897 115.709 245.19 116.635 245.775 117.252C246.377 117.869 247.215 118.178 248.292 118.178C249.083 118.178 249.772 118.02 250.357 117.703C250.943 117.371 251.394 116.896 251.71 116.279C252.027 115.646 252.185 114.886 252.185 114V107.495H254.464V120.077H252.304V116.682L252.66 117.584C252.248 118.423 251.631 119.072 250.808 119.531C249.985 119.99 249.059 120.22 248.031 120.22ZM258.803 120.077V107.495H260.987V110.913L260.774 110.059C261.122 109.188 261.707 108.523 262.53 108.064C263.353 107.605 264.366 107.376 265.569 107.376V109.584C265.474 109.568 265.379 109.56 265.284 109.56C265.205 109.56 265.126 109.56 265.047 109.56C263.828 109.56 262.863 109.924 262.15 110.652C261.438 111.38 261.082 112.433 261.082 113.81V120.077H258.803ZM290.656 107.376C291.669 107.376 292.563 107.574 293.339 107.969C294.114 108.365 294.716 108.967 295.143 109.774C295.586 110.581 295.808 111.602 295.808 112.836V120.077H293.529V113.097C293.529 111.879 293.244 110.961 292.674 110.344C292.104 109.726 291.305 109.418 290.276 109.418C289.517 109.418 288.852 109.576 288.282 109.892C287.712 110.209 287.269 110.676 286.953 111.293C286.652 111.91 286.501 112.678 286.501 113.596V120.077H284.222V113.097C284.222 111.879 283.937 110.961 283.368 110.344C282.814 109.726 282.014 109.418 280.97 109.418C280.226 109.418 279.569 109.576 278.999 109.892C278.43 110.209 277.986 110.676 277.67 111.293C277.353 111.91 277.195 112.678 277.195 113.596V120.077H274.916V107.495H277.1V110.842L276.744 109.987C277.14 109.164 277.749 108.523 278.572 108.064C279.395 107.605 280.353 107.376 281.445 107.376C282.648 107.376 283.684 107.677 284.555 108.278C285.425 108.864 285.995 109.758 286.264 110.961L285.338 110.581C285.718 109.615 286.383 108.84 287.332 108.254C288.282 107.669 289.39 107.376 290.656 107.376ZM305.39 120.22C304.124 120.22 303.001 119.943 302.019 119.389C301.038 118.835 300.262 118.075 299.693 117.11C299.123 116.128 298.838 115.02 298.838 113.786C298.838 112.536 299.123 111.428 299.693 110.462C300.262 109.497 301.038 108.745 302.019 108.207C303.001 107.653 304.124 107.376 305.39 107.376C306.641 107.376 307.757 107.653 308.738 108.207C309.735 108.745 310.51 109.497 311.064 110.462C311.634 111.412 311.919 112.52 311.919 113.786C311.919 115.036 311.634 116.144 311.064 117.11C310.51 118.075 309.735 118.835 308.738 119.389C307.757 119.943 306.641 120.22 305.39 120.22ZM305.39 118.225C306.198 118.225 306.918 118.043 307.551 117.679C308.2 117.315 308.706 116.801 309.07 116.136C309.434 115.456 309.616 114.672 309.616 113.786C309.616 112.884 309.434 112.108 309.07 111.459C308.706 110.795 308.2 110.28 307.551 109.916C306.918 109.552 306.198 109.37 305.39 109.37C304.583 109.37 303.863 109.552 303.23 109.916C302.597 110.28 302.09 110.795 301.711 111.459C301.331 112.108 301.141 112.884 301.141 113.786C301.141 114.672 301.331 115.456 301.711 116.136C302.09 116.801 302.597 117.315 303.23 117.679C303.863 118.043 304.583 118.225 305.39 118.225ZM320.46 120.22C319.194 120.22 318.07 119.943 317.089 119.389C316.108 118.835 315.332 118.075 314.762 117.11C314.193 116.128 313.908 115.02 313.908 113.786C313.908 112.536 314.193 111.428 314.762 110.462C315.332 109.497 316.108 108.745 317.089 108.207C318.07 107.653 319.194 107.376 320.46 107.376C321.71 107.376 322.826 107.653 323.808 108.207C324.805 108.745 325.58 109.497 326.134 110.462C326.704 111.412 326.989 112.52 326.989 113.786C326.989 115.036 326.704 116.144 326.134 117.11C325.58 118.075 324.805 118.835 323.808 119.389C322.826 119.943 321.71 120.22 320.46 120.22ZM320.46 118.225C321.267 118.225 321.987 118.043 322.621 117.679C323.269 117.315 323.776 116.801 324.14 116.136C324.504 115.456 324.686 114.672 324.686 113.786C324.686 112.884 324.504 112.108 324.14 111.459C323.776 110.795 323.269 110.28 322.621 109.916C321.987 109.552 321.267 109.37 320.46 109.37C319.653 109.37 318.933 109.552 318.3 109.916C317.667 110.28 317.16 110.795 316.78 111.459C316.4 112.108 316.211 112.884 316.211 113.786C316.211 114.672 316.4 115.456 316.78 116.136C317.16 116.801 317.667 117.315 318.3 117.679C318.933 118.043 319.653 118.225 320.46 118.225ZM335.34 120.22C334.121 120.22 333.029 119.951 332.064 119.412C331.114 118.874 330.362 118.123 329.808 117.157C329.254 116.192 328.977 115.068 328.977 113.786C328.977 112.504 329.254 111.388 329.808 110.438C330.362 109.473 331.114 108.721 332.064 108.183C333.029 107.645 334.121 107.376 335.34 107.376C336.4 107.376 337.358 107.613 338.213 108.088C339.067 108.563 339.748 109.275 340.254 110.225C340.776 111.174 341.038 112.361 341.038 113.786C341.038 115.21 340.784 116.397 340.278 117.347C339.787 118.297 339.115 119.017 338.26 119.507C337.405 119.982 336.432 120.22 335.34 120.22ZM335.53 118.225C336.321 118.225 337.033 118.043 337.666 117.679C338.315 117.315 338.822 116.801 339.186 116.136C339.566 115.456 339.756 114.672 339.756 113.786C339.756 112.884 339.566 112.108 339.186 111.459C338.822 110.795 338.315 110.28 337.666 109.916C337.033 109.552 336.321 109.37 335.53 109.37C334.723 109.37 334.003 109.552 333.369 109.916C332.736 110.28 332.23 110.795 331.85 111.459C331.47 112.108 331.28 112.884 331.28 113.786C331.28 114.672 331.47 115.456 331.85 116.136C332.23 116.801 332.736 117.315 333.369 117.679C334.003 118.043 334.723 118.225 335.53 118.225ZM339.827 120.077V116.682L339.969 113.762L339.732 110.842V102.462H342.011V120.077H339.827ZM360.51 120.077V117.418L360.391 116.92V112.385C360.391 111.42 360.106 110.676 359.536 110.154C358.982 109.615 358.143 109.346 357.02 109.346C356.276 109.346 355.548 109.473 354.836 109.726C354.123 109.964 353.522 110.288 353.031 110.7L352.082 108.99C352.731 108.468 353.506 108.072 354.408 107.803C355.326 107.518 356.284 107.376 357.281 107.376C359.006 107.376 360.335 107.795 361.269 108.634C362.203 109.473 362.67 110.755 362.67 112.48V120.077H360.51ZM356.379 120.22C355.445 120.22 354.622 120.061 353.91 119.745C353.213 119.428 352.675 118.993 352.295 118.439C351.915 117.869 351.726 117.228 351.726 116.516C351.726 115.835 351.884 115.218 352.2 114.664C352.533 114.11 353.063 113.667 353.791 113.335C354.535 113.002 355.532 112.836 356.782 112.836H360.771V114.474H356.877C355.738 114.474 354.97 114.664 354.574 115.044C354.179 115.424 353.981 115.883 353.981 116.421C353.981 117.038 354.226 117.537 354.717 117.917C355.207 118.281 355.888 118.463 356.759 118.463C357.613 118.463 358.357 118.273 358.99 117.893C359.639 117.513 360.106 116.959 360.391 116.231L360.842 117.798C360.541 118.542 360.011 119.135 359.251 119.579C358.492 120.006 357.534 120.22 356.379 120.22ZM373.606 107.376C374.635 107.376 375.537 107.574 376.313 107.969C377.104 108.365 377.721 108.967 378.164 109.774C378.608 110.581 378.829 111.602 378.829 112.836V120.077H376.55V113.097C376.55 111.879 376.249 110.961 375.648 110.344C375.062 109.726 374.231 109.418 373.155 109.418C372.348 109.418 371.644 109.576 371.042 109.892C370.441 110.209 369.974 110.676 369.642 111.293C369.325 111.91 369.167 112.678 369.167 113.596V120.077H366.888V107.495H369.072V110.89L368.716 109.987C369.127 109.164 369.76 108.523 370.615 108.064C371.47 107.605 372.467 107.376 373.606 107.376ZM383.361 124.825C382.76 124.825 382.174 124.722 381.604 124.517C381.035 124.327 380.544 124.042 380.132 123.662L381.106 121.953C381.422 122.253 381.771 122.483 382.15 122.641C382.53 122.799 382.934 122.879 383.361 122.879C383.915 122.879 384.374 122.736 384.738 122.451C385.102 122.166 385.442 121.66 385.759 120.932L386.542 119.199L386.78 118.914L391.718 107.495H393.949L387.848 121.335C387.484 122.222 387.073 122.918 386.614 123.425C386.17 123.931 385.68 124.287 385.142 124.493C384.604 124.714 384.01 124.825 383.361 124.825ZM386.352 120.481L380.607 107.495H382.981L387.872 118.7L386.352 120.481ZM400.745 120.22C399.479 120.22 398.498 119.879 397.801 119.199C397.105 118.518 396.757 117.545 396.757 116.279V104.741H399.036V116.184C399.036 116.864 399.202 117.387 399.534 117.751C399.882 118.115 400.373 118.297 401.006 118.297C401.718 118.297 402.312 118.099 402.787 117.703L403.499 119.341C403.151 119.642 402.731 119.863 402.241 120.006C401.766 120.148 401.267 120.22 400.745 120.22ZM394.62 109.37V107.495H402.644V109.37H394.62ZM406.254 120.077V107.495H408.533V120.077H406.254ZM407.394 105.073C406.951 105.073 406.579 104.931 406.278 104.646C405.993 104.361 405.851 104.013 405.851 103.601C405.851 103.174 405.993 102.818 406.278 102.533C406.579 102.248 406.951 102.106 407.394 102.106C407.837 102.106 408.201 102.248 408.486 102.533C408.787 102.802 408.937 103.142 408.937 103.554C408.937 103.981 408.795 104.345 408.51 104.646C408.225 104.931 407.853 105.073 407.394 105.073ZM428.625 107.376C429.638 107.376 430.532 107.574 431.308 107.969C432.083 108.365 432.685 108.967 433.112 109.774C433.555 110.581 433.777 111.602 433.777 112.836V120.077H431.498V113.097C431.498 111.879 431.213 110.961 430.643 110.344C430.073 109.726 429.274 109.418 428.245 109.418C427.485 109.418 426.821 109.576 426.251 109.892C425.681 110.209 425.238 110.676 424.921 111.293C424.621 111.91 424.47 112.678 424.47 113.596V120.077H422.191V113.097C422.191 111.879 421.906 110.961 421.337 110.344C420.783 109.726 419.983 109.418 418.939 109.418C418.195 109.418 417.538 109.576 416.968 109.892C416.399 110.209 415.955 110.676 415.639 111.293C415.322 111.91 415.164 112.678 415.164 113.596V120.077H412.885V107.495H415.069V110.842L414.713 109.987C415.109 109.164 415.718 108.523 416.541 108.064C417.364 107.605 418.322 107.376 419.414 107.376C420.617 107.376 421.653 107.677 422.524 108.278C423.394 108.864 423.964 109.758 424.233 110.961L423.307 110.581C423.687 109.615 424.352 108.84 425.301 108.254C426.251 107.669 427.359 107.376 428.625 107.376ZM443.573 120.22C442.228 120.22 441.041 119.943 440.012 119.389C438.999 118.835 438.208 118.075 437.638 117.11C437.084 116.144 436.807 115.036 436.807 113.786C436.807 112.536 437.076 111.428 437.614 110.462C438.168 109.497 438.92 108.745 439.87 108.207C440.835 107.653 441.919 107.376 443.122 107.376C444.341 107.376 445.417 107.645 446.351 108.183C447.284 108.721 448.013 109.481 448.535 110.462C449.073 111.428 449.342 112.559 449.342 113.857C449.342 113.952 449.334 114.063 449.318 114.189C449.318 114.316 449.31 114.435 449.295 114.546H438.588V112.907H448.107L447.182 113.477C447.197 112.67 447.031 111.95 446.683 111.317C446.335 110.684 445.852 110.193 445.235 109.845C444.633 109.481 443.929 109.299 443.122 109.299C442.331 109.299 441.626 109.481 441.009 109.845C440.392 110.193 439.909 110.692 439.561 111.341C439.213 111.974 439.039 112.702 439.039 113.525V113.905C439.039 114.743 439.229 115.495 439.608 116.16C440.004 116.809 440.55 117.315 441.246 117.679C441.943 118.043 442.742 118.225 443.644 118.225C444.388 118.225 445.061 118.099 445.662 117.846C446.279 117.592 446.818 117.212 447.277 116.706L448.535 118.178C447.965 118.843 447.253 119.349 446.398 119.697C445.559 120.045 444.618 120.22 443.573 120.22ZM451.605 123.591L452.792 118.795L453.1 120.172C452.641 120.172 452.254 120.03 451.937 119.745C451.636 119.46 451.486 119.072 451.486 118.581C451.486 118.107 451.636 117.719 451.937 117.418C452.254 117.117 452.633 116.967 453.077 116.967C453.536 116.967 453.907 117.125 454.192 117.442C454.477 117.743 454.62 118.123 454.62 118.581C454.62 118.74 454.604 118.898 454.572 119.056C454.556 119.199 454.517 119.373 454.453 119.579C454.406 119.769 454.327 120.006 454.216 120.291L453.1 123.591H451.605ZM470.932 120.22C469.856 120.22 468.883 119.982 468.012 119.507C467.157 119.017 466.477 118.297 465.97 117.347C465.48 116.397 465.234 115.21 465.234 113.786C465.234 112.361 465.488 111.174 465.994 110.225C466.516 109.275 467.205 108.563 468.06 108.088C468.93 107.613 469.888 107.376 470.932 107.376C472.167 107.376 473.259 107.645 474.208 108.183C475.158 108.721 475.91 109.473 476.464 110.438C477.018 111.388 477.295 112.504 477.295 113.786C477.295 115.068 477.018 116.192 476.464 117.157C475.91 118.123 475.158 118.874 474.208 119.412C473.259 119.951 472.167 120.22 470.932 120.22ZM464.261 120.077V102.462H466.54V110.842L466.303 113.762L466.445 116.682V120.077H464.261ZM470.742 118.225C471.549 118.225 472.27 118.043 472.903 117.679C473.552 117.315 474.058 116.801 474.422 116.136C474.802 115.456 474.992 114.672 474.992 113.786C474.992 112.884 474.802 112.108 474.422 111.459C474.058 110.795 473.552 110.28 472.903 109.916C472.27 109.552 471.549 109.37 470.742 109.37C469.951 109.37 469.231 109.552 468.582 109.916C467.949 110.28 467.442 110.795 467.063 111.459C466.698 112.108 466.516 112.884 466.516 113.786C466.516 114.672 466.698 115.456 467.063 116.136C467.442 116.801 467.949 117.315 468.582 117.679C469.231 118.043 469.951 118.225 470.742 118.225ZM485.738 120.22C484.662 120.22 483.712 120.022 482.889 119.626C482.082 119.23 481.449 118.629 480.99 117.822C480.547 116.999 480.325 115.97 480.325 114.736V107.495H482.604V114.474C482.604 115.709 482.897 116.635 483.482 117.252C484.084 117.869 484.923 118.178 485.999 118.178C486.79 118.178 487.479 118.02 488.064 117.703C488.65 117.371 489.101 116.896 489.418 116.279C489.734 115.646 489.892 114.886 489.892 114V107.495H492.172V120.077H490.011V116.682L490.367 117.584C489.956 118.423 489.338 119.072 488.515 119.531C487.692 119.99 486.767 120.22 485.738 120.22ZM500.831 120.22C499.565 120.22 498.584 119.879 497.887 119.199C497.191 118.518 496.843 117.545 496.843 116.279V104.741H499.122V116.184C499.122 116.864 499.288 117.387 499.62 117.751C499.969 118.115 500.459 118.297 501.092 118.297C501.804 118.297 502.398 118.099 502.873 117.703L503.585 119.341C503.237 119.642 502.817 119.863 502.327 120.006C501.852 120.148 501.353 120.22 500.831 120.22ZM494.706 109.37V107.495H502.73V109.37H494.706ZM517.915 120.22C516.697 120.22 515.604 119.951 514.639 119.412C513.689 118.874 512.938 118.123 512.384 117.157C511.83 116.192 511.553 115.068 511.553 113.786C511.553 112.504 511.83 111.388 512.384 110.438C512.938 109.473 513.689 108.721 514.639 108.183C515.604 107.645 516.697 107.376 517.915 107.376C518.976 107.376 519.933 107.613 520.788 108.088C521.642 108.563 522.323 109.275 522.83 110.225C523.352 111.174 523.613 112.361 523.613 113.786C523.613 115.21 523.36 116.397 522.853 117.347C522.363 118.297 521.69 119.017 520.835 119.507C519.981 119.982 519.007 120.22 517.915 120.22ZM518.105 118.225C518.896 118.225 519.609 118.043 520.242 117.679C520.891 117.315 521.397 116.801 521.761 116.136C522.141 115.456 522.331 114.672 522.331 113.786C522.331 112.884 522.141 112.108 521.761 111.459C521.397 110.795 520.891 110.28 520.242 109.916C519.609 109.552 518.896 109.37 518.105 109.37C517.298 109.37 516.578 109.552 515.945 109.916C515.312 110.28 514.805 110.795 514.425 111.459C514.046 112.108 513.856 112.884 513.856 113.786C513.856 114.672 514.046 115.456 514.425 116.136C514.805 116.801 515.312 117.315 515.945 117.679C516.578 118.043 517.298 118.225 518.105 118.225ZM522.402 120.077V116.682L522.545 113.762L522.307 110.842V102.462H524.586V120.077H522.402ZM536.709 120.077V117.418L536.591 116.92V112.385C536.591 111.42 536.306 110.676 535.736 110.154C535.182 109.615 534.343 109.346 533.219 109.346C532.475 109.346 531.747 109.473 531.035 109.726C530.323 109.964 529.722 110.288 529.231 110.7L528.281 108.99C528.93 108.468 529.706 108.072 530.608 107.803C531.526 107.518 532.483 107.376 533.481 107.376C535.206 107.376 536.535 107.795 537.469 108.634C538.403 109.473 538.87 110.755 538.87 112.48V120.077H536.709ZM532.578 120.22C531.645 120.22 530.822 120.061 530.109 119.745C529.413 119.428 528.875 118.993 528.495 118.439C528.115 117.869 527.925 117.228 527.925 116.516C527.925 115.835 528.083 115.218 528.4 114.664C528.732 114.11 529.263 113.667 529.991 113.335C530.735 113.002 531.732 112.836 532.982 112.836H536.97V114.474H533.077C531.937 114.474 531.17 114.664 530.774 115.044C530.378 115.424 530.181 115.883 530.181 116.421C530.181 117.038 530.426 117.537 530.917 117.917C531.407 118.281 532.088 118.463 532.958 118.463C533.813 118.463 534.557 118.273 535.19 117.893C535.839 117.513 536.306 116.959 536.591 116.231L537.042 117.798C536.741 118.542 536.211 119.135 535.451 119.579C534.691 120.006 533.734 120.22 532.578 120.22ZM543.087 120.077V107.495H545.366V120.077H543.087ZM544.227 105.073C543.784 105.073 543.412 104.931 543.111 104.646C542.826 104.361 542.684 104.013 542.684 103.601C542.684 103.174 542.826 102.818 543.111 102.533C543.412 102.248 543.784 102.106 544.227 102.106C544.67 102.106 545.034 102.248 545.319 102.533C545.62 102.802 545.77 103.142 545.77 103.554C545.77 103.981 545.628 104.345 545.343 104.646C545.058 104.931 544.686 105.073 544.227 105.073ZM549.718 120.077V102.462H551.997V120.077H549.718ZM556.895 124.825C556.293 124.825 555.708 124.722 555.138 124.517C554.568 124.327 554.077 124.042 553.666 123.662L554.639 121.953C554.956 122.253 555.304 122.483 555.684 122.641C556.064 122.799 556.467 122.879 556.895 122.879C557.449 122.879 557.908 122.736 558.272 122.451C558.636 122.166 558.976 121.66 559.292 120.932L560.076 119.199L560.313 118.914L565.251 107.495H567.483L561.382 121.335C561.018 122.222 560.606 122.918 560.147 123.425C559.704 123.931 559.213 124.287 558.675 124.493C558.137 124.714 557.544 124.825 556.895 124.825ZM559.886 120.481L554.141 107.495H556.515L561.405 118.7L559.886 120.481ZM51.4101 146.22C50.1281 146.22 48.9806 145.943 47.9677 145.389C46.9706 144.835 46.1872 144.075 45.6174 143.11C45.0476 142.144 44.7627 141.036 44.7627 139.786C44.7627 138.536 45.0476 137.428 45.6174 136.462C46.1872 135.497 46.9706 134.745 47.9677 134.207C48.9806 133.653 50.1281 133.376 51.4101 133.376C52.5496 133.376 53.5626 133.605 54.4489 134.064C55.351 134.508 56.0474 135.172 56.5381 136.059L54.805 137.174C54.3935 136.557 53.887 136.106 53.2856 135.821C52.7 135.521 52.0669 135.37 51.3864 135.37C50.5633 135.37 49.8274 135.552 49.1785 135.916C48.5296 136.28 48.0152 136.795 47.6353 137.459C47.2555 138.108 47.0656 138.884 47.0656 139.786C47.0656 140.688 47.2555 141.471 47.6353 142.136C48.0152 142.801 48.5296 143.315 49.1785 143.679C49.8274 144.043 50.5633 144.225 51.3864 144.225C52.0669 144.225 52.7 144.083 53.2856 143.798C53.887 143.497 54.3935 143.038 54.805 142.421L56.5381 143.513C56.0474 144.384 55.351 145.056 54.4489 145.531C53.5626 145.99 52.5496 146.22 51.4101 146.22ZM66.0451 133.376C67.0738 133.376 67.976 133.574 68.7515 133.969C69.5428 134.365 70.1601 134.967 70.6032 135.774C71.0464 136.581 71.268 137.602 71.268 138.836V146.077H68.9889V139.097C68.9889 137.879 68.6882 136.961 68.0867 136.344C67.5011 135.726 66.6702 135.418 65.594 135.418C64.7868 135.418 64.0825 135.576 63.4811 135.892C62.8796 136.209 62.4127 136.676 62.0804 137.293C61.7638 137.91 61.6056 138.678 61.6056 139.596V146.077H59.3265V128.462H61.6056V136.89L61.1545 135.987C61.566 135.164 62.1991 134.523 63.0537 134.064C63.9084 133.605 64.9055 133.376 66.0451 133.376ZM81.0886 146.22C79.7433 146.22 78.5563 145.943 77.5275 145.389C76.5146 144.835 75.7232 144.075 75.1535 143.11C74.5995 142.144 74.3225 141.036 74.3225 139.786C74.3225 138.536 74.5916 137.428 75.1297 136.462C75.6837 135.497 76.4355 134.745 77.3851 134.207C78.3505 133.653 79.4347 133.376 80.6375 133.376C81.8562 133.376 82.9325 133.645 83.8663 134.183C84.8001 134.721 85.5281 135.481 86.0504 136.462C86.5885 137.428 86.8576 138.559 86.8576 139.857C86.8576 139.952 86.8497 140.063 86.8338 140.189C86.8338 140.316 86.8259 140.435 86.8101 140.546H76.1031V138.907H85.6231L84.6972 139.477C84.713 138.67 84.5468 137.95 84.1986 137.317C83.8504 136.684 83.3677 136.193 82.7505 135.845C82.149 135.481 81.4447 135.299 80.6375 135.299C79.8462 135.299 79.1419 135.481 78.5246 135.845C77.9074 136.193 77.4246 136.692 77.0765 137.341C76.7283 137.974 76.5542 138.702 76.5542 139.525V139.905C76.5542 140.743 76.7441 141.495 77.1239 142.16C77.5196 142.809 78.0656 143.315 78.762 143.679C79.4584 144.043 80.2577 144.225 81.1598 144.225C81.9037 144.225 82.5764 144.099 83.1778 143.846C83.795 143.592 84.3332 143.212 84.7921 142.706L86.0504 144.178C85.4806 144.843 84.7684 145.349 83.9137 145.697C83.0749 146.045 82.1332 146.22 81.0886 146.22ZM95.5064 146.22C94.2244 146.22 93.0769 145.943 92.064 145.389C91.0669 144.835 90.2835 144.075 89.7137 143.11C89.1439 142.144 88.859 141.036 88.859 139.786C88.859 138.536 89.1439 137.428 89.7137 136.462C90.2835 135.497 91.0669 134.745 92.064 134.207C93.0769 133.653 94.2244 133.376 95.5064 133.376C96.6459 133.376 97.6589 133.605 98.5452 134.064C99.4473 134.508 100.144 135.172 100.634 136.059L98.9013 137.174C98.4898 136.557 97.9833 136.106 97.3819 135.821C96.7963 135.521 96.1632 135.37 95.4826 135.37C94.6596 135.37 93.9237 135.552 93.2748 135.916C92.6259 136.28 92.1115 136.795 91.7316 137.459C91.3518 138.108 91.1619 138.884 91.1619 139.786C91.1619 140.688 91.3518 141.471 91.7316 142.136C92.1115 142.801 92.6259 143.315 93.2748 143.679C93.9237 144.043 94.6596 144.225 95.4826 144.225C96.1632 144.225 96.7963 144.083 97.3819 143.798C97.9833 143.497 98.4898 143.038 98.9013 142.421L100.634 143.513C100.144 144.384 99.4473 145.056 98.5452 145.531C97.6589 145.99 96.6459 146.22 95.5064 146.22ZM105.275 143.038L105.322 140.118L112.563 133.495H115.317L109.761 138.955L108.527 140L105.275 143.038ZM103.423 146.077V128.462H105.702V146.077H103.423ZM113.038 146.077L108.1 139.952L109.572 138.124L115.839 146.077H113.038ZM116.712 140.546V138.575H123.098V140.546H116.712ZM126.607 146.077V133.495H128.886V146.077H126.607ZM127.746 131.073C127.303 131.073 126.931 130.931 126.631 130.646C126.346 130.361 126.203 130.013 126.203 129.601C126.203 129.174 126.346 128.818 126.631 128.533C126.931 128.248 127.303 128.106 127.746 128.106C128.19 128.106 128.554 128.248 128.839 128.533C129.139 128.802 129.29 129.142 129.29 129.554C129.29 129.981 129.147 130.345 128.862 130.646C128.577 130.931 128.205 131.073 127.746 131.073ZM139.956 133.376C140.985 133.376 141.887 133.574 142.663 133.969C143.454 134.365 144.071 134.967 144.514 135.774C144.958 136.581 145.179 137.602 145.179 138.836V146.077H142.9V139.097C142.9 137.879 142.599 136.961 141.998 136.344C141.412 135.726 140.581 135.418 139.505 135.418C138.698 135.418 137.994 135.576 137.392 135.892C136.791 136.209 136.324 136.676 135.992 137.293C135.675 137.91 135.517 138.678 135.517 139.596V146.077H133.238V133.495H135.422V136.89L135.066 135.987C135.477 135.164 136.11 134.523 136.965 134.064C137.82 133.605 138.817 133.376 139.956 133.376ZM153.006 146.22C151.961 146.22 150.964 146.077 150.014 145.792C149.08 145.507 148.344 145.159 147.806 144.748L148.756 142.943C149.294 143.307 149.959 143.616 150.75 143.869C151.542 144.123 152.349 144.249 153.172 144.249C154.232 144.249 154.992 144.099 155.451 143.798C155.926 143.497 156.163 143.078 156.163 142.54C156.163 142.144 156.021 141.835 155.736 141.614C155.451 141.392 155.071 141.226 154.596 141.115C154.137 141.005 153.623 140.91 153.053 140.83C152.483 140.736 151.913 140.625 151.344 140.498C150.774 140.356 150.252 140.166 149.777 139.928C149.302 139.675 148.922 139.335 148.637 138.907C148.352 138.464 148.21 137.879 148.21 137.151C148.21 136.391 148.424 135.726 148.851 135.156C149.278 134.587 149.88 134.151 150.655 133.851C151.447 133.534 152.38 133.376 153.457 133.376C154.28 133.376 155.111 133.479 155.949 133.685C156.804 133.874 157.5 134.151 158.039 134.515L157.065 136.32C156.495 135.94 155.902 135.679 155.285 135.536C154.667 135.394 154.05 135.323 153.433 135.323C152.436 135.323 151.692 135.489 151.201 135.821C150.711 136.138 150.465 136.549 150.465 137.056C150.465 137.483 150.608 137.815 150.893 138.053C151.193 138.274 151.573 138.449 152.032 138.575C152.507 138.702 153.029 138.813 153.599 138.907C154.169 138.987 154.739 139.097 155.308 139.24C155.878 139.366 156.393 139.548 156.852 139.786C157.326 140.023 157.706 140.356 157.991 140.783C158.292 141.21 158.442 141.78 158.442 142.492C158.442 143.252 158.221 143.909 157.777 144.463C157.334 145.017 156.709 145.452 155.902 145.769C155.095 146.069 154.129 146.22 153.006 146.22ZM173.174 150.825C172.019 150.825 170.895 150.659 169.803 150.327C168.726 150.01 167.848 149.551 167.168 148.95L168.26 147.193C168.845 147.699 169.565 148.095 170.42 148.38C171.275 148.681 172.169 148.831 173.103 148.831C174.59 148.831 175.682 148.483 176.379 147.786C177.075 147.09 177.423 146.03 177.423 144.605V141.946L177.661 139.454L177.542 136.937V133.495H179.703V144.368C179.703 146.584 179.149 148.214 178.041 149.258C176.933 150.303 175.311 150.825 173.174 150.825ZM172.889 145.555C171.67 145.555 170.578 145.302 169.613 144.795C168.663 144.273 167.903 143.553 167.334 142.635C166.78 141.717 166.503 140.656 166.503 139.454C166.503 138.235 166.78 137.174 167.334 136.272C167.903 135.354 168.663 134.642 169.613 134.136C170.578 133.629 171.67 133.376 172.889 133.376C173.965 133.376 174.947 133.598 175.833 134.041C176.719 134.468 177.423 135.133 177.946 136.035C178.484 136.937 178.753 138.077 178.753 139.454C178.753 140.815 178.484 141.946 177.946 142.848C177.423 143.751 176.719 144.431 175.833 144.89C174.947 145.333 173.965 145.555 172.889 145.555ZM173.15 143.561C173.989 143.561 174.733 143.387 175.382 143.038C176.031 142.69 176.537 142.207 176.901 141.59C177.281 140.973 177.471 140.261 177.471 139.454C177.471 138.646 177.281 137.934 176.901 137.317C176.537 136.7 176.031 136.225 175.382 135.892C174.733 135.544 173.989 135.37 173.15 135.37C172.311 135.37 171.56 135.544 170.895 135.892C170.246 136.225 169.732 136.7 169.352 137.317C168.988 137.934 168.806 138.646 168.806 139.454C168.806 140.261 168.988 140.973 169.352 141.59C169.732 142.207 170.246 142.69 170.895 143.038C171.56 143.387 172.311 143.561 173.15 143.561ZM184.057 146.077V133.495H186.336V146.077H184.057ZM185.197 131.073C184.754 131.073 184.382 130.931 184.081 130.646C183.796 130.361 183.654 130.013 183.654 129.601C183.654 129.174 183.796 128.818 184.081 128.533C184.382 128.248 184.754 128.106 185.197 128.106C185.64 128.106 186.004 128.248 186.289 128.533C186.59 128.802 186.74 129.142 186.74 129.554C186.74 129.981 186.598 130.345 186.313 130.646C186.028 130.931 185.656 131.073 185.197 131.073ZM193.988 146.077L188.48 133.495H190.854L195.745 144.89H194.605L199.591 133.495H201.822L196.314 146.077H193.988ZM209.204 146.22C207.859 146.22 206.672 145.943 205.643 145.389C204.63 144.835 203.839 144.075 203.269 143.11C202.715 142.144 202.438 141.036 202.438 139.786C202.438 138.536 202.707 137.428 203.245 136.462C203.799 135.497 204.551 134.745 205.501 134.207C206.466 133.653 207.55 133.376 208.753 133.376C209.972 133.376 211.048 133.645 211.982 134.183C212.916 134.721 213.644 135.481 214.166 136.462C214.704 137.428 214.973 138.559 214.973 139.857C214.973 139.952 214.965 140.063 214.95 140.189C214.95 140.316 214.942 140.435 214.926 140.546H204.219V138.907H213.739L212.813 139.477C212.829 138.67 212.663 137.95 212.314 137.317C211.966 136.684 211.483 136.193 210.866 135.845C210.265 135.481 209.56 135.299 208.753 135.299C207.962 135.299 207.258 135.481 206.64 135.845C206.023 136.193 205.54 136.692 205.192 137.341C204.844 137.974 204.67 138.702 204.67 139.525V139.905C204.67 140.743 204.86 141.495 205.24 142.16C205.635 142.809 206.181 143.315 206.878 143.679C207.574 144.043 208.373 144.225 209.276 144.225C210.019 144.225 210.692 144.099 211.293 143.846C211.911 143.592 212.449 143.212 212.908 142.706L214.166 144.178C213.596 144.843 212.884 145.349 212.029 145.697C211.191 146.045 210.249 146.22 209.204 146.22ZM228.834 146.22C227.568 146.22 226.587 145.879 225.891 145.199C225.194 144.518 224.846 143.545 224.846 142.279V130.741H227.125V142.184C227.125 142.864 227.291 143.387 227.624 143.751C227.972 144.115 228.463 144.297 229.096 144.297C229.808 144.297 230.401 144.099 230.876 143.703L231.588 145.341C231.24 145.642 230.821 145.863 230.33 146.006C229.855 146.148 229.357 146.22 228.834 146.22ZM222.709 135.37V133.495H230.734V135.37H222.709ZM241.062 133.376C242.091 133.376 242.993 133.574 243.769 133.969C244.56 134.365 245.177 134.967 245.621 135.774C246.064 136.581 246.285 137.602 246.285 138.836V146.077H244.006V139.097C244.006 137.879 243.705 136.961 243.104 136.344C242.518 135.726 241.687 135.418 240.611 135.418C239.804 135.418 239.1 135.576 238.498 135.892C237.897 136.209 237.43 136.676 237.098 137.293C236.781 137.91 236.623 138.678 236.623 139.596V146.077H234.344V128.462H236.623V136.89L236.172 135.987C236.583 135.164 237.216 134.523 238.071 134.064C238.926 133.605 239.923 133.376 241.062 133.376ZM256.106 146.22C254.761 146.22 253.574 145.943 252.545 145.389C251.532 144.835 250.741 144.075 250.171 143.11C249.617 142.144 249.34 141.036 249.34 139.786C249.34 138.536 249.609 137.428 250.147 136.462C250.701 135.497 251.453 134.745 252.402 134.207C253.368 133.653 254.452 133.376 255.655 133.376C256.873 133.376 257.95 133.645 258.884 134.183C259.817 134.721 260.545 135.481 261.068 136.462C261.606 137.428 261.875 138.559 261.875 139.857C261.875 139.952 261.867 140.063 261.851 140.189C261.851 140.316 261.843 140.435 261.827 140.546H251.12V138.907H260.64L259.714 139.477C259.73 138.67 259.564 137.95 259.216 137.317C258.868 136.684 258.385 136.193 257.768 135.845C257.166 135.481 256.462 135.299 255.655 135.299C254.863 135.299 254.159 135.481 253.542 135.845C252.925 136.193 252.442 136.692 252.094 137.341C251.746 137.974 251.571 138.702 251.571 139.525V139.905C251.571 140.743 251.761 141.495 252.141 142.16C252.537 142.809 253.083 143.315 253.779 143.679C254.476 144.043 255.275 144.225 256.177 144.225C256.921 144.225 257.594 144.099 258.195 143.846C258.812 143.592 259.35 143.212 259.809 142.706L261.068 144.178C260.498 144.843 259.786 145.349 258.931 145.697C258.092 146.045 257.15 146.22 256.106 146.22ZM278.086 146.22C277.01 146.22 276.037 145.982 275.166 145.507C274.312 145.017 273.631 144.297 273.125 143.347C272.634 142.397 272.389 141.21 272.389 139.786C272.389 138.361 272.642 137.174 273.148 136.225C273.671 135.275 274.359 134.563 275.214 134.088C276.084 133.613 277.042 133.376 278.086 133.376C279.321 133.376 280.413 133.645 281.363 134.183C282.312 134.721 283.064 135.473 283.618 136.438C284.172 137.388 284.449 138.504 284.449 139.786C284.449 141.068 284.172 142.192 283.618 143.157C283.064 144.123 282.312 144.874 281.363 145.412C280.413 145.951 279.321 146.22 278.086 146.22ZM271.415 146.077V128.462H273.694V136.842L273.457 139.762L273.599 142.682V146.077H271.415ZM277.896 144.225C278.704 144.225 279.424 144.043 280.057 143.679C280.706 143.315 281.212 142.801 281.576 142.136C281.956 141.456 282.146 140.672 282.146 139.786C282.146 138.884 281.956 138.108 281.576 137.459C281.212 136.795 280.706 136.28 280.057 135.916C279.424 135.552 278.704 135.37 277.896 135.37C277.105 135.37 276.385 135.552 275.736 135.916C275.103 136.28 274.596 136.795 274.217 137.459C273.853 138.108 273.671 138.884 273.671 139.786C273.671 140.672 273.853 141.456 274.217 142.136C274.596 142.801 275.103 143.315 275.736 143.679C276.385 144.043 277.105 144.225 277.896 144.225ZM293.201 146.22C291.855 146.22 290.668 145.943 289.639 145.389C288.627 144.835 287.835 144.075 287.265 143.11C286.711 142.144 286.434 141.036 286.434 139.786C286.434 138.536 286.704 137.428 287.242 136.462C287.796 135.497 288.547 134.745 289.497 134.207C290.462 133.653 291.547 133.376 292.749 133.376C293.968 133.376 295.044 133.645 295.978 134.183C296.912 134.721 297.64 135.481 298.162 136.462C298.7 137.428 298.97 138.559 298.97 139.857C298.97 139.952 298.962 140.063 298.946 140.189C298.946 140.316 298.938 140.435 298.922 140.546H288.215V138.907H297.735L296.809 139.477C296.825 138.67 296.659 137.95 296.311 137.317C295.962 136.684 295.48 136.193 294.862 135.845C294.261 135.481 293.557 135.299 292.749 135.299C291.958 135.299 291.254 135.481 290.637 135.845C290.019 136.193 289.537 136.692 289.188 137.341C288.84 137.974 288.666 138.702 288.666 139.525V139.905C288.666 140.743 288.856 141.495 289.236 142.16C289.632 142.809 290.178 143.315 290.874 143.679C291.57 144.043 292.37 144.225 293.272 144.225C294.016 144.225 294.688 144.099 295.29 143.846C295.907 143.592 296.445 143.212 296.904 142.706L298.162 144.178C297.593 144.843 296.88 145.349 296.026 145.697C295.187 146.045 294.245 146.22 293.201 146.22ZM305.743 146.22C304.698 146.22 303.701 146.077 302.751 145.792C301.818 145.507 301.082 145.159 300.544 144.748L301.493 142.943C302.031 143.307 302.696 143.616 303.487 143.869C304.279 144.123 305.086 144.249 305.909 144.249C306.969 144.249 307.729 144.099 308.188 143.798C308.663 143.497 308.9 143.078 308.9 142.54C308.9 142.144 308.758 141.835 308.473 141.614C308.188 141.392 307.808 141.226 307.333 141.115C306.874 141.005 306.36 140.91 305.79 140.83C305.221 140.736 304.651 140.625 304.081 140.498C303.511 140.356 302.989 140.166 302.514 139.928C302.039 139.675 301.659 139.335 301.375 138.907C301.09 138.464 300.947 137.879 300.947 137.151C300.947 136.391 301.161 135.726 301.588 135.156C302.016 134.587 302.617 134.151 303.392 133.851C304.184 133.534 305.118 133.376 306.194 133.376C307.017 133.376 307.848 133.479 308.687 133.685C309.541 133.874 310.238 134.151 310.776 134.515L309.802 136.32C309.233 135.94 308.639 135.679 308.022 135.536C307.405 135.394 306.787 135.323 306.17 135.323C305.173 135.323 304.429 135.489 303.939 135.821C303.448 136.138 303.203 136.549 303.203 137.056C303.203 137.483 303.345 137.815 303.63 138.053C303.931 138.274 304.31 138.449 304.769 138.575C305.244 138.702 305.767 138.813 306.336 138.907C306.906 138.987 307.476 139.097 308.046 139.24C308.615 139.366 309.13 139.548 309.589 139.786C310.064 140.023 310.443 140.356 310.728 140.783C311.029 141.21 311.179 141.78 311.179 142.492C311.179 143.252 310.958 143.909 310.515 144.463C310.072 145.017 309.446 145.452 308.639 145.769C307.832 146.069 306.867 146.22 305.743 146.22ZM318.349 146.22C317.082 146.22 316.101 145.879 315.405 145.199C314.708 144.518 314.36 143.545 314.36 142.279V130.741H316.639V142.184C316.639 142.864 316.805 143.387 317.138 143.751C317.486 144.115 317.977 144.297 318.61 144.297C319.322 144.297 319.915 144.099 320.39 143.703L321.102 145.341C320.754 145.642 320.335 145.863 319.844 146.006C319.369 146.148 318.871 146.22 318.349 146.22ZM312.223 135.37V133.495H320.248V135.37H312.223ZM330.233 146.077V133.495H332.513V146.077H330.233ZM331.373 131.073C330.93 131.073 330.558 130.931 330.257 130.646C329.972 130.361 329.83 130.013 329.83 129.601C329.83 129.174 329.972 128.818 330.257 128.533C330.558 128.248 330.93 128.106 331.373 128.106C331.816 128.106 332.18 128.248 332.465 128.533C332.766 128.802 332.916 129.142 332.916 129.554C332.916 129.981 332.774 130.345 332.489 130.646C332.204 130.931 331.832 131.073 331.373 131.073ZM343.583 133.376C344.611 133.376 345.514 133.574 346.289 133.969C347.08 134.365 347.698 134.967 348.141 135.774C348.584 136.581 348.806 137.602 348.806 138.836V146.077H346.527V139.097C346.527 137.879 346.226 136.961 345.624 136.344C345.039 135.726 344.208 135.418 343.132 135.418C342.324 135.418 341.62 135.576 341.019 135.892C340.417 136.209 339.95 136.676 339.618 137.293C339.301 137.91 339.143 138.678 339.143 139.596V146.077H336.864V133.495H339.048V136.89L338.692 135.987C339.104 135.164 339.737 134.523 340.591 134.064C341.446 133.605 342.443 133.376 343.583 133.376ZM356.632 146.22C355.587 146.22 354.59 146.077 353.641 145.792C352.707 145.507 351.971 145.159 351.433 144.748L352.382 142.943C352.921 143.307 353.585 143.616 354.377 143.869C355.168 144.123 355.975 144.249 356.798 144.249C357.859 144.249 358.618 144.099 359.077 143.798C359.552 143.497 359.79 143.078 359.79 142.54C359.79 142.144 359.647 141.835 359.362 141.614C359.077 141.392 358.697 141.226 358.223 141.115C357.764 141.005 357.249 140.91 356.68 140.83C356.11 140.736 355.54 140.625 354.97 140.498C354.4 140.356 353.878 140.166 353.403 139.928C352.929 139.675 352.549 139.335 352.264 138.907C351.979 138.464 351.836 137.879 351.836 137.151C351.836 136.391 352.05 135.726 352.477 135.156C352.905 134.587 353.506 134.151 354.282 133.851C355.073 133.534 356.007 133.376 357.083 133.376C357.906 133.376 358.737 133.479 359.576 133.685C360.431 133.874 361.127 134.151 361.665 134.515L360.692 136.32C360.122 135.94 359.528 135.679 358.911 135.536C358.294 135.394 357.677 135.323 357.059 135.323C356.062 135.323 355.318 135.489 354.828 135.821C354.337 136.138 354.092 136.549 354.092 137.056C354.092 137.483 354.234 137.815 354.519 138.053C354.82 138.274 355.2 138.449 355.659 138.575C356.134 138.702 356.656 138.813 357.226 138.907C357.795 138.987 358.365 139.097 358.935 139.24C359.505 139.366 360.019 139.548 360.478 139.786C360.953 140.023 361.333 140.356 361.618 140.783C361.918 141.21 362.069 141.78 362.069 142.492C362.069 143.252 361.847 143.909 361.404 144.463C360.961 145.017 360.336 145.452 359.528 145.769C358.721 146.069 357.756 146.22 356.632 146.22ZM364.917 146.077V133.495H367.196V146.077H364.917ZM366.057 131.073C365.613 131.073 365.241 130.931 364.941 130.646C364.656 130.361 364.513 130.013 364.513 129.601C364.513 129.174 364.656 128.818 364.941 128.533C365.241 128.248 365.613 128.106 366.057 128.106C366.5 128.106 366.864 128.248 367.149 128.533C367.449 128.802 367.6 129.142 367.6 129.554C367.6 129.981 367.457 130.345 367.172 130.646C366.887 130.931 366.516 131.073 366.057 131.073ZM377.055 150.825C375.9 150.825 374.776 150.659 373.684 150.327C372.608 150.01 371.73 149.551 371.049 148.95L372.141 147.193C372.727 147.699 373.447 148.095 374.302 148.38C375.156 148.681 376.05 148.831 376.984 148.831C378.472 148.831 379.564 148.483 380.26 147.786C380.957 147.09 381.305 146.03 381.305 144.605V141.946L381.542 139.454L381.424 136.937V133.495H383.584V144.368C383.584 146.584 383.03 148.214 381.922 149.258C380.814 150.303 379.192 150.825 377.055 150.825ZM376.771 145.555C375.552 145.555 374.46 145.302 373.494 144.795C372.545 144.273 371.785 143.553 371.215 142.635C370.661 141.717 370.384 140.656 370.384 139.454C370.384 138.235 370.661 137.174 371.215 136.272C371.785 135.354 372.545 134.642 373.494 134.136C374.46 133.629 375.552 133.376 376.771 133.376C377.847 133.376 378.828 133.598 379.714 134.041C380.601 134.468 381.305 135.133 381.827 136.035C382.365 136.937 382.635 138.077 382.635 139.454C382.635 140.815 382.365 141.946 381.827 142.848C381.305 143.751 380.601 144.431 379.714 144.89C378.828 145.333 377.847 145.555 376.771 145.555ZM377.032 143.561C377.871 143.561 378.614 143.387 379.263 143.038C379.912 142.69 380.419 142.207 380.783 141.59C381.163 140.973 381.353 140.261 381.353 139.454C381.353 138.646 381.163 137.934 380.783 137.317C380.419 136.7 379.912 136.225 379.263 135.892C378.614 135.544 377.871 135.37 377.032 135.37C376.193 135.37 375.441 135.544 374.776 135.892C374.127 136.225 373.613 136.7 373.233 137.317C372.869 137.934 372.687 138.646 372.687 139.454C372.687 140.261 372.869 140.973 373.233 141.59C373.613 142.207 374.127 142.69 374.776 143.038C375.441 143.387 376.193 143.561 377.032 143.561ZM394.657 133.376C395.686 133.376 396.588 133.574 397.364 133.969C398.155 134.365 398.772 134.967 399.216 135.774C399.659 136.581 399.88 137.602 399.88 138.836V146.077H397.601V139.097C397.601 137.879 397.301 136.961 396.699 136.344C396.114 135.726 395.283 135.418 394.206 135.418C393.399 135.418 392.695 135.576 392.093 135.892C391.492 136.209 391.025 136.676 390.693 137.293C390.376 137.91 390.218 138.678 390.218 139.596V146.077H387.939V128.462H390.218V136.89L389.767 135.987C390.178 135.164 390.811 134.523 391.666 134.064C392.521 133.605 393.518 133.376 394.657 133.376ZM408.419 146.22C407.153 146.22 406.172 145.879 405.475 145.199C404.779 144.518 404.431 143.545 404.431 142.279V130.741H406.71V142.184C406.71 142.864 406.876 143.387 407.208 143.751C407.556 144.115 408.047 144.297 408.68 144.297C409.392 144.297 409.986 144.099 410.461 143.703L411.173 145.341C410.825 145.642 410.405 145.863 409.915 146.006C409.44 146.148 408.941 146.22 408.419 146.22ZM402.294 135.37V133.495H410.318V135.37H402.294ZM417.537 146.22C416.492 146.22 415.495 146.077 414.546 145.792C413.612 145.507 412.876 145.159 412.338 144.748L413.287 142.943C413.825 143.307 414.49 143.616 415.282 143.869C416.073 144.123 416.88 144.249 417.703 144.249C418.763 144.249 419.523 144.099 419.982 143.798C420.457 143.497 420.694 143.078 420.694 142.54C420.694 142.144 420.552 141.835 420.267 141.614C419.982 141.392 419.602 141.226 419.127 141.115C418.669 141.005 418.154 140.91 417.584 140.83C417.015 140.736 416.445 140.625 415.875 140.498C415.305 140.356 414.783 140.166 414.308 139.928C413.833 139.675 413.453 139.335 413.169 138.907C412.884 138.464 412.741 137.879 412.741 137.151C412.741 136.391 412.955 135.726 413.382 135.156C413.81 134.587 414.411 134.151 415.187 133.851C415.978 133.534 416.912 133.376 417.988 133.376C418.811 133.376 419.642 133.479 420.481 133.685C421.335 133.874 422.032 134.151 422.57 134.515L421.597 136.32C421.027 135.94 420.433 135.679 419.816 135.536C419.199 135.394 418.581 135.323 417.964 135.323C416.967 135.323 416.223 135.489 415.733 135.821C415.242 136.138 414.997 136.549 414.997 137.056C414.997 137.483 415.139 137.815 415.424 138.053C415.725 138.274 416.105 138.449 416.564 138.575C417.038 138.702 417.561 138.813 418.13 138.907C418.7 138.987 419.27 139.097 419.84 139.24C420.409 139.366 420.924 139.548 421.383 139.786C421.858 140.023 422.238 140.356 422.522 140.783C422.823 141.21 422.973 141.78 422.973 142.492C422.973 143.252 422.752 143.909 422.309 144.463C421.866 145.017 421.24 145.452 420.433 145.769C419.626 146.069 418.661 146.22 417.537 146.22ZM432.197 146.077V133.495H434.477V146.077H432.197ZM433.337 131.073C432.894 131.073 432.522 130.931 432.221 130.646C431.936 130.361 431.794 130.013 431.794 129.601C431.794 129.174 431.936 128.818 432.221 128.533C432.522 128.248 432.894 128.106 433.337 128.106C433.78 128.106 434.144 128.248 434.429 128.533C434.73 128.802 434.88 129.142 434.88 129.554C434.88 129.981 434.738 130.345 434.453 130.646C434.168 130.931 433.796 131.073 433.337 131.073ZM445.547 133.376C446.575 133.376 447.478 133.574 448.253 133.969C449.044 134.365 449.662 134.967 450.105 135.774C450.548 136.581 450.77 137.602 450.77 138.836V146.077H448.491V139.097C448.491 137.879 448.19 136.961 447.588 136.344C447.003 135.726 446.172 135.418 445.096 135.418C444.288 135.418 443.584 135.576 442.983 135.892C442.381 136.209 441.914 136.676 441.582 137.293C441.265 137.91 441.107 138.678 441.107 139.596V146.077H438.828V133.495H441.012V136.89L440.656 135.987C441.068 135.164 441.701 134.523 442.555 134.064C443.41 133.605 444.407 133.376 445.547 133.376ZM459.308 146.22C458.042 146.22 457.061 145.879 456.364 145.199C455.668 144.518 455.32 143.545 455.32 142.279V130.741H457.599V142.184C457.599 142.864 457.765 143.387 458.097 143.751C458.446 144.115 458.936 144.297 459.569 144.297C460.282 144.297 460.875 144.099 461.35 143.703L462.062 145.341C461.714 145.642 461.295 145.863 460.804 146.006C460.329 146.148 459.831 146.22 459.308 146.22ZM453.183 135.37V133.495H461.208V135.37H453.183ZM469.789 146.22C468.523 146.22 467.399 145.943 466.418 145.389C465.437 144.835 464.661 144.075 464.092 143.11C463.522 142.128 463.237 141.02 463.237 139.786C463.237 138.536 463.522 137.428 464.092 136.462C464.661 135.497 465.437 134.745 466.418 134.207C467.399 133.653 468.523 133.376 469.789 133.376C471.04 133.376 472.155 133.653 473.137 134.207C474.134 134.745 474.909 135.497 475.463 136.462C476.033 137.412 476.318 138.52 476.318 139.786C476.318 141.036 476.033 142.144 475.463 143.11C474.909 144.075 474.134 144.835 473.137 145.389C472.155 145.943 471.04 146.22 469.789 146.22ZM469.789 144.225C470.597 144.225 471.317 144.043 471.95 143.679C472.599 143.315 473.105 142.801 473.469 142.136C473.833 141.456 474.015 140.672 474.015 139.786C474.015 138.884 473.833 138.108 473.469 137.459C473.105 136.795 472.599 136.28 471.95 135.916C471.317 135.552 470.597 135.37 469.789 135.37C468.982 135.37 468.262 135.552 467.629 135.916C466.996 136.28 466.489 136.795 466.11 137.459C465.73 138.108 465.54 138.884 465.54 139.786C465.54 140.672 465.73 141.456 466.11 142.136C466.489 142.801 466.996 143.315 467.629 143.679C468.262 144.043 468.982 144.225 469.789 144.225ZM486.392 150.825C485.79 150.825 485.205 150.722 484.635 150.517C484.065 150.327 483.574 150.042 483.163 149.662L484.136 147.953C484.453 148.253 484.801 148.483 485.181 148.641C485.561 148.799 485.964 148.879 486.392 148.879C486.946 148.879 487.405 148.736 487.769 148.451C488.133 148.166 488.473 147.66 488.789 146.932L489.573 145.199L489.81 144.914L494.748 133.495H496.98L490.879 147.335C490.515 148.222 490.103 148.918 489.644 149.425C489.201 149.931 488.71 150.287 488.172 150.493C487.634 150.714 487.041 150.825 486.392 150.825ZM489.383 146.481L483.638 133.495H486.012L490.902 144.7L489.383 146.481ZM504.148 146.22C502.882 146.22 501.758 145.943 500.777 145.389C499.796 144.835 499.02 144.075 498.451 143.11C497.881 142.128 497.596 141.02 497.596 139.786C497.596 138.536 497.881 137.428 498.451 136.462C499.02 135.497 499.796 134.745 500.777 134.207C501.758 133.653 502.882 133.376 504.148 133.376C505.399 133.376 506.514 133.653 507.496 134.207C508.493 134.745 509.268 135.497 509.822 136.462C510.392 137.412 510.677 138.52 510.677 139.786C510.677 141.036 510.392 142.144 509.822 143.11C509.268 144.075 508.493 144.835 507.496 145.389C506.514 145.943 505.399 146.22 504.148 146.22ZM504.148 144.225C504.955 144.225 505.676 144.043 506.309 143.679C506.958 143.315 507.464 142.801 507.828 142.136C508.192 141.456 508.374 140.672 508.374 139.786C508.374 138.884 508.192 138.108 507.828 137.459C507.464 136.795 506.958 136.28 506.309 135.916C505.676 135.552 504.955 135.37 504.148 135.37C503.341 135.37 502.621 135.552 501.988 135.916C501.355 136.28 500.848 136.795 500.469 137.459C500.089 138.108 499.899 138.884 499.899 139.786C499.899 140.672 500.089 141.456 500.469 142.136C500.848 142.801 501.355 143.315 501.988 143.679C502.621 144.043 503.341 144.225 504.148 144.225ZM519.123 146.22C518.047 146.22 517.097 146.022 516.274 145.626C515.467 145.23 514.834 144.629 514.375 143.822C513.932 142.999 513.71 141.97 513.71 140.736V133.495H515.989V140.474C515.989 141.709 516.282 142.635 516.868 143.252C517.469 143.869 518.308 144.178 519.384 144.178C520.176 144.178 520.864 144.02 521.45 143.703C522.035 143.371 522.486 142.896 522.803 142.279C523.119 141.646 523.278 140.886 523.278 140V133.495H525.557V146.077H523.396V142.682L523.752 143.584C523.341 144.423 522.724 145.072 521.901 145.531C521.078 145.99 520.152 146.22 519.123 146.22ZM529.896 146.077V133.495H532.08V136.913L531.866 136.059C532.214 135.188 532.8 134.523 533.623 134.064C534.446 133.605 535.459 133.376 536.662 133.376V135.584C536.567 135.568 536.472 135.56 536.377 135.56C536.298 135.56 536.218 135.56 536.139 135.56C534.921 135.56 533.955 135.924 533.243 136.652C532.531 137.38 532.175 138.433 532.175 139.81V146.077H529.896ZM51.5288 172.22C50.1835 172.22 48.9965 171.943 47.9677 171.389C46.9548 170.835 46.1634 170.075 45.5937 169.11C45.0397 168.144 44.7627 167.036 44.7627 165.786C44.7627 164.536 45.0318 163.428 45.5699 162.462C46.1239 161.497 46.8756 160.745 47.8253 160.207C48.7907 159.653 49.8749 159.376 51.0777 159.376C52.2964 159.376 53.3726 159.645 54.3064 160.183C55.2402 160.721 55.9683 161.481 56.4906 162.462C57.0287 163.428 57.2978 164.559 57.2978 165.857C57.2978 165.952 57.2898 166.063 57.274 166.189C57.274 166.316 57.2661 166.435 57.2503 166.546H46.5433V164.907H56.0632L55.1374 165.477C55.1532 164.67 54.987 163.95 54.6388 163.317C54.2906 162.684 53.8079 162.193 53.1906 161.845C52.5892 161.481 51.8849 161.299 51.0777 161.299C50.2864 161.299 49.5821 161.481 48.9648 161.845C48.3476 162.193 47.8648 162.692 47.5166 163.341C47.1684 163.974 46.9943 164.702 46.9943 165.525V165.905C46.9943 166.743 47.1843 167.495 47.5641 168.16C47.9598 168.809 48.5058 169.315 49.2022 169.679C49.8986 170.043 50.6979 170.225 51.6 170.225C52.3439 170.225 53.0165 170.099 53.618 169.846C54.2352 169.592 54.7733 169.212 55.2323 168.706L56.4906 170.178C55.9208 170.843 55.2086 171.349 54.3539 171.697C53.5151 172.045 52.5734 172.22 51.5288 172.22ZM76.2025 159.376C77.2154 159.376 78.1097 159.574 78.8852 159.969C79.6607 160.365 80.2621 160.967 80.6895 161.774C81.1326 162.581 81.3542 163.602 81.3542 164.836V172.077H79.0751V165.097C79.0751 163.879 78.7902 162.961 78.2205 162.344C77.6507 161.726 76.8514 161.418 75.8227 161.418C75.063 161.418 74.3982 161.576 73.8284 161.892C73.2587 162.209 72.8155 162.676 72.499 163.293C72.1983 163.91 72.0479 164.678 72.0479 165.596V172.077H69.7688V165.097C69.7688 163.879 69.4839 162.961 68.9141 162.344C68.3602 161.726 67.5609 161.418 66.5163 161.418C65.7725 161.418 65.1156 161.576 64.5459 161.892C63.9761 162.209 63.5329 162.676 63.2164 163.293C62.8999 163.91 62.7416 164.678 62.7416 165.596V172.077H60.4625V159.495H62.6466V162.842L62.2905 161.987C62.6862 161.164 63.2955 160.523 64.1185 160.064C64.9415 159.605 65.8991 159.376 66.9912 159.376C68.194 159.376 69.2307 159.677 70.1012 160.278C70.9717 160.864 71.5414 161.758 71.8105 162.961L70.8846 162.581C71.2645 161.615 71.9292 160.84 72.8788 160.254C73.8284 159.669 74.9363 159.376 76.2025 159.376ZM90.9369 172.22C89.6707 172.22 88.547 171.943 87.5657 171.389C86.5844 170.835 85.8089 170.075 85.2391 169.11C84.6694 168.128 84.3845 167.02 84.3845 165.786C84.3845 164.536 84.6694 163.428 85.2391 162.462C85.8089 161.497 86.5844 160.745 87.5657 160.207C88.547 159.653 89.6707 159.376 90.9369 159.376C92.1872 159.376 93.303 159.653 94.2843 160.207C95.2814 160.745 96.0569 161.497 96.6109 162.462C97.1806 163.412 97.4655 164.52 97.4655 165.786C97.4655 167.036 97.1806 168.144 96.6109 169.11C96.0569 170.075 95.2814 170.835 94.2843 171.389C93.303 171.943 92.1872 172.22 90.9369 172.22ZM90.9369 170.225C91.7441 170.225 92.4642 170.043 93.0973 169.679C93.7462 169.315 94.2526 168.801 94.6167 168.136C94.9807 167.456 95.1627 166.672 95.1627 165.786C95.1627 164.884 94.9807 164.108 94.6167 163.459C94.2526 162.795 93.7462 162.28 93.0973 161.916C92.4642 161.552 91.7441 161.37 90.9369 161.37C90.1297 161.37 89.4096 161.552 88.7765 161.916C88.1434 162.28 87.6369 162.795 87.2571 163.459C86.8772 164.108 86.6873 164.884 86.6873 165.786C86.6873 166.672 86.8772 167.456 87.2571 168.136C87.6369 168.801 88.1434 169.315 88.7765 169.679C89.4096 170.043 90.1297 170.225 90.9369 170.225ZM104.938 172.22C103.672 172.22 102.691 171.879 101.994 171.199C101.298 170.518 100.95 169.545 100.95 168.279V156.741H103.229V168.184C103.229 168.864 103.395 169.387 103.727 169.751C104.076 170.115 104.566 170.297 105.199 170.297C105.912 170.297 106.505 170.099 106.98 169.703L107.692 171.341C107.344 171.642 106.925 171.863 106.434 172.006C105.959 172.148 105.461 172.22 104.938 172.22ZM98.8132 161.37V159.495H106.838V161.37H98.8132ZM110.448 172.077V159.495H112.727V172.077H110.448ZM111.587 157.073C111.144 157.073 110.772 156.931 110.471 156.646C110.186 156.361 110.044 156.013 110.044 155.601C110.044 155.174 110.186 154.818 110.471 154.533C110.772 154.248 111.144 154.106 111.587 154.106C112.03 154.106 112.394 154.248 112.679 154.533C112.98 154.802 113.13 155.142 113.13 155.554C113.13 155.981 112.988 156.345 112.703 156.646C112.418 156.931 112.046 157.073 111.587 157.073ZM122.467 172.22C121.201 172.22 120.077 171.943 119.096 171.389C118.115 170.835 117.339 170.075 116.77 169.11C116.2 168.128 115.915 167.02 115.915 165.786C115.915 164.536 116.2 163.428 116.77 162.462C117.339 161.497 118.115 160.745 119.096 160.207C120.077 159.653 121.201 159.376 122.467 159.376C123.718 159.376 124.833 159.653 125.815 160.207C126.812 160.745 127.587 161.497 128.141 162.462C128.711 163.412 128.996 164.52 128.996 165.786C128.996 167.036 128.711 168.144 128.141 169.11C127.587 170.075 126.812 170.835 125.815 171.389C124.833 171.943 123.718 172.22 122.467 172.22ZM122.467 170.225C123.275 170.225 123.995 170.043 124.628 169.679C125.277 169.315 125.783 168.801 126.147 168.136C126.511 167.456 126.693 166.672 126.693 165.786C126.693 164.884 126.511 164.108 126.147 163.459C125.783 162.795 125.277 162.28 124.628 161.916C123.995 161.552 123.275 161.37 122.467 161.37C121.66 161.37 120.94 161.552 120.307 161.916C119.674 162.28 119.167 162.795 118.788 163.459C118.408 164.108 118.218 164.884 118.218 165.786C118.218 166.672 118.408 167.456 118.788 168.136C119.167 168.801 119.674 169.315 120.307 169.679C120.94 170.043 121.66 170.225 122.467 170.225ZM138.867 159.376C139.895 159.376 140.797 159.574 141.573 159.969C142.364 160.365 142.982 160.967 143.425 161.774C143.868 162.581 144.089 163.602 144.089 164.836V172.077H141.81V165.097C141.81 163.879 141.51 162.961 140.908 162.344C140.323 161.726 139.492 161.418 138.415 161.418C137.608 161.418 136.904 161.576 136.303 161.892C135.701 162.209 135.234 162.676 134.902 163.293C134.585 163.91 134.427 164.678 134.427 165.596V172.077H132.148V159.495H134.332V162.89L133.976 161.987C134.387 161.164 135.021 160.523 135.875 160.064C136.73 159.605 137.727 159.376 138.867 159.376ZM156.118 172.077V169.418L155.999 168.92V164.385C155.999 163.42 155.714 162.676 155.145 162.154C154.591 161.615 153.752 161.346 152.628 161.346C151.884 161.346 151.156 161.473 150.444 161.726C149.732 161.964 149.13 162.288 148.64 162.7L147.69 160.99C148.339 160.468 149.114 160.072 150.017 159.803C150.935 159.518 151.892 159.376 152.889 159.376C154.614 159.376 155.944 159.795 156.878 160.634C157.811 161.473 158.278 162.755 158.278 164.48V172.077H156.118ZM151.987 172.22C151.053 172.22 150.23 172.061 149.518 171.745C148.822 171.428 148.284 170.993 147.904 170.439C147.524 169.869 147.334 169.228 147.334 168.516C147.334 167.835 147.492 167.218 147.809 166.664C148.141 166.11 148.671 165.667 149.399 165.335C150.143 165.002 151.14 164.836 152.391 164.836H156.379V166.474H152.486C151.346 166.474 150.578 166.664 150.183 167.044C149.787 167.424 149.589 167.883 149.589 168.421C149.589 169.038 149.835 169.537 150.325 169.917C150.816 170.281 151.496 170.463 152.367 170.463C153.222 170.463 153.965 170.273 154.599 169.893C155.247 169.513 155.714 168.959 155.999 168.231L156.45 169.798C156.15 170.542 155.619 171.135 154.86 171.579C154.1 172.006 153.142 172.22 151.987 172.22ZM162.496 172.077V154.462H164.775V172.077H162.496ZM182.173 172.22C181.129 172.22 180.171 171.982 179.301 171.507C178.446 171.017 177.758 170.297 177.235 169.347C176.729 168.397 176.476 167.21 176.476 165.786C176.476 164.361 176.721 163.174 177.212 162.225C177.718 161.275 178.399 160.563 179.253 160.088C180.124 159.613 181.097 159.376 182.173 159.376C183.408 159.376 184.5 159.645 185.45 160.183C186.399 160.721 187.151 161.473 187.705 162.438C188.259 163.388 188.536 164.504 188.536 165.786C188.536 167.068 188.259 168.192 187.705 169.157C187.151 170.123 186.399 170.874 185.45 171.412C184.5 171.951 183.408 172.22 182.173 172.22ZM175.502 176.683V159.495H177.686V162.89L177.544 165.81L177.781 168.73V176.683H175.502ZM181.984 170.225C182.791 170.225 183.511 170.043 184.144 169.679C184.793 169.315 185.299 168.801 185.663 168.136C186.043 167.456 186.233 166.672 186.233 165.786C186.233 164.884 186.043 164.108 185.663 163.459C185.299 162.795 184.793 162.28 184.144 161.916C183.511 161.552 182.791 161.37 181.984 161.37C181.192 161.37 180.472 161.552 179.823 161.916C179.19 162.28 178.684 162.795 178.304 163.459C177.94 164.108 177.758 164.884 177.758 165.786C177.758 166.672 177.94 167.456 178.304 168.136C178.684 168.801 179.19 169.315 179.823 169.679C180.472 170.043 181.192 170.225 181.984 170.225ZM199.38 172.077V169.418L199.261 168.92V164.385C199.261 163.42 198.976 162.676 198.406 162.154C197.852 161.615 197.013 161.346 195.89 161.346C195.146 161.346 194.418 161.473 193.706 161.726C192.993 161.964 192.392 162.288 191.901 162.7L190.952 160.99C191.601 160.468 192.376 160.072 193.278 159.803C194.196 159.518 195.154 159.376 196.151 159.376C197.876 159.376 199.206 159.795 200.139 160.634C201.073 161.473 201.54 162.755 201.54 164.48V172.077H199.38ZM195.249 172.22C194.315 172.22 193.492 172.061 192.78 171.745C192.083 171.428 191.545 170.993 191.165 170.439C190.786 169.869 190.596 169.228 190.596 168.516C190.596 167.835 190.754 167.218 191.07 166.664C191.403 166.11 191.933 165.667 192.661 165.335C193.405 165.002 194.402 164.836 195.652 164.836H199.641V166.474H195.747C194.608 166.474 193.84 166.664 193.444 167.044C193.049 167.424 192.851 167.883 192.851 168.421C192.851 169.038 193.096 169.537 193.587 169.917C194.078 170.281 194.758 170.463 195.629 170.463C196.483 170.463 197.227 170.273 197.86 169.893C198.509 169.513 198.976 168.959 199.261 168.231L199.712 169.798C199.411 170.542 198.881 171.135 198.121 171.579C197.362 172.006 196.404 172.22 195.249 172.22ZM210.078 172.22C208.812 172.22 207.831 171.879 207.135 171.199C206.438 170.518 206.09 169.545 206.09 168.279V156.741H208.369V168.184C208.369 168.864 208.535 169.387 208.868 169.751C209.216 170.115 209.707 170.297 210.34 170.297C211.052 170.297 211.645 170.099 212.12 169.703L212.832 171.341C212.484 171.642 212.065 171.863 211.574 172.006C211.099 172.148 210.601 172.22 210.078 172.22ZM203.953 161.37V159.495H211.978V161.37H203.953ZM219.607 172.22C218.341 172.22 217.36 171.879 216.663 171.199C215.967 170.518 215.619 169.545 215.619 168.279V156.741H217.898V168.184C217.898 168.864 218.064 169.387 218.396 169.751C218.745 170.115 219.235 170.297 219.868 170.297C220.581 170.297 221.174 170.099 221.649 169.703L222.361 171.341C222.013 171.642 221.593 171.863 221.103 172.006C220.628 172.148 220.129 172.22 219.607 172.22ZM213.482 161.37V159.495H221.506V161.37H213.482ZM230.302 172.22C228.957 172.22 227.77 171.943 226.741 171.389C225.728 170.835 224.937 170.075 224.367 169.11C223.813 168.144 223.536 167.036 223.536 165.786C223.536 164.536 223.805 163.428 224.343 162.462C224.897 161.497 225.649 160.745 226.598 160.207C227.564 159.653 228.648 159.376 229.851 159.376C231.07 159.376 232.146 159.645 233.08 160.183C234.013 160.721 234.741 161.481 235.264 162.462C235.802 163.428 236.071 164.559 236.071 165.857C236.071 165.952 236.063 166.063 236.047 166.189C236.047 166.316 236.039 166.435 236.023 166.546H225.316V164.907H234.836L233.91 165.477C233.926 164.67 233.76 163.95 233.412 163.317C233.064 162.684 232.581 162.193 231.964 161.845C231.362 161.481 230.658 161.299 229.851 161.299C229.059 161.299 228.355 161.481 227.738 161.845C227.121 162.193 226.638 162.692 226.29 163.341C225.942 163.974 225.767 164.702 225.767 165.525V165.905C225.767 166.743 225.957 167.495 226.337 168.16C226.733 168.809 227.279 169.315 227.975 169.679C228.672 170.043 229.471 170.225 230.373 170.225C231.117 170.225 231.79 170.099 232.391 169.846C233.008 169.592 233.546 169.212 234.005 168.706L235.264 170.178C234.694 170.843 233.982 171.349 233.127 171.697C232.288 172.045 231.347 172.22 230.302 172.22ZM239.236 172.077V159.495H241.42V162.913L241.206 162.059C241.554 161.188 242.14 160.523 242.963 160.064C243.786 159.605 244.799 159.376 246.002 159.376V161.584C245.907 161.568 245.812 161.56 245.717 161.56C245.638 161.56 245.559 161.56 245.479 161.56C244.261 161.56 243.295 161.924 242.583 162.652C241.871 163.38 241.515 164.433 241.515 165.81V172.077H239.236ZM255.529 159.376C256.558 159.376 257.46 159.574 258.236 159.969C259.027 160.365 259.644 160.967 260.087 161.774C260.531 162.581 260.752 163.602 260.752 164.836V172.077H258.473V165.097C258.473 163.879 258.172 162.961 257.571 162.344C256.985 161.726 256.154 161.418 255.078 161.418C254.271 161.418 253.567 161.576 252.965 161.892C252.364 162.209 251.897 162.676 251.565 163.293C251.248 163.91 251.09 164.678 251.09 165.596V172.077H248.811V159.495H250.995V162.89L250.639 161.987C251.05 161.164 251.683 160.523 252.538 160.064C253.393 159.605 254.39 159.376 255.529 159.376ZM268.579 172.22C267.534 172.22 266.537 172.077 265.587 171.792C264.653 171.507 263.918 171.159 263.379 170.748L264.329 168.943C264.867 169.307 265.532 169.616 266.323 169.869C267.115 170.123 267.922 170.249 268.745 170.249C269.805 170.249 270.565 170.099 271.024 169.798C271.499 169.497 271.736 169.078 271.736 168.54C271.736 168.144 271.594 167.835 271.309 167.614C271.024 167.392 270.644 167.226 270.169 167.115C269.71 167.005 269.196 166.91 268.626 166.83C268.056 166.736 267.487 166.625 266.917 166.498C266.347 166.356 265.825 166.166 265.35 165.928C264.875 165.675 264.495 165.335 264.21 164.907C263.925 164.464 263.783 163.879 263.783 163.151C263.783 162.391 263.997 161.726 264.424 161.156C264.851 160.587 265.453 160.151 266.228 159.851C267.02 159.534 267.953 159.376 269.03 159.376C269.853 159.376 270.684 159.479 271.522 159.685C272.377 159.874 273.073 160.151 273.612 160.515L272.638 162.32C272.068 161.94 271.475 161.679 270.858 161.536C270.24 161.394 269.623 161.323 269.006 161.323C268.009 161.323 267.265 161.489 266.774 161.821C266.284 162.138 266.038 162.549 266.038 163.056C266.038 163.483 266.181 163.815 266.466 164.053C266.766 164.274 267.146 164.449 267.605 164.575C268.08 164.702 268.602 164.813 269.172 164.907C269.742 164.987 270.312 165.097 270.881 165.24C271.451 165.366 271.966 165.548 272.425 165.786C272.899 166.023 273.279 166.356 273.564 166.783C273.865 167.21 274.015 167.78 274.015 168.492C274.015 169.252 273.794 169.909 273.35 170.463C272.907 171.017 272.282 171.452 271.475 171.769C270.668 172.069 269.702 172.22 268.579 172.22ZM277.41 172.22C276.966 172.22 276.587 172.069 276.27 171.769C275.953 171.452 275.795 171.056 275.795 170.581C275.795 170.107 275.953 169.719 276.27 169.418C276.587 169.117 276.966 168.967 277.41 168.967C277.837 168.967 278.201 169.117 278.502 169.418C278.818 169.719 278.976 170.107 278.976 170.581C278.976 171.056 278.818 171.452 278.502 171.769C278.201 172.069 277.837 172.22 277.41 172.22Z" fill="black"/>
<path d="M476.971 47.9528C458.254 48.4293 449.53 33.0638 447.508 25.3214H572.291L576.624 67.6065C562.759 73.562 546.295 69.3931 539.362 61.0553C530.697 49.7395 530.119 45.372 522.032 42.5927C506.087 39.734 492.569 47.5558 476.971 47.9528Z" fill="#00A384"/>
<defs>
<filter id="filter0_dd_895_12" x="0" y="0" width="598.872" height="243.292" filterUnits="userSpaceOnUse" color-interpolation-filters="sRGB">
<feFlood flood-opacity="0" result="BackgroundImageFix"/>
<feColorMatrix in="SourceAlpha" type="matrix" values="0 0 0 0 0 0 0 0 0 0 0 0 0 0 0 0 0 0 127 0" result="hardAlpha"/>
<feOffset dx="2" dy="2"/>
<feGaussianBlur stdDeviation="5"/>
<feComposite in2="hardAlpha" operator="out"/>
<feColorMatrix type="matrix" values="0 0 0 0 0 0 0 0 0 0 0 0 0 0 0 0 0 0 0.25 0"/>
<feBlend mode="normal" in2="BackgroundImageFix" result="effect1_dropShadow_895_12"/>
<feColorMatrix in="SourceAlpha" type="matrix" values="0 0 0 0 0 0 0 0 0 0 0 0 0 0 0 0 0 0 127 0" result="hardAlpha"/>
<feOffset dx="-2" dy="-2"/>
<feGaussianBlur stdDeviation="5"/>
<feComposite in2="hardAlpha" operator="out"/>
<feColorMatrix type="matrix" values="0 0 0 0 0 0 0 0 0 0 0 0 0 0 0 0 0 0 0.25 0"/>
<feBlend mode="normal" in2="effect1_dropShadow_895_12" result="effect2_dropShadow_895_12"/>
<feBlend mode="normal" in="SourceGraphic" in2="effect2_dropShadow_895_12" result="shape"/>
</filter>
</defs>
</svg>
