<svg width="599" height="244" viewBox="0 0 599 244" fill="none" xmlns="http://www.w3.org/2000/svg">
<g filter="url(#filter0_dd_895_11)">
<rect x="12" y="12" width="574.872" height="219.292" rx="24.6044" fill="#FFB950"/>
<rect x="25.3213" y="25.7058" width="548.229" height="191.88" rx="23.6238" fill="white"/>
</g>
<path d="M39.3285 71.0356V45.494H45.8503V48.2228H42.7395V68.3068H45.8503V71.0356H39.3285ZM54.9266 66.0146C53.4167 66.0146 52.0523 65.6325 50.8334 64.8685C49.6327 64.1044 48.6867 62.9947 47.9954 61.5393C47.3041 60.0658 46.9585 58.283 46.9585 56.1909C46.9585 54.0988 47.3041 52.3251 47.9954 50.8697C48.6867 49.3962 49.6327 48.2774 50.8334 47.5133C52.0523 46.7492 53.4167 46.3672 54.9266 46.3672C56.4547 46.3672 57.8191 46.7492 59.0198 47.5133C60.2205 48.2774 61.1665 49.3962 61.8578 50.8697C62.5673 52.3251 62.922 54.0988 62.922 56.1909C62.922 58.283 62.5673 60.0658 61.8578 61.5393C61.1665 62.9947 60.2205 64.1044 59.0198 64.8685C57.8191 65.6325 56.4547 66.0146 54.9266 66.0146ZM54.9266 62.931C55.818 62.931 56.5912 62.6945 57.2461 62.2215C57.901 61.7304 58.4104 60.9845 58.7742 59.9839C59.1562 58.9834 59.3473 57.719 59.3473 56.1909C59.3473 54.6446 59.1562 53.3802 58.7742 52.3979C58.4104 51.3973 57.901 50.6605 57.2461 50.1875C56.5912 49.6963 55.818 49.4507 54.9266 49.4507C54.0716 49.4507 53.3075 49.6963 52.6344 50.1875C51.9795 50.6605 51.461 51.3973 51.079 52.3979C50.7152 53.3802 50.5332 54.6446 50.5332 56.1909C50.5332 57.719 50.7152 58.9834 51.079 59.9839C51.461 60.9845 51.9795 61.7304 52.6344 62.2215C53.3075 62.6945 54.0716 62.931 54.9266 62.931ZM64.5013 65.7417V63.3676L72.0874 56.1636C72.7241 55.5633 73.1971 55.0357 73.5063 54.5809C73.8156 54.1261 74.0157 53.7077 74.1067 53.3256C74.2158 52.9254 74.2704 52.5525 74.2704 52.2068C74.2704 51.3336 73.9702 50.6605 73.3699 50.1875C72.7696 49.6963 71.8873 49.4507 70.723 49.4507C69.7952 49.4507 68.9492 49.6145 68.1852 49.9419C67.4393 50.2694 66.7935 50.7697 66.2477 51.4428L63.7645 49.5326C64.5104 48.532 65.5109 47.7589 66.7662 47.2131C68.0396 46.6492 69.4586 46.3672 71.0231 46.3672C72.4057 46.3672 73.6064 46.5946 74.6252 47.0494C75.6621 47.486 76.4534 48.1136 76.9992 48.9323C77.5632 49.7509 77.8451 50.7242 77.8451 51.8521C77.8451 52.4706 77.7633 53.0891 77.5995 53.7077C77.4358 54.308 77.1266 54.9447 76.6718 55.6178C76.217 56.2909 75.5529 57.0459 74.6797 57.8827L68.1579 64.0771L67.4211 62.74H78.5819V65.7417H64.5013ZM85.8414 71.0356H79.3468V68.3068H82.4304V48.2228H79.3468V45.494H85.8414V71.0356Z" fill="black"/>
<path d="M45.148 120.077V113.715L45.694 115.187L38.5481 103.459H41.0883L47.0947 113.359H45.7178L51.7479 103.459H54.0982L46.976 115.187L47.4983 113.715V120.077H45.148ZM60.3631 120.22C59.0178 120.22 57.8308 119.943 56.802 119.389C55.7891 118.835 54.9977 118.075 54.428 117.11C53.874 116.144 53.597 115.036 53.597 113.786C53.597 112.536 53.8661 111.428 54.4042 110.462C54.9582 109.497 55.71 108.745 56.6596 108.207C57.625 107.653 58.7092 107.376 59.912 107.376C61.1307 107.376 62.207 107.645 63.1408 108.183C64.0746 108.721 64.8026 109.481 65.3249 110.462C65.863 111.428 66.1321 112.559 66.1321 113.857C66.1321 113.952 66.1242 114.063 66.1083 114.189C66.1083 114.316 66.1004 114.435 66.0846 114.546H55.3776V112.907H64.8976L63.9717 113.477C63.9875 112.67 63.8213 111.95 63.4731 111.317C63.1249 110.684 62.6422 110.193 62.0249 109.845C61.4235 109.481 60.7192 109.299 59.912 109.299C59.1207 109.299 58.4164 109.481 57.7991 109.845C57.1819 110.193 56.6991 110.692 56.3509 111.341C56.0028 111.974 55.8287 112.702 55.8287 113.525V113.905C55.8287 114.743 56.0186 115.495 56.3984 116.16C56.7941 116.809 57.3401 117.315 58.0365 117.679C58.7329 118.043 59.5322 118.225 60.4343 118.225C61.1782 118.225 61.8509 118.099 62.4523 117.846C63.0695 117.592 63.6077 117.212 64.0666 116.706L65.3249 118.178C64.7551 118.843 64.0429 119.349 63.1882 119.697C62.3494 120.045 61.4077 120.22 60.3631 120.22ZM72.9054 120.22C71.8608 120.22 70.8637 120.077 69.9141 119.792C68.9803 119.507 68.2443 119.159 67.7062 118.748L68.6558 116.943C69.1939 117.307 69.8587 117.616 70.65 117.869C71.4414 118.123 72.2485 118.249 73.0716 118.249C74.132 118.249 74.8917 118.099 75.3507 117.798C75.8255 117.497 76.0629 117.078 76.0629 116.54C76.0629 116.144 75.9204 115.835 75.6355 115.614C75.3507 115.392 74.9708 115.226 74.496 115.115C74.037 115.005 73.5226 114.91 72.9529 114.83C72.3831 114.736 71.8133 114.625 71.2435 114.498C70.6738 114.356 70.1515 114.166 69.6767 113.928C69.2018 113.675 68.822 113.335 68.5371 112.907C68.2522 112.464 68.1098 111.879 68.1098 111.151C68.1098 110.391 68.3234 109.726 68.7508 109.156C69.1781 108.587 69.7795 108.151 70.5551 107.851C71.3464 107.534 72.2802 107.376 73.3564 107.376C74.1795 107.376 75.0104 107.479 75.8492 107.685C76.7039 107.874 77.4003 108.151 77.9384 108.515L76.965 110.32C76.3952 109.94 75.8017 109.679 75.1845 109.536C74.5672 109.394 73.95 109.323 73.3327 109.323C72.3356 109.323 71.5917 109.489 71.1011 109.821C70.6104 110.138 70.3651 110.549 70.3651 111.056C70.3651 111.483 70.5076 111.815 70.7925 112.053C71.0932 112.274 71.473 112.449 71.932 112.575C72.4068 112.702 72.9291 112.813 73.4989 112.907C74.0687 112.987 74.6384 113.097 75.2082 113.24C75.778 113.366 76.2924 113.548 76.7513 113.786C77.2262 114.023 77.606 114.356 77.8909 114.783C78.1916 115.21 78.342 115.78 78.342 116.492C78.342 117.252 78.1204 117.909 77.6772 118.463C77.2341 119.017 76.6089 119.452 75.8017 119.769C74.9945 120.069 74.0291 120.22 72.9054 120.22ZM80.2881 123.591L81.4752 118.795L81.7838 120.172C81.3248 120.172 80.937 120.03 80.6205 119.745C80.3198 119.46 80.1694 119.072 80.1694 118.581C80.1694 118.107 80.3198 117.719 80.6205 117.418C80.937 117.117 81.3169 116.967 81.7601 116.967C82.219 116.967 82.591 117.125 82.8759 117.442C83.1607 117.743 83.3032 118.123 83.3032 118.581C83.3032 118.74 83.2874 118.898 83.2557 119.056C83.2399 119.199 83.2003 119.373 83.137 119.579C83.0895 119.769 83.0104 120.006 82.8996 120.291L81.7838 123.591H80.2881ZM93.4907 124.825C92.8893 124.825 92.3037 124.722 91.7339 124.517C91.1641 124.327 90.6735 124.042 90.262 123.662L91.2353 121.953C91.5519 122.253 91.9001 122.483 92.2799 122.641C92.6598 122.799 93.0634 122.879 93.4907 122.879C94.0446 122.879 94.5036 122.736 94.8676 122.451C95.2317 122.166 95.5719 121.66 95.8885 120.932L96.6719 119.199L96.9093 118.914L101.847 107.495H104.079L97.9777 121.335C97.6136 122.222 97.2021 122.918 96.7431 123.425C96.3 123.931 95.8094 124.287 95.2712 124.493C94.7331 124.714 94.1396 124.825 93.4907 124.825ZM96.482 120.481L90.7368 107.495H93.1108L98.0014 118.7L96.482 120.481ZM111.247 120.22C109.981 120.22 108.857 119.943 107.876 119.389C106.895 118.835 106.119 118.075 105.55 117.11C104.98 116.128 104.695 115.02 104.695 113.786C104.695 112.536 104.98 111.428 105.55 110.462C106.119 109.497 106.895 108.745 107.876 108.207C108.857 107.653 109.981 107.376 111.247 107.376C112.498 107.376 113.613 107.653 114.595 108.207C115.592 108.745 116.367 109.497 116.921 110.462C117.491 111.412 117.776 112.52 117.776 113.786C117.776 115.036 117.491 116.144 116.921 117.11C116.367 118.075 115.592 118.835 114.595 119.389C113.613 119.943 112.498 120.22 111.247 120.22ZM111.247 118.225C112.055 118.225 112.775 118.043 113.408 117.679C114.057 117.315 114.563 116.801 114.927 116.136C115.291 115.456 115.473 114.672 115.473 113.786C115.473 112.884 115.291 112.108 114.927 111.459C114.563 110.795 114.057 110.28 113.408 109.916C112.775 109.552 112.055 109.37 111.247 109.37C110.44 109.37 109.72 109.552 109.087 109.916C108.454 110.28 107.947 110.795 107.568 111.459C107.188 112.108 106.998 112.884 106.998 113.786C106.998 114.672 107.188 115.456 107.568 116.136C107.947 116.801 108.454 117.315 109.087 117.679C109.72 118.043 110.44 118.225 111.247 118.225ZM126.222 120.22C125.146 120.22 124.196 120.022 123.373 119.626C122.566 119.23 121.933 118.629 121.474 117.822C121.031 116.999 120.809 115.97 120.809 114.736V107.495H123.088V114.474C123.088 115.709 123.381 116.635 123.967 117.252C124.568 117.869 125.407 118.178 126.483 118.178C127.275 118.178 127.963 118.02 128.549 117.703C129.134 117.371 129.585 116.896 129.902 116.279C130.218 115.646 130.377 114.886 130.377 114V107.495H132.656V120.077H130.495V116.682L130.852 117.584C130.44 118.423 129.823 119.072 129 119.531C128.177 119.99 127.251 120.22 126.222 120.22ZM136.995 120.077V107.495H139.179V110.913L138.965 110.059C139.313 109.188 139.899 108.523 140.722 108.064C141.545 107.605 142.558 107.376 143.761 107.376V109.584C143.666 109.568 143.571 109.56 143.476 109.56C143.397 109.56 143.317 109.56 143.238 109.56C142.02 109.56 141.054 109.924 140.342 110.652C139.63 111.38 139.274 112.433 139.274 113.81V120.077H136.995ZM158.307 120.22C157.088 120.22 155.996 119.951 155.031 119.412C154.081 118.874 153.329 118.123 152.775 117.157C152.221 116.192 151.944 115.068 151.944 113.786C151.944 112.504 152.221 111.388 152.775 110.438C153.329 109.473 154.081 108.721 155.031 108.183C155.996 107.645 157.088 107.376 158.307 107.376C159.367 107.376 160.325 107.613 161.179 108.088C162.034 108.563 162.715 109.275 163.221 110.225C163.743 111.174 164.004 112.361 164.004 113.786C164.004 115.21 163.751 116.397 163.245 117.347C162.754 118.297 162.082 119.017 161.227 119.507C160.372 119.982 159.399 120.22 158.307 120.22ZM158.497 118.225C159.288 118.225 160 118.043 160.633 117.679C161.282 117.315 161.789 116.801 162.153 116.136C162.533 115.456 162.723 114.672 162.723 113.786C162.723 112.884 162.533 112.108 162.153 111.459C161.789 110.795 161.282 110.28 160.633 109.916C160 109.552 159.288 109.37 158.497 109.37C157.69 109.37 156.969 109.552 156.336 109.916C155.703 110.28 155.197 110.795 154.817 111.459C154.437 112.108 154.247 112.884 154.247 113.786C154.247 114.672 154.437 115.456 154.817 116.136C155.197 116.801 155.703 117.315 156.336 117.679C156.969 118.043 157.69 118.225 158.497 118.225ZM162.794 120.077V116.682L162.936 113.762L162.699 110.842V102.462H164.978V120.077H162.794ZM177.101 120.077V117.418L176.982 116.92V112.385C176.982 111.42 176.697 110.676 176.127 110.154C175.573 109.615 174.735 109.346 173.611 109.346C172.867 109.346 172.139 109.473 171.427 109.726C170.715 109.964 170.113 110.288 169.622 110.7L168.673 108.99C169.322 108.468 170.097 108.072 170.999 107.803C171.917 107.518 172.875 107.376 173.872 107.376C175.597 107.376 176.927 107.795 177.86 108.634C178.794 109.473 179.261 110.755 179.261 112.48V120.077H177.101ZM172.97 120.22C172.036 120.22 171.213 120.061 170.501 119.745C169.804 119.428 169.266 118.993 168.887 118.439C168.507 117.869 168.317 117.228 168.317 116.516C168.317 115.835 168.475 115.218 168.792 114.664C169.124 114.11 169.654 113.667 170.382 113.335C171.126 113.002 172.123 112.836 173.373 112.836H177.362V114.474H173.468C172.329 114.474 171.561 114.664 171.166 115.044C170.77 115.424 170.572 115.883 170.572 116.421C170.572 117.038 170.817 117.537 171.308 117.917C171.799 118.281 172.479 118.463 173.35 118.463C174.204 118.463 174.948 118.273 175.581 117.893C176.23 117.513 176.697 116.959 176.982 116.231L177.433 117.798C177.132 118.542 176.602 119.135 175.843 119.579C175.083 120.006 174.125 120.22 172.97 120.22ZM187.8 120.22C186.533 120.22 185.552 119.879 184.856 119.199C184.159 118.518 183.811 117.545 183.811 116.279V104.741H186.09V116.184C186.09 116.864 186.256 117.387 186.589 117.751C186.937 118.115 187.428 118.297 188.061 118.297C188.773 118.297 189.366 118.099 189.841 117.703L190.554 119.341C190.205 119.642 189.786 119.863 189.295 120.006C188.82 120.148 188.322 120.22 187.8 120.22ZM181.675 109.37V107.495H189.699V109.37H181.675ZM201.12 120.077V117.418L201.001 116.92V112.385C201.001 111.42 200.716 110.676 200.146 110.154C199.592 109.615 198.753 109.346 197.63 109.346C196.886 109.346 196.158 109.473 195.446 109.726C194.733 109.964 194.132 110.288 193.641 110.7L192.692 108.99C193.341 108.468 194.116 108.072 195.018 107.803C195.936 107.518 196.894 107.376 197.891 107.376C199.616 107.376 200.945 107.795 201.879 108.634C202.813 109.473 203.28 110.755 203.28 112.48V120.077H201.12ZM196.989 120.22C196.055 120.22 195.232 120.061 194.52 119.745C193.823 119.428 193.285 118.993 192.905 118.439C192.525 117.869 192.336 117.228 192.336 116.516C192.336 115.835 192.494 115.218 192.81 114.664C193.143 114.11 193.673 113.667 194.401 113.335C195.145 113.002 196.142 112.836 197.392 112.836H201.381V114.474H197.487C196.348 114.474 195.58 114.664 195.184 115.044C194.789 115.424 194.591 115.883 194.591 116.421C194.591 117.038 194.836 117.537 195.327 117.917C195.817 118.281 196.498 118.463 197.369 118.463C198.223 118.463 198.967 118.273 199.6 117.893C200.249 117.513 200.716 116.959 201.001 116.231L201.452 117.798C201.151 118.542 200.621 119.135 199.861 119.579C199.102 120.006 198.144 120.22 196.989 120.22ZM213.873 120.077V107.495H216.152V120.077H213.873ZM215.013 105.073C214.57 105.073 214.198 104.931 213.897 104.646C213.612 104.361 213.47 104.013 213.47 103.601C213.47 103.174 213.612 102.818 213.897 102.533C214.198 102.248 214.57 102.106 215.013 102.106C215.456 102.106 215.82 102.248 216.105 102.533C216.406 102.802 216.556 103.142 216.556 103.554C216.556 103.981 216.414 104.345 216.129 104.646C215.844 104.931 215.472 105.073 215.013 105.073ZM224.113 120.22C223.068 120.22 222.071 120.077 221.121 119.792C220.187 119.507 219.451 119.159 218.913 118.748L219.863 116.943C220.401 117.307 221.066 117.616 221.857 117.869C222.649 118.123 223.456 118.249 224.279 118.249C225.339 118.249 226.099 118.099 226.558 117.798C227.033 117.497 227.27 117.078 227.27 116.54C227.27 116.144 227.128 115.835 226.843 115.614C226.558 115.392 226.178 115.226 225.703 115.115C225.244 115.005 224.73 114.91 224.16 114.83C223.59 114.736 223.02 114.625 222.451 114.498C221.881 114.356 221.359 114.166 220.884 113.928C220.409 113.675 220.029 113.335 219.744 112.907C219.459 112.464 219.317 111.879 219.317 111.151C219.317 110.391 219.531 109.726 219.958 109.156C220.385 108.587 220.987 108.151 221.762 107.851C222.554 107.534 223.487 107.376 224.564 107.376C225.387 107.376 226.218 107.479 227.056 107.685C227.911 107.874 228.607 108.151 229.146 108.515L228.172 110.32C227.602 109.94 227.009 109.679 226.392 109.536C225.774 109.394 225.157 109.323 224.54 109.323C223.543 109.323 222.799 109.489 222.308 109.821C221.818 110.138 221.572 110.549 221.572 111.056C221.572 111.483 221.715 111.815 222 112.053C222.3 112.274 222.68 112.449 223.139 112.575C223.614 112.702 224.136 112.813 224.706 112.907C225.276 112.987 225.846 113.097 226.415 113.24C226.985 113.366 227.5 113.548 227.958 113.786C228.433 114.023 228.813 114.356 229.098 114.783C229.399 115.21 229.549 115.78 229.549 116.492C229.549 117.252 229.328 117.909 228.884 118.463C228.441 119.017 227.816 119.452 227.009 119.769C226.202 120.069 225.236 120.22 224.113 120.22ZM242.382 120.22C241.337 120.22 240.34 120.077 239.39 119.792C238.457 119.507 237.721 119.159 237.182 118.748L238.132 116.943C238.67 117.307 239.335 117.616 240.126 117.869C240.918 118.123 241.725 118.249 242.548 118.249C243.608 118.249 244.368 118.099 244.827 117.798C245.302 117.497 245.539 117.078 245.539 116.54C245.539 116.144 245.397 115.835 245.112 115.614C244.827 115.392 244.447 115.226 243.972 115.115C243.513 115.005 242.999 114.91 242.429 114.83C241.859 114.736 241.29 114.625 240.72 114.498C240.15 114.356 239.628 114.166 239.153 113.928C238.678 113.675 238.298 113.335 238.013 112.907C237.728 112.464 237.586 111.879 237.586 111.151C237.586 110.391 237.8 109.726 238.227 109.156C238.654 108.587 239.256 108.151 240.031 107.851C240.823 107.534 241.756 107.376 242.833 107.376C243.656 107.376 244.487 107.479 245.325 107.685C246.18 107.874 246.877 108.151 247.415 108.515L246.441 110.32C245.872 109.94 245.278 109.679 244.661 109.536C244.043 109.394 243.426 109.323 242.809 109.323C241.812 109.323 241.068 109.489 240.577 109.821C240.087 110.138 239.841 110.549 239.841 111.056C239.841 111.483 239.984 111.815 240.269 112.053C240.569 112.274 240.949 112.449 241.408 112.575C241.883 112.702 242.405 112.813 242.975 112.907C243.545 112.987 244.115 113.097 244.684 113.24C245.254 113.366 245.769 113.548 246.228 113.786C246.702 114.023 247.082 114.356 247.367 114.783C247.668 115.21 247.818 115.78 247.818 116.492C247.818 117.252 247.597 117.909 247.153 118.463C246.71 119.017 246.085 119.452 245.278 119.769C244.471 120.069 243.505 120.22 242.382 120.22ZM256.269 120.22C254.924 120.22 253.737 119.943 252.708 119.389C251.695 118.835 250.904 118.075 250.334 117.11C249.78 116.144 249.503 115.036 249.503 113.786C249.503 112.536 249.772 111.428 250.31 110.462C250.864 109.497 251.616 108.745 252.566 108.207C253.531 107.653 254.615 107.376 255.818 107.376C257.037 107.376 258.113 107.645 259.047 108.183C259.981 108.721 260.709 109.481 261.231 110.462C261.769 111.428 262.038 112.559 262.038 113.857C262.038 113.952 262.03 114.063 262.015 114.189C262.015 114.316 262.007 114.435 261.991 114.546H251.284V112.907H260.804L259.878 113.477C259.894 112.67 259.728 111.95 259.379 111.317C259.031 110.684 258.548 110.193 257.931 109.845C257.33 109.481 256.625 109.299 255.818 109.299C255.027 109.299 254.323 109.481 253.705 109.845C253.088 110.193 252.605 110.692 252.257 111.341C251.909 111.974 251.735 112.702 251.735 113.525V113.905C251.735 114.743 251.925 115.495 252.305 116.16C252.7 116.809 253.246 117.315 253.943 117.679C254.639 118.043 255.438 118.225 256.341 118.225C257.084 118.225 257.757 118.099 258.358 117.846C258.976 117.592 259.514 117.212 259.973 116.706L261.231 118.178C260.661 118.843 259.949 119.349 259.094 119.697C258.256 120.045 257.314 120.22 256.269 120.22ZM270.687 120.22C269.405 120.22 268.258 119.943 267.245 119.389C266.248 118.835 265.464 118.075 264.894 117.11C264.325 116.144 264.04 115.036 264.04 113.786C264.04 112.536 264.325 111.428 264.894 110.462C265.464 109.497 266.248 108.745 267.245 108.207C268.258 107.653 269.405 107.376 270.687 107.376C271.827 107.376 272.84 107.605 273.726 108.064C274.628 108.508 275.324 109.172 275.815 110.059L274.082 111.174C273.67 110.557 273.164 110.106 272.563 109.821C271.977 109.521 271.344 109.37 270.663 109.37C269.84 109.37 269.104 109.552 268.455 109.916C267.807 110.28 267.292 110.795 266.912 111.459C266.532 112.108 266.343 112.884 266.343 113.786C266.343 114.688 266.532 115.471 266.912 116.136C267.292 116.801 267.807 117.315 268.455 117.679C269.104 118.043 269.84 118.225 270.663 118.225C271.344 118.225 271.977 118.083 272.563 117.798C273.164 117.497 273.67 117.038 274.082 116.421L275.815 117.513C275.324 118.384 274.628 119.056 273.726 119.531C272.84 119.99 271.827 120.22 270.687 120.22ZM284.06 120.22C282.984 120.22 282.034 120.022 281.211 119.626C280.404 119.23 279.771 118.629 279.312 117.822C278.869 116.999 278.647 115.97 278.647 114.736V107.495H280.926V114.474C280.926 115.709 281.219 116.635 281.805 117.252C282.406 117.869 283.245 118.178 284.321 118.178C285.112 118.178 285.801 118.02 286.386 117.703C286.972 117.371 287.423 116.896 287.74 116.279C288.056 115.646 288.215 114.886 288.215 114V107.495H290.494V120.077H288.333V116.682L288.689 117.584C288.278 118.423 287.661 119.072 286.838 119.531C286.015 119.99 285.089 120.22 284.06 120.22ZM294.832 120.077V107.495H297.017V110.913L296.803 110.059C297.151 109.188 297.737 108.523 298.56 108.064C299.383 107.605 300.396 107.376 301.598 107.376V109.584C301.503 109.568 301.409 109.56 301.314 109.56C301.234 109.56 301.155 109.56 301.076 109.56C299.857 109.56 298.892 109.924 298.18 110.652C297.468 111.38 297.111 112.433 297.111 113.81V120.077H294.832ZM309.894 120.22C308.549 120.22 307.362 119.943 306.333 119.389C305.32 118.835 304.529 118.075 303.959 117.11C303.405 116.144 303.128 115.036 303.128 113.786C303.128 112.536 303.397 111.428 303.935 110.462C304.489 109.497 305.241 108.745 306.191 108.207C307.156 107.653 308.24 107.376 309.443 107.376C310.662 107.376 311.738 107.645 312.672 108.183C313.606 108.721 314.334 109.481 314.856 110.462C315.394 111.428 315.663 112.559 315.663 113.857C315.663 113.952 315.655 114.063 315.64 114.189C315.64 114.316 315.632 114.435 315.616 114.546H304.909V112.907H314.429L313.503 113.477C313.519 112.67 313.353 111.95 313.004 111.317C312.656 110.684 312.173 110.193 311.556 109.845C310.955 109.481 310.25 109.299 309.443 109.299C308.652 109.299 307.948 109.481 307.33 109.845C306.713 110.193 306.23 110.692 305.882 111.341C305.534 111.974 305.36 112.702 305.36 113.525V113.905C305.36 114.743 305.55 115.495 305.93 116.16C306.325 116.809 306.871 117.315 307.568 117.679C308.264 118.043 309.063 118.225 309.966 118.225C310.709 118.225 311.382 118.099 311.983 117.846C312.601 117.592 313.139 117.212 313.598 116.706L314.856 118.178C314.286 118.843 313.574 119.349 312.719 119.697C311.881 120.045 310.939 120.22 309.894 120.22ZM318.828 120.077V102.462H321.107V120.077H318.828ZM326.005 124.825C325.403 124.825 324.818 124.722 324.248 124.517C323.678 124.327 323.187 124.042 322.776 123.662L323.749 121.953C324.066 122.253 324.414 122.483 324.794 122.641C325.174 122.799 325.577 122.879 326.005 122.879C326.559 122.879 327.018 122.736 327.382 122.451C327.746 122.166 328.086 121.66 328.403 120.932L329.186 119.199L329.423 118.914L334.361 107.495H336.593L330.492 121.335C330.128 122.222 329.716 122.918 329.257 123.425C328.814 123.931 328.323 124.287 327.785 124.493C327.247 124.714 326.654 124.825 326.005 124.825ZM328.996 120.481L323.251 107.495H325.625L330.515 118.7L328.996 120.481ZM348.704 120.22C347.66 120.22 346.663 120.077 345.713 119.792C344.779 119.507 344.043 119.159 343.505 118.748L344.455 116.943C344.993 117.307 345.658 117.616 346.449 117.869C347.24 118.123 348.047 118.249 348.87 118.249C349.931 118.249 350.691 118.099 351.15 117.798C351.624 117.497 351.862 117.078 351.862 116.54C351.862 116.144 351.719 115.835 351.434 115.614C351.15 115.392 350.77 115.226 350.295 115.115C349.836 115.005 349.321 114.91 348.752 114.83C348.182 114.736 347.612 114.625 347.042 114.498C346.473 114.356 345.95 114.166 345.476 113.928C345.001 113.675 344.621 113.335 344.336 112.907C344.051 112.464 343.909 111.879 343.909 111.151C343.909 110.391 344.122 109.726 344.55 109.156C344.977 108.587 345.578 108.151 346.354 107.851C347.145 107.534 348.079 107.376 349.155 107.376C349.978 107.376 350.809 107.479 351.648 107.685C352.503 107.874 353.199 108.151 353.737 108.515L352.764 110.32C352.194 109.94 351.601 109.679 350.983 109.536C350.366 109.394 349.749 109.323 349.132 109.323C348.134 109.323 347.391 109.489 346.9 109.821C346.409 110.138 346.164 110.549 346.164 111.056C346.164 111.483 346.306 111.815 346.591 112.053C346.892 112.274 347.272 112.449 347.731 112.575C348.206 112.702 348.728 112.813 349.298 112.907C349.868 112.987 350.437 113.097 351.007 113.24C351.577 113.366 352.091 113.548 352.55 113.786C353.025 114.023 353.405 114.356 353.69 114.783C353.99 115.21 354.141 115.78 354.141 116.492C354.141 117.252 353.919 117.909 353.476 118.463C353.033 119.017 352.408 119.452 351.601 119.769C350.793 120.069 349.828 120.22 348.704 120.22ZM361.31 120.22C360.044 120.22 359.062 119.879 358.366 119.199C357.67 118.518 357.321 117.545 357.321 116.279V104.741H359.601V116.184C359.601 116.864 359.767 117.387 360.099 117.751C360.447 118.115 360.938 118.297 361.571 118.297C362.283 118.297 362.877 118.099 363.352 117.703L364.064 119.341C363.716 119.642 363.296 119.863 362.806 120.006C362.331 120.148 361.832 120.22 361.31 120.22ZM355.185 109.37V107.495H363.209V109.37H355.185ZM371.791 120.22C370.525 120.22 369.401 119.943 368.42 119.389C367.439 118.835 366.663 118.075 366.093 117.11C365.524 116.128 365.239 115.02 365.239 113.786C365.239 112.536 365.524 111.428 366.093 110.462C366.663 109.497 367.439 108.745 368.42 108.207C369.401 107.653 370.525 107.376 371.791 107.376C373.041 107.376 374.157 107.653 375.138 108.207C376.136 108.745 376.911 109.497 377.465 110.462C378.035 111.412 378.32 112.52 378.32 113.786C378.32 115.036 378.035 116.144 377.465 117.11C376.911 118.075 376.136 118.835 375.138 119.389C374.157 119.943 373.041 120.22 371.791 120.22ZM371.791 118.225C372.598 118.225 373.318 118.043 373.951 117.679C374.6 117.315 375.107 116.801 375.471 116.136C375.835 115.456 376.017 114.672 376.017 113.786C376.017 112.884 375.835 112.108 375.471 111.459C375.107 110.795 374.6 110.28 373.951 109.916C373.318 109.552 372.598 109.37 371.791 109.37C370.984 109.37 370.264 109.552 369.631 109.916C368.998 110.28 368.491 110.795 368.111 111.459C367.731 112.108 367.541 112.884 367.541 113.786C367.541 114.672 367.731 115.456 368.111 116.136C368.491 116.801 368.998 117.315 369.631 117.679C370.264 118.043 370.984 118.225 371.791 118.225ZM381.472 120.077V107.495H383.656V110.913L383.442 110.059C383.79 109.188 384.376 108.523 385.199 108.064C386.022 107.605 387.035 107.376 388.238 107.376V109.584C388.143 109.568 388.048 109.56 387.953 109.56C387.874 109.56 387.795 109.56 387.715 109.56C386.497 109.56 385.531 109.924 384.819 110.652C384.107 111.38 383.751 112.433 383.751 113.81V120.077H381.472ZM396.534 120.22C395.188 120.22 394.001 119.943 392.972 119.389C391.96 118.835 391.168 118.075 390.598 117.11C390.044 116.144 389.767 115.036 389.767 113.786C389.767 112.536 390.037 111.428 390.575 110.462C391.129 109.497 391.88 108.745 392.83 108.207C393.795 107.653 394.88 107.376 396.082 107.376C397.301 107.376 398.377 107.645 399.311 108.183C400.245 108.721 400.973 109.481 401.495 110.462C402.033 111.428 402.302 112.559 402.302 113.857C402.302 113.952 402.295 114.063 402.279 114.189C402.279 114.316 402.271 114.435 402.255 114.546H391.548V112.907H401.068L400.142 113.477C400.158 112.67 399.992 111.95 399.644 111.317C399.295 110.684 398.813 110.193 398.195 109.845C397.594 109.481 396.89 109.299 396.082 109.299C395.291 109.299 394.587 109.481 393.97 109.845C393.352 110.193 392.87 110.692 392.521 111.341C392.173 111.974 391.999 112.702 391.999 113.525V113.905C391.999 114.743 392.189 115.495 392.569 116.16C392.965 116.809 393.511 117.315 394.207 117.679C394.903 118.043 395.703 118.225 396.605 118.225C397.349 118.225 398.021 118.099 398.623 117.846C399.24 117.592 399.778 117.212 400.237 116.706L401.495 118.178C400.926 118.843 400.213 119.349 399.359 119.697C398.52 120.045 397.578 120.22 396.534 120.22ZM410.666 120.22C409.448 120.22 408.356 119.951 407.39 119.412C406.441 118.874 405.689 118.123 405.135 117.157C404.581 116.192 404.304 115.068 404.304 113.786C404.304 112.504 404.581 111.388 405.135 110.438C405.689 109.473 406.441 108.721 407.39 108.183C408.356 107.645 409.448 107.376 410.666 107.376C411.727 107.376 412.684 107.613 413.539 108.088C414.394 108.563 415.074 109.275 415.581 110.225C416.103 111.174 416.364 112.361 416.364 113.786C416.364 115.21 416.111 116.397 415.604 117.347C415.114 118.297 414.441 119.017 413.586 119.507C412.732 119.982 411.758 120.22 410.666 120.22ZM410.856 118.225C411.648 118.225 412.36 118.043 412.993 117.679C413.642 117.315 414.148 116.801 414.512 116.136C414.892 115.456 415.082 114.672 415.082 113.786C415.082 112.884 414.892 112.108 414.512 111.459C414.148 110.795 413.642 110.28 412.993 109.916C412.36 109.552 411.648 109.37 410.856 109.37C410.049 109.37 409.329 109.552 408.696 109.916C408.063 110.28 407.556 110.795 407.177 111.459C406.797 112.108 406.607 112.884 406.607 113.786C406.607 114.672 406.797 115.456 407.177 116.136C407.556 116.801 408.063 117.315 408.696 117.679C409.329 118.043 410.049 118.225 410.856 118.225ZM415.153 120.077V116.682L415.296 113.762L415.058 110.842V102.462H417.338V120.077H415.153ZM435.836 120.077V117.418L435.717 116.92V112.385C435.717 111.42 435.432 110.676 434.863 110.154C434.309 109.615 433.47 109.346 432.346 109.346C431.602 109.346 430.874 109.473 430.162 109.726C429.45 109.964 428.848 110.288 428.358 110.7L427.408 108.99C428.057 108.468 428.833 108.072 429.735 107.803C430.653 107.518 431.61 107.376 432.607 107.376C434.332 107.376 435.662 107.795 436.596 108.634C437.53 109.473 437.996 110.755 437.996 112.48V120.077H435.836ZM431.705 120.22C430.771 120.22 429.948 120.061 429.236 119.745C428.54 119.428 428.002 118.993 427.622 118.439C427.242 117.869 427.052 117.228 427.052 116.516C427.052 115.835 427.21 115.218 427.527 114.664C427.859 114.11 428.389 113.667 429.117 113.335C429.861 113.002 430.858 112.836 432.109 112.836H436.097V114.474H432.204C431.064 114.474 430.297 114.664 429.901 115.044C429.505 115.424 429.307 115.883 429.307 116.421C429.307 117.038 429.553 117.537 430.043 117.917C430.534 118.281 431.215 118.463 432.085 118.463C432.94 118.463 433.684 118.273 434.317 117.893C434.966 117.513 435.432 116.959 435.717 116.231L436.168 117.798C435.868 118.542 435.338 119.135 434.578 119.579C433.818 120.006 432.861 120.22 431.705 120.22ZM448.933 107.376C449.961 107.376 450.864 107.574 451.639 107.969C452.431 108.365 453.048 108.967 453.491 109.774C453.934 110.581 454.156 111.602 454.156 112.836V120.077H451.877V113.097C451.877 111.879 451.576 110.961 450.974 110.344C450.389 109.726 449.558 109.418 448.482 109.418C447.674 109.418 446.97 109.576 446.369 109.892C445.767 110.209 445.3 110.676 444.968 111.293C444.652 111.91 444.493 112.678 444.493 113.596V120.077H442.214V107.495H444.398V110.89L444.042 109.987C444.454 109.164 445.087 108.523 445.941 108.064C446.796 107.605 447.793 107.376 448.933 107.376ZM463.573 120.22C462.354 120.22 461.262 119.951 460.296 119.412C459.347 118.874 458.595 118.123 458.041 117.157C457.487 116.192 457.21 115.068 457.21 113.786C457.21 112.504 457.487 111.388 458.041 110.438C458.595 109.473 459.347 108.721 460.296 108.183C461.262 107.645 462.354 107.376 463.573 107.376C464.633 107.376 465.591 107.613 466.445 108.088C467.3 108.563 467.981 109.275 468.487 110.225C469.009 111.174 469.27 112.361 469.27 113.786C469.27 115.21 469.017 116.397 468.511 117.347C468.02 118.297 467.347 119.017 466.493 119.507C465.638 119.982 464.665 120.22 463.573 120.22ZM463.763 118.225C464.554 118.225 465.266 118.043 465.899 117.679C466.548 117.315 467.055 116.801 467.419 116.136C467.799 115.456 467.988 114.672 467.988 113.786C467.988 112.884 467.799 112.108 467.419 111.459C467.055 110.795 466.548 110.28 465.899 109.916C465.266 109.552 464.554 109.37 463.763 109.37C462.955 109.37 462.235 109.552 461.602 109.916C460.969 110.28 460.463 110.795 460.083 111.459C459.703 112.108 459.513 112.884 459.513 113.786C459.513 114.672 459.703 115.456 460.083 116.136C460.463 116.801 460.969 117.315 461.602 117.679C462.235 118.043 462.955 118.225 463.763 118.225ZM468.06 120.077V116.682L468.202 113.762L467.965 110.842V102.462H470.244V120.077H468.06ZM486.321 120.22C485.055 120.22 483.931 119.943 482.95 119.389C481.968 118.835 481.193 118.075 480.623 117.11C480.053 116.128 479.768 115.02 479.768 113.786C479.768 112.536 480.053 111.428 480.623 110.462C481.193 109.497 481.968 108.745 482.95 108.207C483.931 107.653 485.055 107.376 486.321 107.376C487.571 107.376 488.687 107.653 489.668 108.207C490.665 108.745 491.441 109.497 491.995 110.462C492.565 111.412 492.849 112.52 492.849 113.786C492.849 115.036 492.565 116.144 491.995 117.11C491.441 118.075 490.665 118.835 489.668 119.389C488.687 119.943 487.571 120.22 486.321 120.22ZM486.321 118.225C487.128 118.225 487.848 118.043 488.481 117.679C489.13 117.315 489.637 116.801 490.001 116.136C490.365 115.456 490.547 114.672 490.547 113.786C490.547 112.884 490.365 112.108 490.001 111.459C489.637 110.795 489.13 110.28 488.481 109.916C487.848 109.552 487.128 109.37 486.321 109.37C485.514 109.37 484.793 109.552 484.16 109.916C483.527 110.28 483.021 110.795 482.641 111.459C482.261 112.108 482.071 112.884 482.071 113.786C482.071 114.672 482.261 115.456 482.641 116.136C483.021 116.801 483.527 117.315 484.16 117.679C484.793 118.043 485.514 118.225 486.321 118.225ZM502.72 107.376C503.749 107.376 504.651 107.574 505.426 107.969C506.218 108.365 506.835 108.967 507.278 109.774C507.721 110.581 507.943 111.602 507.943 112.836V120.077H505.664V113.097C505.664 111.879 505.363 110.961 504.762 110.344C504.176 109.726 503.345 109.418 502.269 109.418C501.462 109.418 500.757 109.576 500.156 109.892C499.555 110.209 499.088 110.676 498.755 111.293C498.439 111.91 498.28 112.678 498.28 113.596V120.077H496.001V107.495H498.186V110.89L497.829 109.987C498.241 109.164 498.874 108.523 499.729 108.064C500.583 107.605 501.58 107.376 502.72 107.376ZM512.161 120.077V102.462H514.44V120.077H512.161ZM519.337 124.825C518.736 124.825 518.15 124.722 517.581 124.517C517.011 124.327 516.52 124.042 516.109 123.662L517.082 121.953C517.399 122.253 517.747 122.483 518.127 122.641C518.507 122.799 518.91 122.879 519.337 122.879C519.891 122.879 520.35 122.736 520.714 122.451C521.078 122.166 521.419 121.66 521.735 120.932L522.519 119.199L522.756 118.914L527.694 107.495H529.926L523.824 121.335C523.46 122.222 523.049 122.918 522.59 123.425C522.147 123.931 521.656 124.287 521.118 124.493C520.58 124.714 519.986 124.825 519.337 124.825ZM522.329 120.481L516.584 107.495H518.958L523.848 118.7L522.329 120.481ZM48.6141 146.077V143.418L48.4954 142.92V138.385C48.4954 137.42 48.2105 136.676 47.6407 136.154C47.0868 135.615 46.248 135.346 45.1242 135.346C44.3804 135.346 43.6523 135.473 42.9401 135.726C42.2279 135.964 41.6265 136.288 41.1358 136.7L40.1862 134.99C40.8351 134.468 41.6106 134.072 42.5128 133.803C43.4308 133.518 44.3883 133.376 45.3854 133.376C47.1105 133.376 48.44 133.795 49.3738 134.634C50.3076 135.473 50.7745 136.755 50.7745 138.48V146.077H48.6141ZM44.4833 146.22C43.5495 146.22 42.7264 146.061 42.0142 145.745C41.3178 145.428 40.7797 144.993 40.3999 144.439C40.02 143.869 39.8301 143.228 39.8301 142.516C39.8301 141.835 39.9884 141.218 40.3049 140.664C40.6373 140.11 41.1675 139.667 41.8955 139.335C42.6394 139.002 43.6365 138.836 44.8868 138.836H48.8753V140.474H44.9818C43.8423 140.474 43.0746 140.664 42.679 141.044C42.2833 141.424 42.0855 141.883 42.0855 142.421C42.0855 143.038 42.3308 143.537 42.8214 143.917C43.312 144.281 43.9926 144.463 44.8631 144.463C45.7178 144.463 46.4616 144.273 47.0947 143.893C47.7436 143.513 48.2105 142.959 48.4954 142.231L48.9465 143.798C48.6458 144.542 48.1156 145.135 47.3559 145.579C46.5962 146.006 45.6386 146.22 44.4833 146.22ZM60.4762 146.22C59.1943 146.22 58.0468 145.943 57.0339 145.389C56.0368 144.835 55.2533 144.075 54.6835 143.11C54.1138 142.144 53.8289 141.036 53.8289 139.786C53.8289 138.536 54.1138 137.428 54.6835 136.462C55.2533 135.497 56.0368 134.745 57.0339 134.207C58.0468 133.653 59.1943 133.376 60.4762 133.376C61.6158 133.376 62.6287 133.605 63.515 134.064C64.4172 134.508 65.1136 135.172 65.6042 136.059L63.8712 137.174C63.4596 136.557 62.9532 136.106 62.3518 135.821C61.7662 135.521 61.1331 135.37 60.4525 135.37C59.6295 135.37 58.8935 135.552 58.2446 135.916C57.5957 136.28 57.0813 136.795 56.7015 137.459C56.3216 138.108 56.1317 138.884 56.1317 139.786C56.1317 140.688 56.3216 141.471 56.7015 142.136C57.0813 142.801 57.5957 143.315 58.2446 143.679C58.8935 144.043 59.6295 144.225 60.4525 144.225C61.1331 144.225 61.7662 144.083 62.3518 143.798C62.9532 143.497 63.4596 143.038 63.8712 142.421L65.6042 143.513C65.1136 144.384 64.4172 145.056 63.515 145.531C62.6287 145.99 61.6158 146.22 60.4762 146.22ZM73.8535 146.22C72.5715 146.22 71.4241 145.943 70.4111 145.389C69.414 144.835 68.6306 144.075 68.0608 143.11C67.491 142.144 67.2061 141.036 67.2061 139.786C67.2061 138.536 67.491 137.428 68.0608 136.462C68.6306 135.497 69.414 134.745 70.4111 134.207C71.4241 133.653 72.5715 133.376 73.8535 133.376C74.9931 133.376 76.006 133.605 76.8923 134.064C77.7944 134.508 78.4908 135.172 78.9815 136.059L77.2484 137.174C76.8369 136.557 76.3304 136.106 75.729 135.821C75.1434 135.521 74.5103 135.37 73.8298 135.37C73.0068 135.37 72.2708 135.552 71.6219 135.916C70.973 136.28 70.4586 136.795 70.0788 137.459C69.6989 138.108 69.509 138.884 69.509 139.786C69.509 140.688 69.6989 141.471 70.0788 142.136C70.4586 142.801 70.973 143.315 71.6219 143.679C72.2708 144.043 73.0068 144.225 73.8298 144.225C74.5103 144.225 75.1434 144.083 75.729 143.798C76.3304 143.497 76.8369 143.038 77.2484 142.421L78.9815 143.513C78.4908 144.384 77.7944 145.056 76.8923 145.531C76.006 145.99 74.9931 146.22 73.8535 146.22ZM87.3495 146.22C86.0042 146.22 84.8171 145.943 83.7884 145.389C82.7755 144.835 81.9841 144.075 81.4143 143.11C80.8604 142.144 80.5834 141.036 80.5834 139.786C80.5834 138.536 80.8525 137.428 81.3906 136.462C81.9445 135.497 82.6963 134.745 83.6459 134.207C84.6114 133.653 85.6955 133.376 86.8984 133.376C88.1171 133.376 89.1933 133.645 90.1271 134.183C91.0609 134.721 91.789 135.481 92.3113 136.462C92.8494 137.428 93.1184 138.559 93.1184 139.857C93.1184 139.952 93.1105 140.063 93.0947 140.189C93.0947 140.316 93.0868 140.435 93.071 140.546H82.364V138.907H91.8839L90.958 139.477C90.9739 138.67 90.8077 137.95 90.4595 137.317C90.1113 136.684 89.6286 136.193 89.0113 135.845C88.4099 135.481 87.7056 135.299 86.8984 135.299C86.1071 135.299 85.4027 135.481 84.7855 135.845C84.1682 136.193 83.6855 136.692 83.3373 137.341C82.9891 137.974 82.815 138.702 82.815 139.525V139.905C82.815 140.743 83.0049 141.495 83.3848 142.16C83.7805 142.809 84.3265 143.315 85.0229 143.679C85.7193 144.043 86.5186 144.225 87.4207 144.225C88.1646 144.225 88.8372 144.099 89.4386 143.846C90.0559 143.592 90.594 143.212 91.053 142.706L92.3113 144.178C91.7415 144.843 91.0293 145.349 90.1746 145.697C89.3358 146.045 88.3941 146.22 87.3495 146.22ZM99.8917 146.22C98.8472 146.22 97.8501 146.077 96.9004 145.792C95.9666 145.507 95.2307 145.159 94.6926 144.748L95.6422 142.943C96.1803 143.307 96.845 143.616 97.6364 143.869C98.4277 144.123 99.2349 144.249 100.058 144.249C101.118 144.249 101.878 144.099 102.337 143.798C102.812 143.497 103.049 143.078 103.049 142.54C103.049 142.144 102.907 141.835 102.622 141.614C102.337 141.392 101.957 141.226 101.482 141.115C101.023 141.005 100.509 140.91 99.9392 140.83C99.3694 140.736 98.7997 140.625 98.2299 140.498C97.6601 140.356 97.1378 140.166 96.663 139.928C96.1882 139.675 95.8084 139.335 95.5235 138.907C95.2386 138.464 95.0961 137.879 95.0961 137.151C95.0961 136.391 95.3098 135.726 95.7371 135.156C96.1645 134.587 96.7659 134.151 97.5414 133.851C98.3328 133.534 99.2666 133.376 100.343 133.376C101.166 133.376 101.997 133.479 102.836 133.685C103.69 133.874 104.387 134.151 104.925 134.515L103.951 136.32C103.382 135.94 102.788 135.679 102.171 135.536C101.554 135.394 100.936 135.323 100.319 135.323C99.322 135.323 98.5781 135.489 98.0875 135.821C97.5968 136.138 97.3515 136.549 97.3515 137.056C97.3515 137.483 97.4939 137.815 97.7788 138.053C98.0795 138.274 98.4594 138.449 98.9184 138.575C99.3932 138.702 99.9155 138.813 100.485 138.907C101.055 138.987 101.625 139.097 102.195 139.24C102.764 139.366 103.279 139.548 103.738 139.786C104.213 140.023 104.592 140.356 104.877 140.783C105.178 141.21 105.328 141.78 105.328 142.492C105.328 143.252 105.107 143.909 104.664 144.463C104.22 145.017 103.595 145.452 102.788 145.769C101.981 146.069 101.015 146.22 99.8917 146.22ZM111.785 146.22C110.741 146.22 109.744 146.077 108.794 145.792C107.86 145.507 107.124 145.159 106.586 144.748L107.536 142.943C108.074 143.307 108.739 143.616 109.53 143.869C110.321 144.123 111.128 144.249 111.951 144.249C113.012 144.249 113.772 144.099 114.231 143.798C114.705 143.497 114.943 143.078 114.943 142.54C114.943 142.144 114.8 141.835 114.515 141.614C114.231 141.392 113.851 141.226 113.376 141.115C112.917 141.005 112.402 140.91 111.833 140.83C111.263 140.736 110.693 140.625 110.123 140.498C109.554 140.356 109.031 140.166 108.557 139.928C108.082 139.675 107.702 139.335 107.417 138.907C107.132 138.464 106.99 137.879 106.99 137.151C106.99 136.391 107.203 135.726 107.631 135.156C108.058 134.587 108.659 134.151 109.435 133.851C110.226 133.534 111.16 133.376 112.236 133.376C113.059 133.376 113.89 133.479 114.729 133.685C115.584 133.874 116.28 134.151 116.818 134.515L115.845 136.32C115.275 135.94 114.682 135.679 114.064 135.536C113.447 135.394 112.83 135.323 112.213 135.323C111.215 135.323 110.472 135.489 109.981 135.821C109.49 136.138 109.245 136.549 109.245 137.056C109.245 137.483 109.387 137.815 109.672 138.053C109.973 138.274 110.353 138.449 110.812 138.575C111.287 138.702 111.809 138.813 112.379 138.907C112.949 138.987 113.518 139.097 114.088 139.24C114.658 139.366 115.172 139.548 115.631 139.786C116.106 140.023 116.486 140.356 116.771 140.783C117.071 141.21 117.222 141.78 117.222 142.492C117.222 143.252 117 143.909 116.557 144.463C116.114 145.017 115.489 145.452 114.682 145.769C113.874 146.069 112.909 146.22 111.785 146.22ZM120.07 146.077V133.495H122.349V146.077H120.07ZM121.21 131.073C120.767 131.073 120.395 130.931 120.094 130.646C119.809 130.361 119.667 130.013 119.667 129.601C119.667 129.174 119.809 128.818 120.094 128.533C120.395 128.248 120.767 128.106 121.21 128.106C121.653 128.106 122.017 128.248 122.302 128.533C122.602 128.802 122.753 129.142 122.753 129.554C122.753 129.981 122.61 130.345 122.325 130.646C122.041 130.931 121.669 131.073 121.21 131.073ZM133.372 146.22C132.296 146.22 131.322 145.982 130.452 145.507C129.597 145.017 128.917 144.297 128.41 143.347C127.919 142.397 127.674 141.21 127.674 139.786C127.674 138.361 127.927 137.174 128.434 136.225C128.956 135.275 129.645 134.563 130.499 134.088C131.37 133.613 132.327 133.376 133.372 133.376C134.606 133.376 135.698 133.645 136.648 134.183C137.598 134.721 138.35 135.473 138.903 136.438C139.457 137.388 139.734 138.504 139.734 139.786C139.734 141.068 139.457 142.192 138.903 143.157C138.35 144.123 137.598 144.874 136.648 145.412C135.698 145.951 134.606 146.22 133.372 146.22ZM126.701 146.077V128.462H128.98V136.842L128.742 139.762L128.885 142.682V146.077H126.701ZM133.182 144.225C133.989 144.225 134.709 144.043 135.342 143.679C135.991 143.315 136.498 142.801 136.862 142.136C137.242 141.456 137.432 140.672 137.432 139.786C137.432 138.884 137.242 138.108 136.862 137.459C136.498 136.795 135.991 136.28 135.342 135.916C134.709 135.552 133.989 135.37 133.182 135.37C132.391 135.37 131.67 135.552 131.022 135.916C130.389 136.28 129.882 136.795 129.502 137.459C129.138 138.108 128.956 138.884 128.956 139.786C128.956 140.672 129.138 141.456 129.502 142.136C129.882 142.801 130.389 143.315 131.022 143.679C131.67 144.043 132.391 144.225 133.182 144.225ZM142.883 146.077V128.462H145.162V146.077H142.883ZM155.117 146.22C153.771 146.22 152.584 145.943 151.556 145.389C150.543 144.835 149.751 144.075 149.182 143.11C148.628 142.144 148.351 141.036 148.351 139.786C148.351 138.536 148.62 137.428 149.158 136.462C149.712 135.497 150.464 134.745 151.413 134.207C152.379 133.653 153.463 133.376 154.666 133.376C155.884 133.376 156.961 133.645 157.894 134.183C158.828 134.721 159.556 135.481 160.079 136.462C160.617 137.428 160.886 138.559 160.886 139.857C160.886 139.952 160.878 140.063 160.862 140.189C160.862 140.316 160.854 140.435 160.838 140.546H150.131V138.907H159.651L158.725 139.477C158.741 138.67 158.575 137.95 158.227 137.317C157.879 136.684 157.396 136.193 156.779 135.845C156.177 135.481 155.473 135.299 154.666 135.299C153.874 135.299 153.17 135.481 152.553 135.845C151.936 136.193 151.453 136.692 151.105 137.341C150.756 137.974 150.582 138.702 150.582 139.525V139.905C150.582 140.743 150.772 141.495 151.152 142.16C151.548 142.809 152.094 143.315 152.79 143.679C153.487 144.043 154.286 144.225 155.188 144.225C155.932 144.225 156.605 144.099 157.206 143.846C157.823 143.592 158.361 143.212 158.82 142.706L160.079 144.178C159.509 144.843 158.797 145.349 157.942 145.697C157.103 146.045 156.161 146.22 155.117 146.22ZM174.747 146.22C173.481 146.22 172.499 145.879 171.803 145.199C171.107 144.518 170.759 143.545 170.759 142.279V130.741H173.038V142.184C173.038 142.864 173.204 143.387 173.536 143.751C173.884 144.115 174.375 144.297 175.008 144.297C175.72 144.297 176.314 144.099 176.789 143.703L177.501 145.341C177.153 145.642 176.733 145.863 176.243 146.006C175.768 146.148 175.269 146.22 174.747 146.22ZM168.622 135.37V133.495H176.646V135.37H168.622ZM185.228 146.22C183.962 146.22 182.838 145.943 181.857 145.389C180.876 144.835 180.1 144.075 179.53 143.11C178.961 142.128 178.676 141.02 178.676 139.786C178.676 138.536 178.961 137.428 179.53 136.462C180.1 135.497 180.876 134.745 181.857 134.207C182.838 133.653 183.962 133.376 185.228 133.376C186.478 133.376 187.594 133.653 188.575 134.207C189.573 134.745 190.348 135.497 190.902 136.462C191.472 137.412 191.757 138.52 191.757 139.786C191.757 141.036 191.472 142.144 190.902 143.11C190.348 144.075 189.573 144.835 188.575 145.389C187.594 145.943 186.478 146.22 185.228 146.22ZM185.228 144.225C186.035 144.225 186.755 144.043 187.388 143.679C188.037 143.315 188.544 142.801 188.908 142.136C189.272 141.456 189.454 140.672 189.454 139.786C189.454 138.884 189.272 138.108 188.908 137.459C188.544 136.795 188.037 136.28 187.388 135.916C186.755 135.552 186.035 135.37 185.228 135.37C184.421 135.37 183.701 135.552 183.068 135.916C182.435 136.28 181.928 136.795 181.548 137.459C181.168 138.108 180.978 138.884 180.978 139.786C180.978 140.672 181.168 141.456 181.548 142.136C181.928 142.801 182.435 143.315 183.068 143.679C183.701 144.043 184.421 144.225 185.228 144.225ZM201.83 150.825C201.229 150.825 200.643 150.722 200.073 150.517C199.504 150.327 199.013 150.042 198.602 149.662L199.575 147.953C199.891 148.253 200.24 148.483 200.62 148.641C200.999 148.799 201.403 148.879 201.83 148.879C202.384 148.879 202.843 148.736 203.207 148.451C203.571 148.166 203.912 147.66 204.228 146.932L205.012 145.199L205.249 144.914L210.187 133.495H212.419L206.317 147.335C205.953 148.222 205.542 148.918 205.083 149.425C204.64 149.931 204.149 150.287 203.611 150.493C203.073 150.714 202.479 150.825 201.83 150.825ZM204.822 146.481L199.076 133.495H201.45L206.341 144.7L204.822 146.481ZM219.587 146.22C218.321 146.22 217.197 145.943 216.216 145.389C215.235 144.835 214.459 144.075 213.889 143.11C213.319 142.128 213.035 141.02 213.035 139.786C213.035 138.536 213.319 137.428 213.889 136.462C214.459 135.497 215.235 134.745 216.216 134.207C217.197 133.653 218.321 133.376 219.587 133.376C220.837 133.376 221.953 133.653 222.934 134.207C223.931 134.745 224.707 135.497 225.261 136.462C225.831 137.412 226.116 138.52 226.116 139.786C226.116 141.036 225.831 142.144 225.261 143.11C224.707 144.075 223.931 144.835 222.934 145.389C221.953 145.943 220.837 146.22 219.587 146.22ZM219.587 144.225C220.394 144.225 221.114 144.043 221.747 143.679C222.396 143.315 222.903 142.801 223.267 142.136C223.631 141.456 223.813 140.672 223.813 139.786C223.813 138.884 223.631 138.108 223.267 137.459C222.903 136.795 222.396 136.28 221.747 135.916C221.114 135.552 220.394 135.37 219.587 135.37C218.78 135.37 218.06 135.552 217.427 135.916C216.793 136.28 216.287 136.795 215.907 137.459C215.527 138.108 215.337 138.884 215.337 139.786C215.337 140.672 215.527 141.456 215.907 142.136C216.287 142.801 216.793 143.315 217.427 143.679C218.06 144.043 218.78 144.225 219.587 144.225ZM234.562 146.22C233.485 146.22 232.536 146.022 231.713 145.626C230.906 145.23 230.273 144.629 229.814 143.822C229.37 142.999 229.149 141.97 229.149 140.736V133.495H231.428V140.474C231.428 141.709 231.721 142.635 232.306 143.252C232.908 143.869 233.747 144.178 234.823 144.178C235.614 144.178 236.303 144.02 236.888 143.703C237.474 143.371 237.925 142.896 238.241 142.279C238.558 141.646 238.716 140.886 238.716 140V133.495H240.995V146.077H238.835V142.682L239.191 143.584C238.78 144.423 238.162 145.072 237.339 145.531C236.516 145.99 235.59 146.22 234.562 146.22ZM254.369 146.077L249.692 133.495H251.852L256.007 144.89H254.986L259.307 133.495H261.23L265.456 144.89H264.459L268.708 133.495H270.75L266.049 146.077H263.865L259.9 135.679H260.565L256.553 146.077H254.369ZM279.781 133.376C280.81 133.376 281.712 133.574 282.487 133.969C283.279 134.365 283.896 134.967 284.339 135.774C284.782 136.581 285.004 137.602 285.004 138.836V146.077H282.725V139.097C282.725 137.879 282.424 136.961 281.823 136.344C281.237 135.726 280.406 135.418 279.33 135.418C278.523 135.418 277.818 135.576 277.217 135.892C276.616 136.209 276.149 136.676 275.816 137.293C275.5 137.91 275.342 138.678 275.342 139.596V146.077H273.062V128.462H275.342V136.89L274.89 135.987C275.302 135.164 275.935 134.523 276.79 134.064C277.644 133.605 278.641 133.376 279.781 133.376ZM294.825 146.22C293.479 146.22 292.292 145.943 291.264 145.389C290.251 144.835 289.459 144.075 288.889 143.11C288.335 142.144 288.059 141.036 288.059 139.786C288.059 138.536 288.328 137.428 288.866 136.462C289.42 135.497 290.171 134.745 291.121 134.207C292.087 133.653 293.171 133.376 294.374 133.376C295.592 133.376 296.668 133.645 297.602 134.183C298.536 134.721 299.264 135.481 299.786 136.462C300.324 137.428 300.594 138.559 300.594 139.857C300.594 139.952 300.586 140.063 300.57 140.189C300.57 140.316 300.562 140.435 300.546 140.546H289.839V138.907H299.359L298.433 139.477C298.449 138.67 298.283 137.95 297.935 137.317C297.586 136.684 297.104 136.193 296.486 135.845C295.885 135.481 295.181 135.299 294.374 135.299C293.582 135.299 292.878 135.481 292.261 135.845C291.643 136.193 291.161 136.692 290.812 137.341C290.464 137.974 290.29 138.702 290.29 139.525V139.905C290.29 140.743 290.48 141.495 290.86 142.16C291.256 142.809 291.802 143.315 292.498 143.679C293.194 144.043 293.994 144.225 294.896 144.225C295.64 144.225 296.312 144.099 296.914 143.846C297.531 143.592 298.069 143.212 298.528 142.706L299.786 144.178C299.217 144.843 298.504 145.349 297.65 145.697C296.811 146.045 295.869 146.22 294.825 146.22ZM310.477 133.376C311.506 133.376 312.408 133.574 313.183 133.969C313.975 134.365 314.592 134.967 315.035 135.774C315.478 136.581 315.7 137.602 315.7 138.836V146.077H313.421V139.097C313.421 137.879 313.12 136.961 312.519 136.344C311.933 135.726 311.102 135.418 310.026 135.418C309.219 135.418 308.514 135.576 307.913 135.892C307.311 136.209 306.845 136.676 306.512 137.293C306.196 137.91 306.037 138.678 306.037 139.596V146.077H303.758V133.495H305.942V136.89L305.586 135.987C305.998 135.164 306.631 134.523 307.486 134.064C308.34 133.605 309.337 133.376 310.477 133.376ZM325.52 146.22C324.175 146.22 322.988 145.943 321.959 145.389C320.946 144.835 320.155 144.075 319.585 143.11C319.031 142.144 318.754 141.036 318.754 139.786C318.754 138.536 319.023 137.428 319.562 136.462C320.115 135.497 320.867 134.745 321.817 134.207C322.782 133.653 323.867 133.376 325.069 133.376C326.288 133.376 327.364 133.645 328.298 134.183C329.232 134.721 329.96 135.481 330.482 136.462C331.02 137.428 331.289 138.559 331.289 139.857C331.289 139.952 331.281 140.063 331.266 140.189C331.266 140.316 331.258 140.435 331.242 140.546H320.535V138.907H330.055L329.129 139.477C329.145 138.67 328.979 137.95 328.63 137.317C328.282 136.684 327.8 136.193 327.182 135.845C326.581 135.481 325.877 135.299 325.069 135.299C324.278 135.299 323.574 135.481 322.956 135.845C322.339 136.193 321.856 136.692 321.508 137.341C321.16 137.974 320.986 138.702 320.986 139.525V139.905C320.986 140.743 321.176 141.495 321.556 142.16C321.951 142.809 322.497 143.315 323.194 143.679C323.89 144.043 324.69 144.225 325.592 144.225C326.336 144.225 327.008 144.099 327.61 143.846C328.227 143.592 328.765 143.212 329.224 142.706L330.482 144.178C329.912 144.843 329.2 145.349 328.346 145.697C327.507 146.045 326.565 146.22 325.52 146.22ZM337.522 146.077L332.014 133.495H334.388L339.279 144.89H338.139L343.125 133.495H345.357L339.849 146.077H337.522ZM352.739 146.22C351.393 146.22 350.206 145.943 349.178 145.389C348.165 144.835 347.373 144.075 346.803 143.11C346.25 142.144 345.973 141.036 345.973 139.786C345.973 138.536 346.242 137.428 346.78 136.462C347.334 135.497 348.085 134.745 349.035 134.207C350.001 133.653 351.085 133.376 352.288 133.376C353.506 133.376 354.582 133.645 355.516 134.183C356.45 134.721 357.178 135.481 357.7 136.462C358.239 137.428 358.508 138.559 358.508 139.857C358.508 139.952 358.5 140.063 358.484 140.189C358.484 140.316 358.476 140.435 358.46 140.546H347.753V138.907H357.273L356.347 139.477C356.363 138.67 356.197 137.95 355.849 137.317C355.5 136.684 355.018 136.193 354.4 135.845C353.799 135.481 353.095 135.299 352.288 135.299C351.496 135.299 350.792 135.481 350.175 135.845C349.557 136.193 349.075 136.692 348.726 137.341C348.378 137.974 348.204 138.702 348.204 139.525V139.905C348.204 140.743 348.394 141.495 348.774 142.16C349.17 142.809 349.716 143.315 350.412 143.679C351.108 144.043 351.908 144.225 352.81 144.225C353.554 144.225 354.226 144.099 354.828 143.846C355.445 143.592 355.983 143.212 356.442 142.706L357.7 144.178C357.131 144.843 356.418 145.349 355.564 145.697C354.725 146.045 353.783 146.22 352.739 146.22ZM361.672 146.077V133.495H363.856V136.913L363.643 136.059C363.991 135.188 364.577 134.523 365.4 134.064C366.223 133.605 367.236 133.376 368.438 133.376V135.584C368.343 135.568 368.248 135.56 368.154 135.56C368.074 135.56 367.995 135.56 367.916 135.56C366.697 135.56 365.732 135.924 365.02 136.652C364.308 137.38 363.951 138.433 363.951 139.81V146.077H361.672ZM378.331 150.825C377.73 150.825 377.144 150.722 376.575 150.517C376.005 150.327 375.514 150.042 375.103 149.662L376.076 147.953C376.393 148.253 376.741 148.483 377.121 148.641C377.5 148.799 377.904 148.879 378.331 148.879C378.885 148.879 379.344 148.736 379.708 148.451C380.072 148.166 380.413 147.66 380.729 146.932L381.513 145.199L381.75 144.914L386.688 133.495H388.92L382.818 147.335C382.454 148.222 382.043 148.918 381.584 149.425C381.141 149.931 380.65 150.287 380.112 150.493C379.574 150.714 378.98 150.825 378.331 150.825ZM381.323 146.481L375.577 133.495H377.952L382.842 144.7L381.323 146.481ZM396.088 146.22C394.822 146.22 393.698 145.943 392.717 145.389C391.736 144.835 390.96 144.075 390.39 143.11C389.821 142.128 389.536 141.02 389.536 139.786C389.536 138.536 389.821 137.428 390.39 136.462C390.96 135.497 391.736 134.745 392.717 134.207C393.698 133.653 394.822 133.376 396.088 133.376C397.338 133.376 398.454 133.653 399.435 134.207C400.433 134.745 401.208 135.497 401.762 136.462C402.332 137.412 402.617 138.52 402.617 139.786C402.617 141.036 402.332 142.144 401.762 143.11C401.208 144.075 400.433 144.835 399.435 145.389C398.454 145.943 397.338 146.22 396.088 146.22ZM396.088 144.225C396.895 144.225 397.615 144.043 398.248 143.679C398.897 143.315 399.404 142.801 399.768 142.136C400.132 141.456 400.314 140.672 400.314 139.786C400.314 138.884 400.132 138.108 399.768 137.459C399.404 136.795 398.897 136.28 398.248 135.916C397.615 135.552 396.895 135.37 396.088 135.37C395.281 135.37 394.561 135.552 393.928 135.916C393.295 136.28 392.788 136.795 392.408 137.459C392.028 138.108 391.838 138.884 391.838 139.786C391.838 140.672 392.028 141.456 392.408 142.136C392.788 142.801 393.295 143.315 393.928 143.679C394.561 144.043 395.281 144.225 396.088 144.225ZM411.063 146.22C409.987 146.22 409.037 146.022 408.214 145.626C407.407 145.23 406.774 144.629 406.315 143.822C405.871 142.999 405.65 141.97 405.65 140.736V133.495H407.929V140.474C407.929 141.709 408.222 142.635 408.807 143.252C409.409 143.869 410.248 144.178 411.324 144.178C412.115 144.178 412.804 144.02 413.389 143.703C413.975 143.371 414.426 142.896 414.743 142.279C415.059 141.646 415.217 140.886 415.217 140V133.495H417.496V146.077H415.336V142.682L415.692 143.584C415.281 144.423 414.663 145.072 413.84 145.531C413.017 145.99 412.092 146.22 411.063 146.22ZM434.929 133.376C435.958 133.376 436.86 133.574 437.636 133.969C438.427 134.365 439.045 134.967 439.488 135.774C439.931 136.581 440.152 137.602 440.152 138.836V146.077H437.873V139.097C437.873 137.879 437.573 136.961 436.971 136.344C436.386 135.726 435.555 135.418 434.478 135.418C433.671 135.418 432.967 135.576 432.366 135.892C431.764 136.209 431.297 136.676 430.965 137.293C430.648 137.91 430.49 138.678 430.49 139.596V146.077H428.211V133.495H430.395V136.89L430.039 135.987C430.45 135.164 431.084 134.523 431.938 134.064C432.793 133.605 433.79 133.376 434.929 133.376ZM449.973 146.22C448.628 146.22 447.441 145.943 446.412 145.389C445.399 144.835 444.608 144.075 444.038 143.11C443.484 142.144 443.207 141.036 443.207 139.786C443.207 138.536 443.476 137.428 444.014 136.462C444.568 135.497 445.32 134.745 446.27 134.207C447.235 133.653 448.319 133.376 449.522 133.376C450.741 133.376 451.817 133.645 452.751 134.183C453.684 134.721 454.413 135.481 454.935 136.462C455.473 137.428 455.742 138.559 455.742 139.857C455.742 139.952 455.734 140.063 455.718 140.189C455.718 140.316 455.71 140.435 455.695 140.546H444.988V138.907H454.507L453.582 139.477C453.597 138.67 453.431 137.95 453.083 137.317C452.735 136.684 452.252 136.193 451.635 135.845C451.033 135.481 450.329 135.299 449.522 135.299C448.731 135.299 448.026 135.481 447.409 135.845C446.792 136.193 446.309 136.692 445.961 137.341C445.613 137.974 445.439 138.702 445.439 139.525V139.905C445.439 140.743 445.629 141.495 446.008 142.16C446.404 142.809 446.95 143.315 447.646 143.679C448.343 144.043 449.142 144.225 450.044 144.225C450.788 144.225 451.461 144.099 452.062 143.846C452.679 143.592 453.218 143.212 453.677 142.706L454.935 144.178C454.365 144.843 453.653 145.349 452.798 145.697C451.959 146.045 451.018 146.22 449.973 146.22ZM464.51 146.22C463.164 146.22 461.977 145.943 460.948 145.389C459.935 144.835 459.144 144.075 458.574 143.11C458.02 142.144 457.743 141.036 457.743 139.786C457.743 138.536 458.013 137.428 458.551 136.462C459.105 135.497 459.856 134.745 460.806 134.207C461.771 133.653 462.856 133.376 464.058 133.376C465.277 133.376 466.353 133.645 467.287 134.183C468.221 134.721 468.949 135.481 469.471 136.462C470.009 137.428 470.278 138.559 470.278 139.857C470.278 139.952 470.271 140.063 470.255 140.189C470.255 140.316 470.247 140.435 470.231 140.546H459.524V138.907H469.044L468.118 139.477C468.134 138.67 467.968 137.95 467.62 137.317C467.271 136.684 466.789 136.193 466.171 135.845C465.57 135.481 464.866 135.299 464.058 135.299C463.267 135.299 462.563 135.481 461.946 135.845C461.328 136.193 460.846 136.692 460.497 137.341C460.149 137.974 459.975 138.702 459.975 139.525V139.905C459.975 140.743 460.165 141.495 460.545 142.16C460.941 142.809 461.487 143.315 462.183 143.679C462.879 144.043 463.679 144.225 464.581 144.225C465.325 144.225 465.997 144.099 466.599 143.846C467.216 143.592 467.754 143.212 468.213 142.706L469.471 144.178C468.902 144.843 468.189 145.349 467.335 145.697C466.496 146.045 465.554 146.22 464.51 146.22ZM478.642 146.22C477.424 146.22 476.332 145.951 475.366 145.412C474.417 144.874 473.665 144.123 473.111 143.157C472.557 142.192 472.28 141.068 472.28 139.786C472.28 138.504 472.557 137.388 473.111 136.438C473.665 135.473 474.417 134.721 475.366 134.183C476.332 133.645 477.424 133.376 478.642 133.376C479.703 133.376 480.66 133.613 481.515 134.088C482.37 134.563 483.05 135.275 483.557 136.225C484.079 137.174 484.34 138.361 484.34 139.786C484.34 141.21 484.087 142.397 483.58 143.347C483.09 144.297 482.417 145.017 481.562 145.507C480.708 145.982 479.734 146.22 478.642 146.22ZM478.832 144.225C479.624 144.225 480.336 144.043 480.969 143.679C481.618 143.315 482.124 142.801 482.488 142.136C482.868 141.456 483.058 140.672 483.058 139.786C483.058 138.884 482.868 138.108 482.488 137.459C482.124 136.795 481.618 136.28 480.969 135.916C480.336 135.552 479.624 135.37 478.832 135.37C478.025 135.37 477.305 135.552 476.672 135.916C476.039 136.28 475.532 136.795 475.153 137.459C474.773 138.108 474.583 138.884 474.583 139.786C474.583 140.672 474.773 141.456 475.153 142.136C475.532 142.801 476.039 143.315 476.672 143.679C477.305 144.043 478.025 144.225 478.832 144.225ZM483.129 146.077V142.682L483.272 139.762L483.034 136.842V128.462H485.313V146.077H483.129ZM48.6141 172.077V169.418L48.4954 168.92V164.385C48.4954 163.42 48.2105 162.676 47.6407 162.154C47.0868 161.615 46.248 161.346 45.1242 161.346C44.3804 161.346 43.6523 161.473 42.9401 161.726C42.2279 161.964 41.6265 162.288 41.1358 162.7L40.1862 160.99C40.8351 160.468 41.6106 160.072 42.5128 159.803C43.4308 159.518 44.3883 159.376 45.3854 159.376C47.1105 159.376 48.44 159.795 49.3738 160.634C50.3076 161.473 50.7745 162.755 50.7745 164.48V172.077H48.6141ZM44.4833 172.22C43.5495 172.22 42.7264 172.061 42.0142 171.745C41.3178 171.428 40.7797 170.993 40.3999 170.439C40.02 169.869 39.8301 169.228 39.8301 168.516C39.8301 167.835 39.9884 167.218 40.3049 166.664C40.6373 166.11 41.1675 165.667 41.8955 165.335C42.6394 165.002 43.6365 164.836 44.8868 164.836H48.8753V166.474H44.9818C43.8423 166.474 43.0746 166.664 42.679 167.044C42.2833 167.424 42.0855 167.883 42.0855 168.421C42.0855 169.038 42.3308 169.537 42.8214 169.917C43.312 170.281 43.9926 170.463 44.8631 170.463C45.7178 170.463 46.4616 170.273 47.0947 169.893C47.7436 169.513 48.2105 168.959 48.4954 168.231L48.9465 169.798C48.6458 170.542 48.1156 171.135 47.3559 171.579C46.5962 172.006 45.6386 172.22 44.4833 172.22ZM60.4762 172.22C59.1943 172.22 58.0468 171.943 57.0339 171.389C56.0368 170.835 55.2533 170.075 54.6835 169.11C54.1138 168.144 53.8289 167.036 53.8289 165.786C53.8289 164.536 54.1138 163.428 54.6835 162.462C55.2533 161.497 56.0368 160.745 57.0339 160.207C58.0468 159.653 59.1943 159.376 60.4762 159.376C61.6158 159.376 62.6287 159.605 63.515 160.064C64.4172 160.508 65.1136 161.172 65.6042 162.059L63.8712 163.174C63.4596 162.557 62.9532 162.106 62.3518 161.821C61.7662 161.521 61.1331 161.37 60.4525 161.37C59.6295 161.37 58.8935 161.552 58.2446 161.916C57.5957 162.28 57.0813 162.795 56.7015 163.459C56.3216 164.108 56.1317 164.884 56.1317 165.786C56.1317 166.688 56.3216 167.471 56.7015 168.136C57.0813 168.801 57.5957 169.315 58.2446 169.679C58.8935 170.043 59.6295 170.225 60.4525 170.225C61.1331 170.225 61.7662 170.083 62.3518 169.798C62.9532 169.497 63.4596 169.038 63.8712 168.421L65.6042 169.513C65.1136 170.384 64.4172 171.056 63.515 171.531C62.6287 171.99 61.6158 172.22 60.4762 172.22ZM73.8535 172.22C72.5715 172.22 71.4241 171.943 70.4111 171.389C69.414 170.835 68.6306 170.075 68.0608 169.11C67.491 168.144 67.2061 167.036 67.2061 165.786C67.2061 164.536 67.491 163.428 68.0608 162.462C68.6306 161.497 69.414 160.745 70.4111 160.207C71.4241 159.653 72.5715 159.376 73.8535 159.376C74.9931 159.376 76.006 159.605 76.8923 160.064C77.7944 160.508 78.4908 161.172 78.9815 162.059L77.2484 163.174C76.8369 162.557 76.3304 162.106 75.729 161.821C75.1434 161.521 74.5103 161.37 73.8298 161.37C73.0068 161.37 72.2708 161.552 71.6219 161.916C70.973 162.28 70.4586 162.795 70.0788 163.459C69.6989 164.108 69.509 164.884 69.509 165.786C69.509 166.688 69.6989 167.471 70.0788 168.136C70.4586 168.801 70.973 169.315 71.6219 169.679C72.2708 170.043 73.0068 170.225 73.8298 170.225C74.5103 170.225 75.1434 170.083 75.729 169.798C76.3304 169.497 76.8369 169.038 77.2484 168.421L78.9815 169.513C78.4908 170.384 77.7944 171.056 76.8923 171.531C76.006 171.99 74.9931 172.22 73.8535 172.22ZM87.3495 172.22C86.0042 172.22 84.8171 171.943 83.7884 171.389C82.7755 170.835 81.9841 170.075 81.4143 169.11C80.8604 168.144 80.5834 167.036 80.5834 165.786C80.5834 164.536 80.8525 163.428 81.3906 162.462C81.9445 161.497 82.6963 160.745 83.6459 160.207C84.6114 159.653 85.6955 159.376 86.8984 159.376C88.1171 159.376 89.1933 159.645 90.1271 160.183C91.0609 160.721 91.789 161.481 92.3113 162.462C92.8494 163.428 93.1184 164.559 93.1184 165.857C93.1184 165.952 93.1105 166.063 93.0947 166.189C93.0947 166.316 93.0868 166.435 93.071 166.546H82.364V164.907H91.8839L90.958 165.477C90.9739 164.67 90.8077 163.95 90.4595 163.317C90.1113 162.684 89.6286 162.193 89.0113 161.845C88.4099 161.481 87.7056 161.299 86.8984 161.299C86.1071 161.299 85.4027 161.481 84.7855 161.845C84.1682 162.193 83.6855 162.692 83.3373 163.341C82.9891 163.974 82.815 164.702 82.815 165.525V165.905C82.815 166.743 83.0049 167.495 83.3848 168.16C83.7805 168.809 84.3265 169.315 85.0229 169.679C85.7193 170.043 86.5186 170.225 87.4207 170.225C88.1646 170.225 88.8372 170.099 89.4386 169.846C90.0559 169.592 90.594 169.212 91.053 168.706L92.3113 170.178C91.7415 170.843 91.0293 171.349 90.1746 171.697C89.3358 172.045 88.3941 172.22 87.3495 172.22ZM99.8917 172.22C98.8472 172.22 97.8501 172.077 96.9004 171.792C95.9666 171.507 95.2307 171.159 94.6926 170.748L95.6422 168.943C96.1803 169.307 96.845 169.616 97.6364 169.869C98.4277 170.123 99.2349 170.249 100.058 170.249C101.118 170.249 101.878 170.099 102.337 169.798C102.812 169.497 103.049 169.078 103.049 168.54C103.049 168.144 102.907 167.835 102.622 167.614C102.337 167.392 101.957 167.226 101.482 167.115C101.023 167.005 100.509 166.91 99.9392 166.83C99.3694 166.736 98.7997 166.625 98.2299 166.498C97.6601 166.356 97.1378 166.166 96.663 165.928C96.1882 165.675 95.8084 165.335 95.5235 164.907C95.2386 164.464 95.0961 163.879 95.0961 163.151C95.0961 162.391 95.3098 161.726 95.7371 161.156C96.1645 160.587 96.7659 160.151 97.5414 159.851C98.3328 159.534 99.2666 159.376 100.343 159.376C101.166 159.376 101.997 159.479 102.836 159.685C103.69 159.874 104.387 160.151 104.925 160.515L103.951 162.32C103.382 161.94 102.788 161.679 102.171 161.536C101.554 161.394 100.936 161.323 100.319 161.323C99.322 161.323 98.5781 161.489 98.0875 161.821C97.5968 162.138 97.3515 162.549 97.3515 163.056C97.3515 163.483 97.4939 163.815 97.7788 164.053C98.0795 164.274 98.4594 164.449 98.9184 164.575C99.3932 164.702 99.9155 164.813 100.485 164.907C101.055 164.987 101.625 165.097 102.195 165.24C102.764 165.366 103.279 165.548 103.738 165.786C104.213 166.023 104.592 166.356 104.877 166.783C105.178 167.21 105.328 167.78 105.328 168.492C105.328 169.252 105.107 169.909 104.664 170.463C104.22 171.017 103.595 171.452 102.788 171.769C101.981 172.069 101.015 172.22 99.8917 172.22ZM111.785 172.22C110.741 172.22 109.744 172.077 108.794 171.792C107.86 171.507 107.124 171.159 106.586 170.748L107.536 168.943C108.074 169.307 108.739 169.616 109.53 169.869C110.321 170.123 111.128 170.249 111.951 170.249C113.012 170.249 113.772 170.099 114.231 169.798C114.705 169.497 114.943 169.078 114.943 168.54C114.943 168.144 114.8 167.835 114.515 167.614C114.231 167.392 113.851 167.226 113.376 167.115C112.917 167.005 112.402 166.91 111.833 166.83C111.263 166.736 110.693 166.625 110.123 166.498C109.554 166.356 109.031 166.166 108.557 165.928C108.082 165.675 107.702 165.335 107.417 164.907C107.132 164.464 106.99 163.879 106.99 163.151C106.99 162.391 107.203 161.726 107.631 161.156C108.058 160.587 108.659 160.151 109.435 159.851C110.226 159.534 111.16 159.376 112.236 159.376C113.059 159.376 113.89 159.479 114.729 159.685C115.584 159.874 116.28 160.151 116.818 160.515L115.845 162.32C115.275 161.94 114.682 161.679 114.064 161.536C113.447 161.394 112.83 161.323 112.213 161.323C111.215 161.323 110.472 161.489 109.981 161.821C109.49 162.138 109.245 162.549 109.245 163.056C109.245 163.483 109.387 163.815 109.672 164.053C109.973 164.274 110.353 164.449 110.812 164.575C111.287 164.702 111.809 164.813 112.379 164.907C112.949 164.987 113.518 165.097 114.088 165.24C114.658 165.366 115.172 165.548 115.631 165.786C116.106 166.023 116.486 166.356 116.771 166.783C117.071 167.21 117.222 167.78 117.222 168.492C117.222 169.252 117 169.909 116.557 170.463C116.114 171.017 115.489 171.452 114.682 171.769C113.874 172.069 112.909 172.22 111.785 172.22ZM120.616 172.22C120.173 172.22 119.793 172.069 119.477 171.769C119.16 171.452 119.002 171.056 119.002 170.581C119.002 170.107 119.16 169.719 119.477 169.418C119.793 169.117 120.173 168.967 120.616 168.967C121.043 168.967 121.408 169.117 121.708 169.418C122.025 169.719 122.183 170.107 122.183 170.581C122.183 171.056 122.025 171.452 121.708 171.769C121.408 172.069 121.043 172.22 120.616 172.22Z" fill="black"/>
<path d="M480.046 47.9528C461.328 48.4293 452.605 33.0638 450.583 25.3214H575.366L579.699 67.6065C565.834 73.562 549.37 69.3931 542.437 61.0553C533.772 49.7395 533.194 45.372 525.106 42.5927C509.162 39.734 495.644 47.5558 480.046 47.9528Z" fill="#FFB950"/>
<defs>
<filter id="filter0_dd_895_11" x="0" y="0" width="598.872" height="243.292" filterUnits="userSpaceOnUse" color-interpolation-filters="sRGB">
<feFlood flood-opacity="0" result="BackgroundImageFix"/>
<feColorMatrix in="SourceAlpha" type="matrix" values="0 0 0 0 0 0 0 0 0 0 0 0 0 0 0 0 0 0 127 0" result="hardAlpha"/>
<feOffset dx="2" dy="2"/>
<feGaussianBlur stdDeviation="5"/>
<feComposite in2="hardAlpha" operator="out"/>
<feColorMatrix type="matrix" values="0 0 0 0 0 0 0 0 0 0 0 0 0 0 0 0 0 0 0.25 0"/>
<feBlend mode="normal" in2="BackgroundImageFix" result="effect1_dropShadow_895_11"/>
<feColorMatrix in="SourceAlpha" type="matrix" values="0 0 0 0 0 0 0 0 0 0 0 0 0 0 0 0 0 0 127 0" result="hardAlpha"/>
<feOffset dx="-2" dy="-2"/>
<feGaussianBlur stdDeviation="5"/>
<feComposite in2="hardAlpha" operator="out"/>
<feColorMatrix type="matrix" values="0 0 0 0 0 0 0 0 0 0 0 0 0 0 0 0 0 0 0.25 0"/>
<feBlend mode="normal" in2="effect1_dropShadow_895_11" result="effect2_dropShadow_895_11"/>
<feBlend mode="normal" in="SourceGraphic" in2="effect2_dropShadow_895_11" result="shape"/>
</filter>
</defs>
</svg>
