<svg width="587" height="965" viewBox="0 0 587 965" fill="none" xmlns="http://www.w3.org/2000/svg">
<path d="M0 293.5C0 131.404 131.404 0 293.5 0C455.596 0 587 131.404 587 293.5V999H0V293.5Z" fill="#FCC21B"/>
<g clip-path="url(#clip0_851_11)">
<path d="M79 470.488C79 351.477 175.477 255 294.488 255C413.499 255 509.976 351.477 509.976 470.488V624.216H79V470.488Z" fill="#00A384"/>
<ellipse opacity="0.2" cx="293.817" cy="540.303" rx="197.363" ry="220.858" fill="#FCFCFC"/>
<path d="M246.826 440.279C284.049 443.785 304.928 443.933 342.151 440.279" stroke="#00826A" stroke-width="10.7408" stroke-linecap="round"/>
<path d="M262.937 328.843H185.066V378.52C185.066 390.384 194.683 400.001 206.547 400.001H241.455C253.319 400.001 262.937 390.384 262.937 378.52V328.843Z" fill="white"/>
<path d="M183.723 331.529C214.18 327.986 231.994 328.609 264.279 331.528" stroke="#111111" stroke-width="18.7965" stroke-linecap="round"/>
<circle cx="224.001" cy="374.492" r="26.8521" fill="#111111"/>
<path d="M186.408 400.001C215.243 396.496 231.417 396.347 260.251 400.001" stroke="#00826A" stroke-width="10.7408" stroke-linecap="round"/>
<path d="M324.697 323.473H402.568V378.52C402.568 390.383 392.95 400.001 381.086 400.001H346.178C334.314 400.001 324.697 390.384 324.697 378.52V323.473Z" fill="white"/>
<path d="M323.354 331.529C353.087 314.898 370.725 314.897 403.91 331.528" stroke="#111111" stroke-width="18.7965" stroke-linecap="round"/>
<circle cx="363.632" cy="374.492" r="26.8521" fill="#111111"/>
<path d="M326.039 400.001C354.874 396.496 371.048 396.347 399.882 400.001" stroke="#00826A" stroke-width="10.7408" stroke-linecap="round"/>
<path d="M196.212 475.585C195.989 464.309 205.069 455.048 216.347 455.048H371.286C382.564 455.048 391.644 464.309 391.421 475.585L388.798 608.502C388.581 619.468 379.63 628.244 368.662 628.244H218.971C208.003 628.244 199.052 619.468 198.836 608.502L196.212 475.585Z" fill="#EA6101"/>
<path d="M216.348 455.719H371.286C382.188 455.719 390.965 464.671 390.75 475.571L388.126 608.489C387.917 619.089 379.264 627.572 368.662 627.572H218.971C208.369 627.572 199.716 619.089 199.507 608.489L196.883 475.571C196.668 464.671 205.446 455.719 216.348 455.719Z" stroke="white" stroke-opacity="0.2" stroke-width="1.3426"/>
<path d="M371.286 450.349C385.196 450.349 396.393 461.77 396.119 475.677L393.496 608.595C393.229 622.119 382.189 632.943 368.662 632.943H218.971C205.444 632.943 194.405 622.119 194.138 608.595L191.514 475.677C191.239 461.77 202.438 450.349 216.348 450.349H371.286Z" stroke="white" stroke-opacity="0.2" stroke-width="9.39823"/>
<g filter="url(#filter0_d_851_11)">
<path d="M205.428 484.805C205.305 477.305 211.351 471.159 218.852 471.159H370.124C377.625 471.159 383.671 477.305 383.548 484.805L382.604 542.537C382.484 549.865 376.509 555.743 369.18 555.743H219.796C212.467 555.743 206.492 549.865 206.372 542.537L205.428 484.805Z" fill="#EA6101"/>
<path d="M218.852 472.502H370.124C376.875 472.502 382.316 478.033 382.206 484.783L381.261 542.515C381.154 549.11 375.776 554.4 369.179 554.4H219.797C213.2 554.4 207.822 549.11 207.715 542.515L206.77 484.783C206.66 478.033 212.101 472.502 218.852 472.502Z" stroke="url(#paint0_linear_851_11)" stroke-opacity="0.2" stroke-width="2.68521"/>
</g>
<circle cx="363.632" cy="542.317" r="6.71302" fill="#331805"/>
<circle cx="362.29" cy="487.27" r="8.05562" fill="#FFD7BB"/>
<circle cx="230.043" cy="497.34" r="14.0973" fill="#662A00"/>
<circle cx="230.043" cy="530.905" r="14.0973" fill="#662A00"/>
<circle cx="258.238" cy="513.451" r="14.0973" fill="#662A00"/>
<path d="M438.425 479.215H414.324C413.723 479.215 413.196 479.614 413.032 480.192L405.746 505.974C405.388 507.239 406.874 508.211 407.89 507.377L439.277 481.595C440.251 480.795 439.685 479.215 438.425 479.215Z" fill="#FCFCFC"/>
<rect x="395.854" y="406.714" width="81.8988" height="77.871" rx="16.1112" fill="#FCFCFC"/>
<path d="M436.804 417.455C421.605 417.455 409.281 429.779 409.281 444.978C409.281 460.178 421.605 472.502 436.804 472.502C452.003 472.502 464.327 460.178 464.327 444.978C464.327 429.779 452.003 417.455 436.804 417.455ZM423.042 439.388C423.058 438.616 423.376 437.881 423.927 437.341C424.478 436.801 425.219 436.498 425.991 436.498C426.763 436.498 427.504 436.801 428.055 437.341C428.607 437.881 428.924 438.616 428.94 439.388C428.924 440.159 428.607 440.894 428.055 441.434C427.504 441.975 426.763 442.277 425.991 442.277C425.219 442.277 424.478 441.975 423.927 441.434C423.376 440.894 423.058 440.159 423.042 439.388ZM436.804 456.098C431.551 456.098 427.244 451.964 426.974 446.785C426.971 446.718 426.981 446.651 427.004 446.589C427.027 446.526 427.063 446.469 427.109 446.421C427.155 446.373 427.21 446.334 427.272 446.308C427.333 446.282 427.399 446.268 427.466 446.269H430.421C430.679 446.269 430.9 446.465 430.918 446.723C431.152 449.764 433.701 452.166 436.804 452.166C439.906 452.166 442.462 449.764 442.689 446.723C442.708 446.465 442.929 446.269 443.187 446.269H446.142C446.209 446.268 446.275 446.282 446.336 446.308C446.397 446.334 446.453 446.373 446.499 446.421C446.545 446.469 446.58 446.526 446.604 446.589C446.627 446.651 446.637 446.718 446.634 446.785C446.363 451.964 442.057 456.098 436.804 456.098ZM447.617 442.337C446.845 442.321 446.11 442.003 445.57 441.452C445.03 440.901 444.727 440.16 444.727 439.388C444.727 438.616 445.03 437.875 445.57 437.323C446.11 436.772 446.845 436.455 447.617 436.439C448.388 436.455 449.123 436.772 449.663 437.323C450.203 437.875 450.506 438.616 450.506 439.388C450.506 440.16 450.203 440.901 449.663 441.452C449.123 442.003 448.388 442.321 447.617 442.337Z" fill="#FE6B03"/>
</g>
<path d="M79 470.488C79 351.477 175.477 255 294.488 255C413.499 255 509.976 351.477 509.976 470.488V624.216H79V470.488Z" stroke="#12544B" stroke-width="10.7408"/>
<g clip-path="url(#clip1_851_11)">
<path d="M351.397 683.241C353.262 629.055 398.701 586.641 452.887 588.506C507.073 590.371 549.488 635.809 547.623 689.995L544.916 768.648L348.69 761.894L351.397 683.241Z" fill="#00A384"/>
<path d="M477.503 769.575C512.971 752.918 528.575 736.983 547.455 694.86L544.804 771.891L477.503 769.575Z" fill="#03866D"/>
<path d="M380.305 647.657L430.578 649.387L429.677 675.564C429.558 679.02 426.66 681.725 423.204 681.606L385.446 680.306C381.99 680.187 379.285 677.29 379.404 673.834L380.305 647.657Z" fill="#FCFCFC"/>
<path d="M471.12 650.783L519.771 652.457L518.87 678.634C518.751 682.09 515.853 684.795 512.397 684.676L476.261 683.432C472.805 683.313 470.1 680.415 470.219 676.96L471.12 650.783Z" fill="#FCFCFC"/>
<circle cx="404.11" cy="664.88" r="11.4782" transform="rotate(1.97132 404.11 664.88)" fill="#111111"/>
<circle cx="494.317" cy="667.985" r="11.4782" transform="rotate(1.97132 494.317 667.985)" fill="#111111"/>
<path d="M377.058 645.284C395.444 647.303 408.221 647.094 430.663 644.567" stroke="#111111" stroke-width="8.34779" stroke-linecap="round"/>
<path d="M521.389 650.251C502.908 651.002 490.176 649.915 467.961 645.851" stroke="#111111" stroke-width="8.34779" stroke-linecap="round"/>
<path d="M436.12 715.187C444.576 709.615 450.929 707.518 462.537 714.989C462.967 715.266 462.774 715.921 462.263 715.925L436.409 716.132C435.893 716.136 435.69 715.471 436.12 715.187Z" stroke="#00826A" stroke-width="7.30432" stroke-linecap="round"/>
<path d="M516.95 684.88C500.006 682.195 489.884 681.771 471.547 683.175" stroke="#00826A" stroke-width="5.22496" stroke-linecap="round"/>
<path d="M426.135 681.755C409.191 679.07 399.069 678.645 380.732 680.05" stroke="#00826A" stroke-width="5.22496" stroke-linecap="round"/>
</g>
<path d="M351.397 683.241C353.262 629.055 398.701 586.641 452.887 588.506C507.073 590.371 549.488 635.809 547.623 689.995L544.916 768.648L348.69 761.894L351.397 683.241Z" stroke="#12544B" stroke-width="6.49063"/>
<defs>
<filter id="filter0_d_851_11" x="205.426" y="471.159" width="178.124" height="89.2832" filterUnits="userSpaceOnUse" color-interpolation-filters="sRGB">
<feFlood flood-opacity="0" result="BackgroundImageFix"/>
<feColorMatrix in="SourceAlpha" type="matrix" values="0 0 0 0 0 0 0 0 0 0 0 0 0 0 0 0 0 0 127 0" result="hardAlpha"/>
<feOffset dy="4.69911"/>
<feComposite in2="hardAlpha" operator="out"/>
<feColorMatrix type="matrix" values="0 0 0 0 0 0 0 0 0 0 0 0 0 0 0 0 0 0 0.25 0"/>
<feBlend mode="normal" in2="BackgroundImageFix" result="effect1_dropShadow_851_11"/>
<feBlend mode="normal" in="SourceGraphic" in2="effect1_dropShadow_851_11" result="shape"/>
</filter>
<linearGradient id="paint0_linear_851_11" x1="293.855" y1="471.159" x2="293.855" y2="582.595" gradientUnits="userSpaceOnUse">
<stop stop-color="white"/>
<stop offset="1" stop-color="#FE6B03"/>
</linearGradient>
<clipPath id="clip0_851_11">
<path d="M79 470.488C79 351.477 175.477 255 294.488 255C413.499 255 509.976 351.477 509.976 470.488V624.216H79V470.488Z" fill="white"/>
</clipPath>
<clipPath id="clip1_851_11">
<path d="M351.397 683.241C353.262 629.055 398.701 586.641 452.887 588.506C507.073 590.371 549.488 635.809 547.623 689.995L544.916 768.648L348.69 761.894L351.397 683.241Z" fill="white"/>
</clipPath>
</defs>
</svg>
