<svg width="276" height="277" viewBox="0 0 276 277" fill="none" xmlns="http://www.w3.org/2000/svg">
<rect x="145.176" y="5.58735" width="81" height="67" rx="25" transform="rotate(4 145.176 5.58735)" fill="#31363B" stroke="#31363B" stroke-width="6"/>
<rect x="147.959" y="8.78931" width="70" height="61" rx="22" transform="rotate(4 147.959 8.78931)" fill="#46525F"/>
<rect x="157.572" y="15.4762" width="50.8881" height="26" rx="13" transform="rotate(4 157.572 15.4762)" fill="#F8F9F9"/>
<rect x="16.3955" y="39.5925" width="268.189" height="230.024" rx="40.7957" transform="rotate(4 16.3955 39.5925)" fill="#31363B" stroke="#31363B" stroke-width="6.18898"/>
<rect x="19.2666" y="42.8953" width="252.717" height="223.835" rx="37.7012" transform="rotate(4 19.2666 42.8953)" fill="#46525F"/>
<rect x="39.376" y="88.4485" width="172.995" height="146.222" rx="73.111" transform="rotate(4 39.376 88.4485)" fill="#31363B"/>
<mask id="mask0_130_256" style="mask-type:alpha" maskUnits="userSpaceOnUse" x="33" y="93" width="150" height="147">
<path d="M112.885 96.6514C152.068 99.3914 181.569 132.919 178.874 171.453C176.179 209.987 142.3 239.082 103.117 236.343C63.9344 233.603 34.4341 200.076 37.1284 161.542C39.823 123.007 73.7024 93.9115 112.885 96.6514Z" fill="#A2DCD1" stroke="#31363B" stroke-width="6.18898"/>
</mask>
<g mask="url(#mask0_130_256)">
<path d="M112.885 96.6514C152.068 99.3914 181.569 132.919 178.874 171.453C176.179 209.987 142.3 239.082 103.117 236.343C63.9344 233.603 34.4341 200.076 37.1284 161.542C39.823 123.007 73.7024 93.9115 112.885 96.6514Z" fill="#FE6B03" stroke="#31363B" stroke-width="6.18898"/>
<path d="M61.2979 138.409L95.2979 138.409L95.2979 151.409C95.2979 160.798 87.6867 168.409 78.2979 168.409C68.909 168.409 61.2979 160.798 61.2979 151.409L61.2979 138.409Z" fill="#FCFCFC"/>
<path d="M119.298 138.409L153.298 138.409L153.298 151.409C153.298 160.798 145.687 168.409 136.298 168.409C126.909 168.409 119.298 160.798 119.298 151.409L119.298 138.409Z" fill="#FCFCFC"/>
<path d="M61.2979 136.409L95.2979 141.409" stroke="#111111" stroke-width="8" stroke-linecap="round"/>
<path d="M153.298 136.409L119.298 141.409" stroke="#111111" stroke-width="8" stroke-linecap="round"/>
<path d="M87.6403 198.813C96.6403 178.498 119.64 179.131 127.64 198.813" stroke="#974103" stroke-width="8" stroke-linecap="round"/>
<rect opacity="0.1" x="44.6127" y="64.6838" width="204.586" height="152" transform="rotate(22 44.6127 64.6838)" fill="#FCFCFC"/>
<rect opacity="0.5" x="92.717" y="84.1193" width="43" height="152" transform="rotate(22 92.717 84.1193)" fill="#FCFCFC"/>
<rect opacity="0.5" x="154.922" y="120.339" width="28.0551" height="152" transform="rotate(22 154.922 120.339)" fill="#FCFCFC"/>
<path d="M112.885 96.6514C152.068 99.3914 181.569 132.919 178.874 171.453C176.179 209.987 142.3 239.082 103.117 236.343C63.9344 233.603 34.4341 200.076 37.1284 161.542C39.823 123.007 73.7024 93.9115 112.885 96.6514Z" stroke="#31363B" stroke-width="6.18898"/>
</g>
<circle cx="236.162" cy="96.1062" r="15.446" transform="rotate(4 236.162 96.1062)" fill="#F8F9F9"/>
</svg>
