<svg width="313" height="258" viewBox="0 0 313 258" fill="none" xmlns="http://www.w3.org/2000/svg">
<g clip-path="url(#clip0_157_801)">
<path d="M-4 164.5C-4 75.8583 67.8583 4 156.5 4C245.142 4 317 75.8583 317 164.5V279H-4V164.5Z" fill="#00A384"/>
<ellipse opacity="0.2" cx="156" cy="216.5" rx="147" ry="164.5" fill="#FCFCFC"/>
<path d="M121 142C148.725 144.611 164.276 144.722 192 142" stroke="#00826A" stroke-width="8" stroke-linecap="round"/>
<path d="M133 59H75V96C75 104.837 82.1634 112 91 112H117C125.837 112 133 104.837 133 96V59Z" fill="white"/>
<path d="M74 61.0001C96.6848 58.3617 109.953 58.8254 134 61" stroke="#111111" stroke-width="14" stroke-linecap="round"/>
<circle cx="104" cy="93" r="20" fill="#111111"/>
<path d="M76 112C97.4768 109.389 109.524 109.278 131 112" stroke="#00826A" stroke-width="8" stroke-linecap="round"/>
<path d="M179 55H237V96C237 104.837 229.837 112 221 112H195C186.163 112 179 104.837 179 96V55Z" fill="white"/>
<path d="M178 61.0001C200.146 48.6137 213.283 48.6125 238 61" stroke="#111111" stroke-width="14" stroke-linecap="round"/>
<circle cx="208" cy="93" r="20" fill="#111111"/>
<path d="M180 112C201.477 109.389 213.524 109.278 235 112" stroke="#00826A" stroke-width="8" stroke-linecap="round"/>
<path d="M83.302 168.296C83.1362 159.898 89.8989 153 98.299 153H213.701C222.101 153 228.864 159.898 228.698 168.296L226.744 267.296C226.583 275.463 219.916 282 211.747 282H100.253C92.0845 282 85.4175 275.463 85.2562 267.296L83.302 168.296Z" fill="#EA6101"/>
<path d="M98.2988 153.5H213.701C221.821 153.5 228.358 160.168 228.198 168.286L226.244 267.286C226.088 275.181 219.643 281.5 211.747 281.5H100.253C92.3565 281.5 85.9117 275.181 85.7559 267.286L83.8018 168.286C83.644 160.294 89.9764 153.709 97.9199 153.505L98.2988 153.5Z" stroke="white" stroke-opacity="0.2"/>
<path d="M213.701 149.5C224.061 149.5 232.402 158.007 232.197 168.365L230.243 267.365C230.044 277.438 221.822 285.5 211.747 285.5H100.253C90.1782 285.5 81.9557 277.438 81.7568 267.365L79.8027 168.365C79.5983 158.007 87.9388 149.5 98.2988 149.5H213.701Z" stroke="white" stroke-opacity="0.2" stroke-width="7"/>
<g filter="url(#filter0_d_157_801)">
<path d="M90.1662 175.164C90.0749 169.577 94.5781 165 100.165 165H212.835C218.422 165 222.925 169.577 222.834 175.164L222.131 218.164C222.041 223.622 217.591 228 212.132 228H100.868C95.409 228 90.9587 223.622 90.8695 218.164L90.1662 175.164Z" fill="#EA6101"/>
<path d="M100.165 166H212.835C217.863 166 221.916 170.12 221.834 175.147L221.131 218.147C221.05 223.06 217.045 227 212.132 227H100.868C95.9551 227 91.9496 223.06 91.8691 218.147L91.166 175.147C91.0838 170.12 95.1369 166 100.165 166Z" stroke="url(#paint0_linear_157_801)" stroke-opacity="0.2" stroke-width="2"/>
</g>
<circle cx="208" cy="218" r="5" fill="#331805"/>
<circle cx="207" cy="177" r="6" fill="#FFD7BB"/>
<circle cx="108.5" cy="184.5" r="10.5" fill="#662A00"/>
<circle cx="108.5" cy="209.5" r="10.5" fill="#662A00"/>
<circle cx="129.5" cy="196.5" r="10.5" fill="#662A00"/>
<path d="M263.707 171H245.757C245.309 171 244.916 171.297 244.794 171.728L239.367 190.931C239.101 191.873 240.208 192.597 240.964 191.976L264.342 172.773C265.067 172.177 264.646 171 263.707 171Z" fill="#FCFCFC"/>
<rect x="232" y="117" width="61" height="58" rx="12" fill="#FCFCFC"/>
<path d="M262.5 125C251.179 125 242 134.179 242 145.5C242 156.821 251.179 166 262.5 166C273.821 166 283 156.821 283 145.5C283 134.179 273.821 125 262.5 125ZM252.25 141.336C252.262 140.761 252.498 140.214 252.909 139.812C253.32 139.409 253.872 139.184 254.446 139.184C255.021 139.184 255.573 139.409 255.984 139.812C256.395 140.214 256.631 140.761 256.643 141.336C256.631 141.911 256.395 142.458 255.984 142.86C255.573 143.263 255.021 143.488 254.446 143.488C253.872 143.488 253.32 143.263 252.909 142.86C252.498 142.458 252.262 141.911 252.25 141.336ZM262.5 153.782C258.588 153.782 255.38 150.703 255.179 146.845C255.176 146.796 255.184 146.746 255.201 146.7C255.218 146.653 255.245 146.611 255.279 146.575C255.313 146.539 255.355 146.51 255.4 146.49C255.446 146.471 255.495 146.461 255.545 146.461H257.746C257.938 146.461 258.103 146.607 258.116 146.8C258.29 149.065 260.189 150.854 262.5 150.854C264.811 150.854 266.714 149.065 266.884 146.8C266.897 146.607 267.062 146.461 267.254 146.461H269.455C269.505 146.461 269.554 146.471 269.6 146.49C269.645 146.51 269.687 146.539 269.721 146.575C269.755 146.611 269.782 146.653 269.799 146.7C269.816 146.746 269.824 146.796 269.821 146.845C269.62 150.703 266.412 153.782 262.5 153.782ZM270.554 143.532C269.979 143.521 269.432 143.284 269.029 142.873C268.627 142.463 268.402 141.911 268.402 141.336C268.402 140.761 268.627 140.209 269.029 139.798C269.432 139.388 269.979 139.151 270.554 139.14C271.128 139.151 271.676 139.388 272.078 139.798C272.48 140.209 272.706 140.761 272.706 141.336C272.706 141.911 272.48 142.463 272.078 142.873C271.676 143.284 271.128 143.521 270.554 143.532Z" fill="#FE6B03"/>
</g>
<path d="M-4 164.5C-4 75.8583 67.8583 4 156.5 4C245.142 4 317 75.8583 317 164.5V279H-4V164.5Z" stroke="#12544B" stroke-width="8"/>
<defs>
<filter id="filter0_d_157_801" x="90.1649" y="165" width="132.67" height="66.5" filterUnits="userSpaceOnUse" color-interpolation-filters="sRGB">
<feFlood flood-opacity="0" result="BackgroundImageFix"/>
<feColorMatrix in="SourceAlpha" type="matrix" values="0 0 0 0 0 0 0 0 0 0 0 0 0 0 0 0 0 0 127 0" result="hardAlpha"/>
<feOffset dy="3.5"/>
<feComposite in2="hardAlpha" operator="out"/>
<feColorMatrix type="matrix" values="0 0 0 0 0 0 0 0 0 0 0 0 0 0 0 0 0 0 0.25 0"/>
<feBlend mode="normal" in2="BackgroundImageFix" result="effect1_dropShadow_157_801"/>
<feBlend mode="normal" in="SourceGraphic" in2="effect1_dropShadow_157_801" result="shape"/>
</filter>
<linearGradient id="paint0_linear_157_801" x1="156.029" y1="165" x2="156.029" y2="248" gradientUnits="userSpaceOnUse">
<stop stop-color="white"/>
<stop offset="1" stop-color="#FE6B03"/>
</linearGradient>
<clipPath id="clip0_157_801">
<path d="M-4 164.5C-4 75.8583 67.8583 4 156.5 4C245.142 4 317 75.8583 317 164.5V279H-4V164.5Z" fill="white"/>
</clipPath>
</defs>
</svg>
