<svg width="436" height="436" viewBox="0 0 436 436" fill="none" xmlns="http://www.w3.org/2000/svg">
<g clip-path="url(#clip0_1073_195)">
<ellipse cx="227.5" cy="319.244" rx="279.5" ry="224.016" fill="#A2E8EF"/>
<path d="M-8 420.298L56.357 319.083C56.8347 318.332 57.8897 318.226 58.5073 318.868L104.812 366.956C105.453 367.622 106.555 367.478 107.004 366.67L185.681 225.068C186.125 224.27 187.208 224.118 187.854 224.763L242.013 278.816C242.654 279.457 243.729 279.312 244.178 278.525L298.884 182.658C299.395 181.762 300.675 181.728 301.234 182.595L350.928 259.817C351.476 260.669 352.725 260.656 353.255 259.793L464.893 78" stroke="#04C4D9" stroke-width="19.2457"/>
<rect x="270.917" y="64.6808" width="111.35" height="92.1042" rx="34.3672" transform="rotate(4 270.917 64.6808)" fill="#31363B" stroke="#31363B" stroke-width="8.24814"/>
<rect x="274.744" y="69.0825" width="96.2283" height="83.8561" rx="30.2432" transform="rotate(4 274.744 69.0825)" fill="#46525F"/>
<rect x="287.959" y="78.2747" width="69.9554" height="35.7419" rx="17.871" transform="rotate(4 287.959 78.2747)" fill="#F8F9F9"/>
<rect x="93.8847" y="111.427" width="368.677" height="316.211" rx="56.0814" transform="rotate(4 93.8847 111.427)" fill="#31363B" stroke="#31363B" stroke-width="8.50792"/>
<rect x="97.8315" y="115.968" width="347.407" height="307.703" rx="51.8274" transform="rotate(4 97.8315 115.968)" fill="#46525F"/>
<rect x="125.476" y="178.589" width="237.814" height="201.01" rx="100.505" transform="rotate(4 125.476 178.589)" fill="#31363B"/>
<mask id="mask0_1073_195" style="mask-type:alpha" maskUnits="userSpaceOnUse" x="117" y="185" width="205" height="202">
<path d="M226.529 189.865C280.393 193.632 320.947 239.722 317.243 292.695C313.539 345.667 266.965 385.665 213.1 381.898C159.236 378.132 118.681 332.042 122.386 279.069C126.09 226.096 172.664 186.099 226.529 189.865Z" fill="#A2DCD1" stroke="#31363B" stroke-width="8.50792"/>
</mask>
<g mask="url(#mask0_1073_195)">
<path d="M226.529 189.865C280.393 193.632 320.947 239.722 317.243 292.695C313.539 345.667 266.965 385.665 213.1 381.898C159.236 378.132 118.681 332.042 122.386 279.069C126.09 226.096 172.664 186.099 226.529 189.865Z" fill="#FE6B03" stroke="#31363B" stroke-width="8.50792"/>
<path d="M155.611 247.27L202.351 247.27L202.351 265.141C202.351 278.048 191.888 288.511 178.981 288.511C166.074 288.511 155.611 278.048 155.611 265.141L155.611 247.27Z" fill="#FCFCFC"/>
<path d="M235.343 247.27L282.083 247.27L282.083 265.141C282.083 278.048 271.62 288.511 258.713 288.511C245.806 288.511 235.343 278.048 235.343 265.141L235.343 247.27Z" fill="#FCFCFC"/>
<path d="M155.611 244.521L202.351 251.394" stroke="#111111" stroke-width="10.9975" stroke-linecap="round"/>
<path d="M282.083 244.521L235.344 251.394" stroke="#111111" stroke-width="10.9975" stroke-linecap="round"/>
<path d="M191.824 330.306C204.196 302.379 235.814 303.249 246.811 330.306" stroke="#974103" stroke-width="10.9975" stroke-linecap="round"/>
<rect opacity="0.1" x="132.675" y="145.92" width="281.243" height="208.953" transform="rotate(22 132.675 145.92)" fill="#FCFCFC"/>
<rect opacity="0.5" x="198.803" y="172.638" width="59.1117" height="208.953" transform="rotate(22 198.803 172.638)" fill="#FCFCFC"/>
<rect opacity="0.5" x="284.316" y="222.429" width="38.567" height="208.953" transform="rotate(22 284.316 222.429)" fill="#FCFCFC"/>
<path d="M226.529 189.865C280.393 193.632 320.947 239.722 317.243 292.695C313.539 345.667 266.965 385.665 213.1 381.898C159.236 378.132 118.681 332.042 122.386 279.069C126.09 226.096 172.664 186.099 226.529 189.865Z" stroke="#31363B" stroke-width="8.50792"/>
</g>
<circle cx="395.995" cy="189.116" r="21.2334" transform="rotate(4 395.995 189.116)" fill="#F8F9F9"/>
<path d="M339.603 327.557V347.981M339.603 360.746V381.17M310.047 354.363H332.566M346.64 354.363H369.159" stroke="#F8F9F9" stroke-width="5.49876" stroke-linecap="round"/>
<path d="M134.775 159.982V184.491M134.775 199.809V224.318M99.3076 192.15H126.33M143.219 192.15H170.242" stroke="#F8F9F9" stroke-width="6.59851" stroke-linecap="round"/>
</g>
<defs>
<clipPath id="clip0_1073_195">
<rect width="436" height="436" fill="white"/>
</clipPath>
</defs>
</svg>
