<svg width="436" height="436" viewBox="0 0 436 436" fill="none" xmlns="http://www.w3.org/2000/svg">
<g clip-path="url(#clip0_1073_145)">
<path d="M0 132.863C170.269 108.389 265.732 107.638 436 132.863V446.997H0V132.863Z" fill="#A2E8EF"/>
<g clip-path="url(#clip1_1073_145)">
<path d="M0 332C0 211.602 97.6019 114 218 114V114C338.398 114 436 211.602 436 332V487.52H0V332Z" fill="#00A384"/>
<ellipse opacity="0.2" cx="217.321" cy="402.629" rx="199.664" ry="223.433" fill="#FCFCFC"/>
<path d="M169.782 301.439C207.439 304.986 228.561 305.136 266.218 301.439" stroke="#00826A" stroke-width="10.866" stroke-linecap="round"/>
<path d="M186.081 188.704H107.302V238.96C107.302 250.962 117.032 260.692 129.034 260.692H164.349C176.351 260.692 186.081 250.962 186.081 238.96V188.704Z" fill="white"/>
<path d="M105.944 191.421C136.756 187.837 154.777 188.467 187.439 191.42" stroke="#111111" stroke-width="19.0156" stroke-linecap="round"/>
<circle cx="146.691" cy="234.885" r="27.1651" fill="#111111"/>
<path d="M108.661 260.692C137.832 257.145 154.194 256.995 183.365 260.692" stroke="#00826A" stroke-width="10.866" stroke-linecap="round"/>
<path d="M248.561 183.271H327.339V238.959C327.339 250.962 317.61 260.692 305.607 260.692H270.293C258.29 260.692 248.561 250.962 248.561 238.959V183.271Z" fill="white"/>
<path d="M247.203 191.421C277.282 174.597 295.126 174.595 328.698 191.421" stroke="#111111" stroke-width="19.0156" stroke-linecap="round"/>
<circle cx="287.95" cy="234.885" r="27.1651" fill="#111111"/>
<path d="M249.919 260.692C279.09 257.145 295.452 256.995 324.623 260.692" stroke="#00826A" stroke-width="10.866" stroke-linecap="round"/>
<path d="M118.579 337.156C118.353 325.749 127.539 316.38 138.948 316.38H295.694C307.103 316.38 316.289 325.749 316.064 337.156L313.409 471.623C313.19 482.717 304.135 491.595 293.039 491.595H141.603C130.507 491.595 121.452 482.717 121.233 471.623L118.579 337.156Z" fill="#EA6101"/>
<path d="M138.949 317.059H295.694C306.723 317.059 315.602 326.116 315.384 337.143L312.73 471.61C312.518 482.333 303.765 490.916 293.04 490.916H141.603C130.877 490.916 122.123 482.333 121.912 471.61L119.257 337.143C119.04 326.116 127.92 317.059 138.949 317.059Z" stroke="white" stroke-opacity="0.2" stroke-width="1.35826"/>
<path d="M295.694 311.626C309.766 311.626 321.095 323.181 320.817 337.25L318.163 471.717C317.893 485.399 306.724 496.349 293.04 496.349H141.603C127.919 496.349 116.75 485.399 116.48 471.717L113.826 337.25C113.548 323.181 124.877 311.626 138.949 311.626H295.694Z" stroke="white" stroke-opacity="0.2" stroke-width="9.50779"/>
<g filter="url(#filter0_d_1073_145)">
<path d="M127.902 346.484C127.777 338.897 133.894 332.679 141.482 332.679H294.517C302.106 332.679 308.222 338.897 308.098 346.484L307.143 404.889C307.022 412.303 300.977 418.249 293.562 418.249H142.437C135.023 418.249 128.978 412.303 128.857 404.889L127.902 346.484Z" fill="#EA6101"/>
<path d="M141.482 334.038H294.518C301.347 334.038 306.852 339.633 306.74 346.461L305.785 404.867C305.676 411.539 300.236 416.891 293.562 416.891H142.438C135.764 416.891 130.324 411.539 130.215 404.867L129.26 346.461C129.148 339.633 134.653 334.038 141.482 334.038Z" stroke="url(#paint0_linear_1073_145)" stroke-opacity="0.2" stroke-width="2.71651"/>
</g>
<circle cx="287.95" cy="404.667" r="6.79128" fill="#331805"/>
<circle cx="286.592" cy="348.978" r="8.14953" fill="#FFD7BB"/>
<circle cx="152.804" cy="359.165" r="14.2617" fill="#662A00"/>
<circle cx="152.804" cy="393.122" r="14.2617" fill="#662A00"/>
<circle cx="181.327" cy="375.464" r="14.2617" fill="#662A00"/>
<path d="M363.615 340.829H339.233C338.625 340.829 338.091 341.233 337.926 341.817L330.555 367.9C330.193 369.18 331.696 370.163 332.724 369.319L364.477 343.236C365.462 342.427 364.89 340.829 363.615 340.829Z" fill="#FCFCFC"/>
<rect x="320.548" y="267.483" width="82.8536" height="78.7788" rx="16.2991" fill="#FCFCFC"/>
<path d="M361.975 278.349C346.599 278.349 334.131 290.817 334.131 306.193C334.131 321.57 346.599 334.037 361.975 334.037C377.352 334.037 389.819 321.57 389.819 306.193C389.819 290.817 377.352 278.349 361.975 278.349ZM348.053 300.537C348.069 299.757 348.39 299.013 348.948 298.467C349.506 297.92 350.255 297.614 351.036 297.614C351.817 297.614 352.567 297.92 353.125 298.467C353.682 299.013 354.004 299.757 354.02 300.537C354.004 301.318 353.682 302.061 353.125 302.608C352.567 303.154 351.817 303.46 351.036 303.46C350.255 303.46 349.506 303.154 348.948 302.608C348.39 302.061 348.069 301.318 348.053 300.537ZM361.975 317.443C356.661 317.443 352.304 313.26 352.031 308.02C352.027 307.953 352.038 307.886 352.061 307.822C352.085 307.759 352.121 307.701 352.167 307.653C352.214 307.604 352.27 307.565 352.332 307.538C352.394 307.512 352.461 307.498 352.528 307.498H355.517C355.779 307.498 356.002 307.697 356.021 307.958C356.257 311.035 358.836 313.465 361.975 313.465C365.114 313.465 367.699 311.035 367.929 307.958C367.948 307.697 368.172 307.498 368.433 307.498H371.422C371.49 307.498 371.556 307.512 371.618 307.538C371.68 307.565 371.736 307.604 371.783 307.653C371.829 307.701 371.866 307.759 371.889 307.822C371.912 307.886 371.923 307.953 371.919 308.02C371.646 313.26 367.289 317.443 361.975 317.443ZM372.914 303.521C372.133 303.505 371.39 303.183 370.843 302.626C370.297 302.068 369.991 301.318 369.991 300.537C369.991 299.756 370.297 299.007 370.843 298.449C371.39 297.891 372.133 297.57 372.914 297.554C373.695 297.57 374.438 297.891 374.984 298.449C375.531 299.007 375.837 299.756 375.837 300.537C375.837 301.318 375.531 302.068 374.984 302.626C374.438 303.183 373.695 303.505 372.914 303.521Z" fill="#FE6B03"/>
</g>
<path d="M0 332C0 211.602 97.6019 114 218 114V114C338.398 114 436 211.602 436 332V487.52H0V332Z" stroke="#12544B" stroke-width="10.866"/>
</g>
<defs>
<filter id="filter0_d_1073_145" x="127.9" y="332.679" width="180.2" height="90.324" filterUnits="userSpaceOnUse" color-interpolation-filters="sRGB">
<feFlood flood-opacity="0" result="BackgroundImageFix"/>
<feColorMatrix in="SourceAlpha" type="matrix" values="0 0 0 0 0 0 0 0 0 0 0 0 0 0 0 0 0 0 127 0" result="hardAlpha"/>
<feOffset dy="4.75389"/>
<feComposite in2="hardAlpha" operator="out"/>
<feColorMatrix type="matrix" values="0 0 0 0 0 0 0 0 0 0 0 0 0 0 0 0 0 0 0.25 0"/>
<feBlend mode="normal" in2="BackgroundImageFix" result="effect1_dropShadow_1073_145"/>
<feBlend mode="normal" in="SourceGraphic" in2="effect1_dropShadow_1073_145" result="shape"/>
</filter>
<linearGradient id="paint0_linear_1073_145" x1="217.36" y1="332.679" x2="217.36" y2="445.414" gradientUnits="userSpaceOnUse">
<stop stop-color="white"/>
<stop offset="1" stop-color="#FE6B03"/>
</linearGradient>
<clipPath id="clip0_1073_145">
<rect width="436" height="436" fill="white"/>
</clipPath>
<clipPath id="clip1_1073_145">
<path d="M0 332C0 211.602 97.6019 114 218 114V114C338.398 114 436 211.602 436 332V487.52H0V332Z" fill="white"/>
</clipPath>
</defs>
</svg>
