<svg width="213" height="190" viewBox="0 0 213 190" fill="none" xmlns="http://www.w3.org/2000/svg">
<path d="M188.423 7.66239C195.414 1.10854 207.72 -0.165818 213 0.0162329V65.5547C209.068 77.7886 201.895 87.0368 198.8 90.1317C190.935 100.618 178.046 105.06 172.585 105.97C164.283 109.466 150.556 108.519 144.731 107.609C140.362 129.455 132.351 142.198 128.892 145.839C119.717 158.073 105.044 162.224 98.8539 162.77C91.4262 164.955 76.4616 163.68 69.9077 162.77C69.9077 168.45 68.4513 172.783 67.7231 174.239C62.917 183.415 54.0693 187.529 50.2462 188.439C43.2554 191.498 35.318 189.35 32.2231 187.893C21.737 184.835 16.2025 173.147 14.7461 167.686C13.8722 155.452 15.8384 146.932 16.9307 144.201C20.4261 129.346 35.1358 117.621 42.0538 113.616C52.103 105.752 76.4615 106.334 87.3845 107.609C90.0061 93.1901 96.4871 80.1188 99.3999 75.3855C107.265 61.404 123.067 54.9958 129.985 53.5393C134.354 51.3547 150.374 51.9009 157.838 52.447L167.123 31.6932C173.677 19.0224 184.054 10.3932 188.423 7.66239Z" fill="#FF7B6B"/>
<path d="M197.708 25.1394C202.951 20.3333 210.087 19.4958 213 19.6779V35.359C205.572 34.4852 197.344 50.4446 194.431 58.4549C192.683 65.4456 188.423 70.4703 186.785 72.6549C181.869 81.3933 170.764 87.0369 164.939 87.9472C160.569 88.821 147.097 88.3113 140.908 87.9472C139.16 87.5103 135.81 88.8574 134.354 89.5856C129.985 90.0226 125.251 103.604 123.431 110.34C122.557 116.02 119.426 123.629 117.969 126.724C114.037 136.336 103.223 141.288 98.3077 142.563C94.3754 143.873 85.7462 143.473 81.9231 143.109C76.68 142.235 68.2693 142.016 64.9923 142.563C60.1862 144.31 56.0718 147.66 54.6154 149.116C50.6831 151.738 50.0641 160.04 50.2462 163.863C49.8092 165.61 48.9718 166.775 48.6077 167.14C43.3646 172.82 38.0487 169.506 36.0462 167.14C31.24 156.653 38.4128 143.837 42.6 138.74C47.8431 131.749 57.8923 128.181 62.2616 127.27C64.9923 126.178 77.7359 126.542 84.1077 127.27C95.4677 128.581 100.492 124.54 101.585 122.355C104.643 119.733 106.864 111.068 107.592 107.063C109.34 99.198 112.69 91.7703 114.146 89.0395C118.952 76.8056 132.897 72.6549 139.269 72.1087L162.208 71.5626C169.199 70.6887 173.859 64.2805 175.315 61.1856L185.146 39.3395C188.642 32.3487 194.977 26.96 197.708 25.1394Z" fill="#413E45"/>
<circle cx="36.5923" cy="72.6548" r="36.5923" fill="#FAF6F3"/>
<circle cx="95.5769" cy="38.2473" r="36.5923" fill="#FAF6F3"/>
<circle cx="43.6923" cy="61.1855" r="20.7538" fill="#413E45"/>
<circle cx="102.131" cy="28.9624" r="11.4692" fill="#413E45"/>
</svg>
