<svg width="286" height="290" viewBox="0 0 286 290" fill="none" xmlns="http://www.w3.org/2000/svg">
<path d="M142.8 4.2002C219.346 4.2002 281.4 66.2532 281.4 142.8V297H4.2002V142.8C4.20024 66.2532 66.2533 4.20029 142.8 4.2002Z" fill="#00A384"/>
<path d="M142.8 4.2002C219.346 4.2002 281.4 66.2532 281.4 142.8V297H4.2002V142.8C4.20024 66.2532 66.2533 4.20029 142.8 4.2002Z" stroke="#12544B" stroke-width="8.4"/>
<path d="M62.4 81.0002H119.4V105.6C119.4 109.577 116.176 112.8 112.2 112.8H69.6C65.6235 112.8 62.4 109.577 62.4 105.6V81.0002Z" fill="#FCFCFC"/>
<path d="M166.2 81.6001H223.2V106.2C223.2 110.177 219.976 113.4 216 113.4H173.4C169.424 113.4 166.2 110.177 166.2 106.2V81.6001Z" fill="#FCFCFC"/>
<circle cx="90.6" cy="97.8003" r="13.2" fill="#111111"/>
<circle cx="194.4" cy="97.8003" r="13.2" fill="#111111"/>
<path d="M60.6 79.2002C88.0272 79.0447 101.75 78.8106 121.8 78.0002" stroke="#111111" stroke-width="9.6" stroke-linecap="round"/>
<path d="M225 79.2002C197.573 79.0447 183.85 78.8106 163.8 78.0002" stroke="#111111" stroke-width="9.6" stroke-linecap="round"/>
<path d="M174 148.8C146.304 148.567 132.447 148.216 112.2 147" stroke="#00826A" stroke-width="8.4" stroke-linecap="round"/>
<path d="M60.6 115.2C83.5484 112.89 96.6483 112.712 120.6 115.2" stroke="#00826A" stroke-width="6" stroke-linecap="round"/>
<path d="M164.4 116.4C187.348 111.009 200.448 110.594 224.4 116.4" stroke="#00826A" stroke-width="6" stroke-linecap="round"/>
</svg>
