<svg width="210" height="193" viewBox="0 0 210 193" fill="none" xmlns="http://www.w3.org/2000/svg">
<path d="M59.332 38.5615L119.189 0.231931C120.449 -0.188119 121.464 0.0569105 121.814 0.231931C124.335 0.651981 127.065 7.5829 127.59 11.2582C128.85 32.6808 119.714 42.7621 116.039 45.9124C110.263 51.6882 103.087 54.6634 99.7619 55.3635C89.2606 57.8838 77.8842 54.3134 73.5087 52.2131C69.3082 50.638 62.3074 42.762 59.332 38.5615Z" fill="#FAF6F3"/>
<path d="M0 76.5981L59.8571 38.2686C61.1173 37.8485 62.1324 38.0935 62.4825 38.2686C65.0028 38.6886 67.7331 45.6195 68.2581 49.2949C71.3005 70.5905 60.3822 80.7987 56.7068 83.949C50.9311 89.7248 43.7552 92.7 40.4298 93.4001C29.9286 95.9204 18.5522 92.35 14.1767 90.2498C9.97619 88.6747 2.97536 80.7986 0 76.5981Z" fill="#FAF6F3"/>
<path d="M53.5564 70.5906C68.2582 59.2492 63.1826 44.3375 58.807 38.5618L23.1028 61.6645C33.184 78.0465 47.6057 74.4411 53.5564 70.5906Z" fill="#413E45"/>
<path d="M114.989 33.311C129.69 21.9697 122.865 6.53285 117.614 1.28223L81.9098 23.8599C91.3609 40.6619 107.113 39.3868 114.989 33.311Z" fill="#413E45"/>
<path d="M93.4612 70.0656C135.886 42.3423 188.498 43.1124 209.5 46.9628V109.445C204.879 106.925 192.698 106.295 186.922 106.82C169.07 105.77 140.192 115.221 128.115 121.522C103.752 134.123 86.8104 163.176 81.3847 176.128C70.4634 193.77 52.6813 193.63 45.1554 191.355C27.5133 187.994 23.1028 169.302 23.1028 160.376C28.1434 122.992 72.1086 84.5923 93.4612 70.0656Z" fill="#FFDEA5"/>
<path d="M110.263 87.3924C142.187 66.3899 189.898 67.0901 209.5 70.0655V85.8174C183.457 80.7768 161.369 84.7671 153.843 87.3924C131.791 90.5429 102.387 110.145 90.8358 120.996C77.8143 131.918 66.5079 152.5 62.4824 161.426C60.3822 168.987 54.6065 169.827 51.9812 169.302C45.6804 168.042 45.8555 161.776 46.7306 158.801C59.7521 123.517 94.5113 96.4935 110.263 87.3924Z" fill="#413E45"/>
</svg>
