<svg width="335" height="263" viewBox="0 0 335 263" fill="none" xmlns="http://www.w3.org/2000/svg">
<rect y="38.2412" width="334.94" height="224.172" rx="23.7359" fill="#FFB950"/>
<path d="M334.94 52.0871V62.6364C332.83 47.3399 321.973 41.7576 316.478 40.8785H21.7579C6.9889 43.5158 1.09888 56.4826 0 62.6364V17.1426C1.31866 3.29665 11.8679 0 16.4833 0H137.141C143.47 0 149.888 6.15375 152.305 9.23062L160.547 18.1316L164.668 22.5821L168.789 27.0325C173.404 33.6258 180.656 36.2632 184.612 36.2632H319.775C331.379 38.373 334.5 47.6916 334.94 52.0871Z" fill="url(#paint0_linear_493_22)"/>
<defs>
<linearGradient id="paint0_linear_493_22" x1="19.9113" y1="1.26541e-08" x2="24.4113" y2="149" gradientUnits="userSpaceOnUse">
<stop stop-color="#FFB950"/>
<stop offset="1" stop-color="#996F30"/>
</linearGradient>
</defs>
</svg>
