<svg width="512" height="512" viewBox="0 0 512 512" fill="none" xmlns="http://www.w3.org/2000/svg">
<g clip-path="url(#clip0_1017_39)">
<path d="M5.20508 263.481C5.20508 177.29 75.0769 107.418 161.268 107.418V107.418C247.46 107.418 317.331 177.29 317.331 263.481V403.712H5.20508V263.481Z" fill="#00A384"/>
<rect x="92.2832" y="222.204" width="76.9007" height="31.665" rx="15.8325" fill="white"/>
<circle cx="108.116" cy="237.471" r="12.4398" fill="#111111"/>
<path d="M93.4141 214.854L166.357 217.115" stroke="#111111" stroke-width="15.8325" stroke-linecap="round"/>
<rect x="204.242" y="222.204" width="76.9007" height="31.665" rx="15.8325" fill="white"/>
<circle cx="220.075" cy="237.471" r="12.4398" fill="#111111"/>
<path d="M205.373 217.115L278.316 214.854" stroke="#111111" stroke-width="15.8325" stroke-linecap="round"/>
<path opacity="0.2" d="M80.9749 403.712C42.8291 370.899 27.4788 342.313 5.20508 282.707V403.712H80.9749Z" fill="#111111"/>
<path d="M202.64 313.137C203.257 308.66 207.083 305.325 211.603 305.325H270.763C276.251 305.325 280.475 310.17 279.726 315.606L268.042 400.423C267.425 404.901 263.599 408.236 259.08 408.236H199.919C194.431 408.236 190.208 403.39 190.956 397.954L202.64 313.137Z" fill="#FE6B03"/>
<g filter="url(#filter0_d_1017_39)">
<path d="M207.399 318.447C208.165 314.127 211.92 310.979 216.308 310.979H268.09C273.718 310.979 277.98 316.063 276.998 321.605L274.593 335.176C273.827 339.496 270.072 342.644 265.685 342.644H213.903C208.275 342.644 204.012 337.56 204.994 332.018L207.399 318.447Z" fill="#FE6B03"/>
<path d="M216.308 311.544H268.09C273.366 311.545 277.362 316.311 276.441 321.506L274.036 335.077C273.318 339.127 269.798 342.079 265.685 342.079H213.902C208.626 342.078 204.63 337.312 205.551 332.117L207.956 318.546C208.674 314.496 212.194 311.545 216.308 311.544Z" stroke="url(#paint0_linear_1017_39)" stroke-opacity="0.2" stroke-width="1.13089"/>
</g>
<ellipse cx="185.582" cy="368.655" rx="29.9687" ry="24.8796" fill="#00A384"/>
<path d="M185.582 393.534C202.133 393.534 215.551 382.395 215.551 368.655C215.551 354.914 202.133 343.775 185.582 343.775" stroke="#00826A" stroke-width="9.04714"/>
<ellipse cx="281.143" cy="372.613" rx="23.7487" ry="20.9215" fill="#00A384"/>
<path d="M185.017 343.775C143.912 340.843 127.722 338.758 103.593 334.728" stroke="#00826A" stroke-width="9.04714" stroke-linecap="round"/>
<circle cx="218.379" cy="320.592" r="5.08902" fill="#702E00"/>
<circle cx="216.115" cy="333.032" r="5.08902" fill="#702E00"/>
<circle cx="228.557" cy="328.507" r="5.08902" fill="#702E00"/>
<circle cx="270.399" cy="318.33" r="2.82687" fill="#FFD7BB"/>
<circle cx="267.007" cy="336.424" r="2.82687" fill="#3C1C06"/>
<path d="M170.316 271.397C185.685 270.246 194.334 269.571 206.505 271.397" stroke="#00826A" stroke-width="6.78536" stroke-linecap="round"/>
<path d="M96.8076 253.303H162.399" stroke="#00826A" stroke-width="6.78536" stroke-linecap="round"/>
<path d="M208.767 253.303H274.358" stroke="#00826A" stroke-width="6.78536" stroke-linecap="round"/>
<mask id="mask0_1017_39" style="mask-type:alpha" maskUnits="userSpaceOnUse" x="160" y="136" width="46" height="27">
<path d="M203.576 136.822H161.921C160.955 136.822 160.188 137.665 160.287 138.626C163.759 172.452 201.604 169.311 205.203 138.629C205.316 137.664 204.547 136.822 203.576 136.822Z" fill="#FCFCFC"/>
</mask>
<g mask="url(#mask0_1017_39)">
<path d="M203.576 136.822H161.921C160.955 136.822 160.188 137.665 160.287 138.626C163.759 172.452 201.604 169.311 205.203 138.629C205.316 137.664 204.547 136.822 203.576 136.822Z" fill="#FCFCFC"/>
<path opacity="0.2" d="M161.834 148.696H187.279M190.106 148.696H203.112" stroke="black" stroke-width="1.13089"/>
</g>
</g>
<path d="M5.20508 263.481C5.20508 177.29 75.0769 107.418 161.268 107.418V107.418C247.46 107.418 317.331 177.29 317.331 263.481V403.712H5.20508V263.481Z" stroke="#12544B" stroke-width="9.04714"/>
<path d="M330.011 150.465H306.341V116.651H311.075V144.186C311.075 145.297 310.543 146.504 309.77 147.277L309.819 147.325C310.592 146.553 311.799 146.021 312.91 146.021H330.011V150.465ZM343.864 150.755C336.715 150.755 330.532 146.746 330.532 138.389C330.532 130.032 336.715 125.974 343.864 126.023C351.062 126.071 357.245 130.032 357.245 138.389C357.245 146.746 351.062 150.755 343.864 150.755ZM343.864 130.032C339.42 129.984 335.266 132.93 335.266 138.389C335.266 144.041 339.082 146.697 343.864 146.697C348.55 146.697 352.511 143.944 352.511 138.389C352.511 132.93 348.453 130.08 343.864 130.032ZM378.581 144.524C377.228 148.581 372.929 150.417 368.774 150.417C364.04 150.417 359.403 148.002 359.403 143.606C359.403 132.979 378.725 139.113 378.581 135.056C378.436 131.385 376.069 129.984 371.48 129.984C367.76 129.984 364.813 130.902 364.282 134.718L360.128 134.138C360.756 128.293 366.311 126.119 371.48 126.168C377.325 126.216 383.121 128.39 383.121 135.635V144.427C383.121 145.683 383.556 145.973 384.57 145.973H385.681V150.465H382.59C380.175 150.465 378.581 148.775 378.581 146.649V144.524ZM364.04 143.509C364.04 146.07 366.794 147.229 369.934 147.229C373.943 147.229 378.581 145.297 378.581 141.915V138.727C374.426 141.142 364.04 137.713 364.04 143.509ZM388.086 138.389C388.086 130.032 392.385 126.071 399.583 126.023C402.771 125.974 406.78 127.52 409.002 129.839C409.775 130.612 410.306 132.013 410.645 133.027H410.741C410.403 131.964 410.113 130.563 410.113 129.452V116.651H414.847V150.465H410.113V147.519C410.113 146.408 410.403 145.007 410.741 143.992L410.645 143.944C410.306 144.958 409.775 146.359 409.002 147.132C406.732 149.403 402.771 150.755 399.583 150.755C392.385 150.755 388.086 146.746 388.086 138.389ZM401.128 129.935C395.235 129.984 392.82 132.689 392.82 138.389C392.82 144.089 395.283 146.697 401.128 146.697C405.428 146.697 410.113 143.606 410.113 138.389C410.113 133.172 405.428 129.887 401.128 129.935ZM417.718 120.757H422.596V116.651H417.718V120.757ZM417.814 150.465V126.312H422.5V150.465H417.814ZM425.501 150.465V126.312H430.235V131.288C430.235 132.254 430.042 133.558 429.849 134.524L429.945 134.573C430.139 133.607 430.428 132.302 430.911 131.433C432.892 127.617 436.37 125.926 439.607 125.926C445.693 125.926 447.722 131.771 447.722 138.147V150.465H442.988V138.147C442.988 133.558 441.297 130.66 438.012 130.66C435.549 130.66 430.235 132.399 430.235 141.432V150.465H425.501ZM454.701 147.036C452.238 146.456 450.885 145.152 450.885 143.268C450.885 141.239 452.141 140.176 454.411 139.452C454.411 139.307 452.286 137.23 452.286 134.524C452.286 128.776 458.373 126.361 463.541 126.361C465.667 126.361 467.068 126.747 468.903 127.327C467.164 123.656 472.526 123.366 476.777 123.462V126.892H473.83C472.816 126.892 470.111 126.989 471.512 128.438C471.753 128.679 474.555 130.853 474.555 134.38C474.555 140.031 468.468 142.495 463.396 142.495C461.995 142.495 460.595 142.302 459.29 141.915C458.856 141.77 458.421 141.577 458.324 141.577C457.117 141.529 455.812 142.302 455.812 143.026C455.812 147.519 477.55 142.736 477.55 153.026C477.55 158.726 469.386 160.126 463.734 160.126C458.469 160.126 449.243 158.726 449.243 153.026C449.243 149.258 451.996 147.953 454.701 147.036ZM454.025 152.784C454.025 155.779 460.45 156.648 463.783 156.648C466.923 156.648 472.768 155.876 472.768 152.784C472.768 149.596 466.246 149.016 462.72 148.678C462.237 148.63 461.174 148.485 460.691 148.485C458.469 148.485 454.025 149.934 454.025 152.784ZM457.02 134.476C457.02 137.906 460.498 138.969 463.396 138.969C466.343 138.969 469.821 137.954 469.821 134.428C469.821 130.998 466.343 129.935 463.493 129.935C460.546 129.935 457.02 130.95 457.02 134.476ZM485.598 150.852H479.946V145.973H485.598V150.852ZM494.75 150.852H489.098V145.973H494.75V150.852ZM503.901 150.852H498.25V145.973H503.901V150.852Z" fill="#111111"/>
<defs>
<filter id="filter0_d_1017_39" x="203.723" y="310.979" width="73.417" height="33.9268" filterUnits="userSpaceOnUse" color-interpolation-filters="sRGB">
<feFlood flood-opacity="0" result="BackgroundImageFix"/>
<feColorMatrix in="SourceAlpha" type="matrix" values="0 0 0 0 0 0 0 0 0 0 0 0 0 0 0 0 0 0 127 0" result="hardAlpha"/>
<feOffset dx="-1.13089" dy="2.26179"/>
<feComposite in2="hardAlpha" operator="out"/>
<feColorMatrix type="matrix" values="0 0 0 0 0 0 0 0 0 0 0 0 0 0 0 0 0 0 0.25 0"/>
<feBlend mode="normal" in2="BackgroundImageFix" result="effect1_dropShadow_1017_39"/>
<feBlend mode="normal" in="SourceGraphic" in2="effect1_dropShadow_1017_39" result="shape"/>
</filter>
<linearGradient id="paint0_linear_1017_39" x1="216.682" y1="313.806" x2="205.939" y2="342.644" gradientUnits="userSpaceOnUse">
<stop stop-color="white"/>
<stop offset="1" stop-color="#FE6B03"/>
</linearGradient>
<clipPath id="clip0_1017_39">
<path d="M5.20508 263.481C5.20508 177.29 75.0769 107.418 161.268 107.418V107.418C247.46 107.418 317.331 177.29 317.331 263.481V403.712H5.20508V263.481Z" fill="white"/>
</clipPath>
</defs>
</svg>
