<svg width="123" height="34" viewBox="0 0 123 34" fill="none" xmlns="http://www.w3.org/2000/svg">
<path fill-rule="evenodd" clip-rule="evenodd" d="M108.675 12.0652C109.04 11.9132 109.423 11.8824 109.808 11.9743L110.244 12.0786L110.681 12.1837C110.927 12.2425 111.175 12.2631 111.425 12.2469L111.87 12.2184L112.314 12.189C112.678 12.1654 113.031 12.2201 113.369 12.3529L114.194 12.6771C114.507 12.8002 114.798 12.9631 115.066 13.1643L115.77 13.6933C116.005 13.8697 116.24 14.0467 116.477 14.2242L117.186 14.7568C117.296 14.8392 117.383 14.8976 117.449 14.9358C117.482 14.9549 117.505 14.9652 117.519 14.9715L117.545 14.6259L117.577 14.1886C117.596 13.9294 117.646 13.6778 117.75 13.4636L117.764 12.9291H118.104L118.143 12.8721C118.354 12.5686 118.712 12.4489 119.05 12.4045L119.489 12.3466L119.929 12.2896C120.274 12.2445 120.618 12.2585 120.961 12.3306L121.401 12.4232L121.839 12.515C122.043 12.5578 122.255 12.6471 122.412 12.824C122.577 13.01 122.633 13.2376 122.622 13.4573L122.585 14.2188C122.573 14.4466 122.58 14.6965 122.608 14.9688L122.697 15.8443C122.731 16.1738 122.723 16.5041 122.674 16.833L122.544 17.7085C122.507 17.9563 122.507 18.2036 122.543 18.4513L122.606 18.8896L122.67 19.3269C122.714 19.6236 122.752 19.9208 122.785 20.2176L122.883 21.0931C122.919 21.4113 122.926 21.7302 122.906 22.0488L122.848 22.9243C122.83 23.2086 122.818 23.4934 122.813 23.7776L122.807 24.2158L122.8 24.6531C122.796 24.9213 122.812 25.1903 122.849 25.4592L122.911 25.8965L122.972 26.3347C123.02 26.6797 123.007 27.0249 122.933 27.3679L122.839 27.8061L122.746 28.2434C122.687 28.5233 122.639 28.8031 122.603 29.0825L122.545 29.5198L122.489 29.958C122.458 30.2006 122.465 30.4433 122.513 30.6874L122.6 31.1257L122.686 31.563C122.761 31.9465 122.714 32.3279 122.476 32.646L122.288 32.8954V33.0237H122.192L122.049 33.2152C121.795 33.5542 121.415 33.6802 121.011 33.6632L120.571 33.6445L120.133 33.6267C119.812 33.6131 119.491 33.5699 119.172 33.4975L118.294 33.298C118.099 33.2539 117.906 33.1749 117.749 33.0371C117.585 32.8925 117.485 32.704 117.451 32.492L117.398 32.1588L117.344 31.8257C117.309 31.6012 117.27 31.3422 117.227 31.05L117.198 30.8487C117.073 31.001 116.923 31.1563 116.753 31.3136L116.435 31.6075L116.117 31.9006C115.864 32.1336 115.577 32.3155 115.258 32.4448L114.455 32.7707C114.194 32.8768 113.936 32.9883 113.682 33.1047L113.291 33.2838L112.9 33.4619C112.605 33.5966 112.296 33.6956 111.973 33.7585L111.54 33.8431L111.106 33.9268C110.96 33.9553 110.84 33.9766 110.753 33.9883C110.712 33.9938 110.663 33.9991 110.616 33.9999C110.597 34.0002 110.551 34.0007 110.498 33.9901C110.472 33.985 110.416 33.9719 110.355 33.9366C110.339 33.9276 110.319 33.9155 110.298 33.8992C110.242 33.8928 110.171 33.8848 110.083 33.877L109.21 33.7986C108.891 33.7701 108.577 33.7137 108.27 33.6285L107.849 33.5118L107.427 33.3942C107.111 33.3067 106.81 33.1835 106.525 33.0246L105.767 32.6015C105.497 32.4512 105.24 32.2854 104.995 32.1045L104.651 31.8507L104.306 31.5968C104.069 31.4221 103.836 31.2394 103.609 31.0491L103.277 30.7721L102.946 30.4951C102.697 30.2868 102.475 30.0508 102.282 29.7879L102.025 29.4378L101.769 29.0878C101.578 28.8285 101.417 28.5517 101.285 28.2586L101.106 27.8622L100.929 27.4659C100.793 27.1631 100.702 26.8471 100.655 26.5191L100.534 25.6614C100.492 25.3662 100.46 25.0716 100.437 24.7778L100.405 24.3521L100.372 23.9254C100.353 23.6737 100.306 23.4153 100.231 23.1505L100.106 22.7123L99.9814 22.2741C99.8702 21.8832 99.8937 21.4917 100.052 21.118L100.404 20.2861C100.514 20.0257 100.605 19.7679 100.677 19.513L100.793 19.1015L100.908 18.69C100.984 18.4213 101.056 18.1446 101.124 17.8608L101.333 16.9933C101.425 16.6139 101.62 16.2885 101.912 16.0296L102.246 15.7348L102.579 15.4391C102.774 15.2666 102.947 15.0724 103.097 14.8557L103.611 14.1173C103.839 13.7895 104.15 13.5588 104.53 13.4351L104.957 13.2952L105.385 13.1563C105.677 13.0613 105.965 12.9757 106.248 12.8989L107.077 12.6744C107.333 12.605 107.59 12.5164 107.848 12.409L108.675 12.0652ZM110.501 17.1046C110.276 17.0863 110.056 17.1115 109.84 17.1803L109.43 17.3113L109.019 17.4413C108.804 17.5099 108.615 17.6162 108.448 17.7602L108.126 18.0372L107.803 18.3142C107.599 18.4898 107.397 18.6802 107.197 18.8851L106.572 19.5264C106.419 19.683 106.317 19.864 106.263 20.0759L106.041 20.9443C105.982 21.1762 105.97 21.408 106.003 21.6426L106.064 22.0835L106.127 22.5253C106.169 22.8245 106.205 23.1182 106.234 23.4053L106.277 23.8266L106.321 24.2488C106.348 24.517 106.387 24.7861 106.438 25.0557L106.517 25.4788L106.598 25.9018C106.636 26.1056 106.72 26.2813 106.853 26.4354L107.133 26.7578L107.413 27.0811C107.599 27.2968 107.788 27.5158 107.978 27.7366L108.549 28.3984C108.689 28.5603 108.861 28.6819 109.074 28.7645L109.495 28.9284L109.916 29.0914C110.158 29.1852 110.313 29.1992 110.402 29.1867L110.697 29.1448L110.993 29.1038C111.091 29.09 111.166 29.0794 111.217 29.0727C111.242 29.0693 111.262 29.0665 111.278 29.0646C111.285 29.0638 111.294 29.0628 111.303 29.062C111.305 29.0617 111.311 29.0607 111.319 29.0602C111.33 29.0577 111.344 29.0555 111.36 29.0522C111.43 29.0371 111.535 29.0138 111.676 28.9827L112.523 28.7957C112.79 28.7368 113.055 28.6641 113.317 28.5774L113.732 28.4394L114.148 28.3022C114.355 28.2338 114.533 28.1231 114.686 27.9655L114.992 27.6502L115.299 27.3358C115.469 27.1609 115.605 26.9662 115.708 26.7516L115.896 26.3623L116.083 25.9722C116.205 25.7182 116.323 25.4588 116.437 25.1938L116.612 24.7876L116.787 24.3806C116.875 24.1754 116.912 23.9641 116.899 23.7411L116.871 23.2993L116.844 22.8584C116.826 22.5612 116.81 22.2611 116.797 21.9588L116.759 21.0601C116.75 20.8382 116.687 20.6353 116.571 20.4456L116.335 20.0617L116.099 19.6787C115.945 19.4286 115.785 19.1799 115.619 18.9341L115.364 18.5573L115.11 18.1797C114.986 17.9973 114.828 17.8633 114.629 17.7709L113.803 17.3879C113.584 17.2864 113.362 17.2356 113.136 17.232L112.255 17.2178C111.952 17.213 111.653 17.1991 111.357 17.175L110.929 17.1403L110.501 17.1046ZM117.466 15.8978C117.55 16.0329 117.62 16.1669 117.676 16.3004L117.685 15.9441C117.68 15.9432 117.675 15.9433 117.671 15.9423L117.503 15.9058L117.466 15.8978Z" fill="#111111"/>
<path d="M7.66283 0.00187194L8.56718 0.037499C8.87668 0.04978 9.18085 0.0702738 9.47957 0.0989556L10.35 0.182679C10.6068 0.207312 10.8658 0.203836 11.1274 0.172882L11.568 0.121223L12.0085 0.0686727C12.3396 0.0294991 12.6715 0.0315025 13.0031 0.0740167L13.4455 0.13102L13.8869 0.187133C14.2255 0.230546 14.5518 0.321495 14.8637 0.459679L15.6777 0.821294C15.9988 0.963576 16.2872 1.1579 16.5401 1.40291L17.1835 2.02638C17.3924 2.22881 17.5664 2.44665 17.6714 2.68103C17.7941 2.77313 17.9065 2.86238 18.0083 2.94823L17.8591 3.20296L17.9038 3.32944C18.0209 3.66377 17.9501 4.01701 17.8108 4.33768L17.6348 4.74205L17.4596 5.14642C17.3232 5.46052 17.1396 5.74824 16.9109 6.00681L16.3185 6.67571C16.1846 6.82705 16.0082 6.96784 15.7823 7.0204C15.5401 7.07672 15.3133 7.01564 15.1282 6.89481L14.5277 6.50292C14.3294 6.37353 14.1043 6.22854 13.8521 6.06827L13.0916 5.58463C12.8982 5.46175 12.6889 5.3888 12.4589 5.36463L11.5572 5.27022C11.2851 5.2417 11.0181 5.23911 10.7557 5.26131L10.3169 5.29783L9.87812 5.33524C9.57627 5.36081 9.26925 5.37759 8.95769 5.38512L8.04977 5.4065C7.85795 5.4112 7.70077 5.47488 7.55917 5.60423L6.88984 6.21612C6.70507 6.38493 6.56064 6.57293 6.45375 6.78081L6.25448 7.16736L6.05609 7.55481C5.95562 7.75022 5.903 7.95751 5.89881 8.18184L5.88273 9.06183C5.87883 9.27529 5.92774 9.46672 6.02839 9.64522L6.24018 10.022L6.45286 10.3978C6.58461 10.6313 6.73157 10.856 6.89342 11.0721L7.15346 11.4203L7.4144 11.7677C7.56413 11.9676 7.73877 12.147 7.93896 12.3057L8.28479 12.5791L8.63062 12.8534C8.81304 12.998 9.01895 13.1032 9.25169 13.1696L10.1194 13.4172C10.4648 13.5158 10.7795 13.6757 11.0604 13.8955L11.4116 14.1699L11.7619 14.4451C11.9758 14.6125 12.2004 14.7589 12.4348 14.886L13.206 15.3046C13.4569 15.4406 13.7127 15.5717 13.9727 15.6974L14.3722 15.8906L14.7716 16.083C15.0941 16.2389 15.3751 16.4536 15.6107 16.7243L15.9029 17.061L16.196 17.3977C16.3676 17.5948 16.5605 17.7695 16.7742 17.9214L17.5034 18.4398C17.799 18.6498 18.0393 18.9124 18.221 19.2244L18.6678 19.9922C18.8208 20.255 18.9679 20.5233 19.1084 20.7965L19.5185 21.5954C19.6984 21.9453 19.7621 22.3223 19.7098 22.7132L19.6499 23.1639L19.5891 23.6146C19.5533 23.8819 19.5479 24.1426 19.5722 24.3966L19.6142 24.8313L19.6553 25.2659C19.6894 25.6227 19.645 25.9724 19.523 26.3089L19.2263 27.1274C19.1389 27.3687 19.0758 27.6259 19.0378 27.8996L18.9109 28.8108C18.856 29.2046 18.6924 29.5537 18.423 29.844L18.1164 30.1744L17.809 30.5049C17.5836 30.7477 17.3376 30.9643 17.0709 31.1533L16.7099 31.4089L16.3489 31.6654C16.0933 31.8465 15.8296 32.0104 15.558 32.1571L14.7922 32.5694C14.5305 32.7107 14.2639 32.8473 13.9915 32.9774L13.592 33.1671L13.1935 33.3577C12.8643 33.5149 12.514 33.5922 12.1479 33.5893L11.2561 33.5821C10.9801 33.5799 10.7095 33.5969 10.4438 33.632L9.58055 33.746C9.43987 33.7647 9.33835 33.7794 9.27225 33.7915C9.18922 33.8561 9.10683 33.8777 9.08816 33.8823C9.05184 33.8913 9.01904 33.8952 8.99701 33.8974C8.95161 33.902 8.90276 33.9038 8.8576 33.9037C8.76461 33.9035 8.64099 33.8974 8.49211 33.8876L7.61636 33.8306C7.30538 33.8103 6.99702 33.7705 6.69146 33.7113L6.26073 33.6276L5.8309 33.5447C5.51643 33.4838 5.20993 33.3942 4.91225 33.2766L4.50565 33.1163L4.09816 32.9551C3.82195 32.846 3.54913 32.7325 3.2796 32.6149L2.88283 32.4421L2.48517 32.2684C2.21696 32.1514 1.95048 32.0313 1.68627 31.9077L1.29576 31.7242L0.904348 31.5416C0.565259 31.3829 0.273931 31.1203 0.203746 30.7177L0.19481 30.667C0.125845 30.6061 0.0610189 30.5452 0 30.4844L0.124214 30.2617L0.0974051 30.1067C0.0374405 29.7626 0.138518 29.4244 0.315449 29.1163L0.534387 28.7369L0.752432 28.3566C0.905698 28.0897 1.07297 27.8302 1.25375 27.579L1.76848 26.8629C1.87301 26.7177 2.01724 26.5601 2.21351 26.479C2.22501 26.4743 2.23682 26.4706 2.24836 26.4665L2.32789 26.3258C2.36798 26.3585 2.41194 26.3911 2.45747 26.4265C2.5824 26.4226 2.70389 26.4536 2.81313 26.5146L2.88819 26.5627L3.10981 26.723L3.33054 26.8834C3.40181 26.9351 3.5529 27.0035 3.82829 27.0615L4.27957 27.1559L4.73174 27.2512C5.09381 27.3275 5.4266 27.4728 5.72545 27.6868L6.46537 28.2176C6.65715 28.3549 6.86576 28.4423 7.09448 28.483L7.98364 28.6416C8.21588 28.6829 8.44431 28.6746 8.67262 28.6166L9.54838 28.394C9.86569 28.3133 10.1875 28.2607 10.5126 28.2363L10.9603 28.2025L11.408 28.1695C11.5917 28.1557 11.7343 28.0866 11.8575 27.954L12.1604 27.6271L12.4643 27.3002C12.6638 27.0854 12.8592 26.8695 13.0505 26.6527L13.6322 25.9927C13.7621 25.8454 13.8407 25.672 13.8655 25.4583L13.9173 25.004L13.97 24.5507C13.9935 24.3472 13.9545 24.1671 13.8512 23.9949L13.3847 23.2182C13.2237 22.9502 13.072 22.6759 12.9299 22.397L12.7234 21.9936L12.5179 21.5892C12.43 21.4167 12.303 21.2995 12.1229 21.2249L11.2811 20.8758C10.9854 20.7532 10.7019 20.6169 10.4313 20.4669L9.66633 20.043C9.40662 19.8991 9.14867 19.7498 8.89246 19.5959L8.51445 19.3696L8.13645 19.1425C7.90785 19.0052 7.66886 18.8883 7.41887 18.7925L7.00601 18.6348L6.59316 18.4763C6.26248 18.3495 5.96554 18.1633 5.7049 17.9205L5.04987 17.3104C4.83539 17.1106 4.6228 16.9199 4.41272 16.7377L4.09101 16.458L3.76931 16.1792C3.56386 16.001 3.348 15.8275 3.12143 15.6591L2.76755 15.3963L2.41457 15.1336C2.15059 14.9373 1.91059 14.7118 1.69521 14.4575L1.11524 13.7726C0.864889 13.477 0.712608 13.1316 0.663069 12.7474L0.605877 12.3003L0.547792 11.8541C0.508992 11.5528 0.474826 11.2569 0.445025 10.967L0.401237 10.5377L0.356556 10.1093C0.32692 9.82096 0.299542 9.53051 0.274343 9.23818L0.199278 8.36799C0.168896 8.01537 0.211115 7.66946 0.325279 7.33481L0.466472 6.92243L0.606771 6.51093C0.696859 6.24686 0.776551 5.97966 0.846262 5.71111L1.06431 4.87298C1.14855 4.54848 1.28077 4.24034 1.45929 3.95024L1.69252 3.57081L1.92576 3.19227C2.11277 2.88845 2.35239 2.63068 2.64245 2.42184L3.00436 2.16087L3.36628 1.90079C3.62733 1.71288 3.90109 1.54705 4.18663 1.40469L4.97659 1.01101C5.24127 0.879052 5.50914 0.747607 5.77996 0.616439L6.58869 0.224541C6.92631 0.0611218 7.28681 -0.0130387 7.66283 0.00187194Z" fill="#111111"/>
<path d="M58.0489 11.8986C58.3819 11.8624 58.7143 11.8687 59.0444 11.9182L59.4805 11.9841L59.9175 12.0492C60.2033 12.092 60.4905 12.1299 60.779 12.1632L61.2195 12.2139L61.6601 12.2656C62.0452 12.31 62.3898 12.4607 62.6815 12.7145L63.3463 13.2934C63.5859 13.502 63.803 13.7238 63.996 13.9588L64.2596 14.2803L64.5241 14.6009C64.705 14.8211 64.8841 15.0505 65.0612 15.2885L65.3204 15.6377L65.5795 15.9859C65.7778 16.2524 65.9383 16.5443 66.0594 16.8588L66.2194 17.2739L66.3784 17.6889C66.5089 18.0279 66.5624 18.3816 66.5384 18.7453L66.4794 19.6404C66.4607 19.9231 66.4565 20.2015 66.4678 20.475L66.4865 20.9105L66.5044 21.3451C66.5159 21.6232 66.5379 21.9019 66.5714 22.1806L66.6242 22.617L66.676 23.0526C66.7158 23.3836 66.7109 23.7159 66.6617 24.0475L66.5974 24.4848L66.5321 24.923C66.4954 25.1708 66.4951 25.418 66.5312 25.6658L66.5947 26.104L66.659 26.5414C66.7023 26.8381 66.7401 27.1352 66.7734 27.432L66.8717 28.3076C66.9074 28.6259 66.9149 28.9446 66.894 29.2633L66.8368 30.1388C66.8183 30.4232 66.8065 30.7077 66.802 30.9921L66.7948 31.4303L66.7886 31.8676C66.7824 32.2575 66.6545 32.6138 66.3695 32.883L66.2765 32.9703V33.0237H66.2211L65.8315 33.3915C65.5188 33.6867 65.1173 33.7527 64.7127 33.6668L64.2739 33.5732L63.8343 33.4806C63.5535 33.421 63.2727 33.3723 62.9925 33.3363L62.114 33.2241C61.9248 33.1997 61.7304 33.1425 61.5654 33.0237H61.5332V32.9988C61.369 32.8689 61.2634 32.6928 61.2249 32.4893L61.1668 32.1784L61.1078 31.8676C61.0653 31.643 61.0296 31.379 61.0006 31.0785L60.9166 30.2029C60.8864 29.8902 60.8773 29.5771 60.8907 29.2641L60.9282 28.3886C60.9418 28.0686 60.9851 27.7492 61.0578 27.4311L61.2579 26.5556C61.3115 26.3213 61.3186 26.0896 61.2794 25.8573L61.1311 24.9818C61.0807 24.6837 61.0369 24.3858 60.9997 24.0884L60.8907 23.2147C60.8494 22.8839 60.8516 22.5516 60.8978 22.2189L61.0211 21.3362C61.0555 21.0889 61.0505 20.8449 61.0077 20.6032L60.854 19.7357C60.8041 19.4535 60.7472 19.1666 60.6825 18.8753L60.5833 18.4282L60.4832 17.982C60.4441 17.8061 60.3546 17.6781 60.1936 17.5785L59.7978 17.3335L59.4028 17.0886C59.2035 16.9652 59.0037 16.9063 58.7978 16.9007L58.359 16.8882L57.9212 16.8766C57.6398 16.8689 57.3536 16.8711 57.0624 16.8829L56.6102 16.9007L56.158 16.9194C55.9566 16.9276 55.7857 16.9924 55.6308 17.1198L55.2823 17.4066L54.9338 17.6925C54.7139 17.8733 54.5081 18.063 54.3154 18.2598L53.7015 18.886C53.5265 19.0647 53.3792 19.2647 53.2591 19.4854L52.8382 20.2576C52.7282 20.4599 52.665 20.6729 52.6461 20.8998L52.6095 21.3353L52.5737 21.7709C52.5488 22.0708 52.5142 22.3702 52.47 22.6687L52.3414 23.5362C52.301 23.8089 52.2755 24.0829 52.2645 24.3583L52.2288 25.2338C52.2188 25.4823 52.2444 25.7328 52.3056 25.9847L52.5183 26.8602C52.6038 27.2121 52.6165 27.5675 52.554 27.9219L52.4763 28.3592L52.3994 28.7974C52.3524 29.0643 52.3285 29.3306 52.3271 29.5964L52.3217 30.4719C52.3202 30.7463 52.3345 31.0211 52.3646 31.2958L52.4611 32.1713C52.4836 32.3771 52.4638 32.6175 52.319 32.8242C52.1677 33.0401 51.9397 33.1349 51.7248 33.1653L51.3307 33.2214L50.9375 33.2766C50.6822 33.3127 50.4106 33.3573 50.1234 33.4102L49.245 33.5723C48.9194 33.6323 48.6018 33.6542 48.2941 33.6347L47.8956 33.6089L47.4961 33.5839C47.3616 33.5754 47.2526 33.5669 47.1744 33.5581C47.1377 33.5539 47.0946 33.5477 47.0556 33.5394C47.0395 33.536 47.0005 33.5278 46.9573 33.51C46.9379 33.502 46.8894 33.481 46.8384 33.4396C46.7951 33.4045 46.6686 33.2867 46.6686 33.0834V33.0433C46.6687 33.0252 46.6698 32.8692 46.6722 32.5819L46.6794 31.7064C46.6819 31.4128 46.6859 31.1191 46.6919 30.8255L46.7097 29.95C46.7158 29.648 46.7326 29.346 46.7589 29.0442L46.7964 28.6059L46.8349 28.1686C46.8596 27.8851 46.8768 27.6014 46.8858 27.318L46.8992 26.8807L46.9135 26.4425C46.9221 26.1692 46.914 25.8957 46.8894 25.6222L46.85 25.184L46.8098 24.7466C46.7826 24.4448 46.7659 24.1428 46.7589 23.8408L46.7392 22.9653C46.7324 22.6683 46.7297 22.3707 46.733 22.0737L46.7383 21.6364L46.7428 21.1982C46.7462 20.8908 46.7658 20.5834 46.8009 20.2763L46.901 19.4008C46.9328 19.1219 46.9524 18.8431 46.96 18.5645L46.9832 17.6889C46.9897 17.4482 46.9574 17.2048 46.8822 16.9577L46.7482 16.5204L46.615 16.0821C46.502 15.7102 46.4947 15.3317 46.5945 14.9572L46.7115 14.5199L46.8277 14.0817C46.8922 13.8395 46.9829 13.5943 47.1262 13.4065V12.9291H47.6391C47.8387 12.7788 48.1107 12.689 48.3871 12.6272L48.8267 12.5283L49.2664 12.4304C49.6217 12.351 49.98 12.3476 50.3361 12.4197L50.7748 12.5087L51.2145 12.5969C51.6157 12.6782 51.9655 12.9001 52.1081 13.3175L52.3351 13.981C52.443 14.2975 52.4443 14.6401 52.3717 14.9902L52.3083 15.293C52.3781 15.2315 52.4602 15.1348 52.546 14.9822L52.764 14.5947L52.9812 14.2073C53.1808 13.8522 53.4824 13.6007 53.8677 13.4653L54.2886 13.3175L54.7095 13.1687C54.9569 13.0818 55.1896 12.9685 55.4083 12.8285L55.7818 12.5898L56.1545 12.3511C56.4628 12.1537 56.8026 12.0345 57.1669 11.9948L58.0489 11.8986Z" fill="#111111"/>
<path fill-rule="evenodd" clip-rule="evenodd" d="M34.2732 12.0028C34.6202 11.9329 34.969 11.9267 35.316 11.985L35.7521 12.059L36.1891 12.132C36.5212 12.1878 36.8397 12.2876 37.1435 12.4304L37.9415 12.8053C38.2113 12.9322 38.4802 13.0629 38.7476 13.1981L39.1425 13.3985L39.5375 13.598C39.8818 13.7722 40.1532 14.0313 40.3436 14.3667L40.5634 14.7533L40.7823 15.1398C40.9325 15.4044 41.0728 15.6673 41.2023 15.9281L41.3909 16.3075L41.5786 16.6869C41.7004 16.9321 41.8323 17.1787 41.9726 17.4262L42.4052 18.1895C42.5661 18.4733 42.6955 18.7739 42.7921 19.0891L43.053 19.9405C43.1607 20.2919 43.1848 20.6527 43.1254 21.0165L42.9806 21.9027C42.9344 22.1856 42.9004 22.4652 42.8797 22.7408L42.8475 23.1746L42.8144 23.6084C42.7918 23.909 42.6954 24.2109 42.4668 24.4251C42.4606 24.4893 42.4565 24.5539 42.4498 24.6184H42.1898L42.0423 24.7048L41.7841 24.8571C41.4873 25.0317 41.1352 25.0536 40.7868 25.0023L40.3471 24.9372L39.9084 24.8731C39.6595 24.8364 39.411 24.8362 39.1622 24.8722L38.2838 24.9987C37.9862 25.0418 37.6887 25.0804 37.391 25.1136L36.5117 25.2116C36.1924 25.2471 35.8725 25.2546 35.5528 25.2338L34.6744 25.1768C34.3891 25.1583 34.1035 25.1466 33.8183 25.1421L32.9399 25.1278C32.6709 25.1236 32.4017 25.1404 32.132 25.1777L31.6924 25.2383L31.2536 25.2997C30.9075 25.3477 30.5611 25.3345 30.217 25.2614L29.3386 25.0744C29.1418 25.0326 29.0346 25.0686 28.9633 25.1198L28.6648 25.3336L28.4092 25.5162C28.414 25.5258 28.418 25.5384 28.4253 25.5509L28.655 25.9401L28.8837 26.3303C29.0221 26.5654 29.1764 26.7758 29.3448 26.9635L29.629 27.2815L29.9141 27.5995C30.0764 27.7805 30.2579 27.9337 30.4583 28.0608L30.8131 28.2862L31.1678 28.5106C31.386 28.6491 31.6232 28.7783 31.88 28.8972L32.7013 29.2775C32.894 29.3667 33.0883 29.3943 33.2955 29.363L33.7406 29.2962L34.1856 29.2285C34.4732 29.1851 34.7551 29.1345 35.031 29.0753L35.459 28.9827L35.8871 28.891C36.1947 28.825 36.5075 28.7823 36.8245 28.7618L37.7083 28.7048C37.9506 28.6892 38.1819 28.6333 38.4035 28.5374L39.214 28.1864C39.3981 28.1067 39.655 28.0431 39.9102 28.1553C40.1765 28.2724 40.2953 28.5146 40.3462 28.7146L40.4472 29.1127L40.5491 29.5109C40.6051 29.7311 40.6965 29.9512 40.8261 30.17L41.0513 30.5494L41.2765 30.9297C41.3814 31.1068 41.4583 31.3219 41.432 31.5567C41.4042 31.8036 41.2707 31.9965 41.1005 32.1339L40.8056 32.3717L40.5116 32.6095C40.239 32.8294 39.9102 32.9545 39.5473 33.0023L39.1068 33.0611L38.6653 33.119C38.4024 33.1536 38.1485 33.2143 37.9031 33.3007L37.4893 33.4459L37.0756 33.5919C36.7587 33.7034 36.4317 33.7679 36.0962 33.7861L35.2195 33.8342C34.9243 33.8502 34.6827 33.859 34.4975 33.86L34.2356 33.8618L33.9738 33.8627C33.9438 33.8629 33.9173 33.8641 33.8943 33.8645C33.887 33.8678 33.8812 33.8715 33.8764 33.8734C33.8267 33.8931 33.7839 33.9 33.7719 33.9019C33.7406 33.9067 33.7123 33.9076 33.6983 33.9081L33.6968 33.9081C33.6642 33.9092 33.6253 33.9092 33.5869 33.9081C33.5067 33.906 33.3915 33.9005 33.2446 33.8921L32.8067 33.8663L32.368 33.8413C32.0563 33.8235 31.7474 33.7858 31.4413 33.7282L30.5807 33.5661C30.2609 33.506 29.9521 33.412 29.6549 33.2838L29.2555 33.1119L28.8569 32.9391C28.5714 32.8158 28.2976 32.6745 28.0366 32.5142L27.3101 32.068C27.0588 31.9137 26.8116 31.75 26.5692 31.5763L26.2189 31.3243L25.8677 31.0731C25.6009 30.8819 25.3627 30.6585 25.1546 30.4033L24.8812 30.0666L24.6068 29.7309C24.4018 29.4794 24.2285 29.2072 24.0868 28.915L23.8964 28.524L23.707 28.133C23.5635 27.8371 23.4604 27.5273 23.3978 27.2049L23.3156 26.7783L23.2324 26.3525C23.1757 26.0603 23.1278 25.7686 23.0886 25.4779L22.9742 24.6317C22.9401 24.3797 22.8801 24.1222 22.7928 23.8595L22.505 22.9956C22.377 22.6101 22.3841 22.2185 22.5265 21.8386L22.6847 21.4155L22.8437 20.9924C22.9429 20.7278 23.022 20.4662 23.0823 20.2086L23.2771 19.3759C23.3406 19.1046 23.3999 18.8257 23.455 18.5395L23.5399 18.1013L23.6239 17.6631C23.6978 17.2786 23.8798 16.9448 24.1627 16.6735L24.4844 16.3645L24.8061 16.0563C24.9932 15.8769 25.1564 15.6759 25.2958 15.4533L25.7739 14.69C25.9849 14.3532 26.281 14.1069 26.6515 13.9614L27.0706 13.7976L27.4897 13.6328C27.7708 13.5224 28.0472 13.4162 28.3181 13.3148L29.1232 13.0138C29.3723 12.9206 29.6204 12.8084 29.8667 12.6771L30.2617 12.4669L30.6567 12.2558C31.0073 12.0689 31.3873 12.0041 31.7809 12.0634L32.225 12.1311L32.67 12.1979C32.9138 12.2346 33.1546 12.2285 33.3947 12.1801L33.8335 12.0919L34.2732 12.0028ZM31.6057 16.9087C31.8026 16.8209 32.0023 16.7927 32.2143 16.8223L33.107 16.947C33.4054 16.9886 33.6973 17.0282 33.9819 17.0663L34.8326 17.1803C35.0568 17.2104 35.2637 17.2818 35.4572 17.3941L35.8263 17.6079L36.1954 17.8225C36.3575 17.9167 36.4634 18.0388 36.5287 18.1966L36.8432 18.9581C36.9467 19.2087 37.0512 19.4696 37.156 19.7401L37.3151 20.1499L37.4732 20.5605C37.4837 20.5875 37.4873 20.6077 37.4897 20.621L37.4902 20.6237C37.4883 20.625 37.4871 20.6276 37.4849 20.629L37.1551 20.8375L36.8254 21.045C36.7079 21.1191 36.5617 21.1558 36.3598 21.1296L35.4814 21.0156C35.1531 20.973 34.8242 20.9692 34.4957 21.004L33.6164 21.0966C33.3618 21.1236 33.1074 21.119 32.8523 21.0824L32.4126 21.0192L31.973 20.9568C31.6471 20.9101 31.3202 20.8991 30.9936 20.9247L30.5548 20.9595L30.1151 20.9933C29.8473 21.0143 29.5796 21.0141 29.3118 20.9915L28.6505 20.9354L28.6889 20.8339L28.8149 20.4999C28.895 20.2875 28.9904 20.0587 29.1009 19.8141L29.4422 19.0579C29.5447 18.831 29.6702 18.6069 29.8202 18.3863L30.0669 18.0247L30.3126 17.6631C30.4274 17.4944 30.5799 17.3668 30.78 17.2774L31.6057 16.9087Z" fill="#111111"/>
<path d="M96.6392 11.904C96.9854 11.8626 97.3284 11.8798 97.6651 11.9574L98.0914 12.0563L98.5176 12.1543C98.7265 12.2024 98.9336 12.301 99.086 12.4838C99.2405 12.6695 99.2982 12.8934 99.2977 13.1108L99.296 13.9356C99.2953 14.2675 99.2327 14.5976 99.1146 14.9234L98.9617 15.3447L98.8098 15.766C98.7104 16.0401 98.6507 16.2373 98.6231 16.3663L98.5712 16.605L98.5203 16.8446C98.4867 17.0011 98.4058 17.1251 98.304 17.2204L98.2746 17.4386C98.2284 17.408 98.1716 17.382 98.1065 17.3567C97.9556 17.4341 97.7853 17.475 97.6177 17.4948L96.7027 17.6034C96.4299 17.6356 96.1749 17.6942 95.9368 17.7789L95.5284 17.9249L95.1192 18.0701C94.8381 18.1701 94.5517 18.2624 94.2604 18.3471L93.8359 18.4709L93.4114 18.5938C93.2092 18.6528 93.0356 18.7594 92.8851 18.9198L92.5777 19.2485L92.2694 19.5772C92.1182 19.7384 92.0192 19.9214 91.9691 20.1329L91.8673 20.5676L91.7645 21.0022C91.6969 21.2879 91.633 21.5748 91.5733 21.8617L91.4821 22.2982L91.3919 22.7346C91.342 22.974 91.3347 23.2119 91.3695 23.4507L91.4964 24.3262C91.5397 24.623 91.5784 24.9201 91.6117 25.2169L91.71 26.0925C91.7457 26.4108 91.7531 26.7295 91.7323 27.0481L91.6751 27.9237C91.6565 28.208 91.6448 28.4926 91.6403 28.7769L91.626 29.6525C91.6217 29.9205 91.6386 30.1889 91.676 30.4577L91.7368 30.8959L91.7985 31.3341C91.8512 31.7129 91.7903 32.0833 91.5545 32.3886L91.1273 32.9426C91.1236 32.9475 91.1186 32.9513 91.1148 32.956V33.0237H91.055C90.7893 33.3044 90.4239 33.384 90.0532 33.3363L89.1748 33.2241C88.9313 33.1928 88.6879 33.2004 88.4429 33.2481L88.0032 33.3336L87.5645 33.42C87.2765 33.4762 87.0218 33.5136 86.8469 33.5047L86.6807 33.4958L86.5136 33.4877C86.1976 33.4713 86.0421 33.2326 85.9836 33.0727C85.9282 32.9207 85.9161 32.7443 85.9175 32.5819L85.9247 31.7064C85.9272 31.4128 85.9313 31.1191 85.9372 30.8255L85.955 29.95C85.9611 29.648 85.977 29.346 86.0033 29.0442L86.0801 28.1686C86.1049 27.8851 86.1212 27.6014 86.1302 27.318L86.1445 26.8807L86.1579 26.4425C86.1665 26.1691 86.1584 25.8957 86.1338 25.6222L86.0551 24.7466C86.0279 24.4448 86.0112 24.1428 86.0042 23.8408L85.9935 23.4026L85.9836 22.9653C85.9768 22.6683 85.975 22.3707 85.9783 22.0737L85.9827 21.6364L85.9881 21.1982C85.9915 20.8908 86.0102 20.5834 86.0453 20.2763L86.1454 19.4008C86.1772 19.1219 86.1968 18.8431 86.2044 18.5645L86.2169 18.1262L86.2285 17.6889C86.235 17.4482 86.2018 17.2048 86.1266 16.9577L85.8603 16.0821C85.7472 15.7102 85.74 15.3317 85.8398 14.9572L85.9559 14.5199L86.073 14.0817C86.1375 13.8396 86.2276 13.5944 86.3706 13.4065V12.9291H86.8844C87.0841 12.7788 87.356 12.689 87.6324 12.6272L88.072 12.5283L88.5108 12.4304C88.8662 12.3509 89.2242 12.3475 89.5805 12.4197L90.0201 12.5087L90.4589 12.5969C90.8462 12.6753 91.1956 12.8771 91.3597 13.2667L91.4902 13.5776L91.6206 13.8875C91.7543 14.2054 91.7572 14.5557 91.6796 14.9091L91.6322 15.1211L91.6483 15.0801L91.8038 14.6633C91.9476 14.2787 92.2108 13.984 92.5777 13.7976L93.3721 13.3941C93.611 13.2727 93.8347 13.1308 94.0432 12.9683L94.3909 12.6976L94.7385 12.4259C95.0366 12.1937 95.3788 12.0541 95.7554 12.0091L96.6392 11.904Z" fill="#111111"/>
<path d="M77.6542 3.36952C77.8277 3.32945 78.1451 3.28845 78.386 3.51025C78.6368 3.74151 78.6039 4.06772 78.5666 4.24238L78.3789 5.11792C78.3215 5.38592 78.2863 5.65307 78.2734 5.91952L78.2529 6.35774L78.2314 6.79506C78.2192 7.05001 78.238 7.30601 78.2877 7.56282L78.3717 8.00014L78.4566 8.43836C78.5148 8.73897 78.5644 9.03974 78.6041 9.34061L78.6613 9.77882L78.7194 10.2161C78.7647 10.5598 78.7506 10.9041 78.6783 11.2458L78.4924 12.1213C78.4837 12.1625 78.4829 12.1887 78.4835 12.2032C78.4868 12.2051 78.4907 12.208 78.496 12.2104L79.2037 12.5328C79.3564 12.6022 79.5381 12.6327 79.7613 12.6103L80.201 12.5658L80.6398 12.5221C80.9553 12.4904 81.2471 12.4863 81.511 12.515L82.1839 12.588C82.4018 12.6117 82.6036 12.7074 82.7532 12.8846C82.8933 13.0507 82.9588 13.2544 82.9873 13.4502L83.0517 13.8875L83.1151 14.3257C83.1583 14.6224 83.1971 14.9196 83.2304 15.2164L83.2795 15.6537L83.3278 16.0919C83.3521 16.309 83.3241 16.5551 83.1651 16.7635C83.0059 16.9722 82.775 17.0649 82.5584 17.0993L82.1223 17.1688L81.6862 17.2373C81.3698 17.2875 81.0519 17.3109 80.7327 17.3059L79.8534 17.2917C79.5871 17.2875 79.4127 17.3144 79.3083 17.3505L79.0446 17.4422L78.7944 17.5286L78.7909 17.5339C78.7744 17.5584 78.7456 17.6153 78.722 17.7254L78.6291 18.1637L78.5353 18.601C78.4755 18.8808 78.4276 19.1607 78.3914 19.44L78.3342 19.8782L78.2779 20.3155C78.2465 20.5582 78.255 20.8008 78.3029 21.045L78.4745 21.9205C78.5346 22.2267 78.5798 22.5338 78.6095 22.8406L78.6935 23.7161C78.7237 24.0288 78.7327 24.342 78.7194 24.6549L78.6818 25.5304C78.6682 25.8504 78.6249 26.1699 78.5523 26.4879L78.3521 27.3634C78.2986 27.5978 78.2923 27.8294 78.3315 28.0617L78.4048 28.4999L78.479 28.9373C78.5295 29.2363 78.5728 29.5359 78.6086 29.8351L78.6613 30.2724L78.7131 30.7106C78.7537 31.0504 78.7408 31.3906 78.6738 31.7286L78.5871 32.166L78.4995 32.6042C78.4586 32.8102 78.3706 33.0213 78.1957 33.1805C78.0142 33.3454 77.7902 33.4089 77.5702 33.4085L76.7829 33.4067C76.4992 33.406 76.2023 33.3846 75.8928 33.3443L75.4532 33.2873L75.0144 33.2294C74.7541 33.1955 74.5427 33.1985 74.3746 33.2268L74.0377 33.2829L73.7017 33.3399C73.5917 33.3584 73.5179 33.3729 73.4747 33.3826L73.4676 33.3842C73.4505 33.3881 73.4501 33.3882 73.4586 33.3853C73.464 33.3835 73.4905 33.3747 73.522 33.3568C73.5382 33.3476 73.5782 33.3235 73.6195 33.2811C73.6328 33.2673 73.6516 33.2432 73.6722 33.2116C73.4396 33.3987 72.9723 33.3285 72.8536 33.143C72.8446 33.1106 72.8363 33.0653 72.8349 33.0531C72.8332 33.0374 72.8322 33.0237 72.8322 33.0237V32.9809C72.8323 32.9653 72.8328 32.9399 72.8331 32.9052L72.8357 32.5819L72.8429 31.7064C72.8454 31.4128 72.8504 31.1191 72.8563 30.8255L72.8643 30.3882L72.8733 29.95C72.8794 29.648 72.8961 29.346 72.9224 29.0442L72.9609 28.6059L72.9984 28.1686C73.0231 27.8851 73.0404 27.6014 73.0493 27.318L73.0627 26.8807L73.077 26.4425C73.0857 26.1692 73.0775 25.8957 73.0529 25.6222L72.9743 24.7466C72.9471 24.4448 72.9294 24.1428 72.9224 23.8408L72.9028 22.9653C72.8959 22.6683 72.8941 22.3707 72.8974 22.0737L72.9063 21.1982C72.9097 20.8908 72.9294 20.5834 72.9644 20.2763L73.0645 19.4008C73.0963 19.1219 73.1159 18.8431 73.1235 18.5645L73.1467 17.6889C73.1472 17.6699 73.1442 17.6554 73.1432 17.6444L73.1378 17.6435L72.7383 17.5749L72.338 17.5054C72.0567 17.4569 71.7637 17.3917 71.4596 17.3113L71.0199 17.1955L70.5811 17.0788C70.3806 17.0257 70.1559 16.9373 69.9851 16.7822H69.7322V16.3547L69.6768 16.1676L69.6062 15.9263C69.5544 15.751 69.4948 15.5134 69.4284 15.2182L69.2318 14.3426C69.1473 13.9671 69.1825 13.5185 69.5865 13.2551L69.7322 13.1598V12.9291H70.087L70.1021 12.9193C70.3335 12.7686 70.6208 12.662 70.943 12.5853L71.3827 12.4811L71.8215 12.376C72.089 12.3125 72.2826 12.2388 72.4148 12.1641L72.6874 12.01L72.9609 11.8559C72.9689 11.8513 72.979 11.8442 72.9912 11.8203C73.006 11.7912 73.0256 11.7332 73.0323 11.6305L73.0895 10.755C73.1055 10.51 73.084 10.2634 73.0243 10.0149L72.8134 9.13932C72.7261 8.7756 72.7286 8.40861 72.8205 8.04557L72.9323 7.60825L73.0431 7.17003C73.0991 6.94886 73.1003 6.73121 73.0484 6.51093L72.8429 5.6354C72.7937 5.42668 72.7881 5.19816 72.8786 4.98075C72.9716 4.75795 73.1424 4.60194 73.3389 4.50068L73.7026 4.31274L74.0663 4.1257C74.3608 3.97395 74.6816 3.87877 75.0233 3.83712L75.8991 3.73024C76.174 3.69672 76.456 3.64631 76.7445 3.57972L77.6542 3.36952Z" fill="#111111"/>
</svg>
