<svg width="1080" height="1080" viewBox="0 0 1080 1080" fill="none" xmlns="http://www.w3.org/2000/svg">
<g filter="url(#filter0_d_700_12)">
<g clip-path="url(#clip0_700_12)">
<rect x="110.453" y="109.453" width="918.547" height="918.547" rx="176.518" fill="#CAF1F5"/>
<path d="M634.025 251.828C859.773 251.828 1042.78 434.833 1042.78 660.582V1041.78H96.6743L96.6743 660.581C96.6746 434.833 279.68 251.828 505.428 251.828H634.025Z" fill="#00A384" stroke="#12544B" stroke-width="27.5564"/>
<path d="M250.785 525.52H477.007V623.153C477.007 638.935 464.213 651.728 448.432 651.728H279.361C263.579 651.728 250.785 638.935 250.785 623.153V525.52Z" fill="#FCFCFC"/>
<path d="M662.747 527.902H888.969V625.534C888.969 641.316 876.175 654.11 860.393 654.11H691.322C675.541 654.11 662.747 641.316 662.747 625.534V527.902Z" fill="#FCFCFC"/>
<circle cx="362.705" cy="592.198" r="52.3882" fill="#111111"/>
<circle cx="774.669" cy="592.198" r="52.3882" fill="#111111"/>
<path d="M243.643 518.376C352.496 517.759 406.958 516.83 486.533 513.614" stroke="#111111" stroke-width="38.1005" stroke-linecap="round"/>
<path d="M896.113 518.377C787.26 517.76 732.797 516.831 653.222 513.615" stroke="#111111" stroke-width="38.1005" stroke-linecap="round"/>
<path d="M693.705 794.605C583.785 793.679 528.788 792.285 448.433 787.461" stroke="#00826A" stroke-width="33.3379" stroke-linecap="round"/>
<path d="M243.643 661.254C334.72 652.085 386.711 651.379 481.771 661.254" stroke="#00826A" stroke-width="23.8128" stroke-linecap="round"/>
<path d="M655.604 666.016C746.682 644.621 798.673 642.974 893.732 666.016" stroke="#00826A" stroke-width="23.8128" stroke-linecap="round"/>
</g>
</g>
<path d="M127.045 72.7367C133.317 84.898 128.3 99.7461 115.828 105.874C103.357 112.002 88.1838 107.099 81.8878 94.9146C75.5918 82.7297 80.6334 67.8816 93.1049 61.7538C105.576 55.626 120.774 60.5518 127.045 72.7367Z" fill="white"/>
<path d="M104.468 40.5635C112.584 40.5474 120.559 42.7396 127.501 46.918C133.407 50.4727 138.374 55.3514 141.995 61.1533C159.381 62.524 176.163 68.466 190.043 78.502L190.783 79.043L190.794 79.0508C202.855 87.9887 213.367 98.3316 222.938 107.729L226.5 111.226C230.034 114.687 233.504 118.047 237.071 121.31C244.984 128.547 253.131 135.398 261.842 140.693L262.687 141.201L262.693 141.205C269.672 145.357 275.461 148.649 281.849 152.188L283.469 153.094C291.321 157.54 299.456 163 305.842 170.573L306.496 171.364L306.498 171.366C322.026 190.518 326.286 210.703 321.722 231.039L321.718 231.056L321.714 231.071C318.851 243.64 314.405 260.565 301.926 278.936C289.456 297.293 269.425 316.444 236.294 334.585L236.295 334.586C164.788 373.754 96.9482 367.47 63.8164 338.069L63.3994 337.699L63.0234 337.287C51.0199 324.093 45.5502 309.67 44.1162 294.861C42.296 281.14 43.317 266.59 44.127 256.069C44.2924 253.898 44.4341 251.869 44.5518 250.029C45.7087 231.493 44.5327 212.568 43.3438 193.509L43.3447 193.508C42.504 180.294 41.6135 166.277 41.5635 152.229C41.5101 141.158 43.3123 129.696 46.7939 119.869C50.2169 110.189 56.877 101.043 62.0107 94.8779C56.7685 75.4615 65.8215 54.4627 84.7471 45.1523C90.8707 42.13 97.6541 40.5677 104.44 40.5635V40.5625C104.445 40.5625 104.45 40.5635 104.455 40.5635C104.459 40.5635 104.464 40.5625 104.468 40.5625V40.5635Z" fill="#FCC21B" stroke="white" stroke-width="20.8761"/>
<path d="M247.252 198.379C221.224 199.251 189.382 209.433 160.121 225.837C133.924 240.543 112.913 258.526 100.248 276.462C89.1519 292.347 86.0401 306.606 91.4195 315.797C97.0883 325.413 114.047 331.588 135.805 331.918C160.097 332.342 188.055 325.602 212.974 313.252C239.316 300.219 261.725 281.387 275.934 260.129C288.574 241.274 292.675 223.197 286.62 212.143C281.41 202.598 267.322 197.72 247.252 198.379" fill="#FE6B03"/>
<mask id="mask0_700_12" style="mask-type:luminance" maskUnits="userSpaceOnUse" x="88" y="198" width="202" height="134">
<path d="M247.252 198.379C221.224 199.251 189.382 209.432 160.121 225.836C133.924 240.542 112.913 258.525 100.248 276.461C89.1519 292.346 86.0401 306.605 91.4195 315.796C97.0883 325.412 114.047 331.587 135.805 331.917C160.097 332.342 188.055 325.601 212.974 313.251C239.316 300.218 261.725 281.387 275.934 260.128C288.574 241.273 292.675 223.196 286.62 212.143C281.41 202.597 267.322 197.719 247.252 198.379" fill="white"/>
</mask>
<g mask="url(#mask0_700_12)">
<path d="M230.364 218.696C240.664 238.705 232.414 263.122 211.91 273.186C191.406 283.273 166.439 275.213 156.09 255.179C145.79 235.17 154.016 210.753 174.52 200.666C195.048 190.578 220.015 198.662 230.364 218.696" fill="#FCC21B"/>
<mask id="mask1_700_12" style="mask-type:luminance" maskUnits="userSpaceOnUse" x="151" y="196" width="84" height="82">
<path d="M230.364 218.696C240.664 238.705 232.414 263.122 211.91 273.186C191.406 283.273 166.439 275.213 156.09 255.179C145.79 235.17 154.016 210.753 174.52 200.666C195.048 190.578 220.015 198.662 230.364 218.696" fill="white"/>
</mask>
<g mask="url(#mask1_700_12)">
<path d="M213.402 196.073C222.062 198.949 227.176 209.154 227.49 214.033C213.04 206.679 192.536 213.066 178.955 224.709C165.832 235.975 159.874 253.109 161.273 262.89C146.317 256.974 141.034 229.399 152.251 221.197L213.402 196.073Z" fill="#FE6B03"/>
</g>
</g>
<mask id="mask2_700_12" style="mask-type:luminance" maskUnits="userSpaceOnUse" x="88" y="198" width="202" height="134">
<path d="M247.252 198.379C221.224 199.251 189.382 209.432 160.121 225.836C133.924 240.542 112.913 258.525 100.248 276.461C89.1519 292.346 86.0401 306.605 91.4195 315.796C97.0883 325.412 114.047 331.587 135.805 331.917C160.097 332.342 188.055 325.601 212.974 313.251C239.316 300.218 261.725 281.387 275.934 260.128C288.574 241.273 292.675 223.196 286.62 212.143C281.41 202.597 267.322 197.719 247.252 198.379" fill="white"/>
</mask>
<g mask="url(#mask2_700_12)">
<path d="M192.165 264.074C198.568 260.928 201.149 253.305 197.929 247.049C194.709 240.793 186.907 238.271 180.504 241.417C174.1 244.563 171.52 252.186 174.74 258.442C177.96 264.698 185.761 267.22 192.165 264.074Z" fill="white"/>
</g>
<path d="M96.8448 69.0528C99.2329 67.8744 101.79 67.2852 104.443 67.2852C107.603 67.2852 110.595 68.1572 113.176 69.6656C114.068 70.3491 114.696 71.2919 114.165 72.4703C113.803 73.3423 112.886 73.8372 111.873 74.2379C107.169 75.5106 102.634 77.184 98.3163 79.2108C96.7724 79.8708 95.2768 80.6014 93.8053 81.167C91.4895 82.0626 88.7878 83.736 88.5225 80.2243C88.5225 80.0122 88.6431 78.7866 88.8602 77.6553C90.3075 74.0494 93.0334 70.9148 96.8448 69.0528Z" fill="#FE6B03"/>
<path d="M99.0645 170.427C89.2707 138.563 88.6918 118.082 92.5996 104.011C93.1062 102.22 92.865 99.9811 90.7422 101.631C86.3277 105.072 79.0186 111.27 75.8585 116.55C74.966 118.011 74.4594 119.566 74.0734 121.193C74.0734 121.193 68.477 138.28 72.6502 160.929C76.5339 182.164 82.9023 214.123 76.0515 253.836C75.5931 256.499 75.6896 260.482 77.6918 258.172C82.7335 252.422 92.7444 241.085 101.187 232.412C101.67 231.917 102.948 229.961 103.334 228.099C104.926 220.675 107.942 199.346 99.0645 170.427Z" fill="white"/>
<defs>
<filter id="filter0_d_700_12" x="110.453" y="109.453" width="957.774" height="957.773" filterUnits="userSpaceOnUse" color-interpolation-filters="sRGB">
<feFlood flood-opacity="0" result="BackgroundImageFix"/>
<feColorMatrix in="SourceAlpha" type="matrix" values="0 0 0 0 0 0 0 0 0 0 0 0 0 0 0 0 0 0 127 0" result="hardAlpha"/>
<feOffset dx="39.2262" dy="39.2262"/>
<feComposite in2="hardAlpha" operator="out"/>
<feColorMatrix type="matrix" values="0 0 0 0 0 0 0 0 0 0 0 0 0 0 0 0 0 0 0.25 0"/>
<feBlend mode="normal" in2="BackgroundImageFix" result="effect1_dropShadow_700_12"/>
<feBlend mode="normal" in="SourceGraphic" in2="effect1_dropShadow_700_12" result="shape"/>
</filter>
<clipPath id="clip0_700_12">
<rect x="110.453" y="109.453" width="918.547" height="918.547" rx="176.518" fill="white"/>
</clipPath>
</defs>
</svg>
