<svg width="125" height="284" viewBox="0 0 125 284" fill="none" xmlns="http://www.w3.org/2000/svg">
<path d="M-15.6673 53.6822C-9.33376 31.3247 -14.5722 14.9497 -20.4887 8.81073L-41.7627 80.2565C-36.9212 89.7793 -21.2993 95.7778 -14.0935 97.5867C6.39055 102.07 22.7956 89.0416 28.4377 81.9671C34.3281 78.4683 44.1431 60.8851 48.3143 52.5308C54.1172 42.5411 58.8711 37.9969 60.5227 36.9735C73.8675 32.866 75.9281 42.9075 75.2904 48.4418C76.4121 52.8163 68.5137 59.8923 64.4242 62.8835C53.1959 68.0253 45.0334 80.5112 42.3557 86.1114C34.6344 101.187 35.5345 113.543 36.9497 117.836C37.8876 132.257 48.3567 148.507 54.691 154.938C59.5073 161.423 79.6545 173.483 89.3296 179.394C92.9809 183.007 90.9973 187.972 88.8864 189.364C81.7394 195.317 68.3194 191.153 61.5741 187.797C52.5506 183.09 36.1889 176.366 27.6078 174.653C5.67877 170.951 -8.83735 181.141 -13.3543 186.699C-20.9559 196.052 -22.9775 206.057 -25.1771 209.442L-42.9712 236.973L-13.3542 283.357C16.4787 261.934 55.9033 264.404 75.7865 267.134C84.1902 268.288 87.8886 264.473 83.1405 257.444C80.0732 252.903 76.4495 249.103 74.2144 247.119C63.1738 235.346 47.1212 231.812 40.4749 231.516C27.7537 232.173 21.7897 231.508 20.3979 231.094C15.8336 230.139 11.7178 226.321 10.2304 224.531C7.06325 217.527 11.1472 211.841 13.585 209.873C17.0985 204.858 37.8113 213.888 47.7286 219.029C64.8097 228.156 79.9243 227.943 85.3465 226.695C120.422 220.169 126.109 192.703 124.568 179.786C124.566 160.795 108.291 148.507 100.154 144.738C93.0628 141.414 84.8801 134.97 81.6751 132.164C61.2684 111.138 75.8346 95.2386 85.6685 89.9174C95.3018 84.7047 102.48 73.0369 104.865 67.8546C121.965 32.1369 96.2913 9.57574 81.3168 2.75988C59.0083 -5.09499 41.8969 5.66904 36.1298 12.0329C27.831 16.8348 18.493 33.3816 14.8614 41.0547C7.91365 53.5319 3.67634 58.2636 2.42615 59.0698C-9.75726 68.7758 -15.3913 61.8454 -15.6673 53.6822Z" fill="#CAE4F5"/>
</svg>
