<svg width="142" height="215" viewBox="0 0 142 215" fill="none" xmlns="http://www.w3.org/2000/svg">
<path d="M113.104 203.18C133.766 185.008 151.081 175.01 163.457 169.923C173.979 165.598 184.647 159.112 190.122 149.14C199.307 132.41 190.581 112.008 171.646 114.406C161.538 115.686 152.381 118.236 145.883 120.617C142.84 121.732 140.076 123.505 137.563 125.552C85.4148 168.032 63.4912 166.672 59.0208 160.476C36.438 126.511 75.9237 98.3966 98.4894 88.5848C131.598 73.0354 147.692 46.3148 154.219 26.7585C157.347 17.3852 152.173 7.84813 143.511 3.09266C127.007 -5.96857 104.359 6.18132 95.3002 22.6872C94.2774 24.5506 93.2593 26.2774 92.2798 27.8433C89.6522 32.0439 85.5525 35.0076 81.0382 37.0499C46.1398 52.8386 24.3277 74.4589 16.0171 85.654C14.8797 87.1862 13.9451 88.9434 13.1933 90.6973C-36.5317 206.701 67.3535 230.201 108.898 206.303C110.417 205.429 111.788 204.337 113.104 203.18Z" fill="#CCF5CA"/>
</svg>
