<svg width="144" height="224" viewBox="0 0 144 224" fill="none" xmlns="http://www.w3.org/2000/svg">
<path d="M87.7008 89.198C81.0563 170.334 15.336 206.409 -16.6937 214.305L-15.0386 183.493C42.4158 164.194 58.486 114.872 59.3393 92.6237C13.8193 86.8068 4.14098 57.0274 4.99185 42.8647C6.56903 18.1043 24.3259 9.74337 33.0072 8.65798C69.1777 0.941465 84.0856 38.9182 87.0182 58.8711C102.889 49.3337 110.361 34.1927 113.412 21.9474C115.302 14.3656 121.925 7.97973 129.723 8.47644C137.083 8.94525 142.746 15.3537 141.359 22.5971C133.283 64.7834 103.109 84.4595 87.7008 89.198Z" fill="#FCDFCA"/>
<path d="M35.1526 52.2377C44.2453 62.0764 55.8308 64.8121 60.4869 64.9501C60.0421 52.6181 53.1303 42.02 49.7299 38.2624C41.9726 32.5678 35.9802 35.2197 33.9537 37.2575C29.6705 42.6925 32.9683 49.5089 35.1526 52.2377Z" fill="#FCFCFC"/>
</svg>
