<svg width="176" height="447" viewBox="0 0 176 447" fill="none" xmlns="http://www.w3.org/2000/svg">
<path d="M215.861 67.8488C198.722 74.405 179.486 68.3577 171.151 63.7415L174.079 31.8708L177.007 7.76527e-05L279.577 13.5395L277.019 34.5514C277.23 63.2359 267.128 80.7327 262.051 85.8955C245.622 113.463 208.481 117.281 191.964 115.744C177.181 111.896 155.926 110.502 147.146 110.286C125.131 112.155 93.3054 117.876 91.5201 121.355C94.2893 132.609 145.958 139.426 160.071 140.576C199.384 146.955 216.567 173.138 220.245 185.433C238.223 229.245 220.574 272.946 209.501 289.32C188.529 320.202 154.626 318.746 140.296 314.158C117.488 310.016 88.6281 288.912 77.0495 278.878C49.6248 260.755 40.3245 270.331 39.1025 277.385C33.9516 289.268 50.9328 295.789 60.0672 297.565C76.8645 300.975 89.8215 307.443 94.2003 310.251C125.415 325.879 138.795 360.034 141.584 375.157C148.598 398.074 190.559 436.512 186.222 446.787L165.423 444.255C133.736 418.804 86.6447 383.353 80.2953 353.194C47.8253 347.875 13.1375 319.145 7.9626 311.691C-10.9162 275.275 8.15951 246.702 20.0572 236.968C45.3294 217.3 80.5102 231.819 94.9415 241.537C114.825 258.97 135.888 269.837 143.935 273.091C174.107 286.546 185.724 254.961 187.761 237.487C190.579 210.763 182.285 195.974 177.786 191.919C173.101 185.663 151.826 180.703 141.774 179.005C111.205 175.965 69.5653 160.002 63.9417 153.251C37.3775 120.903 57.7524 93.7395 71.2603 84.2013C98.6831 62.9758 167.843 68.5482 187.62 73.1361C209.866 76.5273 220.606 72.1299 223.195 69.5072C227.529 66.3983 230.598 62.5937 232.716 58.519C225.811 62.6501 219.807 65.8887 215.861 67.8488Z" fill="#FECFCF"/>
</svg>
